%TF.GenerationSoftware,KiCad,Pcbnew,9.0.2*%
%TF.CreationDate,2025-06-23T16:33:29+08:00*%
%TF.ProjectId,SDEX2M2 MicroSD Express to M.2 NVMe Adapter for Switch 2 WIP,53444558-324d-4322-904d-6963726f5344,rev?*%
%TF.SameCoordinates,Original*%
%TF.FileFunction,Copper,L1,Top*%
%TF.FilePolarity,Positive*%
%FSLAX46Y46*%
G04 Gerber Fmt 4.6, Leading zero omitted, Abs format (unit mm)*
G04 Created by KiCad (PCBNEW 9.0.2) date 2025-06-23 16:33:29*
%MOMM*%
%LPD*%
G01*
G04 APERTURE LIST*
%TA.AperFunction,SMDPad,CuDef*%
%ADD10R,0.800000X2.900000*%
%TD*%
%TA.AperFunction,SMDPad,CuDef*%
%ADD11R,0.800000X3.200000*%
%TD*%
%TA.AperFunction,SMDPad,CuDef*%
%ADD12R,0.760000X1.670000*%
%TD*%
%TA.AperFunction,SMDPad,CuDef*%
%ADD13R,0.760000X1.370000*%
%TD*%
%TA.AperFunction,ComponentPad*%
%ADD14R,1.350000X1.350000*%
%TD*%
%TA.AperFunction,ComponentPad*%
%ADD15C,1.350000*%
%TD*%
%TA.AperFunction,ViaPad*%
%ADD16C,0.450000*%
%TD*%
%TA.AperFunction,ViaPad*%
%ADD17C,0.600000*%
%TD*%
%TA.AperFunction,Conductor*%
%ADD18C,0.200000*%
%TD*%
%TA.AperFunction,Conductor*%
%ADD19C,0.205232*%
%TD*%
%TA.AperFunction,Conductor*%
%ADD20C,0.400000*%
%TD*%
%TA.AperFunction,Conductor*%
%ADD21C,0.300000*%
%TD*%
%ADD22C,0.300000*%
%ADD23C,0.350000*%
G04 APERTURE END LIST*
D10*
%TO.P,J1,1,~{CLKREQ}/DAT2*%
%TO.N,/CLKREQ*%
X137760000Y-80510000D03*
%TO.P,J1,2,~{PERST}/DAT3/CD*%
%TO.N,/PERST*%
X138860000Y-80510000D03*
%TO.P,J1,3,CMD*%
%TO.N,/CMD*%
X139960000Y-80510000D03*
D11*
%TO.P,J1,4,3V3*%
%TO.N,/3.3V*%
X141060000Y-80360000D03*
D10*
%TO.P,J1,5,CLK*%
%TO.N,/CLK*%
X142160000Y-80510000D03*
D11*
%TO.P,J1,6,GND*%
%TO.N,GND*%
X143260000Y-80360000D03*
D10*
%TO.P,J1,7,REFCLK+/DAT0*%
%TO.N,/REFCLK+*%
X144360000Y-80510000D03*
%TO.P,J1,8,REFCLK-/DAT1*%
%TO.N,/REFCLK-*%
X145460000Y-80510000D03*
D12*
%TO.P,J1,9,1V8*%
%TO.N,unconnected-(J1-1V8-Pad9)*%
X138230000Y-83555000D03*
%TO.P,J1,10,GND*%
%TO.N,GND*%
X140270000Y-83555000D03*
D13*
%TO.P,J1,11,PCIe_TX+*%
%TO.N,/TX+*%
X141180000Y-83405000D03*
%TO.P,J1,12,PCIe_TX-*%
%TO.N,/TX-*%
X142090000Y-83405000D03*
%TO.P,J1,13,GND*%
%TO.N,GND*%
X143000000Y-83405000D03*
%TO.P,J1,14,PCIe_RX-*%
%TO.N,/RX-*%
X143910000Y-83405000D03*
%TO.P,J1,15,PCIe_RX+*%
%TO.N,/RX+*%
X144820000Y-83405000D03*
%TO.P,J1,16,GND*%
%TO.N,GND*%
X145730000Y-83405000D03*
D12*
%TO.P,J1,17,1V2*%
%TO.N,unconnected-(J1-1V2-Pad17)*%
X139360000Y-83555000D03*
%TD*%
D14*
%TO.P,J2,1,Pin_1*%
%TO.N,/CMD*%
X154450000Y-162150000D03*
D15*
%TO.P,J2,2,Pin_2*%
%TO.N,/CLK*%
X154450000Y-164150000D03*
%TD*%
D16*
%TO.N,/TX+*%
X145330000Y-119750000D03*
X142833400Y-90380000D03*
X134200000Y-132650000D03*
%TO.N,/TX-*%
X132914892Y-128811727D03*
X143486600Y-90380000D03*
X147340446Y-117819545D03*
%TO.N,/RX+*%
X145203200Y-88640000D03*
X153270000Y-120920000D03*
X143875000Y-131975000D03*
D17*
%TO.N,GND*%
X151750000Y-129300000D03*
X148600000Y-136000000D03*
X136810000Y-83960000D03*
X138460000Y-90810000D03*
D16*
X142100000Y-91120000D03*
D17*
X140270000Y-83555000D03*
X132850000Y-126600000D03*
D16*
X145940000Y-89430000D03*
X143460000Y-88590000D03*
D17*
X131150000Y-136000000D03*
X136110000Y-85060000D03*
X139300000Y-123730000D03*
D16*
X145810000Y-86960000D03*
D17*
X146690000Y-128110000D03*
X156000000Y-123630000D03*
X143000000Y-83405000D03*
X143950000Y-123760000D03*
X144002007Y-90853667D03*
X141250000Y-136350000D03*
X143260000Y-80360000D03*
X149960000Y-123650000D03*
X131300000Y-134400000D03*
X145600000Y-135750000D03*
X141000000Y-149400000D03*
X142500000Y-135850000D03*
X152100000Y-135700000D03*
X147830000Y-128110000D03*
X140020000Y-127950000D03*
X137930000Y-127980000D03*
X145730000Y-83405000D03*
X133550000Y-136250000D03*
X138980000Y-127960000D03*
X134900000Y-128450000D03*
D16*
X145970000Y-91900000D03*
D17*
X140150000Y-92050000D03*
D16*
%TO.N,/RX-*%
X144900000Y-128350000D03*
X144550000Y-88640000D03*
X152616800Y-120920000D03*
%TO.N,/REFCLK+*%
X143950000Y-134550000D03*
X133950000Y-134650000D03*
X144360000Y-80510000D03*
%TO.N,/REFCLK-*%
X150200000Y-129050000D03*
X145460000Y-80510000D03*
X134700000Y-134350000D03*
D17*
%TO.N,/PERST*%
X138000000Y-152100000D03*
X138860000Y-80510000D03*
X133600000Y-155500000D03*
%TO.N,/CLKREQ*%
X137760000Y-80510000D03*
%TO.N,/CMD*%
X149500000Y-158750000D03*
X139960000Y-80510000D03*
X136670000Y-130540000D03*
%TO.N,/CLK*%
X142160000Y-80510000D03*
X143400000Y-130750000D03*
X149450000Y-164050000D03*
%TO.N,/3.3V*%
X133850000Y-149900000D03*
X145150000Y-149750000D03*
X131650000Y-153450000D03*
X151250000Y-151250000D03*
X141060000Y-81260000D03*
X145200000Y-151450000D03*
X141060000Y-80360000D03*
X142150000Y-128800000D03*
X132500000Y-150700000D03*
X138210000Y-93440000D03*
X148200000Y-150850000D03*
X131250000Y-149850000D03*
X148725000Y-149325000D03*
X147000000Y-152200000D03*
D16*
%TO.N,unconnected-(J1-1V8-Pad9)*%
X141785000Y-92190000D03*
X141080000Y-127970000D03*
X142650000Y-121560000D03*
%TD*%
D18*
%TO.N,/TX+*%
X133550000Y-132600000D02*
X133600000Y-132650000D01*
X133450000Y-128950000D02*
X133450000Y-132500000D01*
X134388310Y-123009888D02*
X137723198Y-119675000D01*
D19*
X142809336Y-89858142D02*
X142136197Y-89185003D01*
D18*
X134388310Y-128011690D02*
X133450000Y-128950000D01*
X134388310Y-127788310D02*
X134388310Y-123009888D01*
X133600000Y-132650000D02*
X134200000Y-132650000D01*
D19*
X141180000Y-84432501D02*
X141180000Y-83405000D01*
D18*
X134388310Y-127788310D02*
X134388310Y-128011690D01*
D19*
X142955783Y-90257617D02*
X142955783Y-90211696D01*
D18*
X145255000Y-119675000D02*
X145330000Y-119750000D01*
X137723198Y-119675000D02*
X145255000Y-119675000D01*
D19*
X141430784Y-84683285D02*
X141180000Y-84432501D01*
D18*
X133450000Y-132500000D02*
X133550000Y-132600000D01*
D19*
X142833400Y-90380000D02*
X142955783Y-90257617D01*
X141430784Y-87481985D02*
X141430784Y-84683285D01*
X142955783Y-90211696D02*
G75*
G03*
X142809330Y-89858148I-499983J-4D01*
G01*
X141430784Y-87481985D02*
G75*
G03*
X142136193Y-89185007I2408416J-15D01*
G01*
%TO.N,/TX-*%
X143486600Y-90380000D02*
X143364217Y-90257617D01*
X143364217Y-90257617D02*
X143364217Y-90211696D01*
D18*
X137536802Y-119225000D02*
X146745000Y-119225000D01*
X132914892Y-128811727D02*
X133938308Y-127788310D01*
D19*
X142090000Y-84432501D02*
X142090000Y-83405000D01*
X141839216Y-87481983D02*
X141839216Y-84683285D01*
X143098143Y-89569337D02*
X142425002Y-88896196D01*
D18*
X147280000Y-118690000D02*
X147280000Y-117879991D01*
X146745000Y-119225000D02*
X147280000Y-118690000D01*
D19*
X141839216Y-84683285D02*
X142090000Y-84432501D01*
D18*
X133938308Y-122823494D02*
X137536802Y-119225000D01*
X133938308Y-127788310D02*
X133938308Y-122823494D01*
X147280000Y-117879991D02*
X147340446Y-117819545D01*
D19*
X142425002Y-88896196D02*
G75*
G02*
X141839223Y-87481983I1414198J1414196D01*
G01*
X143098143Y-89569337D02*
G75*
G02*
X143364224Y-90211696I-642343J-642363D01*
G01*
D18*
%TO.N,/RX+*%
X151600321Y-122645000D02*
X153270000Y-120975321D01*
X146985000Y-124971397D02*
X146985000Y-123069069D01*
D19*
X145203200Y-88640000D02*
X145053616Y-88490416D01*
X145014217Y-88391996D02*
X145014217Y-88071696D01*
X145014217Y-88071696D02*
X145012437Y-87982399D01*
X144569216Y-87043303D02*
X144569216Y-84683285D01*
X144570679Y-87108936D02*
X144569216Y-87043303D01*
X144569216Y-84683285D02*
X144820000Y-84432501D01*
X144748143Y-87429337D02*
X144715662Y-87396856D01*
X144820000Y-84432501D02*
X144820000Y-83405000D01*
D18*
X146985000Y-123069069D02*
X147409069Y-122645000D01*
D19*
X145012437Y-87982399D02*
X144977593Y-87807236D01*
X144604655Y-87235730D02*
X144570679Y-87108936D01*
X144977593Y-87807236D02*
X144909247Y-87642237D01*
X145053616Y-88431395D02*
X145014217Y-88391996D01*
D18*
X147409069Y-122645000D02*
X151600321Y-122645000D01*
D19*
X144670290Y-87349408D02*
X144604655Y-87235730D01*
X144715662Y-87396856D02*
X144670290Y-87349408D01*
X144810023Y-87493743D02*
X144748143Y-87429337D01*
D18*
X145400000Y-126556397D02*
X146985000Y-124971397D01*
D19*
X145053616Y-88490416D02*
X145053616Y-88431395D01*
D18*
X153270000Y-120975321D02*
X153270000Y-120920000D01*
X145400000Y-130450000D02*
X145400000Y-126556397D01*
D19*
X144909247Y-87642237D02*
X144810023Y-87493743D01*
D18*
X143875000Y-131975000D02*
X145400000Y-130450000D01*
D20*
%TO.N,GND*%
X140270000Y-83555000D02*
X140270000Y-85520000D01*
X143000000Y-83402500D02*
X143000000Y-85337500D01*
X145730000Y-83405000D02*
X145730000Y-84910000D01*
D18*
%TO.N,/RX-*%
X144900000Y-126420000D02*
X146535000Y-124785000D01*
D19*
X143910000Y-84432501D02*
X143910000Y-83405000D01*
X144605783Y-88517617D02*
X144605783Y-88071696D01*
D18*
X144900000Y-128350000D02*
X144900000Y-126420000D01*
X146535000Y-122882673D02*
X147222673Y-122195000D01*
D19*
X144160784Y-84683285D02*
X143910000Y-84432501D01*
D18*
X147222673Y-122195000D02*
X151358603Y-122195000D01*
X152616800Y-120936803D02*
X152616800Y-120920000D01*
X151358603Y-122195000D02*
X152616800Y-120936803D01*
D19*
X144459336Y-87718142D02*
X144426857Y-87685663D01*
D18*
X146535000Y-124785000D02*
X146535000Y-122882673D01*
D19*
X144483400Y-88640000D02*
X144605783Y-88517617D01*
X144160784Y-87043305D02*
X144160784Y-84683285D01*
X144605783Y-88071696D02*
G75*
G03*
X144459330Y-87718148I-499983J-4D01*
G01*
X144426857Y-87685663D02*
G75*
G02*
X144160776Y-87043305I642343J642363D01*
G01*
D18*
%TO.N,/REFCLK+*%
X142150000Y-134550000D02*
X140800000Y-133200000D01*
X135950000Y-134250000D02*
X135549000Y-133849000D01*
X138700000Y-133200000D02*
X137650000Y-134250000D01*
X133950000Y-134150000D02*
X133950000Y-134650000D01*
X135549000Y-133849000D02*
X134251000Y-133849000D01*
X140800000Y-133200000D02*
X138700000Y-133200000D01*
X143950000Y-134550000D02*
X142150000Y-134550000D01*
X137650000Y-134250000D02*
X135950000Y-134250000D01*
X134251000Y-133849000D02*
X133950000Y-134150000D01*
%TO.N,/REFCLK-*%
X141950000Y-135050000D02*
X148950000Y-135050000D01*
X134700000Y-134350000D02*
X135350000Y-134350000D01*
X135350000Y-134350000D02*
X135650000Y-134650000D01*
X148950000Y-135050000D02*
X150200000Y-133800000D01*
X140500000Y-133600000D02*
X141950000Y-135050000D01*
X150200000Y-133800000D02*
X150200000Y-129050000D01*
X138900000Y-133600000D02*
X140500000Y-133600000D01*
X137850000Y-134650000D02*
X138900000Y-133600000D01*
X135650000Y-134650000D02*
X137850000Y-134650000D01*
%TO.N,/PERST*%
X134600000Y-155500000D02*
X138000000Y-152100000D01*
X133600000Y-155500000D02*
X134600000Y-155500000D01*
%TO.N,/CMD*%
X146800000Y-133550000D02*
X149250000Y-131100000D01*
X142200000Y-132350000D02*
X143400000Y-133550000D01*
X138200000Y-132350000D02*
X142200000Y-132350000D01*
X149250000Y-131100000D02*
X149250000Y-128050000D01*
X152650000Y-127550000D02*
X153900000Y-128800000D01*
X143400000Y-133550000D02*
X146800000Y-133550000D01*
X136670000Y-130540000D02*
X136670000Y-130820000D01*
X150450000Y-157800000D02*
X149500000Y-158750000D01*
X149250000Y-128050000D02*
X149750000Y-127550000D01*
X153900000Y-157800000D02*
X150450000Y-157800000D01*
X136670000Y-130820000D02*
X138200000Y-132350000D01*
X153900000Y-128800000D02*
X153900000Y-157800000D01*
X149750000Y-127550000D02*
X152650000Y-127550000D01*
%TO.N,/CLK*%
X143800000Y-133000000D02*
X142900000Y-132100000D01*
X150350000Y-159250000D02*
X151000000Y-158600000D01*
X154950000Y-129250000D02*
X152650000Y-126950000D01*
X150350000Y-160700000D02*
X150350000Y-159250000D01*
X142900000Y-131250000D02*
X143400000Y-130750000D01*
X149250000Y-126950000D02*
X148700000Y-127500000D01*
X154100000Y-158600000D02*
X154950000Y-157750000D01*
X151000000Y-158600000D02*
X154100000Y-158600000D01*
X142900000Y-132100000D02*
X142900000Y-131250000D01*
X152650000Y-126950000D02*
X149250000Y-126950000D01*
X146250000Y-133000000D02*
X143800000Y-133000000D01*
X148700000Y-130550000D02*
X146250000Y-133000000D01*
X149450000Y-161600000D02*
X150350000Y-160700000D01*
X154950000Y-157750000D02*
X154950000Y-129250000D01*
X148700000Y-127500000D02*
X148700000Y-130550000D01*
X149450000Y-164050000D02*
X149450000Y-161600000D01*
%TO.N,unconnected-(J1-1V8-Pad9)*%
X142650000Y-121560000D02*
X142650000Y-122240000D01*
X142650000Y-122240000D02*
X141080000Y-123810000D01*
D21*
X141785000Y-91785000D02*
X138230000Y-88230000D01*
X138230000Y-88230000D02*
X138230000Y-83555000D01*
X141785000Y-92190000D02*
X141785000Y-91785000D01*
D18*
X141080000Y-123810000D02*
X141080000Y-127970000D01*
%TD*%
%TA.AperFunction,Conductor*%
%TO.N,GND*%
G36*
X137098853Y-82401504D02*
G01*
X137102147Y-82401031D01*
X137121227Y-82405900D01*
X137125482Y-82406737D01*
X137126663Y-82407150D01*
X137252517Y-82454091D01*
X137264340Y-82455362D01*
X137277839Y-82460089D01*
X137334605Y-82500824D01*
X137360338Y-82565783D01*
X137357536Y-82605626D01*
X137355909Y-82612513D01*
X137349501Y-82672116D01*
X137349500Y-82672135D01*
X137349500Y-84437870D01*
X137349501Y-84437876D01*
X137355908Y-84497483D01*
X137406202Y-84632328D01*
X137406203Y-84632329D01*
X137406204Y-84632331D01*
X137492454Y-84747546D01*
X137529810Y-84775510D01*
X137571682Y-84831443D01*
X137579500Y-84874777D01*
X137579500Y-88294069D01*
X137579500Y-88294071D01*
X137579499Y-88294071D01*
X137603664Y-88415550D01*
X137604496Y-88419733D01*
X137604498Y-88419740D01*
X137604499Y-88419744D01*
X137653535Y-88538127D01*
X137724723Y-88644669D01*
X137724726Y-88644673D01*
X137724727Y-88644674D01*
X141035711Y-91955656D01*
X141069196Y-92016979D01*
X141069648Y-92067527D01*
X141059500Y-92118545D01*
X141059500Y-92261455D01*
X141059500Y-92261457D01*
X141059499Y-92261457D01*
X141087379Y-92401614D01*
X141087381Y-92401620D01*
X141142069Y-92533650D01*
X141142074Y-92533659D01*
X141221467Y-92652478D01*
X141221470Y-92652482D01*
X141322517Y-92753529D01*
X141322521Y-92753532D01*
X141441340Y-92832925D01*
X141441346Y-92832928D01*
X141441347Y-92832929D01*
X141573380Y-92887619D01*
X141573384Y-92887619D01*
X141573385Y-92887620D01*
X141713542Y-92915500D01*
X141713545Y-92915500D01*
X141856457Y-92915500D01*
X141950751Y-92896742D01*
X141996620Y-92887619D01*
X142128653Y-92832929D01*
X142247479Y-92753532D01*
X142348532Y-92652479D01*
X142427929Y-92533653D01*
X142482619Y-92401620D01*
X142510500Y-92261455D01*
X142510500Y-92118545D01*
X142510500Y-92118542D01*
X142482620Y-91978385D01*
X142482619Y-91978384D01*
X142482619Y-91978380D01*
X142482617Y-91978375D01*
X142444939Y-91887410D01*
X142435500Y-91839958D01*
X142435500Y-91720928D01*
X142410502Y-91595261D01*
X142410501Y-91595260D01*
X142410501Y-91595256D01*
X142361465Y-91476873D01*
X142361464Y-91476872D01*
X142361461Y-91476866D01*
X142290277Y-91370332D01*
X142290276Y-91370331D01*
X142199669Y-91279724D01*
X138916819Y-87996873D01*
X138883334Y-87935550D01*
X138880500Y-87909192D01*
X138880500Y-85014499D01*
X138900185Y-84947460D01*
X138952989Y-84901705D01*
X139004495Y-84890499D01*
X139787872Y-84890499D01*
X139804096Y-84888755D01*
X139830604Y-84888755D01*
X139842177Y-84889999D01*
X139842178Y-84890000D01*
X140701149Y-84890000D01*
X140701149Y-84891015D01*
X140765029Y-84906111D01*
X140813544Y-84956391D01*
X140827668Y-85013865D01*
X140827668Y-87568942D01*
X140827674Y-87569039D01*
X140827674Y-87629929D01*
X140835454Y-87708928D01*
X140856673Y-87924387D01*
X140856673Y-87924390D01*
X140914398Y-88214605D01*
X141000293Y-88497767D01*
X141113524Y-88771131D01*
X141113531Y-88771145D01*
X141253010Y-89032095D01*
X141417404Y-89278128D01*
X141605119Y-89506860D01*
X141649243Y-89550983D01*
X141649262Y-89551004D01*
X142115521Y-90017262D01*
X142149006Y-90078585D01*
X142144022Y-90148276D01*
X142142404Y-90152389D01*
X142135781Y-90168380D01*
X142135779Y-90168386D01*
X142107900Y-90308542D01*
X142107900Y-90308545D01*
X142107900Y-90451455D01*
X142107900Y-90451457D01*
X142107899Y-90451457D01*
X142135779Y-90591614D01*
X142135781Y-90591620D01*
X142190469Y-90723650D01*
X142190474Y-90723659D01*
X142269867Y-90842478D01*
X142269870Y-90842482D01*
X142370917Y-90943529D01*
X142370921Y-90943532D01*
X142489740Y-91022925D01*
X142489749Y-91022930D01*
X142519658Y-91035318D01*
X142621780Y-91077619D01*
X142621784Y-91077619D01*
X142621785Y-91077620D01*
X142761942Y-91105500D01*
X142761945Y-91105500D01*
X142904857Y-91105500D01*
X142999151Y-91086742D01*
X143045020Y-91077619D01*
X143112547Y-91049647D01*
X143182015Y-91042178D01*
X143207450Y-91049647D01*
X143237513Y-91062099D01*
X143274974Y-91077617D01*
X143274977Y-91077617D01*
X143274980Y-91077619D01*
X143274984Y-91077619D01*
X143274985Y-91077620D01*
X143415142Y-91105500D01*
X143415145Y-91105500D01*
X143558057Y-91105500D01*
X143652351Y-91086742D01*
X143698220Y-91077619D01*
X143830253Y-91022929D01*
X143949079Y-90943532D01*
X144050132Y-90842479D01*
X144129529Y-90723653D01*
X144184219Y-90591620D01*
X144212100Y-90451455D01*
X144212100Y-90308545D01*
X144212100Y-90308542D01*
X144184220Y-90168385D01*
X144184219Y-90168384D01*
X144184219Y-90168380D01*
X144129529Y-90036347D01*
X144129528Y-90036346D01*
X144129525Y-90036340D01*
X144050132Y-89917521D01*
X144050129Y-89917517D01*
X143949082Y-89816470D01*
X143949077Y-89816466D01*
X143946079Y-89814463D01*
X143944862Y-89813007D01*
X143944371Y-89812604D01*
X143944447Y-89812510D01*
X143901273Y-89760852D01*
X143895193Y-89743452D01*
X143890190Y-89724781D01*
X143890189Y-89724776D01*
X143814360Y-89541714D01*
X143814354Y-89541705D01*
X143814353Y-89541701D01*
X143715293Y-89370129D01*
X143715282Y-89370112D01*
X143690347Y-89337617D01*
X143594660Y-89212917D01*
X143594658Y-89212915D01*
X143594655Y-89212911D01*
X143524605Y-89142864D01*
X142854351Y-88472610D01*
X142848804Y-88466688D01*
X142736353Y-88338462D01*
X142726479Y-88325594D01*
X142633998Y-88187186D01*
X142625888Y-88173138D01*
X142552262Y-88023838D01*
X142546054Y-88008852D01*
X142492545Y-87851214D01*
X142488348Y-87835548D01*
X142465388Y-87720118D01*
X142455873Y-87672283D01*
X142453758Y-87656224D01*
X142442596Y-87485903D01*
X142442332Y-87477805D01*
X142442333Y-87408757D01*
X142442332Y-87408752D01*
X142442332Y-84984466D01*
X142462017Y-84917427D01*
X142478651Y-84896785D01*
X142500659Y-84874777D01*
X142572613Y-84802823D01*
X142652014Y-84665295D01*
X142652014Y-84665293D01*
X142656077Y-84658257D01*
X142657510Y-84659084D01*
X142695332Y-84612147D01*
X142761625Y-84590079D01*
X142766056Y-84590000D01*
X143233944Y-84590000D01*
X143300983Y-84609685D01*
X143343355Y-84658584D01*
X143343923Y-84658257D01*
X143345624Y-84661203D01*
X143346738Y-84662489D01*
X143347878Y-84665107D01*
X143347985Y-84665293D01*
X143347986Y-84665295D01*
X143395473Y-84747546D01*
X143427386Y-84802821D01*
X143427388Y-84802824D01*
X143521349Y-84896785D01*
X143554834Y-84958108D01*
X143557668Y-84984466D01*
X143557668Y-86970072D01*
X143557667Y-86970077D01*
X143557667Y-86985894D01*
X143557667Y-86991941D01*
X143557659Y-86991968D01*
X143557660Y-87142381D01*
X143583426Y-87338071D01*
X143583526Y-87338831D01*
X143634811Y-87530225D01*
X143710640Y-87713287D01*
X143710641Y-87713288D01*
X143710646Y-87713299D01*
X143809706Y-87884871D01*
X143809712Y-87884880D01*
X143809715Y-87884885D01*
X143930341Y-88042083D01*
X143946275Y-88058017D01*
X143979762Y-88119339D01*
X143974779Y-88189030D01*
X143961698Y-88214591D01*
X143907074Y-88296340D01*
X143907069Y-88296349D01*
X143852381Y-88428379D01*
X143852379Y-88428385D01*
X143824500Y-88568542D01*
X143824500Y-88568545D01*
X143824500Y-88711455D01*
X143824500Y-88711457D01*
X143824499Y-88711457D01*
X143852379Y-88851614D01*
X143852381Y-88851620D01*
X143907069Y-88983650D01*
X143907074Y-88983659D01*
X143986467Y-89102478D01*
X143986470Y-89102482D01*
X144087517Y-89203529D01*
X144087521Y-89203532D01*
X144206340Y-89282925D01*
X144206349Y-89282930D01*
X144236258Y-89295318D01*
X144338380Y-89337619D01*
X144338384Y-89337619D01*
X144338385Y-89337620D01*
X144478542Y-89365500D01*
X144478545Y-89365500D01*
X144621457Y-89365500D01*
X144715751Y-89346742D01*
X144761620Y-89337619D01*
X144829147Y-89309647D01*
X144898615Y-89302178D01*
X144924050Y-89309647D01*
X144954113Y-89322099D01*
X144991574Y-89337617D01*
X144991577Y-89337617D01*
X144991580Y-89337619D01*
X144991584Y-89337619D01*
X144991585Y-89337620D01*
X145131742Y-89365500D01*
X145131745Y-89365500D01*
X145274657Y-89365500D01*
X145368951Y-89346742D01*
X145414820Y-89337619D01*
X145546853Y-89282929D01*
X145665679Y-89203532D01*
X145766732Y-89102479D01*
X145846129Y-88983653D01*
X145900819Y-88851620D01*
X145928700Y-88711455D01*
X145928700Y-88568545D01*
X145928700Y-88568542D01*
X145900820Y-88428385D01*
X145900819Y-88428384D01*
X145900819Y-88428380D01*
X145846129Y-88296347D01*
X145846128Y-88296346D01*
X145846125Y-88296340D01*
X145766732Y-88177521D01*
X145766729Y-88177517D01*
X145665679Y-88076467D01*
X145662725Y-88074043D01*
X145661592Y-88072380D01*
X145661372Y-88072160D01*
X145661413Y-88072118D01*
X145643620Y-88045998D01*
X145624050Y-88018287D01*
X145623882Y-88017023D01*
X145623389Y-88016299D01*
X145617505Y-87983605D01*
X145617209Y-87976846D01*
X145619454Y-87942607D01*
X145614658Y-87918498D01*
X145614244Y-87909030D01*
X145614401Y-87908391D01*
X145614151Y-87906090D01*
X145613851Y-87890993D01*
X145600402Y-87844530D01*
X145597901Y-87834262D01*
X145596530Y-87827372D01*
X145572970Y-87708928D01*
X145565184Y-87649788D01*
X145557530Y-87631311D01*
X145553628Y-87611692D01*
X145529031Y-87561816D01*
X145525684Y-87554428D01*
X145515659Y-87530225D01*
X145474006Y-87429668D01*
X145454829Y-87373175D01*
X145443718Y-87356547D01*
X145436066Y-87338073D01*
X145436065Y-87338071D01*
X145402219Y-87293963D01*
X145397493Y-87287368D01*
X145328763Y-87184510D01*
X145325814Y-87180096D01*
X145299946Y-87133147D01*
X145281870Y-87114333D01*
X145267376Y-87092642D01*
X145243484Y-87071690D01*
X145237082Y-87065660D01*
X145231100Y-87059611D01*
X145230756Y-87059015D01*
X145208436Y-87036695D01*
X145208167Y-87036423D01*
X145191756Y-87005970D01*
X145175166Y-86975587D01*
X145175111Y-86975082D01*
X145175022Y-86974916D01*
X145175052Y-86974526D01*
X145172332Y-86949229D01*
X145172332Y-84984466D01*
X145192017Y-84917427D01*
X145208651Y-84896785D01*
X145230659Y-84874777D01*
X145302613Y-84802823D01*
X145382014Y-84665295D01*
X145382014Y-84665293D01*
X145386077Y-84658257D01*
X145387510Y-84659084D01*
X145425332Y-84612147D01*
X145491625Y-84590079D01*
X145496056Y-84590000D01*
X146135500Y-84590000D01*
X146202539Y-84609685D01*
X146248294Y-84662489D01*
X146259500Y-84714000D01*
X146259500Y-92920118D01*
X146259500Y-99412153D01*
X146258125Y-99448193D01*
X146259500Y-99451907D01*
X146259500Y-99455867D01*
X146272405Y-99487024D01*
X146274115Y-99491387D01*
X146285815Y-99522993D01*
X146289074Y-99528298D01*
X146289569Y-99529104D01*
X146313833Y-99553368D01*
X146317112Y-99556774D01*
X146340027Y-99581507D01*
X146340029Y-99581507D01*
X146345083Y-99585171D01*
X146345084Y-99585172D01*
X146345836Y-99585717D01*
X146377546Y-99598851D01*
X146381879Y-99600743D01*
X158227288Y-105045316D01*
X158279979Y-105091198D01*
X158299500Y-105157983D01*
X158299500Y-169745500D01*
X158279815Y-169812539D01*
X158227011Y-169858294D01*
X158175500Y-169869500D01*
X123724512Y-169869500D01*
X123657473Y-169849815D01*
X123611718Y-169797011D01*
X123600512Y-169745495D01*
X123600992Y-157319479D01*
X123601065Y-155421153D01*
X132799500Y-155421153D01*
X132799500Y-155578846D01*
X132830261Y-155733489D01*
X132830264Y-155733501D01*
X132890602Y-155879172D01*
X132890609Y-155879185D01*
X132978210Y-156010288D01*
X132978213Y-156010292D01*
X133089707Y-156121786D01*
X133089711Y-156121789D01*
X133220814Y-156209390D01*
X133220827Y-156209397D01*
X133366498Y-156269735D01*
X133366503Y-156269737D01*
X133521153Y-156300499D01*
X133521156Y-156300500D01*
X133521158Y-156300500D01*
X133678844Y-156300500D01*
X133678845Y-156300499D01*
X133833497Y-156269737D01*
X133979179Y-156209394D01*
X133979185Y-156209390D01*
X134110875Y-156121398D01*
X134177553Y-156100520D01*
X134179766Y-156100500D01*
X134513331Y-156100500D01*
X134513347Y-156100501D01*
X134520943Y-156100501D01*
X134679054Y-156100501D01*
X134679057Y-156100501D01*
X134831785Y-156059577D01*
X134881904Y-156030639D01*
X134968716Y-155980520D01*
X135080520Y-155868716D01*
X135080520Y-155868714D01*
X135090728Y-155858507D01*
X135090729Y-155858504D01*
X138014662Y-152934572D01*
X138075983Y-152901089D01*
X138078150Y-152900638D01*
X138136085Y-152889113D01*
X138233497Y-152869737D01*
X138379179Y-152809394D01*
X138510289Y-152721789D01*
X138621789Y-152610289D01*
X138709394Y-152479179D01*
X138769737Y-152333497D01*
X138800500Y-152178842D01*
X138800500Y-152021158D01*
X138800500Y-152021155D01*
X138800499Y-152021153D01*
X138770788Y-151871789D01*
X138769737Y-151866503D01*
X138769735Y-151866498D01*
X138709397Y-151720827D01*
X138709390Y-151720814D01*
X138621789Y-151589711D01*
X138621786Y-151589707D01*
X138510292Y-151478213D01*
X138510288Y-151478210D01*
X138379185Y-151390609D01*
X138379172Y-151390602D01*
X138233501Y-151330264D01*
X138233489Y-151330261D01*
X138078845Y-151299500D01*
X138078842Y-151299500D01*
X137921158Y-151299500D01*
X137921155Y-151299500D01*
X137766510Y-151330261D01*
X137766498Y-151330264D01*
X137620827Y-151390602D01*
X137620814Y-151390609D01*
X137489711Y-151478210D01*
X137489707Y-151478213D01*
X137378213Y-151589707D01*
X137378210Y-151589711D01*
X137290609Y-151720814D01*
X137290602Y-151720827D01*
X137230264Y-151866498D01*
X137230261Y-151866508D01*
X137199361Y-152021850D01*
X137166976Y-152083761D01*
X137165425Y-152085339D01*
X134387584Y-154863181D01*
X134360656Y-154877884D01*
X134334838Y-154894477D01*
X134328637Y-154895368D01*
X134326261Y-154896666D01*
X134299903Y-154899500D01*
X134179766Y-154899500D01*
X134112727Y-154879815D01*
X134110875Y-154878602D01*
X133979185Y-154790609D01*
X133979172Y-154790602D01*
X133833501Y-154730264D01*
X133833489Y-154730261D01*
X133678845Y-154699500D01*
X133678842Y-154699500D01*
X133521158Y-154699500D01*
X133521155Y-154699500D01*
X133366510Y-154730261D01*
X133366498Y-154730264D01*
X133220827Y-154790602D01*
X133220814Y-154790609D01*
X133089711Y-154878210D01*
X133089707Y-154878213D01*
X132978213Y-154989707D01*
X132978210Y-154989711D01*
X132890609Y-155120814D01*
X132890602Y-155120827D01*
X132830264Y-155266498D01*
X132830261Y-155266510D01*
X132799500Y-155421153D01*
X123601065Y-155421153D01*
X123601144Y-153371153D01*
X130849500Y-153371153D01*
X130849500Y-153528846D01*
X130880261Y-153683489D01*
X130880264Y-153683501D01*
X130940602Y-153829172D01*
X130940609Y-153829185D01*
X131028210Y-153960288D01*
X131028213Y-153960292D01*
X131139707Y-154071786D01*
X131139711Y-154071789D01*
X131270814Y-154159390D01*
X131270827Y-154159397D01*
X131416498Y-154219735D01*
X131416503Y-154219737D01*
X131571153Y-154250499D01*
X131571156Y-154250500D01*
X131571158Y-154250500D01*
X131728844Y-154250500D01*
X131728845Y-154250499D01*
X131883497Y-154219737D01*
X132029179Y-154159394D01*
X132160289Y-154071789D01*
X132271789Y-153960289D01*
X132359394Y-153829179D01*
X132419737Y-153683497D01*
X132450500Y-153528842D01*
X132450500Y-153371158D01*
X132450500Y-153371155D01*
X132450499Y-153371153D01*
X132419738Y-153216510D01*
X132419737Y-153216503D01*
X132419735Y-153216498D01*
X132359397Y-153070827D01*
X132359390Y-153070814D01*
X132271789Y-152939711D01*
X132271786Y-152939707D01*
X132160292Y-152828213D01*
X132160288Y-152828210D01*
X132029185Y-152740609D01*
X132029172Y-152740602D01*
X131883501Y-152680264D01*
X131883489Y-152680261D01*
X131728845Y-152649500D01*
X131728842Y-152649500D01*
X131571158Y-152649500D01*
X131571155Y-152649500D01*
X131416510Y-152680261D01*
X131416498Y-152680264D01*
X131270827Y-152740602D01*
X131270814Y-152740609D01*
X131139711Y-152828210D01*
X131139707Y-152828213D01*
X131028213Y-152939707D01*
X131028210Y-152939711D01*
X130940609Y-153070814D01*
X130940602Y-153070827D01*
X130880264Y-153216498D01*
X130880261Y-153216510D01*
X130849500Y-153371153D01*
X123601144Y-153371153D01*
X123601283Y-149771153D01*
X130449500Y-149771153D01*
X130449500Y-149928846D01*
X130480261Y-150083489D01*
X130480264Y-150083501D01*
X130540602Y-150229172D01*
X130540609Y-150229185D01*
X130628210Y-150360288D01*
X130628213Y-150360292D01*
X130739707Y-150471786D01*
X130739711Y-150471789D01*
X130870814Y-150559390D01*
X130870827Y-150559397D01*
X130992665Y-150609863D01*
X131016503Y-150619737D01*
X131166131Y-150649500D01*
X131171153Y-150650499D01*
X131171156Y-150650500D01*
X131171158Y-150650500D01*
X131328844Y-150650500D01*
X131328845Y-150650499D01*
X131483497Y-150619737D01*
X131528050Y-150601282D01*
X131597515Y-150593814D01*
X131659995Y-150625088D01*
X131695648Y-150685177D01*
X131699500Y-150715844D01*
X131699500Y-150778846D01*
X131730261Y-150933489D01*
X131730264Y-150933501D01*
X131790602Y-151079172D01*
X131790609Y-151079185D01*
X131878210Y-151210288D01*
X131878213Y-151210292D01*
X131989707Y-151321786D01*
X131989711Y-151321789D01*
X132120814Y-151409390D01*
X132120827Y-151409397D01*
X132266498Y-151469735D01*
X132266503Y-151469737D01*
X132410515Y-151498383D01*
X132421153Y-151500499D01*
X132421156Y-151500500D01*
X132421158Y-151500500D01*
X132578844Y-151500500D01*
X132578845Y-151500499D01*
X132733497Y-151469737D01*
X132879179Y-151409394D01*
X133010289Y-151321789D01*
X133121789Y-151210289D01*
X133209394Y-151079179D01*
X133212854Y-151070827D01*
X133267163Y-150939711D01*
X133269737Y-150933497D01*
X133300500Y-150778842D01*
X133300500Y-150724424D01*
X133320185Y-150657385D01*
X133372989Y-150611630D01*
X133442147Y-150601686D01*
X133471952Y-150609863D01*
X133570060Y-150650500D01*
X133616503Y-150669737D01*
X133771153Y-150700499D01*
X133771156Y-150700500D01*
X133771158Y-150700500D01*
X133928844Y-150700500D01*
X133928845Y-150700499D01*
X134083497Y-150669737D01*
X134229179Y-150609394D01*
X134360289Y-150521789D01*
X134471789Y-150410289D01*
X134559394Y-150279179D01*
X134567016Y-150260779D01*
X134580102Y-150229185D01*
X134619737Y-150133497D01*
X134650500Y-149978842D01*
X134650500Y-149821158D01*
X134650500Y-149821155D01*
X134650499Y-149821153D01*
X134624264Y-149689257D01*
X134620662Y-149671153D01*
X144349500Y-149671153D01*
X144349500Y-149828846D01*
X144380261Y-149983489D01*
X144380264Y-149983501D01*
X144440602Y-150129172D01*
X144440609Y-150129185D01*
X144528210Y-150260288D01*
X144528213Y-150260292D01*
X144639707Y-150371786D01*
X144639711Y-150371789D01*
X144770814Y-150459390D01*
X144770827Y-150459397D01*
X144858698Y-150495794D01*
X144913102Y-150539635D01*
X144935167Y-150605929D01*
X144917888Y-150673628D01*
X144866751Y-150721239D01*
X144858699Y-150724916D01*
X144820824Y-150740604D01*
X144820814Y-150740609D01*
X144689711Y-150828210D01*
X144689707Y-150828213D01*
X144578213Y-150939707D01*
X144578210Y-150939711D01*
X144490609Y-151070814D01*
X144490602Y-151070827D01*
X144430264Y-151216498D01*
X144430261Y-151216510D01*
X144399500Y-151371153D01*
X144399500Y-151528846D01*
X144430261Y-151683489D01*
X144430264Y-151683501D01*
X144490602Y-151829172D01*
X144490609Y-151829185D01*
X144578210Y-151960288D01*
X144578213Y-151960292D01*
X144689707Y-152071786D01*
X144689711Y-152071789D01*
X144820814Y-152159390D01*
X144820827Y-152159397D01*
X144966498Y-152219735D01*
X144966503Y-152219737D01*
X145121153Y-152250499D01*
X145121156Y-152250500D01*
X145121158Y-152250500D01*
X145278844Y-152250500D01*
X145278845Y-152250499D01*
X145433497Y-152219737D01*
X145579179Y-152159394D01*
X145636411Y-152121153D01*
X146199500Y-152121153D01*
X146199500Y-152278846D01*
X146230261Y-152433489D01*
X146230264Y-152433501D01*
X146290602Y-152579172D01*
X146290609Y-152579185D01*
X146378210Y-152710288D01*
X146378213Y-152710292D01*
X146489707Y-152821786D01*
X146489711Y-152821789D01*
X146620814Y-152909390D01*
X146620827Y-152909397D01*
X146694013Y-152939711D01*
X146766503Y-152969737D01*
X146921153Y-153000499D01*
X146921156Y-153000500D01*
X146921158Y-153000500D01*
X147078844Y-153000500D01*
X147078845Y-153000499D01*
X147233497Y-152969737D01*
X147379179Y-152909394D01*
X147510289Y-152821789D01*
X147621789Y-152710289D01*
X147709394Y-152579179D01*
X147769737Y-152433497D01*
X147800500Y-152278842D01*
X147800500Y-152121158D01*
X147800500Y-152121155D01*
X147800499Y-152121153D01*
X147780746Y-152021850D01*
X147769737Y-151966503D01*
X147766791Y-151959390D01*
X147709397Y-151820827D01*
X147709390Y-151820814D01*
X147650289Y-151732364D01*
X147629411Y-151665687D01*
X147647895Y-151598307D01*
X147699874Y-151551616D01*
X147768844Y-151540440D01*
X147814866Y-151557604D01*
X147815446Y-151556521D01*
X147820827Y-151559397D01*
X147966498Y-151619735D01*
X147966503Y-151619737D01*
X148121153Y-151650499D01*
X148121156Y-151650500D01*
X148121158Y-151650500D01*
X148278844Y-151650500D01*
X148278845Y-151650499D01*
X148433497Y-151619737D01*
X148579179Y-151559394D01*
X148710289Y-151471789D01*
X148821789Y-151360289D01*
X148909394Y-151229179D01*
X148917217Y-151210292D01*
X148933429Y-151171153D01*
X150449500Y-151171153D01*
X150449500Y-151328846D01*
X150480261Y-151483489D01*
X150480264Y-151483501D01*
X150540602Y-151629172D01*
X150540609Y-151629185D01*
X150628210Y-151760288D01*
X150628213Y-151760292D01*
X150739707Y-151871786D01*
X150739711Y-151871789D01*
X150870814Y-151959390D01*
X150870827Y-151959397D01*
X151016498Y-152019735D01*
X151016503Y-152019737D01*
X151171153Y-152050499D01*
X151171156Y-152050500D01*
X151171158Y-152050500D01*
X151328844Y-152050500D01*
X151328845Y-152050499D01*
X151483497Y-152019737D01*
X151629179Y-151959394D01*
X151760289Y-151871789D01*
X151871789Y-151760289D01*
X151959394Y-151629179D01*
X152019737Y-151483497D01*
X152050500Y-151328842D01*
X152050500Y-151171158D01*
X152050500Y-151171155D01*
X152050499Y-151171153D01*
X152032204Y-151079179D01*
X152019737Y-151016503D01*
X151987929Y-150939711D01*
X151959397Y-150870827D01*
X151959390Y-150870814D01*
X151871789Y-150739711D01*
X151871786Y-150739707D01*
X151760292Y-150628213D01*
X151760288Y-150628210D01*
X151629185Y-150540609D01*
X151629172Y-150540602D01*
X151483501Y-150480264D01*
X151483489Y-150480261D01*
X151328845Y-150449500D01*
X151328842Y-150449500D01*
X151171158Y-150449500D01*
X151171155Y-150449500D01*
X151016510Y-150480261D01*
X151016498Y-150480264D01*
X150870827Y-150540602D01*
X150870814Y-150540609D01*
X150739711Y-150628210D01*
X150739707Y-150628213D01*
X150628213Y-150739707D01*
X150628210Y-150739711D01*
X150540609Y-150870814D01*
X150540602Y-150870827D01*
X150480264Y-151016498D01*
X150480261Y-151016510D01*
X150449500Y-151171153D01*
X148933429Y-151171153D01*
X148955603Y-151117621D01*
X148955605Y-151117614D01*
X148969737Y-151083497D01*
X149000500Y-150928842D01*
X149000500Y-150771158D01*
X149000500Y-150771155D01*
X149000499Y-150771153D01*
X148980326Y-150669737D01*
X148969737Y-150616503D01*
X148938298Y-150540602D01*
X148909397Y-150470827D01*
X148909390Y-150470814D01*
X148821789Y-150339711D01*
X148821786Y-150339707D01*
X148804181Y-150322102D01*
X148770696Y-150260779D01*
X148775680Y-150191087D01*
X148817552Y-150135154D01*
X148867671Y-150112804D01*
X148907566Y-150104867D01*
X148958497Y-150094737D01*
X149104179Y-150034394D01*
X149235289Y-149946789D01*
X149346789Y-149835289D01*
X149434394Y-149704179D01*
X149494737Y-149558497D01*
X149525500Y-149403842D01*
X149525500Y-149246158D01*
X149525500Y-149246155D01*
X149525499Y-149246153D01*
X149521930Y-149228210D01*
X149494737Y-149091503D01*
X149490081Y-149080263D01*
X149434397Y-148945827D01*
X149434390Y-148945814D01*
X149346789Y-148814711D01*
X149346786Y-148814707D01*
X149235292Y-148703213D01*
X149235288Y-148703210D01*
X149104185Y-148615609D01*
X149104172Y-148615602D01*
X148958501Y-148555264D01*
X148958489Y-148555261D01*
X148803845Y-148524500D01*
X148803842Y-148524500D01*
X148646158Y-148524500D01*
X148646155Y-148524500D01*
X148491510Y-148555261D01*
X148491498Y-148555264D01*
X148345827Y-148615602D01*
X148345814Y-148615609D01*
X148214711Y-148703210D01*
X148214707Y-148703213D01*
X148103213Y-148814707D01*
X148103210Y-148814711D01*
X148015609Y-148945814D01*
X148015602Y-148945827D01*
X147955264Y-149091498D01*
X147955261Y-149091510D01*
X147924500Y-149246153D01*
X147924500Y-149403846D01*
X147955261Y-149558489D01*
X147955264Y-149558501D01*
X148015602Y-149704172D01*
X148015609Y-149704185D01*
X148103210Y-149835288D01*
X148103213Y-149835292D01*
X148120818Y-149852897D01*
X148154303Y-149914220D01*
X148149319Y-149983912D01*
X148107447Y-150039845D01*
X148057330Y-150062195D01*
X147966507Y-150080261D01*
X147966498Y-150080264D01*
X147820827Y-150140602D01*
X147820814Y-150140609D01*
X147689711Y-150228210D01*
X147689707Y-150228213D01*
X147578213Y-150339707D01*
X147578210Y-150339711D01*
X147490609Y-150470814D01*
X147490602Y-150470827D01*
X147430264Y-150616498D01*
X147430261Y-150616510D01*
X147399500Y-150771153D01*
X147399500Y-150928846D01*
X147430261Y-151083489D01*
X147430264Y-151083501D01*
X147490602Y-151229172D01*
X147490609Y-151229185D01*
X147549710Y-151317635D01*
X147570588Y-151384312D01*
X147552104Y-151451693D01*
X147500125Y-151498383D01*
X147431155Y-151509559D01*
X147385132Y-151492396D01*
X147384554Y-151493479D01*
X147379172Y-151490602D01*
X147233501Y-151430264D01*
X147233489Y-151430261D01*
X147078845Y-151399500D01*
X147078842Y-151399500D01*
X146921158Y-151399500D01*
X146921155Y-151399500D01*
X146766510Y-151430261D01*
X146766498Y-151430264D01*
X146620827Y-151490602D01*
X146620814Y-151490609D01*
X146489711Y-151578210D01*
X146489707Y-151578213D01*
X146378213Y-151689707D01*
X146378210Y-151689711D01*
X146290609Y-151820814D01*
X146290602Y-151820827D01*
X146230264Y-151966498D01*
X146230261Y-151966510D01*
X146199500Y-152121153D01*
X145636411Y-152121153D01*
X145710289Y-152071789D01*
X145731579Y-152050499D01*
X145754694Y-152027385D01*
X145821786Y-151960292D01*
X145821789Y-151960289D01*
X145909394Y-151829179D01*
X145912854Y-151820827D01*
X145949496Y-151732364D01*
X145969737Y-151683497D01*
X146000500Y-151528842D01*
X146000500Y-151371158D01*
X146000500Y-151371155D01*
X146000499Y-151371153D01*
X145992365Y-151330261D01*
X145969737Y-151216503D01*
X145950955Y-151171158D01*
X145909397Y-151070827D01*
X145909390Y-151070814D01*
X145821789Y-150939711D01*
X145821786Y-150939707D01*
X145710292Y-150828213D01*
X145710288Y-150828210D01*
X145579185Y-150740609D01*
X145579175Y-150740604D01*
X145491300Y-150704205D01*
X145436897Y-150660364D01*
X145414832Y-150594070D01*
X145432111Y-150526370D01*
X145483249Y-150478760D01*
X145491288Y-150475088D01*
X145529179Y-150459394D01*
X145660289Y-150371789D01*
X145771789Y-150260289D01*
X145859394Y-150129179D01*
X145919737Y-149983497D01*
X145950500Y-149828842D01*
X145950500Y-149671158D01*
X145950500Y-149671155D01*
X145950499Y-149671153D01*
X145928090Y-149558497D01*
X145919737Y-149516503D01*
X145900812Y-149470814D01*
X145859397Y-149370827D01*
X145859390Y-149370814D01*
X145771789Y-149239711D01*
X145771786Y-149239707D01*
X145660292Y-149128213D01*
X145660288Y-149128210D01*
X145529185Y-149040609D01*
X145529172Y-149040602D01*
X145383501Y-148980264D01*
X145383489Y-148980261D01*
X145228845Y-148949500D01*
X145228842Y-148949500D01*
X145071158Y-148949500D01*
X145071155Y-148949500D01*
X144916510Y-148980261D01*
X144916498Y-148980264D01*
X144770827Y-149040602D01*
X144770814Y-149040609D01*
X144639711Y-149128210D01*
X144639707Y-149128213D01*
X144528213Y-149239707D01*
X144528210Y-149239711D01*
X144440609Y-149370814D01*
X144440602Y-149370827D01*
X144380264Y-149516498D01*
X144380261Y-149516510D01*
X144349500Y-149671153D01*
X134620662Y-149671153D01*
X134619738Y-149666507D01*
X134619735Y-149666498D01*
X134559397Y-149520827D01*
X134559390Y-149520814D01*
X134471789Y-149389711D01*
X134471786Y-149389707D01*
X134360292Y-149278213D01*
X134360288Y-149278210D01*
X134229185Y-149190609D01*
X134229172Y-149190602D01*
X134083501Y-149130264D01*
X134083489Y-149130261D01*
X133928845Y-149099500D01*
X133928842Y-149099500D01*
X133771158Y-149099500D01*
X133771155Y-149099500D01*
X133616510Y-149130261D01*
X133616498Y-149130264D01*
X133470827Y-149190602D01*
X133470814Y-149190609D01*
X133339711Y-149278210D01*
X133339707Y-149278213D01*
X133228213Y-149389707D01*
X133228210Y-149389711D01*
X133140609Y-149520814D01*
X133140602Y-149520827D01*
X133080264Y-149666498D01*
X133080261Y-149666510D01*
X133049500Y-149821153D01*
X133049500Y-149875575D01*
X133029815Y-149942614D01*
X132977011Y-149988369D01*
X132907853Y-149998313D01*
X132878048Y-149990137D01*
X132830314Y-149970365D01*
X132733497Y-149930263D01*
X132733492Y-149930262D01*
X132733489Y-149930261D01*
X132578845Y-149899500D01*
X132578842Y-149899500D01*
X132421158Y-149899500D01*
X132421155Y-149899500D01*
X132266510Y-149930261D01*
X132266498Y-149930264D01*
X132221952Y-149948716D01*
X132152483Y-149956185D01*
X132090004Y-149924909D01*
X132054352Y-149864820D01*
X132050500Y-149834155D01*
X132050500Y-149771155D01*
X132050499Y-149771153D01*
X132037177Y-149704179D01*
X132019737Y-149616503D01*
X131995712Y-149558501D01*
X131959397Y-149470827D01*
X131959390Y-149470814D01*
X131871789Y-149339711D01*
X131871786Y-149339707D01*
X131760292Y-149228213D01*
X131760288Y-149228210D01*
X131629185Y-149140609D01*
X131629172Y-149140602D01*
X131483501Y-149080264D01*
X131483489Y-149080261D01*
X131328845Y-149049500D01*
X131328842Y-149049500D01*
X131171158Y-149049500D01*
X131171155Y-149049500D01*
X131016510Y-149080261D01*
X131016498Y-149080264D01*
X130870827Y-149140602D01*
X130870814Y-149140609D01*
X130739711Y-149228210D01*
X130739707Y-149228213D01*
X130628213Y-149339707D01*
X130628210Y-149339711D01*
X130540609Y-149470814D01*
X130540602Y-149470827D01*
X130480264Y-149616498D01*
X130480261Y-149616510D01*
X130449500Y-149771153D01*
X123601283Y-149771153D01*
X123601473Y-144851220D01*
X123601497Y-144240350D01*
X129924500Y-144240350D01*
X129924500Y-144409649D01*
X129950981Y-144576847D01*
X130003296Y-144737853D01*
X130080152Y-144888688D01*
X130179648Y-145025634D01*
X130179652Y-145025639D01*
X130299360Y-145145347D01*
X130299365Y-145145351D01*
X130418817Y-145232137D01*
X130436315Y-145244850D01*
X130532425Y-145293820D01*
X130587146Y-145321703D01*
X130587148Y-145321703D01*
X130587151Y-145321705D01*
X130673450Y-145349745D01*
X130748152Y-145374018D01*
X130915351Y-145400500D01*
X130915356Y-145400500D01*
X131084649Y-145400500D01*
X131251847Y-145374018D01*
X131412849Y-145321705D01*
X131563685Y-145244850D01*
X131700641Y-145145346D01*
X131820346Y-145025641D01*
X131919850Y-144888685D01*
X131996705Y-144737849D01*
X132049018Y-144576847D01*
X132050770Y-144565783D01*
X132075500Y-144409649D01*
X132075500Y-144406307D01*
X150174499Y-144406307D01*
X150206222Y-144565783D01*
X150206225Y-144565793D01*
X150268450Y-144716019D01*
X150268452Y-144716023D01*
X150358788Y-144851220D01*
X150358794Y-144851228D01*
X150473771Y-144966205D01*
X150473779Y-144966211D01*
X150608976Y-145056547D01*
X150608980Y-145056549D01*
X150759206Y-145118774D01*
X150759211Y-145118776D01*
X150759215Y-145118776D01*
X150759216Y-145118777D01*
X150918692Y-145150500D01*
X150918695Y-145150500D01*
X151081307Y-145150500D01*
X151188598Y-145129157D01*
X151240789Y-145118776D01*
X151391021Y-145056548D01*
X151391023Y-145056547D01*
X151458169Y-145011680D01*
X151526225Y-144966208D01*
X151641208Y-144851225D01*
X151686680Y-144783169D01*
X151731547Y-144716023D01*
X151731549Y-144716019D01*
X151752290Y-144665943D01*
X151793776Y-144565789D01*
X151825500Y-144406305D01*
X151825500Y-144243695D01*
X151825500Y-144243692D01*
X151793777Y-144084216D01*
X151793776Y-144084215D01*
X151793776Y-144084211D01*
X151789195Y-144073152D01*
X151731549Y-143933980D01*
X151731547Y-143933976D01*
X151641211Y-143798779D01*
X151641205Y-143798771D01*
X151526228Y-143683794D01*
X151526220Y-143683788D01*
X151391023Y-143593452D01*
X151391019Y-143593450D01*
X151240793Y-143531225D01*
X151240783Y-143531222D01*
X151081307Y-143499500D01*
X151081305Y-143499500D01*
X150918695Y-143499500D01*
X150918693Y-143499500D01*
X150759216Y-143531222D01*
X150759206Y-143531225D01*
X150608980Y-143593450D01*
X150608976Y-143593452D01*
X150473779Y-143683788D01*
X150473771Y-143683794D01*
X150358794Y-143798771D01*
X150358788Y-143798779D01*
X150268452Y-143933976D01*
X150268450Y-143933980D01*
X150206225Y-144084206D01*
X150206222Y-144084216D01*
X150174500Y-144243692D01*
X150174500Y-144243695D01*
X150174500Y-144406305D01*
X150174500Y-144406307D01*
X150174499Y-144406307D01*
X132075500Y-144406307D01*
X132075500Y-144240350D01*
X132049018Y-144073152D01*
X132024745Y-143998450D01*
X131996705Y-143912151D01*
X131996703Y-143912148D01*
X131996703Y-143912146D01*
X131968820Y-143857425D01*
X131919850Y-143761315D01*
X131863528Y-143683794D01*
X131820351Y-143624365D01*
X131820347Y-143624360D01*
X131700639Y-143504652D01*
X131700634Y-143504648D01*
X131563688Y-143405152D01*
X131563687Y-143405151D01*
X131563685Y-143405150D01*
X131516582Y-143381150D01*
X131412853Y-143328296D01*
X131251847Y-143275981D01*
X131084649Y-143249500D01*
X131084644Y-143249500D01*
X130915356Y-143249500D01*
X130915351Y-143249500D01*
X130748152Y-143275981D01*
X130587146Y-143328296D01*
X130436311Y-143405152D01*
X130299365Y-143504648D01*
X130299360Y-143504652D01*
X130179652Y-143624360D01*
X130179648Y-143624365D01*
X130080152Y-143761311D01*
X130003296Y-143912146D01*
X129950981Y-144073152D01*
X129924500Y-144240350D01*
X123601497Y-144240350D01*
X123601497Y-144235479D01*
X123601849Y-135109421D01*
X123602089Y-128883184D01*
X132189391Y-128883184D01*
X132217271Y-129023341D01*
X132217273Y-129023347D01*
X132271961Y-129155377D01*
X132271966Y-129155386D01*
X132351359Y-129274205D01*
X132351362Y-129274209D01*
X132452409Y-129375256D01*
X132452413Y-129375259D01*
X132571232Y-129454652D01*
X132571238Y-129454655D01*
X132571239Y-129454656D01*
X132703272Y-129509346D01*
X132703276Y-129509346D01*
X132703277Y-129509347D01*
X132749692Y-129518580D01*
X132811603Y-129550965D01*
X132846177Y-129611681D01*
X132849500Y-129640197D01*
X132849500Y-132413330D01*
X132849499Y-132413348D01*
X132849499Y-132579054D01*
X132849498Y-132579054D01*
X132890424Y-132731789D01*
X132890425Y-132731790D01*
X132911455Y-132768214D01*
X132911456Y-132768216D01*
X132969475Y-132868709D01*
X132969481Y-132868717D01*
X133088349Y-132987585D01*
X133088355Y-132987590D01*
X133112409Y-133011644D01*
X133112412Y-133011648D01*
X133119480Y-133018716D01*
X133160341Y-133059577D01*
X133231284Y-133130520D01*
X133231286Y-133130521D01*
X133231290Y-133130524D01*
X133310077Y-133176011D01*
X133368216Y-133209577D01*
X133520943Y-133250501D01*
X133520945Y-133250501D01*
X133686654Y-133250501D01*
X133686670Y-133250500D01*
X133700902Y-133250500D01*
X133767941Y-133270185D01*
X133813696Y-133322989D01*
X133823640Y-133392147D01*
X133794615Y-133455703D01*
X133788583Y-133462181D01*
X133469481Y-133781282D01*
X133469479Y-133781285D01*
X133428434Y-133852379D01*
X133428433Y-133852380D01*
X133396031Y-133908501D01*
X133390423Y-133918215D01*
X133349500Y-134070942D01*
X133349499Y-134070944D01*
X133349499Y-134205234D01*
X133329814Y-134272273D01*
X133328601Y-134274125D01*
X133307070Y-134306347D01*
X133252381Y-134438379D01*
X133252379Y-134438385D01*
X133224500Y-134578542D01*
X133224500Y-134578545D01*
X133224500Y-134721455D01*
X133224500Y-134721457D01*
X133224499Y-134721457D01*
X133252379Y-134861614D01*
X133252381Y-134861620D01*
X133307069Y-134993650D01*
X133307074Y-134993659D01*
X133386467Y-135112478D01*
X133386470Y-135112482D01*
X133487517Y-135213529D01*
X133487521Y-135213532D01*
X133606340Y-135292925D01*
X133606346Y-135292928D01*
X133606347Y-135292929D01*
X133738380Y-135347619D01*
X133738384Y-135347619D01*
X133738385Y-135347620D01*
X133878542Y-135375500D01*
X133878545Y-135375500D01*
X134021457Y-135375500D01*
X134115751Y-135356742D01*
X134161620Y-135347619D01*
X134293653Y-135292929D01*
X134412479Y-135213532D01*
X134513532Y-135112479D01*
X134513533Y-135112476D01*
X134516589Y-135109421D01*
X134577912Y-135075935D01*
X134622417Y-135075537D01*
X134622480Y-135074903D01*
X134628387Y-135075484D01*
X134628465Y-135075484D01*
X134628545Y-135075500D01*
X134628546Y-135075500D01*
X134771457Y-135075500D01*
X134865751Y-135056742D01*
X134911620Y-135047619D01*
X135037844Y-134995334D01*
X135107314Y-134987866D01*
X135169793Y-135019141D01*
X135172978Y-135022214D01*
X135281284Y-135130520D01*
X135359194Y-135175501D01*
X135418215Y-135209577D01*
X135570943Y-135250500D01*
X137763331Y-135250500D01*
X137763347Y-135250501D01*
X137770943Y-135250501D01*
X137929054Y-135250501D01*
X137929057Y-135250501D01*
X138081785Y-135209577D01*
X138140806Y-135175501D01*
X138218716Y-135130520D01*
X138330520Y-135018716D01*
X138330520Y-135018714D01*
X138340724Y-135008511D01*
X138340727Y-135008506D01*
X139112416Y-134236819D01*
X139173739Y-134203334D01*
X139200097Y-134200500D01*
X140199903Y-134200500D01*
X140266942Y-134220185D01*
X140287583Y-134236818D01*
X141581284Y-135530520D01*
X141581286Y-135530521D01*
X141581290Y-135530524D01*
X141718209Y-135609573D01*
X141718216Y-135609577D01*
X141870943Y-135650501D01*
X141870945Y-135650501D01*
X142036654Y-135650501D01*
X142036670Y-135650500D01*
X148863331Y-135650500D01*
X148863347Y-135650501D01*
X148870943Y-135650501D01*
X149029054Y-135650501D01*
X149029057Y-135650501D01*
X149181785Y-135609577D01*
X149231904Y-135580639D01*
X149318716Y-135530520D01*
X149430520Y-135418716D01*
X149430520Y-135418714D01*
X149440728Y-135408507D01*
X149440730Y-135408504D01*
X150558506Y-134290728D01*
X150558511Y-134290724D01*
X150568714Y-134280520D01*
X150568716Y-134280520D01*
X150680520Y-134168716D01*
X150714665Y-134109575D01*
X150736969Y-134070944D01*
X150736970Y-134070942D01*
X150759574Y-134031790D01*
X150759575Y-134031789D01*
X150759575Y-134031787D01*
X150759577Y-134031785D01*
X150800501Y-133879057D01*
X150800501Y-133720943D01*
X150800501Y-133713348D01*
X150800500Y-133713330D01*
X150800500Y-129494766D01*
X150820185Y-129427727D01*
X150821399Y-129425874D01*
X150842929Y-129393653D01*
X150897619Y-129261620D01*
X150915656Y-129170943D01*
X150925500Y-129121457D01*
X150925500Y-128978542D01*
X150897620Y-128838385D01*
X150897619Y-128838384D01*
X150897619Y-128838380D01*
X150842929Y-128706347D01*
X150842928Y-128706346D01*
X150842925Y-128706340D01*
X150763532Y-128587521D01*
X150763529Y-128587517D01*
X150662482Y-128486470D01*
X150662478Y-128486467D01*
X150543659Y-128407074D01*
X150543646Y-128407067D01*
X150500174Y-128389061D01*
X150445770Y-128345220D01*
X150423705Y-128278926D01*
X150440984Y-128211227D01*
X150492121Y-128163616D01*
X150547626Y-128150500D01*
X152349903Y-128150500D01*
X152416942Y-128170185D01*
X152437584Y-128186819D01*
X153263181Y-129012416D01*
X153296666Y-129073739D01*
X153299500Y-129100097D01*
X153299500Y-157075500D01*
X153279815Y-157142539D01*
X153227011Y-157188294D01*
X153175500Y-157199500D01*
X150536669Y-157199500D01*
X150536653Y-157199499D01*
X150529057Y-157199499D01*
X150370943Y-157199499D01*
X150263587Y-157228265D01*
X150218210Y-157240424D01*
X150218209Y-157240425D01*
X150168096Y-157269359D01*
X150168095Y-157269360D01*
X150124689Y-157294420D01*
X150081285Y-157319479D01*
X150081282Y-157319481D01*
X149485339Y-157915425D01*
X149424016Y-157948910D01*
X149421850Y-157949361D01*
X149266508Y-157980261D01*
X149266498Y-157980264D01*
X149120827Y-158040602D01*
X149120814Y-158040609D01*
X148989711Y-158128210D01*
X148989707Y-158128213D01*
X148878213Y-158239707D01*
X148878210Y-158239711D01*
X148790609Y-158370814D01*
X148790602Y-158370827D01*
X148730264Y-158516498D01*
X148730261Y-158516510D01*
X148699500Y-158671153D01*
X148699500Y-158828846D01*
X148730261Y-158983489D01*
X148730264Y-158983501D01*
X148790602Y-159129172D01*
X148790609Y-159129185D01*
X148878210Y-159260288D01*
X148878213Y-159260292D01*
X148989707Y-159371786D01*
X148989711Y-159371789D01*
X149120814Y-159459390D01*
X149120827Y-159459397D01*
X149177951Y-159483058D01*
X149266503Y-159519737D01*
X149398691Y-159546031D01*
X149421153Y-159550499D01*
X149421156Y-159550500D01*
X149421158Y-159550500D01*
X149578842Y-159550500D01*
X149601308Y-159546031D01*
X149670898Y-159552257D01*
X149726076Y-159595119D01*
X149749322Y-159661008D01*
X149749500Y-159667648D01*
X149749500Y-160399902D01*
X149729815Y-160466941D01*
X149713181Y-160487583D01*
X148969481Y-161231282D01*
X148969479Y-161231285D01*
X148919361Y-161318094D01*
X148919359Y-161318096D01*
X148890425Y-161368209D01*
X148890424Y-161368210D01*
X148890423Y-161368215D01*
X148849499Y-161520943D01*
X148849499Y-161520945D01*
X148849499Y-161689046D01*
X148849500Y-161689059D01*
X148849500Y-163470234D01*
X148829815Y-163537273D01*
X148828602Y-163539125D01*
X148740609Y-163670814D01*
X148740602Y-163670827D01*
X148680264Y-163816498D01*
X148680261Y-163816510D01*
X148649500Y-163971153D01*
X148649500Y-164128846D01*
X148680261Y-164283489D01*
X148680264Y-164283501D01*
X148740602Y-164429172D01*
X148740609Y-164429185D01*
X148828210Y-164560288D01*
X148828213Y-164560292D01*
X148939707Y-164671786D01*
X148939711Y-164671789D01*
X149070814Y-164759390D01*
X149070827Y-164759397D01*
X149216498Y-164819735D01*
X149216503Y-164819737D01*
X149371153Y-164850499D01*
X149371156Y-164850500D01*
X149371158Y-164850500D01*
X149528844Y-164850500D01*
X149528845Y-164850499D01*
X149683497Y-164819737D01*
X149829179Y-164759394D01*
X149960289Y-164671789D01*
X150071789Y-164560289D01*
X150159394Y-164429179D01*
X150219737Y-164283497D01*
X150250500Y-164128842D01*
X150250500Y-163971158D01*
X150250500Y-163971155D01*
X150250499Y-163971153D01*
X150219738Y-163816510D01*
X150219737Y-163816503D01*
X150170969Y-163698765D01*
X150159397Y-163670827D01*
X150159390Y-163670814D01*
X150071398Y-163539125D01*
X150050520Y-163472447D01*
X150050500Y-163470234D01*
X150050500Y-161900096D01*
X150070185Y-161833057D01*
X150086815Y-161812419D01*
X150472098Y-161427135D01*
X153274500Y-161427135D01*
X153274500Y-162872870D01*
X153274501Y-162872876D01*
X153280908Y-162932483D01*
X153331202Y-163067328D01*
X153331206Y-163067335D01*
X153417452Y-163182544D01*
X153417453Y-163182544D01*
X153417454Y-163182546D01*
X153468740Y-163220939D01*
X153502539Y-163246241D01*
X153544409Y-163302175D01*
X153549393Y-163371867D01*
X153528545Y-163418392D01*
X153444624Y-163533900D01*
X153360620Y-163698764D01*
X153360619Y-163698767D01*
X153303445Y-163874734D01*
X153274500Y-164057486D01*
X153274500Y-164242513D01*
X153303445Y-164425265D01*
X153360619Y-164601232D01*
X153360620Y-164601235D01*
X153396570Y-164671789D01*
X153444622Y-164766096D01*
X153553379Y-164915787D01*
X153684213Y-165046621D01*
X153833904Y-165155378D01*
X153914763Y-165196577D01*
X153998764Y-165239379D01*
X153998767Y-165239380D01*
X154086750Y-165267967D01*
X154174736Y-165296555D01*
X154357486Y-165325500D01*
X154357487Y-165325500D01*
X154542513Y-165325500D01*
X154542514Y-165325500D01*
X154725264Y-165296555D01*
X154901235Y-165239379D01*
X155066096Y-165155378D01*
X155215787Y-165046621D01*
X155346621Y-164915787D01*
X155455378Y-164766096D01*
X155539379Y-164601235D01*
X155596555Y-164425264D01*
X155625500Y-164242514D01*
X155625500Y-164057486D01*
X155596555Y-163874736D01*
X155539379Y-163698765D01*
X155539379Y-163698764D01*
X155496577Y-163614763D01*
X155455378Y-163533904D01*
X155371453Y-163418392D01*
X155347974Y-163352586D01*
X155363799Y-163284532D01*
X155397459Y-163246241D01*
X155482546Y-163182546D01*
X155568796Y-163067331D01*
X155619091Y-162932483D01*
X155625500Y-162872873D01*
X155625499Y-161427128D01*
X155619166Y-161368215D01*
X155619091Y-161367516D01*
X155568797Y-161232671D01*
X155568793Y-161232664D01*
X155482547Y-161117455D01*
X155482544Y-161117452D01*
X155367335Y-161031206D01*
X155367328Y-161031202D01*
X155232482Y-160980908D01*
X155232483Y-160980908D01*
X155172883Y-160974501D01*
X155172881Y-160974500D01*
X155172873Y-160974500D01*
X155172864Y-160974500D01*
X153727129Y-160974500D01*
X153727123Y-160974501D01*
X153667516Y-160980908D01*
X153532671Y-161031202D01*
X153532664Y-161031206D01*
X153417455Y-161117452D01*
X153417452Y-161117455D01*
X153331206Y-161232664D01*
X153331202Y-161232671D01*
X153280908Y-161367517D01*
X153274501Y-161427116D01*
X153274501Y-161427123D01*
X153274500Y-161427135D01*
X150472098Y-161427135D01*
X150708506Y-161190727D01*
X150708511Y-161190724D01*
X150718714Y-161180520D01*
X150718716Y-161180520D01*
X150830520Y-161068716D01*
X150884915Y-160974500D01*
X150909577Y-160931785D01*
X150950500Y-160779058D01*
X150950500Y-160620943D01*
X150950500Y-159550097D01*
X150970185Y-159483058D01*
X150986819Y-159462416D01*
X151212416Y-159236819D01*
X151273739Y-159203334D01*
X151300097Y-159200500D01*
X154013331Y-159200500D01*
X154013347Y-159200501D01*
X154020943Y-159200501D01*
X154179054Y-159200501D01*
X154179057Y-159200501D01*
X154331785Y-159159577D01*
X154402558Y-159118716D01*
X154468716Y-159080520D01*
X154580520Y-158968716D01*
X154580520Y-158968714D01*
X154590724Y-158958511D01*
X154590727Y-158958506D01*
X155430520Y-158118716D01*
X155509577Y-157981784D01*
X155550501Y-157829057D01*
X155550501Y-157670942D01*
X155550501Y-157663347D01*
X155550500Y-157663329D01*
X155550500Y-129170941D01*
X155549909Y-129168734D01*
X155531517Y-129100097D01*
X155509577Y-129018215D01*
X155480639Y-128968095D01*
X155430520Y-128881284D01*
X155318716Y-128769480D01*
X155318715Y-128769479D01*
X155314385Y-128765149D01*
X155314374Y-128765139D01*
X153137590Y-126588355D01*
X153137588Y-126588352D01*
X153018717Y-126469481D01*
X153018716Y-126469480D01*
X152931904Y-126419360D01*
X152931904Y-126419359D01*
X152931900Y-126419358D01*
X152881785Y-126390423D01*
X152729057Y-126349499D01*
X152570943Y-126349499D01*
X152563347Y-126349499D01*
X152563331Y-126349500D01*
X149170940Y-126349500D01*
X149130019Y-126360464D01*
X149130019Y-126360465D01*
X149092751Y-126370451D01*
X149018214Y-126390423D01*
X149018209Y-126390426D01*
X148881290Y-126469475D01*
X148881282Y-126469481D01*
X148219479Y-127131284D01*
X148199189Y-127166428D01*
X148190613Y-127181284D01*
X148140423Y-127268215D01*
X148099499Y-127420943D01*
X148099499Y-127420945D01*
X148099499Y-127589046D01*
X148099500Y-127589059D01*
X148099500Y-130249903D01*
X148079815Y-130316942D01*
X148063181Y-130337584D01*
X146037584Y-132363181D01*
X145976261Y-132396666D01*
X145949903Y-132399500D01*
X144670020Y-132399500D01*
X144643834Y-132391811D01*
X144616882Y-132387537D01*
X144610800Y-132382110D01*
X144602981Y-132379815D01*
X144585111Y-132359192D01*
X144564746Y-132341023D01*
X144562563Y-132333170D01*
X144557226Y-132327011D01*
X144553342Y-132299999D01*
X144546033Y-132273706D01*
X144548112Y-132263631D01*
X144547282Y-132257853D01*
X144551561Y-132238848D01*
X144553260Y-132233355D01*
X144572619Y-132186620D01*
X144581435Y-132142293D01*
X144583338Y-132136146D01*
X144599230Y-132112185D01*
X144612563Y-132086697D01*
X144614056Y-132085177D01*
X145880520Y-130818716D01*
X145959577Y-130681784D01*
X146000501Y-130529057D01*
X146000501Y-130370942D01*
X146000501Y-130363347D01*
X146000500Y-130363329D01*
X146000500Y-126856493D01*
X146020185Y-126789454D01*
X146036814Y-126768817D01*
X147343506Y-125462124D01*
X147343511Y-125462121D01*
X147353714Y-125451917D01*
X147353716Y-125451917D01*
X147465520Y-125340113D01*
X147544577Y-125203181D01*
X147585500Y-125050454D01*
X147585500Y-123369500D01*
X147605185Y-123302461D01*
X147657989Y-123256706D01*
X147709500Y-123245500D01*
X151513652Y-123245500D01*
X151513668Y-123245501D01*
X151521264Y-123245501D01*
X151679375Y-123245501D01*
X151679378Y-123245501D01*
X151832106Y-123204577D01*
X151882225Y-123175639D01*
X151969037Y-123125520D01*
X152080841Y-123013716D01*
X152080841Y-123013714D01*
X152091049Y-123003507D01*
X152091050Y-123003504D01*
X153456186Y-121638369D01*
X153496410Y-121611492D01*
X153613653Y-121562929D01*
X153732479Y-121483532D01*
X153833532Y-121382479D01*
X153912929Y-121263653D01*
X153967619Y-121131620D01*
X153976742Y-121085751D01*
X153995500Y-120991457D01*
X153995500Y-120848542D01*
X153967620Y-120708385D01*
X153967619Y-120708381D01*
X153967619Y-120708380D01*
X153912929Y-120576347D01*
X153912928Y-120576346D01*
X153912925Y-120576340D01*
X153833532Y-120457521D01*
X153833529Y-120457517D01*
X153732482Y-120356470D01*
X153732478Y-120356467D01*
X153613659Y-120277074D01*
X153613650Y-120277069D01*
X153481620Y-120222381D01*
X153481614Y-120222379D01*
X153341457Y-120194500D01*
X153341455Y-120194500D01*
X153198545Y-120194500D01*
X153198543Y-120194500D01*
X153058385Y-120222379D01*
X153058384Y-120222379D01*
X152990852Y-120250352D01*
X152921382Y-120257820D01*
X152895948Y-120250352D01*
X152828415Y-120222379D01*
X152688257Y-120194500D01*
X152688255Y-120194500D01*
X152545345Y-120194500D01*
X152545343Y-120194500D01*
X152405185Y-120222379D01*
X152405179Y-120222381D01*
X152273149Y-120277069D01*
X152273140Y-120277074D01*
X152154321Y-120356467D01*
X152154317Y-120356470D01*
X152053270Y-120457517D01*
X152053267Y-120457521D01*
X151973874Y-120576340D01*
X151973869Y-120576349D01*
X151919180Y-120708381D01*
X151919179Y-120708385D01*
X151907447Y-120767366D01*
X151875062Y-120829277D01*
X151873511Y-120830855D01*
X151146187Y-121558181D01*
X151084864Y-121591666D01*
X151058506Y-121594500D01*
X147143613Y-121594500D01*
X147102692Y-121605464D01*
X147102692Y-121605465D01*
X147080203Y-121611491D01*
X146990887Y-121635423D01*
X146990882Y-121635426D01*
X146853963Y-121714475D01*
X146853955Y-121714481D01*
X146054481Y-122513955D01*
X146054475Y-122513963D01*
X146011415Y-122588547D01*
X146011415Y-122588549D01*
X145975423Y-122650887D01*
X145975423Y-122650888D01*
X145934499Y-122803616D01*
X145934499Y-122803618D01*
X145934499Y-122971719D01*
X145934500Y-122971732D01*
X145934500Y-124484902D01*
X145914815Y-124551941D01*
X145898181Y-124572583D01*
X144419481Y-126051282D01*
X144419479Y-126051285D01*
X144369361Y-126138094D01*
X144369359Y-126138096D01*
X144340425Y-126188209D01*
X144340424Y-126188210D01*
X144340423Y-126188215D01*
X144299499Y-126340943D01*
X144299499Y-126340945D01*
X144299499Y-126509046D01*
X144299500Y-126509059D01*
X144299500Y-127905232D01*
X144279815Y-127972271D01*
X144278603Y-127974122D01*
X144257070Y-128006348D01*
X144202381Y-128138379D01*
X144202379Y-128138385D01*
X144174500Y-128278542D01*
X144174500Y-128278545D01*
X144174500Y-128421455D01*
X144174500Y-128421457D01*
X144174499Y-128421457D01*
X144202379Y-128561614D01*
X144202381Y-128561620D01*
X144257069Y-128693650D01*
X144257074Y-128693659D01*
X144336467Y-128812478D01*
X144336470Y-128812482D01*
X144437517Y-128913529D01*
X144437521Y-128913532D01*
X144556340Y-128992925D01*
X144556346Y-128992928D01*
X144556347Y-128992929D01*
X144688380Y-129047619D01*
X144699688Y-129049868D01*
X144761600Y-129082252D01*
X144796176Y-129142967D01*
X144799500Y-129171486D01*
X144799500Y-130149902D01*
X144779815Y-130216941D01*
X144763181Y-130237583D01*
X144385959Y-130614804D01*
X144324636Y-130648289D01*
X144254944Y-130643305D01*
X144199011Y-130601433D01*
X144176661Y-130551315D01*
X144169737Y-130516503D01*
X144146813Y-130461158D01*
X144109397Y-130370827D01*
X144109390Y-130370814D01*
X144021789Y-130239711D01*
X144021786Y-130239707D01*
X143910292Y-130128213D01*
X143910288Y-130128210D01*
X143779185Y-130040609D01*
X143779172Y-130040602D01*
X143633501Y-129980264D01*
X143633489Y-129980261D01*
X143478845Y-129949500D01*
X143478842Y-129949500D01*
X143321158Y-129949500D01*
X143321155Y-129949500D01*
X143166510Y-129980261D01*
X143166498Y-129980264D01*
X143020827Y-130040602D01*
X143020814Y-130040609D01*
X142889711Y-130128210D01*
X142889707Y-130128213D01*
X142778213Y-130239707D01*
X142778210Y-130239711D01*
X142690609Y-130370814D01*
X142690602Y-130370827D01*
X142630264Y-130516498D01*
X142630261Y-130516508D01*
X142599362Y-130671847D01*
X142590597Y-130688602D01*
X142586578Y-130707081D01*
X142567834Y-130732118D01*
X142566977Y-130733758D01*
X142565427Y-130735335D01*
X142524224Y-130776538D01*
X142524212Y-130776552D01*
X142419478Y-130881286D01*
X142377113Y-130954667D01*
X142377112Y-130954668D01*
X142340423Y-131018215D01*
X142299499Y-131170943D01*
X142299499Y-131170945D01*
X142299499Y-131339046D01*
X142299500Y-131339059D01*
X142299500Y-131625499D01*
X142296949Y-131634184D01*
X142298238Y-131643144D01*
X142287260Y-131667183D01*
X142279815Y-131692538D01*
X142272974Y-131698465D01*
X142269214Y-131706700D01*
X142246979Y-131720989D01*
X142227011Y-131738293D01*
X142216499Y-131740579D01*
X142210437Y-131744476D01*
X142175505Y-131749498D01*
X142175502Y-131749499D01*
X142120943Y-131749499D01*
X142120939Y-131749499D01*
X142113333Y-131749500D01*
X142113332Y-131749499D01*
X142113331Y-131749500D01*
X138500098Y-131749500D01*
X138433059Y-131729815D01*
X138412417Y-131713181D01*
X137492077Y-130792842D01*
X137458592Y-130731519D01*
X137458141Y-130680973D01*
X137470500Y-130618842D01*
X137470500Y-130461158D01*
X137470500Y-130461155D01*
X137470499Y-130461153D01*
X137439738Y-130306510D01*
X137439737Y-130306503D01*
X137412071Y-130239711D01*
X137379397Y-130160827D01*
X137379390Y-130160814D01*
X137291789Y-130029711D01*
X137291786Y-130029707D01*
X137180292Y-129918213D01*
X137180288Y-129918210D01*
X137049185Y-129830609D01*
X137049172Y-129830602D01*
X136903501Y-129770264D01*
X136903489Y-129770261D01*
X136748845Y-129739500D01*
X136748842Y-129739500D01*
X136591158Y-129739500D01*
X136591155Y-129739500D01*
X136436510Y-129770261D01*
X136436498Y-129770264D01*
X136290827Y-129830602D01*
X136290814Y-129830609D01*
X136159711Y-129918210D01*
X136159707Y-129918213D01*
X136048213Y-130029707D01*
X136048210Y-130029711D01*
X135960609Y-130160814D01*
X135960602Y-130160827D01*
X135900264Y-130306498D01*
X135900261Y-130306510D01*
X135869500Y-130461153D01*
X135869500Y-130618846D01*
X135900261Y-130773489D01*
X135900264Y-130773501D01*
X135960602Y-130919172D01*
X135960609Y-130919185D01*
X136048210Y-131050288D01*
X136048213Y-131050292D01*
X136159705Y-131161784D01*
X136159713Y-131161791D01*
X136161379Y-131162904D01*
X136180535Y-131178692D01*
X136188092Y-131186313D01*
X136189480Y-131188716D01*
X136301284Y-131300520D01*
X136301286Y-131300521D01*
X137831284Y-132830520D01*
X137831285Y-132830521D01*
X137831287Y-132830522D01*
X137937925Y-132892089D01*
X137986140Y-132942655D01*
X137999364Y-133011262D01*
X137973396Y-133076127D01*
X137963606Y-133087157D01*
X137437584Y-133613181D01*
X137376261Y-133646666D01*
X137349903Y-133649500D01*
X136250098Y-133649500D01*
X136183059Y-133629815D01*
X136162417Y-133613181D01*
X135917717Y-133368481D01*
X135917709Y-133368475D01*
X135830655Y-133318215D01*
X135830654Y-133318215D01*
X135780785Y-133289423D01*
X135628057Y-133248499D01*
X135469943Y-133248499D01*
X135462347Y-133248499D01*
X135462331Y-133248500D01*
X134904634Y-133248500D01*
X134837595Y-133228815D01*
X134791840Y-133176011D01*
X134781896Y-133106853D01*
X134801532Y-133055609D01*
X134842925Y-132993659D01*
X134842925Y-132993658D01*
X134842929Y-132993653D01*
X134897619Y-132861620D01*
X134916199Y-132768214D01*
X134925500Y-132721457D01*
X134925500Y-132578542D01*
X134897620Y-132438385D01*
X134897619Y-132438384D01*
X134897619Y-132438380D01*
X134842929Y-132306347D01*
X134842928Y-132306346D01*
X134842925Y-132306340D01*
X134763532Y-132187521D01*
X134763529Y-132187517D01*
X134662482Y-132086470D01*
X134662478Y-132086467D01*
X134543659Y-132007074D01*
X134543650Y-132007069D01*
X134411620Y-131952381D01*
X134411614Y-131952379D01*
X134271457Y-131924500D01*
X134271455Y-131924500D01*
X134174500Y-131924500D01*
X134107461Y-131904815D01*
X134061706Y-131852011D01*
X134050500Y-131800500D01*
X134050500Y-129250097D01*
X134070185Y-129183058D01*
X134086819Y-129162416D01*
X134448674Y-128800561D01*
X134868830Y-128380406D01*
X134947887Y-128243474D01*
X134988811Y-128090747D01*
X134988811Y-128041457D01*
X140354499Y-128041457D01*
X140382379Y-128181614D01*
X140382381Y-128181620D01*
X140437069Y-128313650D01*
X140437074Y-128313659D01*
X140516467Y-128432478D01*
X140516470Y-128432482D01*
X140617517Y-128533529D01*
X140617521Y-128533532D01*
X140736340Y-128612925D01*
X140736346Y-128612928D01*
X140736347Y-128612929D01*
X140868380Y-128667619D01*
X140868384Y-128667619D01*
X140868385Y-128667620D01*
X141008542Y-128695500D01*
X141008545Y-128695500D01*
X141151455Y-128695500D01*
X141201308Y-128685583D01*
X141270898Y-128691809D01*
X141326076Y-128734671D01*
X141349322Y-128800561D01*
X141349500Y-128807200D01*
X141349500Y-128878846D01*
X141380261Y-129033489D01*
X141380264Y-129033501D01*
X141440602Y-129179172D01*
X141440609Y-129179185D01*
X141528210Y-129310288D01*
X141528213Y-129310292D01*
X141639707Y-129421786D01*
X141639711Y-129421789D01*
X141770814Y-129509390D01*
X141770827Y-129509397D01*
X141838016Y-129537227D01*
X141916503Y-129569737D01*
X142071153Y-129600499D01*
X142071156Y-129600500D01*
X142071158Y-129600500D01*
X142228844Y-129600500D01*
X142228845Y-129600499D01*
X142383497Y-129569737D01*
X142529179Y-129509394D01*
X142660289Y-129421789D01*
X142771789Y-129310289D01*
X142859394Y-129179179D01*
X142862806Y-129170943D01*
X142883304Y-129121455D01*
X142919737Y-129033497D01*
X142950500Y-128878842D01*
X142950500Y-128721158D01*
X142950500Y-128721155D01*
X142950499Y-128721153D01*
X142943424Y-128685583D01*
X142919737Y-128566503D01*
X142906079Y-128533529D01*
X142859397Y-128420827D01*
X142859390Y-128420814D01*
X142771789Y-128289711D01*
X142771786Y-128289707D01*
X142660292Y-128178213D01*
X142660288Y-128178210D01*
X142529185Y-128090609D01*
X142529172Y-128090602D01*
X142383501Y-128030264D01*
X142383489Y-128030261D01*
X142228845Y-127999500D01*
X142228842Y-127999500D01*
X142071158Y-127999500D01*
X142071155Y-127999500D01*
X141953691Y-128022865D01*
X141884100Y-128016638D01*
X141828922Y-127973775D01*
X141805678Y-127907885D01*
X141805500Y-127901248D01*
X141805500Y-127898542D01*
X141777620Y-127758385D01*
X141777619Y-127758384D01*
X141777619Y-127758380D01*
X141722929Y-127626347D01*
X141701396Y-127594121D01*
X141680520Y-127527444D01*
X141680500Y-127525232D01*
X141680500Y-124110096D01*
X141700185Y-124043057D01*
X141716814Y-124022420D01*
X143008506Y-122730727D01*
X143008511Y-122730724D01*
X143018714Y-122720520D01*
X143018716Y-122720520D01*
X143130520Y-122608716D01*
X143185229Y-122513957D01*
X143209577Y-122471785D01*
X143250500Y-122319058D01*
X143250500Y-122160943D01*
X143250500Y-122004766D01*
X143270185Y-121937727D01*
X143271399Y-121935874D01*
X143292929Y-121903653D01*
X143347619Y-121771620D01*
X143358986Y-121714475D01*
X143375500Y-121631457D01*
X143375500Y-121488542D01*
X143347620Y-121348385D01*
X143347619Y-121348384D01*
X143347619Y-121348380D01*
X143292929Y-121216347D01*
X143292928Y-121216346D01*
X143292925Y-121216340D01*
X143213532Y-121097521D01*
X143213529Y-121097517D01*
X143112482Y-120996470D01*
X143112478Y-120996467D01*
X142993659Y-120917074D01*
X142993650Y-120917069D01*
X142861620Y-120862381D01*
X142861614Y-120862379D01*
X142721457Y-120834500D01*
X142721455Y-120834500D01*
X142578545Y-120834500D01*
X142578543Y-120834500D01*
X142438385Y-120862379D01*
X142438379Y-120862381D01*
X142306349Y-120917069D01*
X142306340Y-120917074D01*
X142187521Y-120996467D01*
X142187517Y-120996470D01*
X142086470Y-121097517D01*
X142086467Y-121097521D01*
X142007074Y-121216340D01*
X142007069Y-121216349D01*
X141952381Y-121348379D01*
X141952379Y-121348385D01*
X141924500Y-121488542D01*
X141924500Y-121488545D01*
X141924500Y-121631455D01*
X141924500Y-121631457D01*
X141924499Y-121631457D01*
X141952379Y-121771614D01*
X141952381Y-121771620D01*
X142007068Y-121903648D01*
X142009011Y-121907281D01*
X142023259Y-121975682D01*
X141998265Y-122040928D01*
X141987339Y-122053425D01*
X140599481Y-123441282D01*
X140599479Y-123441285D01*
X140549361Y-123528094D01*
X140549359Y-123528096D01*
X140520425Y-123578209D01*
X140520424Y-123578210D01*
X140520423Y-123578215D01*
X140479499Y-123730943D01*
X140479499Y-123730945D01*
X140479499Y-123899046D01*
X140479500Y-123899059D01*
X140479500Y-127525232D01*
X140459815Y-127592271D01*
X140458603Y-127594122D01*
X140437070Y-127626348D01*
X140382381Y-127758379D01*
X140382379Y-127758385D01*
X140354500Y-127898542D01*
X140354500Y-127898545D01*
X140354500Y-128041455D01*
X140354500Y-128041457D01*
X140354499Y-128041457D01*
X134988811Y-128041457D01*
X134988811Y-127932632D01*
X134988811Y-127925037D01*
X134988810Y-127925019D01*
X134988810Y-123309985D01*
X135008495Y-123242946D01*
X135025129Y-123222304D01*
X137935614Y-120311819D01*
X137996937Y-120278334D01*
X138023295Y-120275500D01*
X144778126Y-120275500D01*
X144845165Y-120295185D01*
X144865807Y-120311819D01*
X144867517Y-120313529D01*
X144867521Y-120313532D01*
X144986340Y-120392925D01*
X144986346Y-120392928D01*
X144986347Y-120392929D01*
X145118380Y-120447619D01*
X145118384Y-120447619D01*
X145118385Y-120447620D01*
X145258542Y-120475500D01*
X145258545Y-120475500D01*
X145401457Y-120475500D01*
X145495751Y-120456742D01*
X145541620Y-120447619D01*
X145673653Y-120392929D01*
X145792479Y-120313532D01*
X145893532Y-120212479D01*
X145972929Y-120093653D01*
X146027619Y-119961620D01*
X146034842Y-119925309D01*
X146067226Y-119863398D01*
X146127942Y-119828824D01*
X146156459Y-119825500D01*
X146658331Y-119825500D01*
X146658347Y-119825501D01*
X146665943Y-119825501D01*
X146824054Y-119825501D01*
X146824057Y-119825501D01*
X146976785Y-119784577D01*
X147029647Y-119754057D01*
X147029648Y-119754057D01*
X147113709Y-119705524D01*
X147113708Y-119705524D01*
X147113716Y-119705520D01*
X147225520Y-119593716D01*
X147225520Y-119593714D01*
X147235724Y-119583511D01*
X147235728Y-119583506D01*
X147648713Y-119170521D01*
X147648716Y-119170520D01*
X147760520Y-119058716D01*
X147810639Y-118971904D01*
X147839577Y-118921785D01*
X147880500Y-118769058D01*
X147880500Y-118610943D01*
X147880500Y-118354776D01*
X147900185Y-118287737D01*
X147901398Y-118285885D01*
X147983371Y-118163204D01*
X147983371Y-118163203D01*
X147983375Y-118163198D01*
X148038065Y-118031165D01*
X148065946Y-117891000D01*
X148065946Y-117748090D01*
X148065946Y-117748087D01*
X148038066Y-117607930D01*
X148038065Y-117607929D01*
X148038065Y-117607925D01*
X147983375Y-117475892D01*
X147983374Y-117475891D01*
X147983371Y-117475885D01*
X147903978Y-117357066D01*
X147903975Y-117357062D01*
X147802928Y-117256015D01*
X147802924Y-117256012D01*
X147684105Y-117176619D01*
X147684096Y-117176614D01*
X147552066Y-117121926D01*
X147552060Y-117121924D01*
X147411903Y-117094045D01*
X147411901Y-117094045D01*
X147268991Y-117094045D01*
X147268989Y-117094045D01*
X147128831Y-117121924D01*
X147128825Y-117121926D01*
X146996795Y-117176614D01*
X146996786Y-117176619D01*
X146877967Y-117256012D01*
X146877963Y-117256015D01*
X146776916Y-117357062D01*
X146776913Y-117357066D01*
X146697520Y-117475885D01*
X146697515Y-117475894D01*
X146642827Y-117607924D01*
X146642825Y-117607930D01*
X146614946Y-117748087D01*
X146614946Y-117748090D01*
X146614946Y-117891000D01*
X146614946Y-117891002D01*
X146614945Y-117891002D01*
X146642825Y-118031159D01*
X146642827Y-118031165D01*
X146670061Y-118096913D01*
X146671687Y-118105090D01*
X146674477Y-118109431D01*
X146679500Y-118144366D01*
X146679500Y-118389903D01*
X146659815Y-118456942D01*
X146643181Y-118477584D01*
X146532584Y-118588181D01*
X146471261Y-118621666D01*
X146444903Y-118624500D01*
X137623471Y-118624500D01*
X137623455Y-118624499D01*
X137615859Y-118624499D01*
X137457745Y-118624499D01*
X137350389Y-118653265D01*
X137305012Y-118665424D01*
X137305011Y-118665425D01*
X137254898Y-118694359D01*
X137254897Y-118694360D01*
X137211491Y-118719420D01*
X137168087Y-118744479D01*
X137168084Y-118744481D01*
X133457789Y-122454776D01*
X133457785Y-122454781D01*
X133414724Y-122529367D01*
X133414724Y-122529368D01*
X133378731Y-122591708D01*
X133365089Y-122642618D01*
X133337807Y-122744437D01*
X133337807Y-122744439D01*
X133337807Y-122912540D01*
X133337808Y-122912553D01*
X133337808Y-127488212D01*
X133318123Y-127555251D01*
X133301489Y-127575893D01*
X132804771Y-128072610D01*
X132743448Y-128106095D01*
X132741283Y-128106546D01*
X132703276Y-128114106D01*
X132703273Y-128114107D01*
X132571241Y-128168796D01*
X132571232Y-128168801D01*
X132452413Y-128248194D01*
X132452409Y-128248197D01*
X132351362Y-128349244D01*
X132351359Y-128349248D01*
X132271966Y-128468067D01*
X132271961Y-128468076D01*
X132217273Y-128600106D01*
X132217271Y-128600112D01*
X132189392Y-128740269D01*
X132189392Y-128740272D01*
X132189392Y-128883182D01*
X132189392Y-128883184D01*
X132189391Y-128883184D01*
X123602089Y-128883184D01*
X123603005Y-105158104D01*
X123622692Y-105091070D01*
X123675277Y-105045418D01*
X135540199Y-99599785D01*
X135573574Y-99585961D01*
X135576332Y-99583201D01*
X135579879Y-99581574D01*
X135579880Y-99581572D01*
X135579882Y-99581572D01*
X135602882Y-99556774D01*
X135606059Y-99553474D01*
X135629976Y-99529559D01*
X135629978Y-99529552D01*
X135633390Y-99524446D01*
X135633391Y-99524445D01*
X135633404Y-99524425D01*
X135633909Y-99523668D01*
X135634122Y-99523092D01*
X135634124Y-99523091D01*
X135646683Y-99489222D01*
X135660500Y-99455867D01*
X135660500Y-99451965D01*
X135661858Y-99448304D01*
X135660587Y-99414537D01*
X135660500Y-99409875D01*
X135660500Y-93361153D01*
X137409500Y-93361153D01*
X137409500Y-93518846D01*
X137440261Y-93673489D01*
X137440264Y-93673501D01*
X137500602Y-93819172D01*
X137500609Y-93819185D01*
X137588210Y-93950288D01*
X137588213Y-93950292D01*
X137699707Y-94061786D01*
X137699711Y-94061789D01*
X137830814Y-94149390D01*
X137830827Y-94149397D01*
X137976498Y-94209735D01*
X137976503Y-94209737D01*
X138131153Y-94240499D01*
X138131156Y-94240500D01*
X138131158Y-94240500D01*
X138288844Y-94240500D01*
X138288845Y-94240499D01*
X138443497Y-94209737D01*
X138589179Y-94149394D01*
X138720289Y-94061789D01*
X138831789Y-93950289D01*
X138919394Y-93819179D01*
X138979737Y-93673497D01*
X139010500Y-93518842D01*
X139010500Y-93361158D01*
X139010500Y-93361155D01*
X139010499Y-93361153D01*
X138979738Y-93206510D01*
X138979737Y-93206503D01*
X138979735Y-93206498D01*
X138919397Y-93060827D01*
X138919390Y-93060814D01*
X138831789Y-92929711D01*
X138831786Y-92929707D01*
X138720292Y-92818213D01*
X138720288Y-92818210D01*
X138589185Y-92730609D01*
X138589172Y-92730602D01*
X138443501Y-92670264D01*
X138443489Y-92670261D01*
X138288845Y-92639500D01*
X138288842Y-92639500D01*
X138131158Y-92639500D01*
X138131155Y-92639500D01*
X137976510Y-92670261D01*
X137976498Y-92670264D01*
X137830827Y-92730602D01*
X137830814Y-92730609D01*
X137699711Y-92818210D01*
X137699707Y-92818213D01*
X137588213Y-92929707D01*
X137588210Y-92929711D01*
X137500609Y-93060814D01*
X137500602Y-93060827D01*
X137440264Y-93206498D01*
X137440261Y-93206510D01*
X137409500Y-93361153D01*
X135660500Y-93361153D01*
X135660500Y-92999884D01*
X135660501Y-92999882D01*
X135660500Y-87894410D01*
X135680185Y-87827372D01*
X135696819Y-87806730D01*
X135934607Y-87568942D01*
X136212818Y-87290732D01*
X136212818Y-87290730D01*
X136222406Y-87281143D01*
X136222451Y-87281085D01*
X136226428Y-87277110D01*
X136292148Y-87178761D01*
X136337418Y-87069479D01*
X136360498Y-86953466D01*
X136360498Y-86934200D01*
X136360500Y-86934197D01*
X136360500Y-86874437D01*
X136360501Y-86854441D01*
X136360500Y-86854438D01*
X136360500Y-86020118D01*
X136360500Y-86007273D01*
X136333207Y-85905413D01*
X136280480Y-85814087D01*
X136205913Y-85739520D01*
X136114587Y-85686793D01*
X136012727Y-85659500D01*
X136012726Y-85659500D01*
X135784500Y-85659500D01*
X135717461Y-85639815D01*
X135671706Y-85587011D01*
X135660500Y-85535500D01*
X135660500Y-84363819D01*
X135661560Y-84347643D01*
X135665169Y-84320238D01*
X135673543Y-84288985D01*
X135680985Y-84271022D01*
X135697165Y-84242998D01*
X135714048Y-84220997D01*
X135724728Y-84208820D01*
X135736067Y-84197483D01*
X135747130Y-84186421D01*
X135747130Y-84186420D01*
X135764563Y-84168989D01*
X135764568Y-84168980D01*
X136812818Y-83120732D01*
X136812818Y-83120730D01*
X136822406Y-83111143D01*
X136822451Y-83111085D01*
X136826428Y-83107110D01*
X136892148Y-83008761D01*
X136937418Y-82899479D01*
X136960498Y-82783466D01*
X136960498Y-82775941D01*
X136960498Y-82764199D01*
X136960500Y-82764197D01*
X136960500Y-82724307D01*
X136960501Y-82684441D01*
X136960500Y-82684438D01*
X136960500Y-82523769D01*
X136968806Y-82495481D01*
X136974492Y-82466549D01*
X136978539Y-82462335D01*
X136980185Y-82456730D01*
X137002464Y-82437424D01*
X137022891Y-82416157D01*
X137028574Y-82414800D01*
X137032989Y-82410975D01*
X137062171Y-82406779D01*
X137090850Y-82399932D01*
X137098853Y-82401504D01*
G37*
%TD.AperFunction*%
%TD*%
D22*
X145330000Y-119750000D03*
X142833400Y-90380000D03*
X134200000Y-132650000D03*
X132914892Y-128811727D03*
X143486600Y-90380000D03*
X147340446Y-117819545D03*
X145203200Y-88640000D03*
X153270000Y-120920000D03*
X143875000Y-131975000D03*
X151750000Y-129300000D03*
X148600000Y-136000000D03*
X136810000Y-83960000D03*
X138460000Y-90810000D03*
X142100000Y-91120000D03*
X140270000Y-83555000D03*
X132850000Y-126600000D03*
X145940000Y-89430000D03*
X143460000Y-88590000D03*
X131150000Y-136000000D03*
X136110000Y-85060000D03*
X139300000Y-123730000D03*
X145810000Y-86960000D03*
X146690000Y-128110000D03*
X156000000Y-123630000D03*
X143000000Y-83405000D03*
X143950000Y-123760000D03*
X144002007Y-90853667D03*
X141250000Y-136350000D03*
X143260000Y-80360000D03*
X149960000Y-123650000D03*
X131300000Y-134400000D03*
X145600000Y-135750000D03*
X141000000Y-149400000D03*
X142500000Y-135850000D03*
X152100000Y-135700000D03*
X147830000Y-128110000D03*
X140020000Y-127950000D03*
X137930000Y-127980000D03*
X145730000Y-83405000D03*
X133550000Y-136250000D03*
X138980000Y-127960000D03*
X134900000Y-128450000D03*
X145970000Y-91900000D03*
X140150000Y-92050000D03*
X144900000Y-128350000D03*
X144550000Y-88640000D03*
X152616800Y-120920000D03*
X143950000Y-134550000D03*
X133950000Y-134650000D03*
X144360000Y-80510000D03*
X150200000Y-129050000D03*
X145460000Y-80510000D03*
X134700000Y-134350000D03*
X138000000Y-152100000D03*
X138860000Y-80510000D03*
X133600000Y-155500000D03*
X137760000Y-80510000D03*
X149500000Y-158750000D03*
X139960000Y-80510000D03*
X136670000Y-130540000D03*
X142160000Y-80510000D03*
X143400000Y-130750000D03*
X149450000Y-164050000D03*
X133850000Y-149900000D03*
X145150000Y-149750000D03*
X131650000Y-153450000D03*
X151250000Y-151250000D03*
X141060000Y-81260000D03*
X145200000Y-151450000D03*
X141060000Y-80360000D03*
X142150000Y-128800000D03*
X132500000Y-150700000D03*
X138210000Y-93440000D03*
X148200000Y-150850000D03*
X131250000Y-149850000D03*
X148725000Y-149325000D03*
X147000000Y-152200000D03*
X141785000Y-92190000D03*
X141080000Y-127970000D03*
X142650000Y-121560000D03*
D23*
X154450000Y-162150000D03*
X154450000Y-164150000D03*
X151000000Y-144325000D03*
X131000000Y-144325000D03*
M02*
