M48
; DRILL file {KiCad 9.0.2} date 2025-06-23T16:33:29+0800
; FORMAT={-:-/ absolute / metric / decimal}
; #@! TF.CreationDate,2025-06-23T16:33:29+08:00
; #@! TF.GenerationSoftware,Kicad,Pcbnew,9.0.2
; #@! TF.FileFunction,Plated,1,6,PTH
FMAT,2
METRIC
; #@! TA.AperFunction,Plated,PTH,ViaDrill
T1C0.300
; #@! TA.AperFunction,Plated,PTH,ComponentDrill
T2C0.800
%
G90
G05
T1
X131.15Y-136.0
X131.25Y-149.85
X131.3Y-134.4
X131.65Y-153.45
X132.5Y-150.7
X132.85Y-126.6
X132.915Y-128.812
X133.55Y-136.25
X133.6Y-155.5
X133.85Y-149.9
X133.95Y-134.65
X134.2Y-132.65
X134.7Y-134.35
X134.9Y-128.45
X136.11Y-85.06
X136.67Y-130.54
X136.81Y-83.96
X137.76Y-80.51
X137.93Y-127.98
X138.0Y-152.1
X138.21Y-93.44
X138.46Y-90.81
X138.86Y-80.51
X138.98Y-127.96
X139.3Y-123.73
X139.96Y-80.51
X140.02Y-127.95
X140.15Y-92.05
X140.27Y-83.555
X141.0Y-149.4
X141.06Y-80.36
X141.06Y-81.26
X141.08Y-127.97
X141.25Y-136.35
X141.785Y-92.19
X142.1Y-91.12
X142.15Y-128.8
X142.16Y-80.51
X142.5Y-135.85
X142.65Y-121.56
X142.833Y-90.38
X143.0Y-83.405
X143.26Y-80.36
X143.4Y-130.75
X143.46Y-88.59
X143.487Y-90.38
X143.875Y-131.975
X143.95Y-123.76
X143.95Y-134.55
X144.002Y-90.854
X144.36Y-80.51
X144.55Y-88.64
X144.9Y-128.35
X145.15Y-149.75
X145.2Y-151.45
X145.203Y-88.64
X145.33Y-119.75
X145.46Y-80.51
X145.6Y-135.75
X145.73Y-83.405
X145.81Y-86.96
X145.94Y-89.43
X145.97Y-91.9
X146.69Y-128.11
X147.0Y-152.2
X147.34Y-117.82
X147.83Y-128.11
X148.2Y-150.85
X148.6Y-136.0
X148.725Y-149.325
X149.45Y-164.05
X149.5Y-158.75
X149.96Y-123.65
X150.2Y-129.05
X151.25Y-151.25
X151.75Y-129.3
X152.1Y-135.7
X152.617Y-120.92
X153.27Y-120.92
X156.0Y-123.63
T2
X154.45Y-162.15
X154.45Y-164.15
M30
