%TF.GenerationSoftware,KiCad,Pcbnew,9.0.2*%
%TF.CreationDate,2025-06-23T16:33:29+08:00*%
%TF.ProjectId,SDEX2M2 MicroSD Express to M.2 NVMe Adapter for Switch 2 WIP,53444558-324d-4322-904d-6963726f5344,rev?*%
%TF.SameCoordinates,Original*%
%TF.FileFunction,Soldermask,Bot*%
%TF.FilePolarity,Negative*%
%FSLAX46Y46*%
G04 Gerber Fmt 4.6, Leading zero omitted, Abs format (unit mm)*
G04 Created by KiCad (PCBNEW 9.0.2) date 2025-06-23 16:33:29*
%MOMM*%
%LPD*%
G01*
G04 APERTURE LIST*
G04 Aperture macros list*
%AMRoundRect*
0 Rectangle with rounded corners*
0 $1 Rounding radius*
0 $2 $3 $4 $5 $6 $7 $8 $9 X,Y pos of 4 corners*
0 Add a 4 corners polygon primitive as box body*
4,1,4,$2,$3,$4,$5,$6,$7,$8,$9,$2,$3,0*
0 Add four circle primitives for the rounded corners*
1,1,$1+$1,$2,$3*
1,1,$1+$1,$4,$5*
1,1,$1+$1,$6,$7*
1,1,$1+$1,$8,$9*
0 Add four rect primitives between the rounded corners*
20,1,$1+$1,$2,$3,$4,$5,0*
20,1,$1+$1,$4,$5,$6,$7,0*
20,1,$1+$1,$6,$7,$8,$9,0*
20,1,$1+$1,$8,$9,$2,$3,0*%
G04 Aperture macros list end*
%ADD10R,1.350000X1.350000*%
%ADD11C,1.350000*%
%ADD12RoundRect,0.200000X0.200000X0.275000X-0.200000X0.275000X-0.200000X-0.275000X0.200000X-0.275000X0*%
%ADD13C,1.150000*%
%ADD14C,1.650000*%
%ADD15RoundRect,0.102000X0.150000X0.775000X-0.150000X0.775000X-0.150000X-0.775000X0.150000X-0.775000X0*%
%ADD16RoundRect,0.102000X0.600000X1.375000X-0.600000X1.375000X-0.600000X-1.375000X0.600000X-1.375000X0*%
G04 APERTURE END LIST*
D10*
%TO.C,J2*%
X154450000Y-162150000D03*
D11*
X154450000Y-164150000D03*
%TD*%
D12*
%TO.C,R1*%
X134825000Y-153400000D03*
X133175000Y-153400000D03*
%TD*%
D13*
%TO.C,J4*%
X151000000Y-144325000D03*
D14*
X131000000Y-144325000D03*
D15*
X150250000Y-139050000D03*
X150000000Y-146600000D03*
X149750000Y-139050000D03*
X149500000Y-146600000D03*
X149250000Y-139050000D03*
X149000000Y-146600000D03*
X148750000Y-139050000D03*
X148500000Y-146600000D03*
X148250000Y-139050000D03*
X148000000Y-146600000D03*
X147750000Y-139050000D03*
X147500000Y-146600000D03*
X147250000Y-139050000D03*
X147000000Y-146600000D03*
X146750000Y-139050000D03*
X146500000Y-146600000D03*
X146250000Y-139050000D03*
X146000000Y-146600000D03*
X145750000Y-139050000D03*
X145500000Y-146600000D03*
X145250000Y-139050000D03*
X145000000Y-146600000D03*
X144750000Y-139050000D03*
X144500000Y-146600000D03*
X144250000Y-139050000D03*
X144000000Y-146600000D03*
X143750000Y-139050000D03*
X143500000Y-146600000D03*
X143250000Y-139050000D03*
X143000000Y-146600000D03*
X142750000Y-139050000D03*
X142500000Y-146600000D03*
X142250000Y-139050000D03*
X142000000Y-146600000D03*
X141750000Y-139050000D03*
X141500000Y-146600000D03*
X141250000Y-139050000D03*
X141000000Y-146600000D03*
X140750000Y-139050000D03*
X140500000Y-146600000D03*
X140250000Y-139050000D03*
X140000000Y-146600000D03*
X139750000Y-139050000D03*
X139500000Y-146600000D03*
X139250000Y-139050000D03*
X139000000Y-146600000D03*
X138750000Y-139050000D03*
X138500000Y-146600000D03*
X138250000Y-139050000D03*
X138000000Y-146600000D03*
X137750000Y-139050000D03*
X137500000Y-146600000D03*
X137250000Y-139050000D03*
X137000000Y-146600000D03*
X136750000Y-139050000D03*
X136500000Y-146600000D03*
X136250000Y-139050000D03*
X136000000Y-146600000D03*
X133750000Y-139050000D03*
X133500000Y-146600000D03*
X133250000Y-139050000D03*
X133000000Y-146600000D03*
X132750000Y-139050000D03*
X132500000Y-146600000D03*
X132250000Y-139050000D03*
X132000000Y-146600000D03*
X131750000Y-139050000D03*
D16*
X151350000Y-139825000D03*
X130650000Y-139825000D03*
%TD*%
M02*
