%TF.GenerationSoftware,KiCad,Pcbnew,9.0.2*%
%TF.CreationDate,2025-07-29T12:02:09+08:00*%
%TF.ProjectId,MicroSD Express to FPC,4d696372-6f53-4442-9045-787072657373,rev?*%
%TF.SameCoordinates,Original*%
%TF.FileFunction,Soldermask,Bot*%
%TF.FilePolarity,Negative*%
%FSLAX46Y46*%
G04 Gerber Fmt 4.6, Leading zero omitted, Abs format (unit mm)*
G04 Created by KiCad (PCBNEW 9.0.2) date 2025-07-29 12:02:09*
%MOMM*%
%LPD*%
G01*
G04 APERTURE LIST*
G04 Aperture macros list*
%AMRoundRect*
0 Rectangle with rounded corners*
0 $1 Rounding radius*
0 $2 $3 $4 $5 $6 $7 $8 $9 X,Y pos of 4 corners*
0 Add a 4 corners polygon primitive as box body*
4,1,4,$2,$3,$4,$5,$6,$7,$8,$9,$2,$3,0*
0 Add four circle primitives for the rounded corners*
1,1,$1+$1,$2,$3*
1,1,$1+$1,$4,$5*
1,1,$1+$1,$6,$7*
1,1,$1+$1,$8,$9*
0 Add four rect primitives between the rounded corners*
20,1,$1+$1,$2,$3,$4,$5,0*
20,1,$1+$1,$4,$5,$6,$7,0*
20,1,$1+$1,$6,$7,$8,$9,0*
20,1,$1+$1,$8,$9,$2,$3,0*%
G04 Aperture macros list end*
%ADD10C,0.010000*%
%ADD11RoundRect,0.102000X0.150000X0.550000X-0.150000X0.550000X-0.150000X-0.550000X0.150000X-0.550000X0*%
G04 APERTURE END LIST*
D10*
%TO.C,J3*%
X151980000Y-110155000D02*
X151180000Y-110155000D01*
X151180000Y-110505000D01*
X149680000Y-110505000D01*
X149680000Y-108355000D01*
X151980000Y-108355000D01*
X151980000Y-110155000D01*
G36*
X151980000Y-110155000D02*
G01*
X151180000Y-110155000D01*
X151180000Y-110505000D01*
X149680000Y-110505000D01*
X149680000Y-108355000D01*
X151980000Y-108355000D01*
X151980000Y-110155000D01*
G37*
X131480000Y-110505000D02*
X129980000Y-110505000D01*
X129980000Y-110155000D01*
X129180000Y-110155000D01*
X129180000Y-108355000D01*
X131480000Y-108355000D01*
X131480000Y-110505000D01*
G36*
X131480000Y-110505000D02*
G01*
X129980000Y-110505000D01*
X129980000Y-110155000D01*
X129180000Y-110155000D01*
X129180000Y-108355000D01*
X131480000Y-108355000D01*
X131480000Y-110505000D01*
G37*
%TD*%
D11*
%TO.C,J3*%
X148080000Y-108305000D03*
X147080000Y-108305000D03*
X146080000Y-108305000D03*
X145080000Y-108305000D03*
X144080000Y-108305000D03*
X143080000Y-108305000D03*
X142080000Y-108305000D03*
X141080000Y-108305000D03*
X140080000Y-108305000D03*
X139080000Y-108305000D03*
X138080000Y-108305000D03*
X137080000Y-108305000D03*
X136080000Y-108305000D03*
X135080000Y-108305000D03*
X134080000Y-108305000D03*
X133080000Y-108305000D03*
%TD*%
M02*
