%TF.GenerationSoftware,KiCad,Pcbnew,9.0.2*%
%TF.CreationDate,2025-07-29T12:02:09+08:00*%
%TF.ProjectId,MicroSD Express to FPC,4d696372-6f53-4442-9045-787072657373,rev?*%
%TF.SameCoordinates,Original*%
%TF.FileFunction,Copper,L1,Top*%
%TF.FilePolarity,Positive*%
%FSLAX46Y46*%
G04 Gerber Fmt 4.6, Leading zero omitted, Abs format (unit mm)*
G04 Created by KiCad (PCBNEW 9.0.2) date 2025-07-29 12:02:09*
%MOMM*%
%LPD*%
G01*
G04 APERTURE LIST*
%TA.AperFunction,SMDPad,CuDef*%
%ADD10R,0.800000X2.900000*%
%TD*%
%TA.AperFunction,SMDPad,CuDef*%
%ADD11R,0.800000X3.200000*%
%TD*%
%TA.AperFunction,SMDPad,CuDef*%
%ADD12R,0.760000X1.670000*%
%TD*%
%TA.AperFunction,SMDPad,CuDef*%
%ADD13R,0.760000X1.370000*%
%TD*%
%TA.AperFunction,ViaPad*%
%ADD14C,0.600000*%
%TD*%
%TA.AperFunction,ViaPad*%
%ADD15C,0.450000*%
%TD*%
%TA.AperFunction,Conductor*%
%ADD16C,0.205232*%
%TD*%
%TA.AperFunction,Conductor*%
%ADD17C,0.300000*%
%TD*%
%TA.AperFunction,Conductor*%
%ADD18C,0.400000*%
%TD*%
G04 APERTURE END LIST*
D10*
%TO.P,J1,1,~{CLKREQ}/DAT2*%
%TO.N,/CLKREQ*%
X137760000Y-80510000D03*
%TO.P,J1,2,~{PERST}/DAT3/CD*%
%TO.N,/PERST*%
X138860000Y-80510000D03*
%TO.P,J1,3,CMD*%
%TO.N,/CMD*%
X139960000Y-80510000D03*
D11*
%TO.P,J1,4,3V3*%
%TO.N,/3V3*%
X141060000Y-80360000D03*
D10*
%TO.P,J1,5,CLK*%
%TO.N,/CLK*%
X142160000Y-80510000D03*
D11*
%TO.P,J1,6,GND*%
%TO.N,GND*%
X143260000Y-80360000D03*
D10*
%TO.P,J1,7,REFCLK+/DAT0*%
%TO.N,/REFCLK+*%
X144360000Y-80510000D03*
%TO.P,J1,8,REFCLK-/DAT1*%
%TO.N,/REFCLK-*%
X145460000Y-80510000D03*
D12*
%TO.P,J1,9,1V8*%
%TO.N,/1V8*%
X138230000Y-83555000D03*
%TO.P,J1,10,GND*%
%TO.N,GND*%
X140270000Y-83555000D03*
D13*
%TO.P,J1,11,PCIe_TX+*%
%TO.N,/TX+*%
X141180000Y-83405000D03*
%TO.P,J1,12,PCIe_TX-*%
%TO.N,/TX-*%
X142090000Y-83405000D03*
%TO.P,J1,13,GND*%
%TO.N,GND*%
X143000000Y-83405000D03*
%TO.P,J1,14,PCIe_RX-*%
%TO.N,/RX-*%
X143910000Y-83405000D03*
%TO.P,J1,15,PCIe_RX+*%
%TO.N,/RX+*%
X144820000Y-83405000D03*
%TO.P,J1,16,GND*%
%TO.N,GND*%
X145730000Y-83405000D03*
D12*
%TO.P,J1,17,1V2*%
%TO.N,unconnected-(J1-1V2-Pad17)*%
X139360000Y-83555000D03*
%TD*%
D14*
%TO.N,GND*%
X140270000Y-85250000D03*
D15*
%TO.N,/TX+*%
X142833400Y-90380000D03*
%TO.N,/TX-*%
X143486600Y-90380000D03*
D14*
%TO.N,/3V3*%
X141060000Y-81260000D03*
X141060000Y-80360000D03*
%TO.N,/PERST*%
X138860000Y-80510000D03*
%TO.N,/CLKREQ*%
X137760000Y-80510000D03*
%TO.N,/CMD*%
X139960000Y-80510000D03*
D15*
%TO.N,/RX+*%
X145203200Y-88640000D03*
D14*
%TO.N,/CLK*%
X142160000Y-80510000D03*
D15*
%TO.N,/1V8*%
X141785000Y-92190000D03*
D14*
%TO.N,GND*%
X136810000Y-83960000D03*
D15*
X142100000Y-91120000D03*
X145940000Y-89430000D03*
X143460000Y-88590000D03*
D14*
X136110000Y-85060000D03*
D15*
X145810000Y-86960000D03*
D14*
X143000000Y-83405000D03*
X144002007Y-90853667D03*
X143260000Y-80360000D03*
X145730000Y-83405000D03*
D15*
X145970000Y-91900000D03*
D14*
X140150000Y-92050000D03*
D15*
%TO.N,/RX-*%
X144550000Y-88640000D03*
%TO.N,/REFCLK+*%
X144360000Y-80510000D03*
%TO.N,/REFCLK-*%
X145460000Y-80510000D03*
%TD*%
D16*
%TO.N,/TX-*%
X142090000Y-84432501D02*
X142090000Y-83405000D01*
X141839216Y-84683285D02*
X142090000Y-84432501D01*
X141839216Y-87481983D02*
X141839216Y-84683285D01*
X143364217Y-90257617D02*
X143364217Y-90211696D01*
X143486600Y-90380000D02*
X143364217Y-90257617D01*
X143098143Y-89569337D02*
X142425002Y-88896196D01*
X143364217Y-90211696D02*
G75*
G03*
X143098138Y-89569342I-908417J-4D01*
G01*
X142425002Y-88896196D02*
G75*
G02*
X141839223Y-87481983I1414198J1414196D01*
G01*
%TO.N,/RX+*%
X145136600Y-88640000D02*
X145120000Y-88623400D01*
X144569216Y-84683285D02*
X144820000Y-84432501D01*
X145120000Y-88410000D02*
X145014217Y-88304217D01*
X145014217Y-88304217D02*
X145014217Y-88071696D01*
X144748143Y-87429337D02*
X144715662Y-87396856D01*
X144820000Y-84432501D02*
X144820000Y-83405000D01*
X145120000Y-88623400D02*
X145120000Y-88410000D01*
X144569216Y-87043303D02*
X144569216Y-84683285D01*
X145014217Y-88071696D02*
G75*
G03*
X144748138Y-87429342I-908417J-4D01*
G01*
X144715662Y-87396856D02*
G75*
G02*
X144569209Y-87043303I353538J353556D01*
G01*
D17*
%TO.N,/1V8*%
X141785000Y-91785000D02*
X138230000Y-88230000D01*
X138230000Y-88230000D02*
X138230000Y-83555000D01*
X141785000Y-92190000D02*
X141785000Y-91785000D01*
D18*
%TO.N,GND*%
X143000000Y-83402500D02*
X143000000Y-85337500D01*
X145730000Y-83405000D02*
X145730000Y-84910000D01*
D16*
%TO.N,/RX-*%
X143910000Y-84432501D02*
X143910000Y-83405000D01*
X144605783Y-88517617D02*
X144605783Y-88071696D01*
X144160784Y-84683285D02*
X143910000Y-84432501D01*
X144459336Y-87718142D02*
X144426857Y-87685663D01*
X144483400Y-88640000D02*
X144605783Y-88517617D01*
X144160784Y-87043305D02*
X144160784Y-84683285D01*
X144605783Y-88071696D02*
G75*
G03*
X144459330Y-87718148I-499983J-4D01*
G01*
X144426857Y-87685663D02*
G75*
G02*
X144160776Y-87043305I642343J642363D01*
G01*
%TO.N,/TX+*%
X141430784Y-84683285D02*
X141180000Y-84432501D01*
X141430784Y-87481985D02*
X141430784Y-84683285D01*
X142809336Y-89858142D02*
X142136197Y-89185003D01*
X142955783Y-90211696D02*
G75*
G03*
X142809330Y-89858148I-499983J-4D01*
G01*
X142833400Y-90380000D02*
X142955783Y-90257617D01*
X141430784Y-87481985D02*
G75*
G03*
X142136193Y-89185007I2408416J-15D01*
G01*
X141180000Y-84432501D02*
X141180000Y-83405000D01*
X142955783Y-90257617D02*
X142955783Y-90211696D01*
D18*
%TO.N,GND*%
X140270000Y-85250000D02*
X140270000Y-85520000D01*
X140270000Y-83555000D02*
X140270000Y-85250000D01*
%TD*%
%TA.AperFunction,Conductor*%
%TO.N,GND*%
G36*
X137098853Y-82401504D02*
G01*
X137102147Y-82401031D01*
X137121227Y-82405900D01*
X137125482Y-82406737D01*
X137126663Y-82407150D01*
X137252517Y-82454091D01*
X137264340Y-82455362D01*
X137277839Y-82460089D01*
X137334605Y-82500824D01*
X137360338Y-82565783D01*
X137357536Y-82605626D01*
X137355909Y-82612513D01*
X137349501Y-82672116D01*
X137349500Y-82672135D01*
X137349500Y-84437870D01*
X137349501Y-84437876D01*
X137355908Y-84497483D01*
X137406202Y-84632328D01*
X137406203Y-84632329D01*
X137406204Y-84632331D01*
X137492454Y-84747546D01*
X137529810Y-84775510D01*
X137571682Y-84831443D01*
X137579500Y-84874777D01*
X137579500Y-88294071D01*
X137603915Y-88416807D01*
X137603916Y-88416823D01*
X137603918Y-88416823D01*
X137604498Y-88419742D01*
X137625204Y-88469729D01*
X137653535Y-88538127D01*
X137724723Y-88644669D01*
X137724726Y-88644673D01*
X137724727Y-88644674D01*
X141035711Y-91955656D01*
X141069196Y-92016979D01*
X141069648Y-92067527D01*
X141059500Y-92118545D01*
X141059500Y-92261455D01*
X141059500Y-92261457D01*
X141059499Y-92261457D01*
X141087379Y-92401614D01*
X141087381Y-92401620D01*
X141142069Y-92533650D01*
X141142074Y-92533659D01*
X141221467Y-92652478D01*
X141221470Y-92652482D01*
X141322517Y-92753529D01*
X141322521Y-92753532D01*
X141441340Y-92832925D01*
X141441346Y-92832928D01*
X141441347Y-92832929D01*
X141573380Y-92887619D01*
X141573384Y-92887619D01*
X141573385Y-92887620D01*
X141713542Y-92915500D01*
X141713545Y-92915500D01*
X141856457Y-92915500D01*
X141950751Y-92896742D01*
X141996620Y-92887619D01*
X142128653Y-92832929D01*
X142247479Y-92753532D01*
X142348532Y-92652479D01*
X142427929Y-92533653D01*
X142482619Y-92401620D01*
X142510500Y-92261455D01*
X142510500Y-92118545D01*
X142510500Y-92118542D01*
X142482620Y-91978385D01*
X142482619Y-91978384D01*
X142482619Y-91978380D01*
X142482617Y-91978375D01*
X142444939Y-91887410D01*
X142435500Y-91839958D01*
X142435500Y-91720928D01*
X142410502Y-91595261D01*
X142410501Y-91595260D01*
X142410501Y-91595256D01*
X142361465Y-91476873D01*
X142361464Y-91476872D01*
X142361461Y-91476866D01*
X142290277Y-91370332D01*
X142290276Y-91370331D01*
X142199669Y-91279724D01*
X138916819Y-87996873D01*
X138883334Y-87935550D01*
X138880500Y-87909192D01*
X138880500Y-85014499D01*
X138900185Y-84947460D01*
X138952989Y-84901705D01*
X139004495Y-84890499D01*
X139787872Y-84890499D01*
X139804096Y-84888755D01*
X139830604Y-84888755D01*
X139842177Y-84889999D01*
X139842178Y-84890000D01*
X140701149Y-84890000D01*
X140701149Y-84891015D01*
X140765029Y-84906111D01*
X140813544Y-84956391D01*
X140827668Y-85013865D01*
X140827668Y-87568942D01*
X140827674Y-87569039D01*
X140827674Y-87629929D01*
X140835884Y-87713287D01*
X140856673Y-87924387D01*
X140856673Y-87924390D01*
X140914398Y-88214605D01*
X141000293Y-88497767D01*
X141113524Y-88771131D01*
X141113531Y-88771145D01*
X141253010Y-89032095D01*
X141417404Y-89278128D01*
X141605119Y-89506860D01*
X141649243Y-89550983D01*
X141649262Y-89551004D01*
X142115521Y-90017262D01*
X142149006Y-90078585D01*
X142144022Y-90148276D01*
X142142404Y-90152389D01*
X142135781Y-90168380D01*
X142135779Y-90168386D01*
X142107900Y-90308542D01*
X142107900Y-90308545D01*
X142107900Y-90451455D01*
X142107900Y-90451457D01*
X142107899Y-90451457D01*
X142135779Y-90591614D01*
X142135781Y-90591620D01*
X142190469Y-90723650D01*
X142190474Y-90723659D01*
X142269867Y-90842478D01*
X142269870Y-90842482D01*
X142370917Y-90943529D01*
X142370921Y-90943532D01*
X142489740Y-91022925D01*
X142489749Y-91022930D01*
X142519658Y-91035318D01*
X142621780Y-91077619D01*
X142621784Y-91077619D01*
X142621785Y-91077620D01*
X142761942Y-91105500D01*
X142761945Y-91105500D01*
X142904857Y-91105500D01*
X142999151Y-91086742D01*
X143045020Y-91077619D01*
X143112547Y-91049647D01*
X143182015Y-91042178D01*
X143207450Y-91049647D01*
X143237513Y-91062099D01*
X143274974Y-91077617D01*
X143274977Y-91077617D01*
X143274980Y-91077619D01*
X143274984Y-91077619D01*
X143274985Y-91077620D01*
X143415142Y-91105500D01*
X143415145Y-91105500D01*
X143558057Y-91105500D01*
X143652351Y-91086742D01*
X143698220Y-91077619D01*
X143830253Y-91022929D01*
X143949079Y-90943532D01*
X144050132Y-90842479D01*
X144129529Y-90723653D01*
X144184219Y-90591620D01*
X144212100Y-90451455D01*
X144212100Y-90308545D01*
X144212100Y-90308542D01*
X144184220Y-90168385D01*
X144184219Y-90168384D01*
X144184219Y-90168380D01*
X144129529Y-90036347D01*
X144129528Y-90036346D01*
X144129525Y-90036340D01*
X144050132Y-89917521D01*
X144050129Y-89917517D01*
X143949082Y-89816470D01*
X143949077Y-89816466D01*
X143946079Y-89814463D01*
X143944862Y-89813007D01*
X143944371Y-89812604D01*
X143944447Y-89812510D01*
X143901273Y-89760852D01*
X143895193Y-89743452D01*
X143890190Y-89724781D01*
X143890189Y-89724776D01*
X143814360Y-89541714D01*
X143814354Y-89541705D01*
X143814353Y-89541701D01*
X143715293Y-89370129D01*
X143715282Y-89370112D01*
X143690347Y-89337617D01*
X143594660Y-89212917D01*
X143594658Y-89212915D01*
X143594655Y-89212911D01*
X143524605Y-89142864D01*
X142854351Y-88472610D01*
X142848804Y-88466688D01*
X142736353Y-88338462D01*
X142726479Y-88325594D01*
X142633998Y-88187186D01*
X142625888Y-88173138D01*
X142552262Y-88023838D01*
X142546054Y-88008852D01*
X142533757Y-87972626D01*
X142503974Y-87884885D01*
X142492545Y-87851214D01*
X142488348Y-87835548D01*
X142465388Y-87720118D01*
X142455873Y-87672283D01*
X142453758Y-87656224D01*
X142442596Y-87485903D01*
X142442332Y-87477805D01*
X142442333Y-87408757D01*
X142442332Y-87408752D01*
X142442332Y-84984466D01*
X142462017Y-84917427D01*
X142478651Y-84896785D01*
X142500659Y-84874777D01*
X142572613Y-84802823D01*
X142652014Y-84665295D01*
X142652014Y-84665293D01*
X142656077Y-84658257D01*
X142657510Y-84659084D01*
X142695332Y-84612147D01*
X142761625Y-84590079D01*
X142766056Y-84590000D01*
X143233944Y-84590000D01*
X143300983Y-84609685D01*
X143343355Y-84658584D01*
X143343923Y-84658257D01*
X143345624Y-84661203D01*
X143346738Y-84662489D01*
X143347878Y-84665107D01*
X143347985Y-84665293D01*
X143347986Y-84665295D01*
X143395473Y-84747546D01*
X143427386Y-84802821D01*
X143427388Y-84802824D01*
X143521349Y-84896785D01*
X143554834Y-84958108D01*
X143557668Y-84984466D01*
X143557668Y-86970072D01*
X143557667Y-86970077D01*
X143557667Y-86985894D01*
X143557667Y-86991941D01*
X143557659Y-86991968D01*
X143557660Y-87142381D01*
X143577190Y-87290710D01*
X143583526Y-87338831D01*
X143634811Y-87530225D01*
X143710640Y-87713287D01*
X143710641Y-87713288D01*
X143710646Y-87713299D01*
X143809706Y-87884871D01*
X143809712Y-87884880D01*
X143809715Y-87884885D01*
X143930341Y-88042083D01*
X143946275Y-88058017D01*
X143979762Y-88119339D01*
X143974779Y-88189030D01*
X143961698Y-88214591D01*
X143907074Y-88296340D01*
X143907069Y-88296349D01*
X143852381Y-88428379D01*
X143852379Y-88428385D01*
X143824500Y-88568542D01*
X143824500Y-88568545D01*
X143824500Y-88711455D01*
X143824500Y-88711457D01*
X143824499Y-88711457D01*
X143852379Y-88851614D01*
X143852381Y-88851620D01*
X143907069Y-88983650D01*
X143907074Y-88983659D01*
X143986467Y-89102478D01*
X143986470Y-89102482D01*
X144087517Y-89203529D01*
X144087521Y-89203532D01*
X144206340Y-89282925D01*
X144206349Y-89282930D01*
X144236258Y-89295318D01*
X144338380Y-89337619D01*
X144338384Y-89337619D01*
X144338385Y-89337620D01*
X144478542Y-89365500D01*
X144478545Y-89365500D01*
X144621457Y-89365500D01*
X144715751Y-89346742D01*
X144761620Y-89337619D01*
X144829147Y-89309647D01*
X144898615Y-89302178D01*
X144924050Y-89309647D01*
X144954113Y-89322099D01*
X144991574Y-89337617D01*
X144991577Y-89337617D01*
X144991580Y-89337619D01*
X144991584Y-89337619D01*
X144991585Y-89337620D01*
X145131742Y-89365500D01*
X145131745Y-89365500D01*
X145274657Y-89365500D01*
X145368951Y-89346742D01*
X145414820Y-89337619D01*
X145546853Y-89282929D01*
X145665679Y-89203532D01*
X145766732Y-89102479D01*
X145846129Y-88983653D01*
X145900819Y-88851620D01*
X145928700Y-88711455D01*
X145928700Y-88568545D01*
X145928700Y-88568542D01*
X145900820Y-88428385D01*
X145900819Y-88428384D01*
X145900819Y-88428380D01*
X145846129Y-88296347D01*
X145846128Y-88296346D01*
X145846125Y-88296340D01*
X145766732Y-88177521D01*
X145766729Y-88177517D01*
X145665683Y-88076471D01*
X145662672Y-88074000D01*
X145661518Y-88072306D01*
X145661372Y-88072160D01*
X145661399Y-88072132D01*
X145623339Y-88016253D01*
X145617339Y-87978148D01*
X145617339Y-87972626D01*
X145617338Y-87972612D01*
X145612458Y-87935550D01*
X145591475Y-87776170D01*
X145540189Y-87584776D01*
X145464360Y-87401714D01*
X145464354Y-87401705D01*
X145464353Y-87401701D01*
X145365293Y-87230129D01*
X145365282Y-87230112D01*
X145244665Y-87072923D01*
X145244658Y-87072915D01*
X145208651Y-87036908D01*
X145175166Y-86975585D01*
X145172332Y-86949227D01*
X145172332Y-84984466D01*
X145192017Y-84917427D01*
X145208651Y-84896785D01*
X145230659Y-84874777D01*
X145302613Y-84802823D01*
X145382014Y-84665295D01*
X145382014Y-84665293D01*
X145386077Y-84658257D01*
X145387510Y-84659084D01*
X145425332Y-84612147D01*
X145491625Y-84590079D01*
X145496056Y-84590000D01*
X146135500Y-84590000D01*
X146202539Y-84609685D01*
X146248294Y-84662489D01*
X146259500Y-84714000D01*
X146259500Y-92920118D01*
X146259500Y-99412153D01*
X146258125Y-99448193D01*
X146259500Y-99451907D01*
X146259500Y-99455867D01*
X146272405Y-99487024D01*
X146274115Y-99491387D01*
X146285815Y-99522993D01*
X146289074Y-99528298D01*
X146289569Y-99529104D01*
X146313833Y-99553368D01*
X146317112Y-99556774D01*
X146340027Y-99581507D01*
X146340029Y-99581507D01*
X146345083Y-99585171D01*
X146345084Y-99585172D01*
X146345836Y-99585717D01*
X146377546Y-99598851D01*
X146381879Y-99600743D01*
X158226116Y-105044778D01*
X158278809Y-105090661D01*
X158298330Y-105157748D01*
X158298328Y-105158142D01*
X158241314Y-115316196D01*
X158221254Y-115383124D01*
X158168194Y-115428582D01*
X158117316Y-115439500D01*
X123666403Y-115439500D01*
X123599364Y-115419815D01*
X123553609Y-115367011D01*
X123542405Y-115314775D01*
X123601800Y-105157938D01*
X123621876Y-105091019D01*
X123674071Y-105045972D01*
X135540199Y-99599785D01*
X135573574Y-99585961D01*
X135576332Y-99583201D01*
X135579879Y-99581574D01*
X135579880Y-99581572D01*
X135579882Y-99581572D01*
X135602882Y-99556774D01*
X135606059Y-99553474D01*
X135629976Y-99529559D01*
X135629978Y-99529552D01*
X135633390Y-99524446D01*
X135633391Y-99524445D01*
X135633404Y-99524425D01*
X135633909Y-99523668D01*
X135634122Y-99523092D01*
X135634124Y-99523091D01*
X135646683Y-99489222D01*
X135660500Y-99455867D01*
X135660500Y-99451965D01*
X135661858Y-99448304D01*
X135660587Y-99414537D01*
X135660500Y-99409875D01*
X135660500Y-92999884D01*
X135660501Y-92999882D01*
X135660500Y-87894410D01*
X135680185Y-87827372D01*
X135696819Y-87806730D01*
X135934607Y-87568942D01*
X136212818Y-87290732D01*
X136212818Y-87290730D01*
X136222406Y-87281143D01*
X136222451Y-87281085D01*
X136226428Y-87277110D01*
X136292148Y-87178761D01*
X136337418Y-87069479D01*
X136360498Y-86953466D01*
X136360498Y-86934200D01*
X136360500Y-86934197D01*
X136360500Y-86874437D01*
X136360501Y-86854441D01*
X136360500Y-86854438D01*
X136360500Y-86020118D01*
X136360500Y-86007273D01*
X136333207Y-85905413D01*
X136280480Y-85814087D01*
X136205913Y-85739520D01*
X136114587Y-85686793D01*
X136012727Y-85659500D01*
X136012726Y-85659500D01*
X135784500Y-85659500D01*
X135717461Y-85639815D01*
X135671706Y-85587011D01*
X135660500Y-85535500D01*
X135660500Y-84363819D01*
X135661560Y-84347643D01*
X135665169Y-84320238D01*
X135673543Y-84288985D01*
X135680985Y-84271022D01*
X135697165Y-84242998D01*
X135714048Y-84220997D01*
X135724728Y-84208820D01*
X135736067Y-84197483D01*
X135747130Y-84186421D01*
X135747130Y-84186420D01*
X135764563Y-84168989D01*
X135764568Y-84168980D01*
X136812818Y-83120732D01*
X136812818Y-83120730D01*
X136822406Y-83111143D01*
X136822451Y-83111085D01*
X136826428Y-83107110D01*
X136892148Y-83008761D01*
X136937418Y-82899479D01*
X136960498Y-82783466D01*
X136960498Y-82775941D01*
X136960498Y-82764199D01*
X136960500Y-82764197D01*
X136960500Y-82724307D01*
X136960501Y-82684441D01*
X136960500Y-82684438D01*
X136960500Y-82523769D01*
X136968806Y-82495481D01*
X136974492Y-82466549D01*
X136978539Y-82462335D01*
X136980185Y-82456730D01*
X137002464Y-82437424D01*
X137022891Y-82416157D01*
X137028574Y-82414800D01*
X137032989Y-82410975D01*
X137062171Y-82406779D01*
X137090850Y-82399932D01*
X137098853Y-82401504D01*
G37*
%TD.AperFunction*%
%TD*%
M02*
