M48
; DRILL file {KiCad 9.0.2} date 2025-07-29T12:02:21+0800
; FORMAT={-:-/ absolute / metric / decimal}
; #@! TF.CreationDate,2025-07-29T12:02:21+08:00
; #@! TF.GenerationSoftware,Kicad,Pcbnew,9.0.2
; #@! TF.FileFunction,Plated,1,2,PTH
FMAT,2
METRIC
; #@! TA.AperFunction,Plated,PTH,ViaDrill
T1C0.300
%
G90
G05
T1
X136.11Y-85.06
X136.81Y-83.96
X137.76Y-80.51
X138.86Y-80.51
X139.96Y-80.51
X140.15Y-92.05
X140.27Y-85.25
X141.06Y-80.36
X141.06Y-81.26
X141.785Y-92.19
X142.1Y-91.12
X142.16Y-80.51
X142.833Y-90.38
X143.0Y-83.405
X143.26Y-80.36
X143.46Y-88.59
X143.487Y-90.38
X144.002Y-90.854
X144.36Y-80.51
X144.55Y-88.64
X145.203Y-88.64
X145.46Y-80.51
X145.73Y-83.405
X145.81Y-86.96
X145.94Y-89.43
X145.97Y-91.9
M30
