%TF.GenerationSoftware,KiCad,Pcbnew,9.0.2*%
%TF.CreationDate,2025-07-29T12:02:09+08:00*%
%TF.ProjectId,MicroSD Express to FPC,4d696372-6f53-4442-9045-787072657373,rev?*%
%TF.SameCoordinates,Original*%
%TF.FileFunction,Copper,L2,Bot*%
%TF.FilePolarity,Positive*%
%FSLAX46Y46*%
G04 Gerber Fmt 4.6, Leading zero omitted, Abs format (unit mm)*
G04 Created by KiCad (PCBNEW 9.0.2) date 2025-07-29 12:02:09*
%MOMM*%
%LPD*%
G01*
G04 APERTURE LIST*
G04 Aperture macros list*
%AMFreePoly0*
4,1,17,1.053536,0.978536,1.055000,0.975000,1.055000,-0.975000,1.053536,-0.978536,1.050000,-0.980000,-1.050000,-0.980000,-1.053536,-0.978536,-1.055000,-0.975000,-1.055000,0.625000,-1.053536,0.628536,-1.050000,0.630000,-0.255000,0.630000,-0.255000,0.975000,-0.253536,0.978536,-0.250000,0.980000,1.050000,0.980000,1.053536,0.978536,1.053536,0.978536,$1*%
%AMFreePoly1*
4,1,17,0.253536,0.978536,0.255000,0.975000,0.255000,0.630000,1.050000,0.630000,1.053536,0.628536,1.055000,0.625000,1.055000,-0.975000,1.053536,-0.978536,1.050000,-0.980000,-1.050000,-0.980000,-1.053536,-0.978536,-1.055000,-0.975000,-1.055000,0.975000,-1.053536,0.978536,-1.050000,0.980000,0.250000,0.980000,0.253536,0.978536,0.253536,0.978536,$1*%
G04 Aperture macros list end*
%TA.AperFunction,SMDPad,CuDef*%
%ADD10FreePoly0,180.000000*%
%TD*%
%TA.AperFunction,SMDPad,CuDef*%
%ADD11FreePoly1,180.000000*%
%TD*%
%TA.AperFunction,SMDPad,CuDef*%
%ADD12R,0.300000X1.100000*%
%TD*%
%TA.AperFunction,ViaPad*%
%ADD13C,0.600000*%
%TD*%
%TA.AperFunction,ViaPad*%
%ADD14C,0.450000*%
%TD*%
%TA.AperFunction,Conductor*%
%ADD15C,0.200000*%
%TD*%
%TA.AperFunction,Conductor*%
%ADD16C,0.205232*%
%TD*%
%TA.AperFunction,Conductor*%
%ADD17C,0.400000*%
%TD*%
%TA.AperFunction,Conductor*%
%ADD18C,0.300000*%
%TD*%
G04 APERTURE END LIST*
D10*
%TO.P,J3,S1*%
%TO.N,N/C*%
X150830000Y-109430000D03*
D11*
%TO.P,J3,S2*%
X130330000Y-109430000D03*
D12*
%TO.P,J3,1,1*%
%TO.N,GND*%
X148080000Y-108305000D03*
%TO.P,J3,2,2*%
%TO.N,/RX+*%
X147080000Y-108305000D03*
%TO.P,J3,3,3*%
%TO.N,/RX-*%
X146080000Y-108305000D03*
%TO.P,J3,4,4*%
%TO.N,GND*%
X145080000Y-108305000D03*
%TO.P,J3,5,5*%
%TO.N,/TX-*%
X144080000Y-108305000D03*
%TO.P,J3,6,6*%
%TO.N,/TX+*%
X143080000Y-108305000D03*
%TO.P,J3,7,7*%
%TO.N,GND*%
X142080000Y-108305000D03*
%TO.P,J3,8,8*%
%TO.N,/1V8*%
X141080000Y-108305000D03*
%TO.P,J3,9,9*%
%TO.N,/REFCLK-*%
X140080000Y-108305000D03*
%TO.P,J3,10,10*%
%TO.N,/REFCLK+*%
X139080000Y-108305000D03*
%TO.P,J3,11,11*%
%TO.N,GND*%
X138080000Y-108305000D03*
%TO.P,J3,12,12*%
%TO.N,/CLK*%
X137080000Y-108305000D03*
%TO.P,J3,13,13*%
%TO.N,/3V3*%
X136080000Y-108305000D03*
%TO.P,J3,14,14*%
%TO.N,/CMD*%
X135080000Y-108305000D03*
%TO.P,J3,15,15*%
%TO.N,/PERST*%
X134080000Y-108305000D03*
%TO.P,J3,16,16*%
%TO.N,/CLKREQ*%
X133080000Y-108305000D03*
%TD*%
D13*
%TO.N,GND*%
X140270000Y-85250000D03*
D14*
%TO.N,/TX+*%
X142833400Y-90380000D03*
%TO.N,/TX-*%
X143486600Y-90380000D03*
D13*
%TO.N,/3V3*%
X141060000Y-81260000D03*
X141060000Y-80360000D03*
%TO.N,/PERST*%
X138860000Y-80510000D03*
%TO.N,/CLKREQ*%
X137760000Y-80510000D03*
%TO.N,/CMD*%
X139960000Y-80510000D03*
D14*
%TO.N,/RX+*%
X145203200Y-88640000D03*
D13*
%TO.N,/CLK*%
X142160000Y-80510000D03*
D14*
%TO.N,/1V8*%
X141785000Y-92190000D03*
D13*
%TO.N,GND*%
X136810000Y-83960000D03*
D14*
X142100000Y-91120000D03*
X145940000Y-89430000D03*
X143460000Y-88590000D03*
D13*
X136110000Y-85060000D03*
D14*
X145810000Y-86960000D03*
D13*
X143000000Y-83405000D03*
X144002007Y-90853667D03*
X143260000Y-80360000D03*
X145730000Y-83405000D03*
D14*
X145970000Y-91900000D03*
D13*
X140150000Y-92050000D03*
D14*
%TO.N,/RX-*%
X144550000Y-88640000D03*
%TO.N,/REFCLK+*%
X144360000Y-80510000D03*
%TO.N,/REFCLK-*%
X145460000Y-80510000D03*
%TD*%
D15*
%TO.N,/TX-*%
X143385001Y-90481599D02*
X143486600Y-90380000D01*
X143385001Y-102316803D02*
X143385001Y-90481599D01*
X143805000Y-102736802D02*
X143385001Y-102316803D01*
X143805000Y-107204999D02*
X143805000Y-102736802D01*
X144080000Y-107479999D02*
X143805000Y-107204999D01*
X144080000Y-108305000D02*
X144080000Y-107479999D01*
%TO.N,/TX+*%
X142934999Y-90481599D02*
X142833400Y-90380000D01*
X142934999Y-102503197D02*
X142934999Y-90481599D01*
X143355000Y-102923198D02*
X142934999Y-102503197D01*
X143355000Y-107204999D02*
X143355000Y-102923198D01*
X143080000Y-107479999D02*
X143355000Y-107204999D01*
X143080000Y-108305000D02*
X143080000Y-107479999D01*
D16*
%TO.N,/TX-*%
X143486600Y-90380000D02*
X143387616Y-90478984D01*
%TO.N,/TX+*%
X142833400Y-90380000D02*
X142932384Y-90478984D01*
D15*
%TO.N,/1V8*%
X141785000Y-101365000D02*
X141785000Y-92190000D01*
X141080000Y-102070000D02*
X141785000Y-101365000D01*
X141080000Y-108305000D02*
X141080000Y-102070000D01*
%TO.N,/REFCLK+*%
X140601000Y-89480802D02*
X144684999Y-85396803D01*
X140701000Y-92278232D02*
X140701000Y-91821768D01*
X144684999Y-85396803D02*
X144684999Y-80834999D01*
X140501000Y-92478232D02*
X140701000Y-92278232D01*
X140501000Y-101445388D02*
X140501000Y-92478232D01*
X139355000Y-102591388D02*
X140501000Y-101445388D01*
X139355000Y-107204999D02*
X139355000Y-102591388D01*
X139080000Y-107479999D02*
X139355000Y-107204999D01*
X139080000Y-108305000D02*
X139080000Y-107479999D01*
%TO.N,/REFCLK-*%
X145135001Y-85583197D02*
X145135001Y-80834999D01*
X140952000Y-89766198D02*
X145135001Y-85583197D01*
X140952000Y-91576380D02*
X140952000Y-89766198D01*
X140852000Y-92623621D02*
X141052000Y-92423620D01*
X141052000Y-92423620D02*
X141052000Y-91676380D01*
X145135001Y-80834999D02*
X145460000Y-80510000D01*
%TO.N,/REFCLK+*%
X144684999Y-80834999D02*
X144360000Y-80510000D01*
%TO.N,/REFCLK-*%
X140852000Y-101590776D02*
X140852000Y-92623621D01*
%TO.N,/REFCLK+*%
X140701000Y-91821768D02*
X140601000Y-91721768D01*
%TO.N,/REFCLK-*%
X139805000Y-107204999D02*
X139805000Y-102637776D01*
X139805000Y-102637776D02*
X140852000Y-101590776D01*
X140080000Y-108305000D02*
X140080000Y-107479999D01*
%TO.N,/REFCLK+*%
X140601000Y-91721768D02*
X140601000Y-89480802D01*
%TO.N,/REFCLK-*%
X140080000Y-107479999D02*
X139805000Y-107204999D01*
X141052000Y-91676380D02*
X140952000Y-91576380D01*
%TO.N,GND*%
X142080000Y-105700000D02*
X142080000Y-108305000D01*
X142310000Y-94210000D02*
X142310000Y-105470000D01*
X142335000Y-94185000D02*
X142310000Y-94210000D01*
X142310000Y-105470000D02*
X142080000Y-105700000D01*
%TO.N,/CLK*%
X139585000Y-99715000D02*
X137080000Y-102220000D01*
X137080000Y-102220000D02*
X137080000Y-108305000D01*
X139585000Y-88335000D02*
X139585000Y-99715000D01*
X142160000Y-85760000D02*
X139585000Y-88335000D01*
X142160000Y-80510000D02*
X142160000Y-85760000D01*
%TO.N,/3V3*%
X136080000Y-102290000D02*
X138210000Y-100160000D01*
X136080000Y-108305000D02*
X136080000Y-102290000D01*
%TO.N,GND*%
X138080000Y-103370000D02*
X138080000Y-108305000D01*
X140150000Y-101300000D02*
X138080000Y-103370000D01*
X145080000Y-102180000D02*
X143985000Y-101085000D01*
X145080000Y-108305000D02*
X145080000Y-102180000D01*
X148080000Y-101880000D02*
X148080000Y-108305000D01*
X145710000Y-99510000D02*
X148080000Y-101880000D01*
%TO.N,/CMD*%
X135080000Y-102340000D02*
X135080000Y-108305000D01*
X137060000Y-100360000D02*
X135080000Y-102340000D01*
%TO.N,/PERST*%
X134080000Y-102540000D02*
X134080000Y-108305000D01*
X136460000Y-100160000D02*
X134080000Y-102540000D01*
%TO.N,/CLKREQ*%
X133080000Y-102640000D02*
X133080000Y-108305000D01*
X135960000Y-99760000D02*
X133080000Y-102640000D01*
D17*
%TO.N,/3V3*%
X138210000Y-88540000D02*
X138210000Y-93440000D01*
X141060000Y-85690000D02*
X138210000Y-88540000D01*
X141060000Y-80360000D02*
X141060000Y-85690000D01*
D15*
X138210000Y-93440000D02*
X138210000Y-100160000D01*
%TO.N,/PERST*%
X136460000Y-88210000D02*
X136460000Y-100160000D01*
X138860000Y-80510000D02*
X138860000Y-85810000D01*
X138860000Y-85810000D02*
X136460000Y-88210000D01*
%TO.N,/CMD*%
X139690000Y-80780000D02*
X139960000Y-80510000D01*
X137060000Y-100360000D02*
X137060000Y-88440000D01*
X139690000Y-85810000D02*
X139690000Y-80780000D01*
X137060000Y-88440000D02*
X139690000Y-85810000D01*
%TO.N,GND*%
X143370000Y-88590000D02*
X143460000Y-88590000D01*
X144002007Y-90853667D02*
X143990000Y-90841660D01*
X143985000Y-94185000D02*
X143985000Y-101085000D01*
D17*
X143000000Y-86010000D02*
X140150000Y-88860000D01*
D18*
X143990000Y-90865674D02*
X143990000Y-92280000D01*
X142335000Y-94185000D02*
X142335000Y-91355000D01*
D15*
X143990000Y-89680000D02*
X143460000Y-89150000D01*
D17*
X140150000Y-88860000D02*
X140150000Y-92050000D01*
D18*
X144002007Y-90853667D02*
X143990000Y-90865674D01*
D17*
X143260000Y-80360000D02*
X143260000Y-81740000D01*
D15*
X145710000Y-99510000D02*
X145710000Y-92100000D01*
X143460000Y-89150000D02*
X143460000Y-88590000D01*
D18*
X143985000Y-92285000D02*
X143985000Y-94185000D01*
X143990000Y-92280000D02*
X143985000Y-92285000D01*
D15*
X143330000Y-88630000D02*
X143370000Y-88590000D01*
D18*
X142335000Y-91355000D02*
X142100000Y-91120000D01*
D17*
X143000000Y-82000000D02*
X143000000Y-83405000D01*
D15*
X143990000Y-90841660D02*
X143990000Y-89680000D01*
D18*
X140135000Y-92065000D02*
X140150000Y-92050000D01*
X142100000Y-91120000D02*
X142100000Y-89950000D01*
D15*
X145910000Y-91900000D02*
X145970000Y-91900000D01*
D18*
X142100000Y-89950000D02*
X143460000Y-88590000D01*
D17*
X143260000Y-81740000D02*
X143000000Y-82000000D01*
X143000000Y-83405000D02*
X143000000Y-86010000D01*
D15*
X140150000Y-101300000D02*
X140150000Y-92050000D01*
%TO.N,/CLKREQ*%
X137760000Y-86150000D02*
X135960000Y-87950000D01*
X137760000Y-80510000D02*
X137760000Y-86150000D01*
X135960000Y-87950000D02*
X135960000Y-99760000D01*
%TO.N,/RX-*%
X146080000Y-107479999D02*
X146080000Y-108305000D01*
X146355000Y-107204999D02*
X146080000Y-107479999D01*
X146355000Y-102623198D02*
X146355000Y-107204999D01*
X144550000Y-100818198D02*
X146355000Y-102623198D01*
X144550000Y-91084906D02*
X144550000Y-100818198D01*
X144553007Y-91081899D02*
X144550000Y-91084906D01*
X144553007Y-90625435D02*
X144553007Y-91081899D01*
X144550000Y-90622428D02*
X144553007Y-90625435D01*
X144550000Y-88640000D02*
X144550000Y-90622428D01*
%TO.N,/RX+*%
X146805000Y-107204999D02*
X147080000Y-107479999D01*
X146805000Y-102436802D02*
X146805000Y-107204999D01*
X145000001Y-100631803D02*
X146805000Y-102436802D01*
X147080000Y-107479999D02*
X147080000Y-108305000D01*
X145000001Y-88898520D02*
X145000001Y-100631803D01*
X145051000Y-88847521D02*
X145000001Y-88898520D01*
X145051000Y-88792200D02*
X145051000Y-88847521D01*
X145203200Y-88640000D02*
X145051000Y-88792200D01*
%TD*%
%TA.AperFunction,Conductor*%
%TO.N,GND*%
G36*
X146218361Y-80935851D02*
G01*
X146255081Y-80995294D01*
X146259500Y-81028101D01*
X146259500Y-99409785D01*
X146259410Y-99414511D01*
X146258125Y-99448194D01*
X146259109Y-99454368D01*
X146259110Y-99454370D01*
X146259253Y-99455271D01*
X146259500Y-99455867D01*
X146272405Y-99487024D01*
X146274115Y-99491387D01*
X146285815Y-99522993D01*
X146289074Y-99528298D01*
X146289569Y-99529104D01*
X146313833Y-99553368D01*
X146317112Y-99556774D01*
X146340027Y-99581507D01*
X146340029Y-99581507D01*
X146345083Y-99585171D01*
X146345084Y-99585172D01*
X146345836Y-99585717D01*
X146377546Y-99598851D01*
X146381879Y-99600743D01*
X158226116Y-105044778D01*
X158278809Y-105090661D01*
X158298330Y-105157748D01*
X158298328Y-105158142D01*
X158241314Y-115316196D01*
X158221254Y-115383124D01*
X158168194Y-115428582D01*
X158117316Y-115439500D01*
X123666403Y-115439500D01*
X123599364Y-115419815D01*
X123553609Y-115367011D01*
X123542405Y-115314775D01*
X123568327Y-110882018D01*
X123582520Y-108455000D01*
X128764500Y-108455000D01*
X128764500Y-110055002D01*
X128767397Y-110109043D01*
X128802978Y-110248444D01*
X128802981Y-110248452D01*
X128805909Y-110255521D01*
X128805911Y-110255526D01*
X128857695Y-110350362D01*
X128955740Y-110455672D01*
X128955740Y-110455673D01*
X129079474Y-110529089D01*
X129081545Y-110529947D01*
X129086548Y-110532019D01*
X129137584Y-110550024D01*
X129280000Y-110570500D01*
X129513213Y-110570500D01*
X129580252Y-110590185D01*
X129622045Y-110635073D01*
X129657697Y-110700364D01*
X129755739Y-110805671D01*
X129755740Y-110805672D01*
X129755740Y-110805673D01*
X129879474Y-110879089D01*
X129881545Y-110879947D01*
X129886548Y-110882019D01*
X129937584Y-110900024D01*
X130080000Y-110920500D01*
X130080003Y-110920500D01*
X131380002Y-110920500D01*
X131385796Y-110920189D01*
X131434041Y-110917603D01*
X131573452Y-110882019D01*
X131580523Y-110879090D01*
X131675364Y-110827303D01*
X131780671Y-110729261D01*
X131780672Y-110729259D01*
X131780673Y-110729259D01*
X131854089Y-110605525D01*
X131854091Y-110605521D01*
X131857019Y-110598452D01*
X131875024Y-110547416D01*
X131895500Y-110405000D01*
X131895500Y-108455000D01*
X131892603Y-108400959D01*
X131857019Y-108261548D01*
X131854090Y-108254477D01*
X131802303Y-108159636D01*
X131775400Y-108130740D01*
X131704259Y-108054327D01*
X131704259Y-108054326D01*
X131580525Y-107980910D01*
X131573452Y-107977981D01*
X131573431Y-107977973D01*
X131522417Y-107959976D01*
X131474944Y-107953150D01*
X131380000Y-107939500D01*
X129280000Y-107939500D01*
X129279998Y-107939500D01*
X129225956Y-107942397D01*
X129086555Y-107977978D01*
X129086547Y-107977981D01*
X129079478Y-107980909D01*
X129079473Y-107980911D01*
X128984637Y-108032695D01*
X128879327Y-108130740D01*
X128879326Y-108130740D01*
X128805910Y-108254474D01*
X128802981Y-108261547D01*
X128802973Y-108261568D01*
X128784976Y-108312582D01*
X128764500Y-108455000D01*
X123582520Y-108455000D01*
X123601800Y-105157938D01*
X123621876Y-105091019D01*
X123674071Y-105045972D01*
X134414568Y-100116414D01*
X134483704Y-100106341D01*
X134547315Y-100135246D01*
X134585200Y-100193953D01*
X134585332Y-100263822D01*
X134553970Y-100316793D01*
X132711286Y-102159478D01*
X132599481Y-102271282D01*
X132599475Y-102271290D01*
X132549562Y-102357744D01*
X132549562Y-102357745D01*
X132520423Y-102408215D01*
X132479499Y-102560943D01*
X132479499Y-102560945D01*
X132479499Y-102729046D01*
X132479500Y-102729059D01*
X132479500Y-107508271D01*
X132471682Y-107551604D01*
X132435908Y-107647517D01*
X132429501Y-107707116D01*
X132429500Y-107707135D01*
X132429500Y-108902870D01*
X132429501Y-108902876D01*
X132435908Y-108962483D01*
X132486202Y-109097328D01*
X132486206Y-109097335D01*
X132572452Y-109212544D01*
X132572455Y-109212547D01*
X132687664Y-109298793D01*
X132687671Y-109298797D01*
X132732618Y-109315561D01*
X132822517Y-109349091D01*
X132882127Y-109355500D01*
X133277872Y-109355499D01*
X133337483Y-109349091D01*
X133338810Y-109348596D01*
X133472329Y-109298797D01*
X133472329Y-109298796D01*
X133472331Y-109298796D01*
X133505689Y-109273823D01*
X133571151Y-109249406D01*
X133639425Y-109264257D01*
X133654305Y-109273820D01*
X133687669Y-109298796D01*
X133687670Y-109298796D01*
X133687670Y-109298797D01*
X133762155Y-109326577D01*
X133822517Y-109349091D01*
X133882127Y-109355500D01*
X134277872Y-109355499D01*
X134337483Y-109349091D01*
X134338810Y-109348596D01*
X134472329Y-109298797D01*
X134472329Y-109298796D01*
X134472331Y-109298796D01*
X134505689Y-109273823D01*
X134571151Y-109249406D01*
X134639425Y-109264257D01*
X134654305Y-109273820D01*
X134687669Y-109298796D01*
X134687670Y-109298796D01*
X134687670Y-109298797D01*
X134762155Y-109326577D01*
X134822517Y-109349091D01*
X134882127Y-109355500D01*
X135277872Y-109355499D01*
X135337483Y-109349091D01*
X135338810Y-109348596D01*
X135472329Y-109298797D01*
X135472329Y-109298796D01*
X135472331Y-109298796D01*
X135505689Y-109273823D01*
X135571151Y-109249406D01*
X135639425Y-109264257D01*
X135654305Y-109273820D01*
X135687669Y-109298796D01*
X135687670Y-109298796D01*
X135687670Y-109298797D01*
X135762155Y-109326577D01*
X135822517Y-109349091D01*
X135882127Y-109355500D01*
X136277872Y-109355499D01*
X136337483Y-109349091D01*
X136338810Y-109348596D01*
X136472329Y-109298797D01*
X136472329Y-109298796D01*
X136472331Y-109298796D01*
X136505689Y-109273823D01*
X136571151Y-109249406D01*
X136639425Y-109264257D01*
X136654305Y-109273820D01*
X136687669Y-109298796D01*
X136687670Y-109298796D01*
X136687670Y-109298797D01*
X136762155Y-109326577D01*
X136822517Y-109349091D01*
X136882127Y-109355500D01*
X137277872Y-109355499D01*
X137337483Y-109349091D01*
X137338810Y-109348596D01*
X137472329Y-109298797D01*
X137472329Y-109298796D01*
X137472331Y-109298796D01*
X137506106Y-109273511D01*
X137571566Y-109249094D01*
X137639840Y-109263944D01*
X137654728Y-109273512D01*
X137687910Y-109298352D01*
X137687913Y-109298354D01*
X137822620Y-109348596D01*
X137822627Y-109348598D01*
X137882155Y-109354999D01*
X137882172Y-109355000D01*
X137930000Y-109355000D01*
X137930000Y-107255000D01*
X137882155Y-107255000D01*
X137817756Y-107261925D01*
X137748996Y-107249520D01*
X137697859Y-107201910D01*
X137680500Y-107138636D01*
X137680500Y-102520097D01*
X137700185Y-102453058D01*
X137716819Y-102432416D01*
X139688819Y-100460416D01*
X139750142Y-100426931D01*
X139819834Y-100431915D01*
X139875767Y-100473787D01*
X139900184Y-100539251D01*
X139900500Y-100548097D01*
X139900500Y-101145290D01*
X139880815Y-101212329D01*
X139864181Y-101232971D01*
X138874481Y-102222670D01*
X138874479Y-102222673D01*
X138830381Y-102299055D01*
X138830380Y-102299056D01*
X138796496Y-102357744D01*
X138795423Y-102359603D01*
X138754499Y-102512331D01*
X138754499Y-102512333D01*
X138754499Y-102680434D01*
X138754500Y-102680447D01*
X138754500Y-106904901D01*
X138734815Y-106971940D01*
X138718181Y-106992582D01*
X138599481Y-107111281D01*
X138599479Y-107111284D01*
X138583688Y-107138636D01*
X138549360Y-107198094D01*
X138547157Y-107201910D01*
X138534168Y-107224407D01*
X138483599Y-107272621D01*
X138414992Y-107285842D01*
X138383449Y-107278586D01*
X138337379Y-107261403D01*
X138337372Y-107261401D01*
X138277844Y-107255000D01*
X138230000Y-107255000D01*
X138230000Y-109355000D01*
X138277828Y-109355000D01*
X138277844Y-109354999D01*
X138337372Y-109348598D01*
X138337376Y-109348597D01*
X138472090Y-109298351D01*
X138505271Y-109273512D01*
X138570734Y-109249094D01*
X138639008Y-109263945D01*
X138653884Y-109273504D01*
X138687669Y-109298796D01*
X138822517Y-109349091D01*
X138882127Y-109355500D01*
X139277872Y-109355499D01*
X139337483Y-109349091D01*
X139338810Y-109348596D01*
X139472329Y-109298797D01*
X139472329Y-109298796D01*
X139472331Y-109298796D01*
X139505689Y-109273823D01*
X139571151Y-109249406D01*
X139639425Y-109264257D01*
X139654305Y-109273820D01*
X139687669Y-109298796D01*
X139687670Y-109298796D01*
X139687670Y-109298797D01*
X139762155Y-109326577D01*
X139822517Y-109349091D01*
X139882127Y-109355500D01*
X140277872Y-109355499D01*
X140337483Y-109349091D01*
X140338810Y-109348596D01*
X140472329Y-109298797D01*
X140472329Y-109298796D01*
X140472331Y-109298796D01*
X140505689Y-109273823D01*
X140571151Y-109249406D01*
X140639425Y-109264257D01*
X140654305Y-109273820D01*
X140687669Y-109298796D01*
X140687670Y-109298796D01*
X140687670Y-109298797D01*
X140762155Y-109326577D01*
X140822517Y-109349091D01*
X140882127Y-109355500D01*
X141277872Y-109355499D01*
X141337483Y-109349091D01*
X141338810Y-109348596D01*
X141472329Y-109298797D01*
X141472329Y-109298796D01*
X141472331Y-109298796D01*
X141506106Y-109273511D01*
X141571566Y-109249094D01*
X141639840Y-109263944D01*
X141654728Y-109273512D01*
X141687910Y-109298352D01*
X141687913Y-109298354D01*
X141822620Y-109348596D01*
X141822627Y-109348598D01*
X141882155Y-109354999D01*
X141882172Y-109355000D01*
X141930000Y-109355000D01*
X141930000Y-107255000D01*
X141882155Y-107255000D01*
X141817756Y-107261925D01*
X141748996Y-107249520D01*
X141697859Y-107201910D01*
X141680500Y-107138636D01*
X141680500Y-102370097D01*
X141700185Y-102303058D01*
X141716819Y-102282416D01*
X141956171Y-102043064D01*
X142122819Y-101876416D01*
X142184141Y-101842932D01*
X142253833Y-101847916D01*
X142309766Y-101889788D01*
X142334183Y-101955252D01*
X142334499Y-101964098D01*
X142334499Y-102416527D01*
X142334498Y-102416545D01*
X142334498Y-102582251D01*
X142334497Y-102582251D01*
X142334498Y-102582254D01*
X142375422Y-102734982D01*
X142401169Y-102779577D01*
X142454476Y-102871909D01*
X142454480Y-102871914D01*
X142573348Y-102990782D01*
X142573354Y-102990787D01*
X142718181Y-103135614D01*
X142751666Y-103196937D01*
X142754500Y-103223295D01*
X142754500Y-106904901D01*
X142734815Y-106971940D01*
X142718181Y-106992582D01*
X142599481Y-107111281D01*
X142599479Y-107111284D01*
X142583688Y-107138636D01*
X142549360Y-107198094D01*
X142547157Y-107201910D01*
X142534168Y-107224407D01*
X142483599Y-107272621D01*
X142414992Y-107285842D01*
X142383449Y-107278586D01*
X142337379Y-107261403D01*
X142337372Y-107261401D01*
X142277844Y-107255000D01*
X142230000Y-107255000D01*
X142230000Y-109355000D01*
X142277828Y-109355000D01*
X142277844Y-109354999D01*
X142337372Y-109348598D01*
X142337376Y-109348597D01*
X142472090Y-109298351D01*
X142505271Y-109273512D01*
X142570734Y-109249094D01*
X142639008Y-109263945D01*
X142653884Y-109273504D01*
X142687669Y-109298796D01*
X142822517Y-109349091D01*
X142882127Y-109355500D01*
X143277872Y-109355499D01*
X143337483Y-109349091D01*
X143338810Y-109348596D01*
X143472329Y-109298797D01*
X143472329Y-109298796D01*
X143472331Y-109298796D01*
X143505689Y-109273823D01*
X143571151Y-109249406D01*
X143639425Y-109264257D01*
X143654305Y-109273820D01*
X143687669Y-109298796D01*
X143687670Y-109298796D01*
X143687670Y-109298797D01*
X143762155Y-109326577D01*
X143822517Y-109349091D01*
X143882127Y-109355500D01*
X144277872Y-109355499D01*
X144337483Y-109349091D01*
X144338810Y-109348596D01*
X144472329Y-109298797D01*
X144472329Y-109298796D01*
X144472331Y-109298796D01*
X144506106Y-109273511D01*
X144571566Y-109249094D01*
X144639840Y-109263944D01*
X144654728Y-109273512D01*
X144687910Y-109298352D01*
X144687913Y-109298354D01*
X144822620Y-109348596D01*
X144822627Y-109348598D01*
X144882155Y-109354999D01*
X144882172Y-109355000D01*
X144930000Y-109355000D01*
X144930000Y-107255000D01*
X144882155Y-107255000D01*
X144822627Y-107261401D01*
X144822619Y-107261403D01*
X144776550Y-107278586D01*
X144706858Y-107283570D01*
X144645535Y-107250084D01*
X144625830Y-107224403D01*
X144560524Y-107111289D01*
X144560521Y-107111285D01*
X144560520Y-107111283D01*
X144441819Y-106992582D01*
X144408334Y-106931259D01*
X144405500Y-106904901D01*
X144405500Y-102657746D01*
X144405499Y-102657742D01*
X144397953Y-102629577D01*
X144364577Y-102505017D01*
X144317882Y-102424140D01*
X144285520Y-102368086D01*
X144173716Y-102256282D01*
X144173715Y-102256281D01*
X144169385Y-102251951D01*
X144169374Y-102251941D01*
X144021820Y-102104387D01*
X143988335Y-102043064D01*
X143985501Y-102016706D01*
X143985501Y-101402296D01*
X144005186Y-101335257D01*
X144057990Y-101289502D01*
X144127148Y-101279558D01*
X144190704Y-101308583D01*
X144197182Y-101314615D01*
X145718181Y-102835614D01*
X145751666Y-102896937D01*
X145754500Y-102923295D01*
X145754500Y-106904901D01*
X145734815Y-106971940D01*
X145718181Y-106992582D01*
X145599481Y-107111281D01*
X145599479Y-107111284D01*
X145583688Y-107138636D01*
X145549360Y-107198094D01*
X145547157Y-107201910D01*
X145534168Y-107224407D01*
X145483599Y-107272621D01*
X145414992Y-107285842D01*
X145383449Y-107278586D01*
X145337379Y-107261403D01*
X145337372Y-107261401D01*
X145277844Y-107255000D01*
X145230000Y-107255000D01*
X145230000Y-109355000D01*
X145277828Y-109355000D01*
X145277844Y-109354999D01*
X145337372Y-109348598D01*
X145337376Y-109348597D01*
X145472090Y-109298351D01*
X145505271Y-109273512D01*
X145570734Y-109249094D01*
X145639008Y-109263945D01*
X145653884Y-109273504D01*
X145687669Y-109298796D01*
X145822517Y-109349091D01*
X145882127Y-109355500D01*
X146277872Y-109355499D01*
X146337483Y-109349091D01*
X146338810Y-109348596D01*
X146472329Y-109298797D01*
X146472329Y-109298796D01*
X146472331Y-109298796D01*
X146505689Y-109273823D01*
X146571151Y-109249406D01*
X146639425Y-109264257D01*
X146654305Y-109273820D01*
X146687669Y-109298796D01*
X146687670Y-109298796D01*
X146687670Y-109298797D01*
X146762155Y-109326577D01*
X146822517Y-109349091D01*
X146882127Y-109355500D01*
X147277872Y-109355499D01*
X147337483Y-109349091D01*
X147338810Y-109348596D01*
X147472329Y-109298797D01*
X147472329Y-109298796D01*
X147472331Y-109298796D01*
X147506106Y-109273511D01*
X147571566Y-109249094D01*
X147639840Y-109263944D01*
X147654728Y-109273512D01*
X147687910Y-109298352D01*
X147687913Y-109298354D01*
X147822620Y-109348596D01*
X147822627Y-109348598D01*
X147882155Y-109354999D01*
X147882172Y-109355000D01*
X147930000Y-109355000D01*
X148230000Y-109355000D01*
X148277828Y-109355000D01*
X148277844Y-109354999D01*
X148337372Y-109348598D01*
X148337379Y-109348596D01*
X148472086Y-109298354D01*
X148472093Y-109298350D01*
X148587187Y-109212190D01*
X148587190Y-109212187D01*
X148673350Y-109097093D01*
X148673354Y-109097086D01*
X148723596Y-108962379D01*
X148723598Y-108962372D01*
X148729999Y-108902844D01*
X148730000Y-108902827D01*
X148730000Y-108455000D01*
X149264500Y-108455000D01*
X149264500Y-110405002D01*
X149267397Y-110459043D01*
X149302978Y-110598444D01*
X149302981Y-110598452D01*
X149305909Y-110605521D01*
X149305911Y-110605526D01*
X149357695Y-110700362D01*
X149455740Y-110805672D01*
X149455740Y-110805673D01*
X149579474Y-110879089D01*
X149581545Y-110879947D01*
X149586548Y-110882019D01*
X149637584Y-110900024D01*
X149780000Y-110920500D01*
X149780003Y-110920500D01*
X151080002Y-110920500D01*
X151085796Y-110920189D01*
X151134041Y-110917603D01*
X151273452Y-110882019D01*
X151280523Y-110879090D01*
X151375364Y-110827303D01*
X151480671Y-110729261D01*
X151480672Y-110729259D01*
X151480673Y-110729259D01*
X151538840Y-110631226D01*
X151589977Y-110583616D01*
X151645481Y-110570500D01*
X151880002Y-110570500D01*
X151885796Y-110570189D01*
X151934041Y-110567603D01*
X152073452Y-110532019D01*
X152080523Y-110529090D01*
X152175364Y-110477303D01*
X152280671Y-110379261D01*
X152280672Y-110379259D01*
X152280673Y-110379259D01*
X152354089Y-110255525D01*
X152354091Y-110255521D01*
X152357019Y-110248452D01*
X152375024Y-110197416D01*
X152395500Y-110055000D01*
X152395500Y-108455000D01*
X152392603Y-108400959D01*
X152357019Y-108261548D01*
X152354090Y-108254477D01*
X152302303Y-108159636D01*
X152275400Y-108130740D01*
X152204259Y-108054327D01*
X152204259Y-108054326D01*
X152080525Y-107980910D01*
X152073452Y-107977981D01*
X152073431Y-107977973D01*
X152022417Y-107959976D01*
X151974944Y-107953150D01*
X151880000Y-107939500D01*
X149780000Y-107939500D01*
X149779998Y-107939500D01*
X149725956Y-107942397D01*
X149586555Y-107977978D01*
X149586547Y-107977981D01*
X149579478Y-107980909D01*
X149579473Y-107980911D01*
X149484637Y-108032695D01*
X149379327Y-108130740D01*
X149379326Y-108130740D01*
X149305910Y-108254474D01*
X149302981Y-108261547D01*
X149302973Y-108261568D01*
X149284976Y-108312582D01*
X149264500Y-108455000D01*
X148730000Y-108455000D01*
X148230000Y-108455000D01*
X148230000Y-109355000D01*
X147930000Y-109355000D01*
X147930000Y-108155000D01*
X148230000Y-108155000D01*
X148730000Y-108155000D01*
X148730000Y-107707172D01*
X148729999Y-107707155D01*
X148723598Y-107647627D01*
X148723596Y-107647620D01*
X148673354Y-107512913D01*
X148673350Y-107512906D01*
X148587190Y-107397812D01*
X148587187Y-107397809D01*
X148472093Y-107311649D01*
X148472086Y-107311645D01*
X148337379Y-107261403D01*
X148337372Y-107261401D01*
X148277844Y-107255000D01*
X148230000Y-107255000D01*
X148230000Y-108155000D01*
X147930000Y-108155000D01*
X147930000Y-107255000D01*
X147882155Y-107255000D01*
X147822627Y-107261401D01*
X147822619Y-107261403D01*
X147776550Y-107278586D01*
X147706858Y-107283570D01*
X147645535Y-107250084D01*
X147625830Y-107224403D01*
X147560524Y-107111289D01*
X147560521Y-107111285D01*
X147560520Y-107111283D01*
X147441819Y-106992582D01*
X147408334Y-106931259D01*
X147405500Y-106904901D01*
X147405500Y-102357746D01*
X147405500Y-102357744D01*
X147377831Y-102254482D01*
X147364577Y-102205017D01*
X147328585Y-102142678D01*
X147328585Y-102142676D01*
X147285524Y-102068092D01*
X147285521Y-102068088D01*
X147285520Y-102068086D01*
X147173716Y-101956282D01*
X147173715Y-101956281D01*
X147169385Y-101951951D01*
X147169374Y-101951941D01*
X145636820Y-100419387D01*
X145603335Y-100358064D01*
X145600501Y-100331706D01*
X145600501Y-89313361D01*
X145620186Y-89246322D01*
X145655610Y-89210259D01*
X145665679Y-89203532D01*
X145766732Y-89102479D01*
X145846129Y-88983653D01*
X145900819Y-88851620D01*
X145914540Y-88782639D01*
X145928700Y-88711457D01*
X145928700Y-88568542D01*
X145900820Y-88428385D01*
X145900819Y-88428384D01*
X145900819Y-88428380D01*
X145846129Y-88296347D01*
X145846128Y-88296346D01*
X145846125Y-88296340D01*
X145766732Y-88177521D01*
X145766729Y-88177517D01*
X145665682Y-88076470D01*
X145665678Y-88076467D01*
X145546859Y-87997074D01*
X145546850Y-87997069D01*
X145414820Y-87942381D01*
X145414814Y-87942379D01*
X145274657Y-87914500D01*
X145274655Y-87914500D01*
X145131745Y-87914500D01*
X145131743Y-87914500D01*
X144991585Y-87942379D01*
X144991584Y-87942379D01*
X144924052Y-87970352D01*
X144854582Y-87977820D01*
X144829148Y-87970352D01*
X144761615Y-87942379D01*
X144621457Y-87914500D01*
X144621455Y-87914500D01*
X144478545Y-87914500D01*
X144478543Y-87914500D01*
X144338385Y-87942379D01*
X144338379Y-87942381D01*
X144206349Y-87997069D01*
X144206340Y-87997074D01*
X144087521Y-88076467D01*
X144087517Y-88076470D01*
X143986470Y-88177517D01*
X143986467Y-88177521D01*
X143907074Y-88296340D01*
X143907069Y-88296349D01*
X143852381Y-88428379D01*
X143852379Y-88428385D01*
X143824500Y-88568542D01*
X143824500Y-88568545D01*
X143824500Y-88711455D01*
X143824500Y-88711457D01*
X143824499Y-88711457D01*
X143852379Y-88851614D01*
X143852381Y-88851620D01*
X143907071Y-88983653D01*
X143918182Y-89000282D01*
X143928601Y-89015874D01*
X143949480Y-89082551D01*
X143949500Y-89084766D01*
X143949500Y-89600885D01*
X143929815Y-89667924D01*
X143877011Y-89713679D01*
X143807853Y-89723623D01*
X143778048Y-89715446D01*
X143698224Y-89682382D01*
X143698214Y-89682379D01*
X143558057Y-89654500D01*
X143558055Y-89654500D01*
X143415145Y-89654500D01*
X143415143Y-89654500D01*
X143274985Y-89682379D01*
X143274984Y-89682379D01*
X143207452Y-89710352D01*
X143137982Y-89717820D01*
X143112548Y-89710352D01*
X143045015Y-89682379D01*
X142904857Y-89654500D01*
X142904855Y-89654500D01*
X142761945Y-89654500D01*
X142761943Y-89654500D01*
X142621785Y-89682379D01*
X142621779Y-89682381D01*
X142489749Y-89737069D01*
X142489740Y-89737074D01*
X142370921Y-89816467D01*
X142370917Y-89816470D01*
X142269870Y-89917517D01*
X142269867Y-89917521D01*
X142190474Y-90036340D01*
X142190469Y-90036349D01*
X142135781Y-90168379D01*
X142135779Y-90168385D01*
X142107900Y-90308542D01*
X142107900Y-90308545D01*
X142107900Y-90451455D01*
X142107900Y-90451457D01*
X142107899Y-90451457D01*
X142135779Y-90591614D01*
X142135781Y-90591620D01*
X142190469Y-90723650D01*
X142190474Y-90723659D01*
X142269866Y-90842477D01*
X142269867Y-90842478D01*
X142269868Y-90842479D01*
X142298180Y-90870791D01*
X142331665Y-90932112D01*
X142334499Y-90958472D01*
X142334499Y-91452624D01*
X142314814Y-91519663D01*
X142262010Y-91565418D01*
X142192852Y-91575362D01*
X142141611Y-91555728D01*
X142128660Y-91547075D01*
X142128650Y-91547069D01*
X141996620Y-91492381D01*
X141996614Y-91492379D01*
X141856457Y-91464500D01*
X141856455Y-91464500D01*
X141713545Y-91464500D01*
X141713542Y-91464500D01*
X141707500Y-91465095D01*
X141689804Y-91461738D01*
X141671877Y-91463450D01*
X141656192Y-91455363D01*
X141638854Y-91452075D01*
X141625782Y-91439685D01*
X141609775Y-91431432D01*
X141588402Y-91404253D01*
X141588145Y-91404009D01*
X141588064Y-91403870D01*
X141569111Y-91371041D01*
X141552500Y-91309044D01*
X141552500Y-90066295D01*
X141572185Y-89999256D01*
X141588819Y-89978614D01*
X143577426Y-87990007D01*
X145615521Y-85951913D01*
X145694578Y-85814981D01*
X145735502Y-85662254D01*
X145735502Y-85504139D01*
X145735502Y-85496544D01*
X145735501Y-85496526D01*
X145735501Y-81263679D01*
X145755186Y-81196640D01*
X145798702Y-81156487D01*
X145798587Y-81156314D01*
X145799687Y-81155578D01*
X145801056Y-81154316D01*
X145803638Y-81152935D01*
X145803653Y-81152929D01*
X145922479Y-81073532D01*
X146023532Y-80972479D01*
X146032397Y-80959212D01*
X146086008Y-80914406D01*
X146155333Y-80905697D01*
X146218361Y-80935851D01*
G37*
%TD.AperFunction*%
%TA.AperFunction,Conductor*%
G36*
X143667434Y-80019685D02*
G01*
X143713189Y-80072489D01*
X143723133Y-80141647D01*
X143714956Y-80171453D01*
X143662381Y-80298379D01*
X143662379Y-80298385D01*
X143634500Y-80438542D01*
X143634500Y-80438545D01*
X143634500Y-80581455D01*
X143634500Y-80581457D01*
X143634499Y-80581457D01*
X143662379Y-80721614D01*
X143662381Y-80721620D01*
X143717069Y-80853650D01*
X143717074Y-80853659D01*
X143796467Y-80972478D01*
X143796470Y-80972482D01*
X143897520Y-81073532D01*
X143921815Y-81089765D01*
X144016347Y-81152929D01*
X144016357Y-81152933D01*
X144018944Y-81154316D01*
X144020053Y-81155405D01*
X144021413Y-81156314D01*
X144021240Y-81156571D01*
X144068792Y-81203275D01*
X144084499Y-81263679D01*
X144084499Y-85096705D01*
X144064814Y-85163744D01*
X144048180Y-85184386D01*
X140397181Y-88835385D01*
X140377744Y-88845997D01*
X140361011Y-88860498D01*
X140347679Y-88862414D01*
X140335858Y-88868870D01*
X140313771Y-88867290D01*
X140291853Y-88870442D01*
X140279601Y-88864846D01*
X140266166Y-88863886D01*
X140248439Y-88850615D01*
X140228297Y-88841417D01*
X140221014Y-88830085D01*
X140210233Y-88822014D01*
X140202495Y-88801268D01*
X140190523Y-88782639D01*
X140187371Y-88760720D01*
X140185816Y-88756550D01*
X140185500Y-88747704D01*
X140185500Y-88635096D01*
X140205185Y-88568057D01*
X140221814Y-88547420D01*
X142518506Y-86250727D01*
X142518511Y-86250724D01*
X142528714Y-86240520D01*
X142528716Y-86240520D01*
X142640520Y-86128716D01*
X142716391Y-85997303D01*
X142719577Y-85991785D01*
X142760501Y-85839057D01*
X142760501Y-85680943D01*
X142760501Y-85673348D01*
X142760500Y-85673330D01*
X142760500Y-81089765D01*
X142780185Y-81022726D01*
X142781398Y-81020874D01*
X142869390Y-80889185D01*
X142869390Y-80889184D01*
X142869394Y-80889179D01*
X142929737Y-80743497D01*
X142960500Y-80588842D01*
X142960500Y-80431158D01*
X142960500Y-80431155D01*
X142960499Y-80431153D01*
X142959500Y-80426130D01*
X142929737Y-80276503D01*
X142886224Y-80171452D01*
X142878755Y-80101983D01*
X142910030Y-80039504D01*
X142970119Y-80003852D01*
X143000785Y-80000000D01*
X143600395Y-80000000D01*
X143667434Y-80019685D01*
G37*
%TD.AperFunction*%
%TA.AperFunction,Conductor*%
G36*
X137039753Y-82865004D02*
G01*
X137048562Y-82863401D01*
X137073079Y-82873511D01*
X137098776Y-82880071D01*
X137104876Y-82886624D01*
X137113155Y-82890038D01*
X137128317Y-82911802D01*
X137146385Y-82931210D01*
X137148719Y-82941088D01*
X137153093Y-82947367D01*
X137153634Y-82961888D01*
X137159500Y-82986711D01*
X137159500Y-85849903D01*
X137139815Y-85916942D01*
X137123181Y-85937584D01*
X136572181Y-86488584D01*
X136510858Y-86522069D01*
X136441166Y-86517085D01*
X136385233Y-86475213D01*
X136360816Y-86409749D01*
X136360500Y-86400903D01*
X136360500Y-86007275D01*
X136360500Y-86007273D01*
X136333207Y-85905413D01*
X136280480Y-85814087D01*
X136205913Y-85739520D01*
X136114587Y-85686793D01*
X136012727Y-85659500D01*
X136012726Y-85659500D01*
X135784500Y-85659500D01*
X135717461Y-85639815D01*
X135671706Y-85587011D01*
X135660500Y-85535500D01*
X135660500Y-84363819D01*
X135661560Y-84347643D01*
X135665169Y-84320238D01*
X135673543Y-84288985D01*
X135680985Y-84271022D01*
X135697165Y-84242998D01*
X135714052Y-84220992D01*
X135724726Y-84208822D01*
X135733029Y-84200521D01*
X135747130Y-84186421D01*
X135747130Y-84186419D01*
X135764564Y-84168987D01*
X135764568Y-84168980D01*
X136812818Y-83120732D01*
X136812826Y-83120710D01*
X136826428Y-83107110D01*
X136892148Y-83008761D01*
X136924298Y-82931149D01*
X136928759Y-82923605D01*
X136948141Y-82905502D01*
X136964783Y-82884853D01*
X136973277Y-82882025D01*
X136979822Y-82875914D01*
X137005915Y-82871164D01*
X137031078Y-82862790D01*
X137039753Y-82865004D01*
G37*
%TD.AperFunction*%
%TD*%
M02*
