%TF.GenerationSoftware,KiCad,Pcbnew,9.0.2*%
%TF.CreationDate,2025-07-29T12:02:09+08:00*%
%TF.ProjectId,MicroSD Express to FPC,4d696372-6f53-4442-9045-787072657373,rev?*%
%TF.SameCoordinates,Original*%
%TF.FileFunction,Legend,Bot*%
%TF.FilePolarity,Positive*%
%FSLAX46Y46*%
G04 Gerber Fmt 4.6, Leading zero omitted, Abs format (unit mm)*
G04 Created by KiCad (PCBNEW 9.0.2) date 2025-07-29 12:02:09*
%MOMM*%
%LPD*%
G01*
G04 APERTURE LIST*
%ADD10C,0.150000*%
%ADD11C,0.127000*%
%ADD12C,0.200000*%
G04 APERTURE END LIST*
D10*
X149888333Y-103954819D02*
X149888333Y-104669104D01*
X149888333Y-104669104D02*
X149935952Y-104811961D01*
X149935952Y-104811961D02*
X150031190Y-104907200D01*
X150031190Y-104907200D02*
X150174047Y-104954819D01*
X150174047Y-104954819D02*
X150269285Y-104954819D01*
X149507380Y-103954819D02*
X148888333Y-103954819D01*
X148888333Y-103954819D02*
X149221666Y-104335771D01*
X149221666Y-104335771D02*
X149078809Y-104335771D01*
X149078809Y-104335771D02*
X148983571Y-104383390D01*
X148983571Y-104383390D02*
X148935952Y-104431009D01*
X148935952Y-104431009D02*
X148888333Y-104526247D01*
X148888333Y-104526247D02*
X148888333Y-104764342D01*
X148888333Y-104764342D02*
X148935952Y-104859580D01*
X148935952Y-104859580D02*
X148983571Y-104907200D01*
X148983571Y-104907200D02*
X149078809Y-104954819D01*
X149078809Y-104954819D02*
X149364523Y-104954819D01*
X149364523Y-104954819D02*
X149459761Y-104907200D01*
X149459761Y-104907200D02*
X149507380Y-104859580D01*
D11*
%TO.C,J3*%
X152480000Y-108955000D02*
X152200000Y-108955000D01*
X128960000Y-108955000D02*
X128680000Y-108955000D01*
X128680000Y-108955000D02*
X128680000Y-113655000D01*
X128680000Y-113655000D02*
X152480000Y-113655000D01*
X152480000Y-113655000D02*
X152480000Y-108955000D01*
D12*
X153260000Y-108255000D02*
G75*
G02*
X153060000Y-108255000I-100000J0D01*
G01*
X153060000Y-108255000D02*
G75*
G02*
X153260000Y-108255000I100000J0D01*
G01*
%TD*%
M02*
