%TF.GenerationSoftware,KiCad,Pcbnew,9.0.2*%
%TF.CreationDate,2025-07-29T12:02:09+08:00*%
%TF.ProjectId,MicroSD Express to FPC,4d696372-6f53-4442-9045-787072657373,rev?*%
%TF.SameCoordinates,Original*%
%TF.FileFunction,Profile,NP*%
%FSLAX46Y46*%
G04 Gerber Fmt 4.6, Leading zero omitted, Abs format (unit mm)*
G04 Created by KiCad (PCBNEW 9.0.2) date 2025-07-29 12:02:09*
%MOMM*%
%LPD*%
G01*
G04 APERTURE LIST*
%TA.AperFunction,Profile*%
%ADD10C,0.050000*%
%TD*%
G04 APERTURE END LIST*
D10*
X146460000Y-99415985D02*
X146460000Y-92960000D01*
X123340000Y-115640000D02*
X158440000Y-115640000D01*
X158500000Y-104950000D02*
X158440000Y-115640000D01*
X123402514Y-104950000D02*
X135460000Y-99415985D01*
X146460000Y-99415985D02*
X158500000Y-104950000D01*
X123402514Y-104950000D02*
X123340000Y-115640000D01*
X135460000Y-92960000D02*
X135460000Y-99415985D01*
%TO.C,J1*%
X135460000Y-84355685D02*
X135460000Y-85760000D01*
X135460000Y-87760000D02*
X135460001Y-92960000D01*
X135560000Y-85860000D02*
X135960000Y-85860000D01*
X136042842Y-87177158D02*
X135460000Y-87760000D01*
X136160000Y-86060000D02*
X136160000Y-86894315D01*
X136642842Y-83007158D02*
X135577157Y-84072843D01*
X136760000Y-82724315D02*
X136760000Y-78760000D01*
X137560000Y-77960000D02*
X145660000Y-77960000D01*
X146460000Y-78760000D02*
X146460000Y-92960000D01*
X135460000Y-84355685D02*
G75*
G02*
X135577157Y-84072843I399998J1D01*
G01*
X135560000Y-85860000D02*
G75*
G02*
X135460000Y-85760000I-1J99999D01*
G01*
X135960000Y-85860000D02*
G75*
G02*
X136160000Y-86060000I-1J-200001D01*
G01*
X136160000Y-86894315D02*
G75*
G02*
X136042842Y-87177158I-399993J-2D01*
G01*
X136760000Y-78760000D02*
G75*
G02*
X137560000Y-77960000I800001J-1D01*
G01*
X136760000Y-82724315D02*
G75*
G02*
X136642842Y-83007158I-399993J-2D01*
G01*
X145660000Y-77960000D02*
G75*
G02*
X146460000Y-78760000I0J-800000D01*
G01*
%TD*%
M02*
