%TF.GenerationSoftware,KiCad,Pcbnew,9.0.2*%
%TF.CreationDate,2025-07-29T12:02:09+08:00*%
%TF.ProjectId,MicroSD Express to FPC,4d696372-6f53-4442-9045-787072657373,rev?*%
%TF.SameCoordinates,Original*%
%TF.FileFunction,Paste,Bot*%
%TF.FilePolarity,Positive*%
%FSLAX46Y46*%
G04 Gerber Fmt 4.6, Leading zero omitted, Abs format (unit mm)*
G04 Created by KiCad (PCBNEW 9.0.2) date 2025-07-29 12:02:09*
%MOMM*%
%LPD*%
G01*
G04 APERTURE LIST*
%ADD10C,0.010000*%
%ADD11R,0.300000X1.100000*%
G04 APERTURE END LIST*
D10*
%TO.C,J3*%
X131380000Y-110405000D02*
X130080000Y-110405000D01*
X130080000Y-110055000D01*
X129280000Y-110055000D01*
X129280000Y-108455000D01*
X131380000Y-108455000D01*
X131380000Y-110405000D01*
G36*
X131380000Y-110405000D02*
G01*
X130080000Y-110405000D01*
X130080000Y-110055000D01*
X129280000Y-110055000D01*
X129280000Y-108455000D01*
X131380000Y-108455000D01*
X131380000Y-110405000D01*
G37*
X151880000Y-110055000D02*
X151080000Y-110055000D01*
X151080000Y-110405000D01*
X149780000Y-110405000D01*
X149780000Y-108455000D01*
X151880000Y-108455000D01*
X151880000Y-110055000D01*
G36*
X151880000Y-110055000D02*
G01*
X151080000Y-110055000D01*
X151080000Y-110405000D01*
X149780000Y-110405000D01*
X149780000Y-108455000D01*
X151880000Y-108455000D01*
X151880000Y-110055000D01*
G37*
%TD*%
D11*
%TO.C,J3*%
X148080000Y-108305000D03*
X147080000Y-108305000D03*
X146080000Y-108305000D03*
X145080000Y-108305000D03*
X144080000Y-108305000D03*
X143080000Y-108305000D03*
X142080000Y-108305000D03*
X141080000Y-108305000D03*
X140080000Y-108305000D03*
X139080000Y-108305000D03*
X138080000Y-108305000D03*
X137080000Y-108305000D03*
X136080000Y-108305000D03*
X135080000Y-108305000D03*
X134080000Y-108305000D03*
X133080000Y-108305000D03*
%TD*%
M02*
