%TF.GenerationSoftware,KiCad,Pcbnew,9.0.2*%
%TF.CreationDate,2025-06-23T16:33:29+08:00*%
%TF.ProjectId,SDEX2M2 MicroSD Express to M.2 NVMe Adapter for Switch 2 WIP,53444558-324d-4322-904d-6963726f5344,rev?*%
%TF.SameCoordinates,Original*%
%TF.FileFunction,Copper,L3,Inr*%
%TF.FilePolarity,Positive*%
%FSLAX46Y46*%
G04 Gerber Fmt 4.6, Leading zero omitted, Abs format (unit mm)*
G04 Created by KiCad (PCBNEW 9.0.2) date 2025-06-23 16:33:29*
%MOMM*%
%LPD*%
G01*
G04 APERTURE LIST*
%TA.AperFunction,ComponentPad*%
%ADD10R,1.350000X1.350000*%
%TD*%
%TA.AperFunction,ComponentPad*%
%ADD11C,1.350000*%
%TD*%
%TA.AperFunction,ViaPad*%
%ADD12C,0.450000*%
%TD*%
%TA.AperFunction,ViaPad*%
%ADD13C,0.600000*%
%TD*%
%ADD14C,0.300000*%
%ADD15C,0.350000*%
G04 APERTURE END LIST*
D10*
%TO.N,/CMD*%
%TO.C,J2*%
X154450000Y-162150000D03*
D11*
%TO.N,/CLK*%
X154450000Y-164150000D03*
%TD*%
D12*
%TO.N,/TX+*%
X145330000Y-119750000D03*
X142833400Y-90380000D03*
X134200000Y-132650000D03*
%TO.N,/TX-*%
X132914892Y-128811727D03*
X143486600Y-90380000D03*
X147340446Y-117819545D03*
%TO.N,/RX+*%
X145203200Y-88640000D03*
X153270000Y-120920000D03*
X143875000Y-131975000D03*
D13*
%TO.N,GND*%
X151750000Y-129300000D03*
X148600000Y-136000000D03*
X136810000Y-83960000D03*
X138460000Y-90810000D03*
D12*
X142100000Y-91120000D03*
D13*
X140270000Y-83555000D03*
X132850000Y-126600000D03*
D12*
X145940000Y-89430000D03*
X143460000Y-88590000D03*
D13*
X131150000Y-136000000D03*
X136110000Y-85060000D03*
X139300000Y-123730000D03*
D12*
X145810000Y-86960000D03*
D13*
X146690000Y-128110000D03*
X156000000Y-123630000D03*
X143000000Y-83405000D03*
X143950000Y-123760000D03*
X144002007Y-90853667D03*
X141250000Y-136350000D03*
X143260000Y-80360000D03*
X149960000Y-123650000D03*
X131300000Y-134400000D03*
X145600000Y-135750000D03*
X141000000Y-149400000D03*
X142500000Y-135850000D03*
X152100000Y-135700000D03*
X147830000Y-128110000D03*
X140020000Y-127950000D03*
X137930000Y-127980000D03*
X145730000Y-83405000D03*
X133550000Y-136250000D03*
X138980000Y-127960000D03*
X134900000Y-128450000D03*
D12*
X145970000Y-91900000D03*
D13*
X140150000Y-92050000D03*
D12*
%TO.N,/RX-*%
X144900000Y-128350000D03*
X144550000Y-88640000D03*
X152616800Y-120920000D03*
%TO.N,/REFCLK+*%
X143950000Y-134550000D03*
X133950000Y-134650000D03*
X144360000Y-80510000D03*
%TO.N,/REFCLK-*%
X150200000Y-129050000D03*
X145460000Y-80510000D03*
X134700000Y-134350000D03*
D13*
%TO.N,/PERST*%
X138000000Y-152100000D03*
X138860000Y-80510000D03*
X133600000Y-155500000D03*
%TO.N,/CLKREQ*%
X137760000Y-80510000D03*
%TO.N,/CMD*%
X149500000Y-158750000D03*
X139960000Y-80510000D03*
X136670000Y-130540000D03*
%TO.N,/CLK*%
X142160000Y-80510000D03*
X143400000Y-130750000D03*
X149450000Y-164050000D03*
%TO.N,/3.3V*%
X133850000Y-149900000D03*
X145150000Y-149750000D03*
X131650000Y-153450000D03*
X151250000Y-151250000D03*
X141060000Y-81260000D03*
X145200000Y-151450000D03*
X141060000Y-80360000D03*
X142150000Y-128800000D03*
X132500000Y-150700000D03*
X138210000Y-93440000D03*
X148200000Y-150850000D03*
X131250000Y-149850000D03*
X148725000Y-149325000D03*
X147000000Y-152200000D03*
D12*
%TO.N,unconnected-(J1-1V8-Pad9)*%
X141785000Y-92190000D03*
X141080000Y-127970000D03*
X142650000Y-121560000D03*
%TD*%
%TA.AperFunction,Conductor*%
%TO.N,/3.3V*%
G36*
X141386254Y-80019685D02*
G01*
X141432009Y-80072489D01*
X141441953Y-80141647D01*
X141433776Y-80171452D01*
X141390264Y-80276498D01*
X141390261Y-80276510D01*
X141359500Y-80431153D01*
X141359500Y-80588846D01*
X141390261Y-80743489D01*
X141390264Y-80743501D01*
X141450602Y-80889172D01*
X141450609Y-80889185D01*
X141538210Y-81020288D01*
X141538213Y-81020292D01*
X141649707Y-81131786D01*
X141649711Y-81131789D01*
X141780814Y-81219390D01*
X141780827Y-81219397D01*
X141926498Y-81279735D01*
X141926503Y-81279737D01*
X142081153Y-81310499D01*
X142081156Y-81310500D01*
X142081158Y-81310500D01*
X142238844Y-81310500D01*
X142238845Y-81310499D01*
X142393497Y-81279737D01*
X142539179Y-81219394D01*
X142670289Y-81131789D01*
X142720060Y-81082018D01*
X142781383Y-81048532D01*
X142851074Y-81053516D01*
X142876635Y-81066598D01*
X142880811Y-81069388D01*
X142880817Y-81069391D01*
X142880821Y-81069394D01*
X142880823Y-81069395D01*
X142880827Y-81069397D01*
X142935585Y-81092078D01*
X143026503Y-81129737D01*
X143181153Y-81160499D01*
X143181156Y-81160500D01*
X143181158Y-81160500D01*
X143338844Y-81160500D01*
X143338845Y-81160499D01*
X143493497Y-81129737D01*
X143608702Y-81082018D01*
X143639172Y-81069397D01*
X143639172Y-81069396D01*
X143639179Y-81069394D01*
X143639184Y-81069390D01*
X143639187Y-81069389D01*
X143706948Y-81024112D01*
X143773625Y-81003233D01*
X143841006Y-81021717D01*
X143863522Y-81039533D01*
X143897517Y-81073529D01*
X143897521Y-81073532D01*
X144016340Y-81152925D01*
X144016349Y-81152930D01*
X144034625Y-81160500D01*
X144148380Y-81207619D01*
X144148384Y-81207619D01*
X144148385Y-81207620D01*
X144288542Y-81235500D01*
X144288545Y-81235500D01*
X144431457Y-81235500D01*
X144525751Y-81216742D01*
X144571620Y-81207619D01*
X144703653Y-81152929D01*
X144822479Y-81073532D01*
X144822483Y-81073527D01*
X144827189Y-81069667D01*
X144827964Y-81070612D01*
X144883627Y-81040210D01*
X144953320Y-81045186D01*
X144992328Y-81070255D01*
X144992811Y-81069667D01*
X144997521Y-81073532D01*
X145116340Y-81152925D01*
X145116349Y-81152930D01*
X145134625Y-81160500D01*
X145248380Y-81207619D01*
X145248384Y-81207619D01*
X145248385Y-81207620D01*
X145388542Y-81235500D01*
X145388545Y-81235500D01*
X145531457Y-81235500D01*
X145625751Y-81216742D01*
X145671620Y-81207619D01*
X145803653Y-81152929D01*
X145922479Y-81073532D01*
X146023532Y-80972479D01*
X146032397Y-80959212D01*
X146086008Y-80914406D01*
X146155333Y-80905697D01*
X146218361Y-80935851D01*
X146255081Y-80995294D01*
X146259500Y-81028101D01*
X146259500Y-82572291D01*
X146239815Y-82639330D01*
X146187011Y-82685085D01*
X146117853Y-82695029D01*
X146088048Y-82686853D01*
X146059397Y-82674985D01*
X145963497Y-82635263D01*
X145963492Y-82635262D01*
X145963489Y-82635261D01*
X145808845Y-82604500D01*
X145808842Y-82604500D01*
X145651158Y-82604500D01*
X145651155Y-82604500D01*
X145496510Y-82635261D01*
X145496498Y-82635264D01*
X145350827Y-82695602D01*
X145350814Y-82695609D01*
X145219711Y-82783210D01*
X145219707Y-82783213D01*
X145108213Y-82894707D01*
X145108210Y-82894711D01*
X145020609Y-83025814D01*
X145020602Y-83025827D01*
X144960264Y-83171498D01*
X144960261Y-83171510D01*
X144929500Y-83326153D01*
X144929500Y-83483846D01*
X144960261Y-83638489D01*
X144960264Y-83638501D01*
X145020602Y-83784172D01*
X145020609Y-83784185D01*
X145108210Y-83915288D01*
X145108213Y-83915292D01*
X145219707Y-84026786D01*
X145219711Y-84026789D01*
X145350814Y-84114390D01*
X145350827Y-84114397D01*
X145496498Y-84174735D01*
X145496503Y-84174737D01*
X145651153Y-84205499D01*
X145651156Y-84205500D01*
X145651158Y-84205500D01*
X145808844Y-84205500D01*
X145808845Y-84205499D01*
X145963497Y-84174737D01*
X146030574Y-84146953D01*
X146088048Y-84123147D01*
X146157517Y-84115678D01*
X146219996Y-84146953D01*
X146255648Y-84207042D01*
X146259500Y-84237708D01*
X146259500Y-86175335D01*
X146239815Y-86242374D01*
X146187011Y-86288129D01*
X146117853Y-86298073D01*
X146088047Y-86289896D01*
X146021620Y-86262381D01*
X146021614Y-86262379D01*
X145881457Y-86234500D01*
X145881455Y-86234500D01*
X145738545Y-86234500D01*
X145738543Y-86234500D01*
X145598385Y-86262379D01*
X145598379Y-86262381D01*
X145466349Y-86317069D01*
X145466340Y-86317074D01*
X145347521Y-86396467D01*
X145347517Y-86396470D01*
X145246470Y-86497517D01*
X145246467Y-86497521D01*
X145167074Y-86616340D01*
X145167069Y-86616349D01*
X145112381Y-86748379D01*
X145112379Y-86748385D01*
X145084500Y-86888542D01*
X145084500Y-86888545D01*
X145084500Y-87031455D01*
X145084500Y-87031457D01*
X145084499Y-87031457D01*
X145112379Y-87171614D01*
X145112381Y-87171620D01*
X145167069Y-87303650D01*
X145167074Y-87303659D01*
X145246467Y-87422478D01*
X145246470Y-87422482D01*
X145347517Y-87523529D01*
X145347521Y-87523532D01*
X145466340Y-87602925D01*
X145466346Y-87602928D01*
X145466347Y-87602929D01*
X145598380Y-87657619D01*
X145598384Y-87657619D01*
X145598385Y-87657620D01*
X145738542Y-87685500D01*
X145738545Y-87685500D01*
X145881457Y-87685500D01*
X145975751Y-87666742D01*
X146021620Y-87657619D01*
X146088050Y-87630102D01*
X146157515Y-87622634D01*
X146219995Y-87653908D01*
X146255648Y-87713997D01*
X146259500Y-87744664D01*
X146259500Y-88602744D01*
X146253564Y-88622957D01*
X146252437Y-88643997D01*
X146243917Y-88655811D01*
X146239815Y-88669783D01*
X146223894Y-88683578D01*
X146211570Y-88700669D01*
X146198016Y-88706001D01*
X146187011Y-88715538D01*
X146166156Y-88718536D01*
X146146552Y-88726250D01*
X146121755Y-88724920D01*
X146117853Y-88725482D01*
X146111309Y-88724361D01*
X146028509Y-88707891D01*
X145966598Y-88675506D01*
X145932024Y-88614791D01*
X145928700Y-88586274D01*
X145928700Y-88568542D01*
X145900820Y-88428385D01*
X145900819Y-88428384D01*
X145900819Y-88428380D01*
X145846129Y-88296347D01*
X145846128Y-88296346D01*
X145846125Y-88296340D01*
X145766732Y-88177521D01*
X145766729Y-88177517D01*
X145665682Y-88076470D01*
X145665678Y-88076467D01*
X145546859Y-87997074D01*
X145546850Y-87997069D01*
X145414820Y-87942381D01*
X145414814Y-87942379D01*
X145274657Y-87914500D01*
X145274655Y-87914500D01*
X145131745Y-87914500D01*
X145131743Y-87914500D01*
X144991585Y-87942379D01*
X144991584Y-87942379D01*
X144924052Y-87970352D01*
X144854582Y-87977820D01*
X144829148Y-87970352D01*
X144761615Y-87942379D01*
X144621457Y-87914500D01*
X144621455Y-87914500D01*
X144478545Y-87914500D01*
X144478543Y-87914500D01*
X144338385Y-87942379D01*
X144338379Y-87942381D01*
X144206349Y-87997069D01*
X144206342Y-87997073D01*
X144103171Y-88066010D01*
X144036494Y-88086887D01*
X143969114Y-88068402D01*
X143946600Y-88050588D01*
X143922482Y-88026470D01*
X143922478Y-88026467D01*
X143803659Y-87947074D01*
X143803650Y-87947069D01*
X143671620Y-87892381D01*
X143671614Y-87892379D01*
X143531457Y-87864500D01*
X143531455Y-87864500D01*
X143388545Y-87864500D01*
X143388543Y-87864500D01*
X143248385Y-87892379D01*
X143248379Y-87892381D01*
X143116349Y-87947069D01*
X143116340Y-87947074D01*
X142997521Y-88026467D01*
X142997517Y-88026470D01*
X142896470Y-88127517D01*
X142896467Y-88127521D01*
X142817074Y-88246340D01*
X142817069Y-88246349D01*
X142762381Y-88378379D01*
X142762379Y-88378385D01*
X142734500Y-88518542D01*
X142734500Y-88518545D01*
X142734500Y-88661455D01*
X142734500Y-88661457D01*
X142734499Y-88661457D01*
X142762379Y-88801614D01*
X142762381Y-88801620D01*
X142817069Y-88933650D01*
X142817074Y-88933659D01*
X142896467Y-89052478D01*
X142896470Y-89052482D01*
X142997517Y-89153529D01*
X142997521Y-89153532D01*
X143116340Y-89232925D01*
X143116346Y-89232928D01*
X143116347Y-89232929D01*
X143248380Y-89287619D01*
X143248384Y-89287619D01*
X143248385Y-89287620D01*
X143388542Y-89315500D01*
X143388545Y-89315500D01*
X143531457Y-89315500D01*
X143659690Y-89289992D01*
X143671620Y-89287619D01*
X143803653Y-89232929D01*
X143906827Y-89163989D01*
X143973504Y-89143112D01*
X144040884Y-89161596D01*
X144063399Y-89179411D01*
X144087517Y-89203529D01*
X144087521Y-89203532D01*
X144206340Y-89282925D01*
X144206349Y-89282930D01*
X144236258Y-89295318D01*
X144338380Y-89337619D01*
X144338384Y-89337619D01*
X144338385Y-89337620D01*
X144478542Y-89365500D01*
X144478545Y-89365500D01*
X144621457Y-89365500D01*
X144715751Y-89346742D01*
X144761620Y-89337619D01*
X144829147Y-89309647D01*
X144852446Y-89307142D01*
X144874837Y-89300221D01*
X144889929Y-89303111D01*
X144898615Y-89302178D01*
X144909840Y-89304746D01*
X144917086Y-89306762D01*
X144991580Y-89337619D01*
X145119261Y-89363016D01*
X145123740Y-89364263D01*
X145149610Y-89380374D01*
X145176602Y-89394493D01*
X145178975Y-89398661D01*
X145183049Y-89401198D01*
X145196103Y-89428739D01*
X145211176Y-89455209D01*
X145212000Y-89462277D01*
X145212975Y-89464335D01*
X145212588Y-89467325D01*
X145214500Y-89483725D01*
X145214500Y-89501455D01*
X145214500Y-89501457D01*
X145214499Y-89501457D01*
X145242379Y-89641614D01*
X145242381Y-89641620D01*
X145297069Y-89773650D01*
X145297074Y-89773659D01*
X145376467Y-89892478D01*
X145376470Y-89892482D01*
X145477517Y-89993529D01*
X145477521Y-89993532D01*
X145596340Y-90072925D01*
X145596346Y-90072928D01*
X145596347Y-90072929D01*
X145728380Y-90127619D01*
X145728384Y-90127619D01*
X145728385Y-90127620D01*
X145868542Y-90155500D01*
X145868545Y-90155500D01*
X146011457Y-90155500D01*
X146111308Y-90135638D01*
X146180900Y-90141865D01*
X146236077Y-90184728D01*
X146259322Y-90250617D01*
X146259500Y-90257255D01*
X146259500Y-91066777D01*
X146239815Y-91133816D01*
X146187011Y-91179571D01*
X146117853Y-91189515D01*
X146111309Y-91188394D01*
X146041459Y-91174500D01*
X146041455Y-91174500D01*
X145898545Y-91174500D01*
X145898543Y-91174500D01*
X145758385Y-91202379D01*
X145758379Y-91202381D01*
X145626349Y-91257069D01*
X145626340Y-91257074D01*
X145507521Y-91336467D01*
X145507517Y-91336470D01*
X145406470Y-91437517D01*
X145406467Y-91437521D01*
X145327074Y-91556340D01*
X145327069Y-91556349D01*
X145272381Y-91688379D01*
X145272379Y-91688385D01*
X145244500Y-91828542D01*
X145244500Y-91828545D01*
X145244500Y-91971455D01*
X145244500Y-91971457D01*
X145244499Y-91971457D01*
X145272379Y-92111614D01*
X145272381Y-92111620D01*
X145327069Y-92243650D01*
X145327074Y-92243659D01*
X145406467Y-92362478D01*
X145406470Y-92362482D01*
X145507517Y-92463529D01*
X145507521Y-92463532D01*
X145626340Y-92542925D01*
X145626346Y-92542928D01*
X145626347Y-92542929D01*
X145758380Y-92597619D01*
X145758384Y-92597619D01*
X145758385Y-92597620D01*
X145898542Y-92625500D01*
X145898545Y-92625500D01*
X146041456Y-92625500D01*
X146066766Y-92620465D01*
X146111308Y-92611605D01*
X146180899Y-92617832D01*
X146236077Y-92660694D01*
X146259322Y-92726584D01*
X146259500Y-92733222D01*
X146259500Y-92920118D01*
X146259500Y-99412153D01*
X146258125Y-99448193D01*
X146259500Y-99451907D01*
X146259500Y-99455867D01*
X146272405Y-99487024D01*
X146274115Y-99491387D01*
X146285815Y-99522993D01*
X146289074Y-99528298D01*
X146289569Y-99529104D01*
X146313833Y-99553368D01*
X146317112Y-99556774D01*
X146340027Y-99581507D01*
X146340029Y-99581507D01*
X146345083Y-99585171D01*
X146345084Y-99585172D01*
X146345836Y-99585717D01*
X146377546Y-99598851D01*
X146381879Y-99600743D01*
X158227288Y-105045316D01*
X158279979Y-105091198D01*
X158299500Y-105157983D01*
X158299500Y-169745500D01*
X158279815Y-169812539D01*
X158227011Y-169858294D01*
X158175500Y-169869500D01*
X123724512Y-169869500D01*
X123657473Y-169849815D01*
X123611718Y-169797011D01*
X123600512Y-169745495D01*
X123600735Y-163971153D01*
X148649500Y-163971153D01*
X148649500Y-164128846D01*
X148680261Y-164283489D01*
X148680264Y-164283501D01*
X148740602Y-164429172D01*
X148740609Y-164429185D01*
X148828210Y-164560288D01*
X148828213Y-164560292D01*
X148939707Y-164671786D01*
X148939711Y-164671789D01*
X149070814Y-164759390D01*
X149070827Y-164759397D01*
X149216498Y-164819735D01*
X149216503Y-164819737D01*
X149371153Y-164850499D01*
X149371156Y-164850500D01*
X149371158Y-164850500D01*
X149528844Y-164850500D01*
X149528845Y-164850499D01*
X149683497Y-164819737D01*
X149829179Y-164759394D01*
X149960289Y-164671789D01*
X150071789Y-164560289D01*
X150159394Y-164429179D01*
X150219737Y-164283497D01*
X150250500Y-164128842D01*
X150250500Y-163971158D01*
X150250500Y-163971155D01*
X150250499Y-163971153D01*
X150219738Y-163816510D01*
X150219737Y-163816503D01*
X150170969Y-163698765D01*
X150159397Y-163670827D01*
X150159390Y-163670814D01*
X150071789Y-163539711D01*
X150071786Y-163539707D01*
X149960292Y-163428213D01*
X149960288Y-163428210D01*
X149829185Y-163340609D01*
X149829172Y-163340602D01*
X149683501Y-163280264D01*
X149683489Y-163280261D01*
X149528845Y-163249500D01*
X149528842Y-163249500D01*
X149371158Y-163249500D01*
X149371155Y-163249500D01*
X149216510Y-163280261D01*
X149216498Y-163280264D01*
X149070827Y-163340602D01*
X149070814Y-163340609D01*
X148939711Y-163428210D01*
X148939707Y-163428213D01*
X148828213Y-163539707D01*
X148828210Y-163539711D01*
X148740609Y-163670814D01*
X148740602Y-163670827D01*
X148680264Y-163816498D01*
X148680261Y-163816510D01*
X148649500Y-163971153D01*
X123600735Y-163971153D01*
X123600735Y-163965061D01*
X123600833Y-161427135D01*
X153274500Y-161427135D01*
X153274500Y-162872870D01*
X153274501Y-162872876D01*
X153280908Y-162932483D01*
X153331202Y-163067328D01*
X153331206Y-163067335D01*
X153417452Y-163182544D01*
X153417453Y-163182544D01*
X153417454Y-163182546D01*
X153468740Y-163220939D01*
X153502539Y-163246241D01*
X153544409Y-163302175D01*
X153549393Y-163371867D01*
X153528545Y-163418392D01*
X153444624Y-163533900D01*
X153360620Y-163698764D01*
X153360619Y-163698767D01*
X153303445Y-163874734D01*
X153274500Y-164057486D01*
X153274500Y-164242513D01*
X153303445Y-164425265D01*
X153360619Y-164601232D01*
X153360620Y-164601235D01*
X153396570Y-164671789D01*
X153444622Y-164766096D01*
X153553379Y-164915787D01*
X153684213Y-165046621D01*
X153833904Y-165155378D01*
X153914763Y-165196577D01*
X153998764Y-165239379D01*
X153998767Y-165239380D01*
X154086750Y-165267967D01*
X154174736Y-165296555D01*
X154357486Y-165325500D01*
X154357487Y-165325500D01*
X154542513Y-165325500D01*
X154542514Y-165325500D01*
X154725264Y-165296555D01*
X154901235Y-165239379D01*
X155066096Y-165155378D01*
X155215787Y-165046621D01*
X155346621Y-164915787D01*
X155455378Y-164766096D01*
X155539379Y-164601235D01*
X155596555Y-164425264D01*
X155625500Y-164242514D01*
X155625500Y-164057486D01*
X155596555Y-163874736D01*
X155539379Y-163698765D01*
X155539379Y-163698764D01*
X155496577Y-163614763D01*
X155455378Y-163533904D01*
X155371453Y-163418392D01*
X155347974Y-163352586D01*
X155363799Y-163284532D01*
X155397459Y-163246241D01*
X155482546Y-163182546D01*
X155568796Y-163067331D01*
X155619091Y-162932483D01*
X155625500Y-162872873D01*
X155625499Y-161427128D01*
X155619091Y-161367517D01*
X155568796Y-161232669D01*
X155568795Y-161232668D01*
X155568793Y-161232664D01*
X155482547Y-161117455D01*
X155482544Y-161117452D01*
X155367335Y-161031206D01*
X155367328Y-161031202D01*
X155232482Y-160980908D01*
X155232483Y-160980908D01*
X155172883Y-160974501D01*
X155172881Y-160974500D01*
X155172873Y-160974500D01*
X155172864Y-160974500D01*
X153727129Y-160974500D01*
X153727123Y-160974501D01*
X153667516Y-160980908D01*
X153532671Y-161031202D01*
X153532664Y-161031206D01*
X153417455Y-161117452D01*
X153417452Y-161117455D01*
X153331206Y-161232664D01*
X153331202Y-161232671D01*
X153280908Y-161367517D01*
X153274501Y-161427116D01*
X153274501Y-161427123D01*
X153274500Y-161427135D01*
X123600833Y-161427135D01*
X123600833Y-161423801D01*
X123600841Y-161232671D01*
X123600865Y-160575798D01*
X123600940Y-158671153D01*
X148699500Y-158671153D01*
X148699500Y-158828846D01*
X148730261Y-158983489D01*
X148730264Y-158983501D01*
X148790602Y-159129172D01*
X148790609Y-159129185D01*
X148878210Y-159260288D01*
X148878213Y-159260292D01*
X148989707Y-159371786D01*
X148989711Y-159371789D01*
X149120814Y-159459390D01*
X149120827Y-159459397D01*
X149266498Y-159519735D01*
X149266503Y-159519737D01*
X149421153Y-159550499D01*
X149421156Y-159550500D01*
X149421158Y-159550500D01*
X149578844Y-159550500D01*
X149578845Y-159550499D01*
X149733497Y-159519737D01*
X149879179Y-159459394D01*
X150010289Y-159371789D01*
X150121789Y-159260289D01*
X150209394Y-159129179D01*
X150269737Y-158983497D01*
X150300500Y-158828842D01*
X150300500Y-158671158D01*
X150300500Y-158671155D01*
X150300499Y-158671153D01*
X150269738Y-158516510D01*
X150269737Y-158516503D01*
X150269735Y-158516498D01*
X150209397Y-158370827D01*
X150209390Y-158370814D01*
X150121789Y-158239711D01*
X150121786Y-158239707D01*
X150010292Y-158128213D01*
X150010288Y-158128210D01*
X149879185Y-158040609D01*
X149879172Y-158040602D01*
X149733501Y-157980264D01*
X149733489Y-157980261D01*
X149578845Y-157949500D01*
X149578842Y-157949500D01*
X149421158Y-157949500D01*
X149421155Y-157949500D01*
X149266510Y-157980261D01*
X149266498Y-157980264D01*
X149120827Y-158040602D01*
X149120814Y-158040609D01*
X148989711Y-158128210D01*
X148989707Y-158128213D01*
X148878213Y-158239707D01*
X148878210Y-158239711D01*
X148790609Y-158370814D01*
X148790602Y-158370827D01*
X148730264Y-158516498D01*
X148730261Y-158516510D01*
X148699500Y-158671153D01*
X123600940Y-158671153D01*
X123600940Y-158665061D01*
X123601032Y-156269735D01*
X123601065Y-155421153D01*
X132799500Y-155421153D01*
X132799500Y-155578846D01*
X132830261Y-155733489D01*
X132830264Y-155733501D01*
X132890602Y-155879172D01*
X132890609Y-155879185D01*
X132978210Y-156010288D01*
X132978213Y-156010292D01*
X133089707Y-156121786D01*
X133089711Y-156121789D01*
X133220814Y-156209390D01*
X133220827Y-156209397D01*
X133366498Y-156269735D01*
X133366503Y-156269737D01*
X133521153Y-156300499D01*
X133521156Y-156300500D01*
X133521158Y-156300500D01*
X133678844Y-156300500D01*
X133678845Y-156300499D01*
X133833497Y-156269737D01*
X133979179Y-156209394D01*
X134110289Y-156121789D01*
X134221789Y-156010289D01*
X134309394Y-155879179D01*
X134369737Y-155733497D01*
X134400500Y-155578842D01*
X134400500Y-155421158D01*
X134400500Y-155421155D01*
X134400499Y-155421153D01*
X134369738Y-155266510D01*
X134369737Y-155266503D01*
X134369735Y-155266498D01*
X134309397Y-155120827D01*
X134309390Y-155120814D01*
X134221789Y-154989711D01*
X134221786Y-154989707D01*
X134110292Y-154878213D01*
X134110288Y-154878210D01*
X133979185Y-154790609D01*
X133979172Y-154790602D01*
X133833501Y-154730264D01*
X133833489Y-154730261D01*
X133678845Y-154699500D01*
X133678842Y-154699500D01*
X133521158Y-154699500D01*
X133521155Y-154699500D01*
X133366510Y-154730261D01*
X133366498Y-154730264D01*
X133220827Y-154790602D01*
X133220814Y-154790609D01*
X133089711Y-154878210D01*
X133089707Y-154878213D01*
X132978213Y-154989707D01*
X132978210Y-154989711D01*
X132890609Y-155120814D01*
X132890602Y-155120827D01*
X132830264Y-155266498D01*
X132830261Y-155266510D01*
X132799500Y-155421153D01*
X123601065Y-155421153D01*
X123601196Y-152021153D01*
X137199500Y-152021153D01*
X137199500Y-152178846D01*
X137230261Y-152333489D01*
X137230264Y-152333501D01*
X137290602Y-152479172D01*
X137290609Y-152479185D01*
X137378210Y-152610288D01*
X137378213Y-152610292D01*
X137489707Y-152721786D01*
X137489711Y-152721789D01*
X137620814Y-152809390D01*
X137620827Y-152809397D01*
X137766498Y-152869735D01*
X137766503Y-152869737D01*
X137921153Y-152900499D01*
X137921156Y-152900500D01*
X137921158Y-152900500D01*
X138078844Y-152900500D01*
X138078845Y-152900499D01*
X138233497Y-152869737D01*
X138379179Y-152809394D01*
X138510289Y-152721789D01*
X138621789Y-152610289D01*
X138709394Y-152479179D01*
X138769737Y-152333497D01*
X138800500Y-152178842D01*
X138800500Y-152021158D01*
X138800500Y-152021155D01*
X138800499Y-152021153D01*
X138769738Y-151866510D01*
X138769737Y-151866503D01*
X138769735Y-151866498D01*
X138709397Y-151720827D01*
X138709390Y-151720814D01*
X138621789Y-151589711D01*
X138621786Y-151589707D01*
X138510292Y-151478213D01*
X138510288Y-151478210D01*
X138379185Y-151390609D01*
X138379172Y-151390602D01*
X138233501Y-151330264D01*
X138233489Y-151330261D01*
X138078845Y-151299500D01*
X138078842Y-151299500D01*
X137921158Y-151299500D01*
X137921155Y-151299500D01*
X137766510Y-151330261D01*
X137766498Y-151330264D01*
X137620827Y-151390602D01*
X137620814Y-151390609D01*
X137489711Y-151478210D01*
X137489707Y-151478213D01*
X137378213Y-151589707D01*
X137378210Y-151589711D01*
X137290609Y-151720814D01*
X137290602Y-151720827D01*
X137230264Y-151866498D01*
X137230261Y-151866510D01*
X137199500Y-152021153D01*
X123601196Y-152021153D01*
X123601300Y-149321153D01*
X140199500Y-149321153D01*
X140199500Y-149478846D01*
X140230261Y-149633489D01*
X140230264Y-149633501D01*
X140290602Y-149779172D01*
X140290609Y-149779185D01*
X140378210Y-149910288D01*
X140378213Y-149910292D01*
X140489707Y-150021786D01*
X140489711Y-150021789D01*
X140620814Y-150109390D01*
X140620827Y-150109397D01*
X140766498Y-150169735D01*
X140766503Y-150169737D01*
X140921153Y-150200499D01*
X140921156Y-150200500D01*
X140921158Y-150200500D01*
X141078844Y-150200500D01*
X141078845Y-150200499D01*
X141233497Y-150169737D01*
X141379179Y-150109394D01*
X141510289Y-150021789D01*
X141621789Y-149910289D01*
X141709394Y-149779179D01*
X141769737Y-149633497D01*
X141800500Y-149478842D01*
X141800500Y-149321158D01*
X141800500Y-149321155D01*
X141800499Y-149321153D01*
X141769738Y-149166510D01*
X141769737Y-149166503D01*
X141769735Y-149166498D01*
X141709397Y-149020827D01*
X141709390Y-149020814D01*
X141621789Y-148889711D01*
X141621786Y-148889707D01*
X141510292Y-148778213D01*
X141510288Y-148778210D01*
X141379185Y-148690609D01*
X141379172Y-148690602D01*
X141233501Y-148630264D01*
X141233489Y-148630261D01*
X141078845Y-148599500D01*
X141078842Y-148599500D01*
X140921158Y-148599500D01*
X140921155Y-148599500D01*
X140766510Y-148630261D01*
X140766498Y-148630264D01*
X140620827Y-148690602D01*
X140620814Y-148690609D01*
X140489711Y-148778210D01*
X140489707Y-148778213D01*
X140378213Y-148889707D01*
X140378210Y-148889711D01*
X140290609Y-149020814D01*
X140290602Y-149020827D01*
X140230264Y-149166498D01*
X140230261Y-149166510D01*
X140199500Y-149321153D01*
X123601300Y-149321153D01*
X123601473Y-144851220D01*
X123601497Y-144240350D01*
X129924500Y-144240350D01*
X129924500Y-144409649D01*
X129950981Y-144576847D01*
X130003296Y-144737853D01*
X130080152Y-144888688D01*
X130179648Y-145025634D01*
X130179652Y-145025639D01*
X130299360Y-145145347D01*
X130299365Y-145145351D01*
X130418817Y-145232137D01*
X130436315Y-145244850D01*
X130532425Y-145293820D01*
X130587146Y-145321703D01*
X130587148Y-145321703D01*
X130587151Y-145321705D01*
X130673450Y-145349745D01*
X130748152Y-145374018D01*
X130915351Y-145400500D01*
X130915356Y-145400500D01*
X131084649Y-145400500D01*
X131251847Y-145374018D01*
X131412849Y-145321705D01*
X131563685Y-145244850D01*
X131700641Y-145145346D01*
X131820346Y-145025641D01*
X131919850Y-144888685D01*
X131996705Y-144737849D01*
X132049018Y-144576847D01*
X132050770Y-144565783D01*
X132075500Y-144409649D01*
X132075500Y-144406307D01*
X150174499Y-144406307D01*
X150206222Y-144565783D01*
X150206225Y-144565793D01*
X150268450Y-144716019D01*
X150268452Y-144716023D01*
X150358788Y-144851220D01*
X150358794Y-144851228D01*
X150473771Y-144966205D01*
X150473779Y-144966211D01*
X150608976Y-145056547D01*
X150608980Y-145056549D01*
X150759206Y-145118774D01*
X150759211Y-145118776D01*
X150759215Y-145118776D01*
X150759216Y-145118777D01*
X150918692Y-145150500D01*
X150918695Y-145150500D01*
X151081307Y-145150500D01*
X151188598Y-145129157D01*
X151240789Y-145118776D01*
X151391021Y-145056548D01*
X151391023Y-145056547D01*
X151458169Y-145011680D01*
X151526225Y-144966208D01*
X151641208Y-144851225D01*
X151686680Y-144783169D01*
X151731547Y-144716023D01*
X151731549Y-144716019D01*
X151752290Y-144665943D01*
X151793776Y-144565789D01*
X151825500Y-144406305D01*
X151825500Y-144243695D01*
X151825500Y-144243692D01*
X151793777Y-144084216D01*
X151793776Y-144084215D01*
X151793776Y-144084211D01*
X151789195Y-144073152D01*
X151731549Y-143933980D01*
X151731547Y-143933976D01*
X151641211Y-143798779D01*
X151641205Y-143798771D01*
X151526228Y-143683794D01*
X151526220Y-143683788D01*
X151391023Y-143593452D01*
X151391019Y-143593450D01*
X151240793Y-143531225D01*
X151240783Y-143531222D01*
X151081307Y-143499500D01*
X151081305Y-143499500D01*
X150918695Y-143499500D01*
X150918693Y-143499500D01*
X150759216Y-143531222D01*
X150759206Y-143531225D01*
X150608980Y-143593450D01*
X150608976Y-143593452D01*
X150473779Y-143683788D01*
X150473771Y-143683794D01*
X150358794Y-143798771D01*
X150358788Y-143798779D01*
X150268452Y-143933976D01*
X150268450Y-143933980D01*
X150206225Y-144084206D01*
X150206222Y-144084216D01*
X150174500Y-144243692D01*
X150174500Y-144243695D01*
X150174500Y-144406305D01*
X150174500Y-144406307D01*
X150174499Y-144406307D01*
X132075500Y-144406307D01*
X132075500Y-144240350D01*
X132049018Y-144073152D01*
X132024745Y-143998450D01*
X131996705Y-143912151D01*
X131996703Y-143912148D01*
X131996703Y-143912146D01*
X131968820Y-143857425D01*
X131919850Y-143761315D01*
X131863528Y-143683794D01*
X131820351Y-143624365D01*
X131820347Y-143624360D01*
X131700639Y-143504652D01*
X131700634Y-143504648D01*
X131563688Y-143405152D01*
X131563687Y-143405151D01*
X131563685Y-143405150D01*
X131516582Y-143381150D01*
X131412853Y-143328296D01*
X131251847Y-143275981D01*
X131084649Y-143249500D01*
X131084644Y-143249500D01*
X130915356Y-143249500D01*
X130915351Y-143249500D01*
X130748152Y-143275981D01*
X130587146Y-143328296D01*
X130436311Y-143405152D01*
X130299365Y-143504648D01*
X130299360Y-143504652D01*
X130179652Y-143624360D01*
X130179648Y-143624365D01*
X130080152Y-143761311D01*
X130003296Y-143912146D01*
X129950981Y-144073152D01*
X129924500Y-144240350D01*
X123601497Y-144240350D01*
X123601497Y-144235479D01*
X123601774Y-137050499D01*
X123601818Y-135921153D01*
X130349500Y-135921153D01*
X130349500Y-136078846D01*
X130380261Y-136233489D01*
X130380264Y-136233501D01*
X130440602Y-136379172D01*
X130440609Y-136379185D01*
X130528210Y-136510288D01*
X130528213Y-136510292D01*
X130639707Y-136621786D01*
X130639711Y-136621789D01*
X130770814Y-136709390D01*
X130770827Y-136709397D01*
X130916498Y-136769735D01*
X130916503Y-136769737D01*
X131071153Y-136800499D01*
X131071156Y-136800500D01*
X131071158Y-136800500D01*
X131228844Y-136800500D01*
X131228845Y-136800499D01*
X131383497Y-136769737D01*
X131529179Y-136709394D01*
X131660289Y-136621789D01*
X131771789Y-136510289D01*
X131859394Y-136379179D01*
X131919737Y-136233497D01*
X131932138Y-136171153D01*
X132749500Y-136171153D01*
X132749500Y-136328846D01*
X132780261Y-136483489D01*
X132780264Y-136483501D01*
X132840602Y-136629172D01*
X132840609Y-136629185D01*
X132928210Y-136760288D01*
X132928213Y-136760292D01*
X133039707Y-136871786D01*
X133039711Y-136871789D01*
X133170814Y-136959390D01*
X133170827Y-136959397D01*
X133316498Y-137019735D01*
X133316503Y-137019737D01*
X133471153Y-137050499D01*
X133471156Y-137050500D01*
X133471158Y-137050500D01*
X133628844Y-137050500D01*
X133628845Y-137050499D01*
X133783497Y-137019737D01*
X133929179Y-136959394D01*
X134060289Y-136871789D01*
X134171789Y-136760289D01*
X134259394Y-136629179D01*
X134319737Y-136483497D01*
X134350500Y-136328842D01*
X134350500Y-136271153D01*
X140449500Y-136271153D01*
X140449500Y-136428846D01*
X140480261Y-136583489D01*
X140480264Y-136583501D01*
X140540602Y-136729172D01*
X140540609Y-136729185D01*
X140628210Y-136860288D01*
X140628213Y-136860292D01*
X140739707Y-136971786D01*
X140739711Y-136971789D01*
X140870814Y-137059390D01*
X140870827Y-137059397D01*
X141016498Y-137119735D01*
X141016503Y-137119737D01*
X141171153Y-137150499D01*
X141171156Y-137150500D01*
X141171158Y-137150500D01*
X141328844Y-137150500D01*
X141328845Y-137150499D01*
X141483497Y-137119737D01*
X141629179Y-137059394D01*
X141760289Y-136971789D01*
X141871789Y-136860289D01*
X141959394Y-136729179D01*
X141995610Y-136641743D01*
X142039449Y-136587344D01*
X142105743Y-136565278D01*
X142157622Y-136574638D01*
X142266498Y-136619735D01*
X142266503Y-136619737D01*
X142421153Y-136650499D01*
X142421156Y-136650500D01*
X142421158Y-136650500D01*
X142578844Y-136650500D01*
X142578845Y-136650499D01*
X142733497Y-136619737D01*
X142879179Y-136559394D01*
X143010289Y-136471789D01*
X143121789Y-136360289D01*
X143209394Y-136229179D01*
X143269737Y-136083497D01*
X143300500Y-135928842D01*
X143300500Y-135771158D01*
X143300500Y-135771155D01*
X143284209Y-135689258D01*
X143284209Y-135689257D01*
X143280608Y-135671153D01*
X144799500Y-135671153D01*
X144799500Y-135828846D01*
X144830261Y-135983489D01*
X144830264Y-135983501D01*
X144890602Y-136129172D01*
X144890609Y-136129185D01*
X144978210Y-136260288D01*
X144978213Y-136260292D01*
X145089707Y-136371786D01*
X145089711Y-136371789D01*
X145220814Y-136459390D01*
X145220827Y-136459397D01*
X145366498Y-136519735D01*
X145366503Y-136519737D01*
X145521153Y-136550499D01*
X145521156Y-136550500D01*
X145521158Y-136550500D01*
X145678844Y-136550500D01*
X145678845Y-136550499D01*
X145833497Y-136519737D01*
X145979179Y-136459394D01*
X146110289Y-136371789D01*
X146221789Y-136260289D01*
X146309394Y-136129179D01*
X146369737Y-135983497D01*
X146382138Y-135921153D01*
X147799500Y-135921153D01*
X147799500Y-136078846D01*
X147830261Y-136233489D01*
X147830264Y-136233501D01*
X147890602Y-136379172D01*
X147890609Y-136379185D01*
X147978210Y-136510288D01*
X147978213Y-136510292D01*
X148089707Y-136621786D01*
X148089711Y-136621789D01*
X148220814Y-136709390D01*
X148220827Y-136709397D01*
X148366498Y-136769735D01*
X148366503Y-136769737D01*
X148521153Y-136800499D01*
X148521156Y-136800500D01*
X148521158Y-136800500D01*
X148678844Y-136800500D01*
X148678845Y-136800499D01*
X148833497Y-136769737D01*
X148979179Y-136709394D01*
X149110289Y-136621789D01*
X149221789Y-136510289D01*
X149309394Y-136379179D01*
X149369737Y-136233497D01*
X149400500Y-136078842D01*
X149400500Y-135921158D01*
X149400500Y-135921155D01*
X149400499Y-135921153D01*
X149372192Y-135778846D01*
X149369737Y-135766503D01*
X149369735Y-135766498D01*
X149326666Y-135662518D01*
X149309532Y-135621153D01*
X151299500Y-135621153D01*
X151299500Y-135778846D01*
X151330261Y-135933489D01*
X151330264Y-135933501D01*
X151390602Y-136079172D01*
X151390609Y-136079185D01*
X151478210Y-136210288D01*
X151478213Y-136210292D01*
X151589707Y-136321786D01*
X151589711Y-136321789D01*
X151720814Y-136409390D01*
X151720827Y-136409397D01*
X151866498Y-136469735D01*
X151866503Y-136469737D01*
X152021153Y-136500499D01*
X152021156Y-136500500D01*
X152021158Y-136500500D01*
X152178844Y-136500500D01*
X152178845Y-136500499D01*
X152333497Y-136469737D01*
X152479179Y-136409394D01*
X152610289Y-136321789D01*
X152721789Y-136210289D01*
X152809394Y-136079179D01*
X152869737Y-135933497D01*
X152900500Y-135778842D01*
X152900500Y-135621158D01*
X152900500Y-135621155D01*
X152900499Y-135621153D01*
X152892365Y-135580261D01*
X152869737Y-135466503D01*
X152862581Y-135449227D01*
X152809397Y-135320827D01*
X152809390Y-135320814D01*
X152721789Y-135189711D01*
X152721786Y-135189707D01*
X152610292Y-135078213D01*
X152610288Y-135078210D01*
X152479185Y-134990609D01*
X152479172Y-134990602D01*
X152333501Y-134930264D01*
X152333489Y-134930261D01*
X152178845Y-134899500D01*
X152178842Y-134899500D01*
X152021158Y-134899500D01*
X152021155Y-134899500D01*
X151866510Y-134930261D01*
X151866498Y-134930264D01*
X151720827Y-134990602D01*
X151720814Y-134990609D01*
X151589711Y-135078210D01*
X151589707Y-135078213D01*
X151478213Y-135189707D01*
X151478210Y-135189711D01*
X151390609Y-135320814D01*
X151390602Y-135320827D01*
X151330264Y-135466498D01*
X151330261Y-135466510D01*
X151299500Y-135621153D01*
X149309532Y-135621153D01*
X149309395Y-135620823D01*
X149309390Y-135620814D01*
X149221789Y-135489711D01*
X149221786Y-135489707D01*
X149110292Y-135378213D01*
X149110288Y-135378210D01*
X148979185Y-135290609D01*
X148979172Y-135290602D01*
X148833501Y-135230264D01*
X148833489Y-135230261D01*
X148678845Y-135199500D01*
X148678842Y-135199500D01*
X148521158Y-135199500D01*
X148521155Y-135199500D01*
X148366510Y-135230261D01*
X148366498Y-135230264D01*
X148220827Y-135290602D01*
X148220814Y-135290609D01*
X148089711Y-135378210D01*
X148089707Y-135378213D01*
X147978213Y-135489707D01*
X147978210Y-135489711D01*
X147890609Y-135620814D01*
X147890602Y-135620827D01*
X147830264Y-135766498D01*
X147830261Y-135766510D01*
X147799500Y-135921153D01*
X146382138Y-135921153D01*
X146398339Y-135839707D01*
X146400500Y-135828844D01*
X146400500Y-135671155D01*
X146400499Y-135671153D01*
X146391957Y-135628210D01*
X146369737Y-135516503D01*
X146369735Y-135516498D01*
X146309397Y-135370827D01*
X146309390Y-135370814D01*
X146221789Y-135239711D01*
X146221786Y-135239707D01*
X146110292Y-135128213D01*
X146110288Y-135128210D01*
X145979185Y-135040609D01*
X145979172Y-135040602D01*
X145833501Y-134980264D01*
X145833489Y-134980261D01*
X145678845Y-134949500D01*
X145678842Y-134949500D01*
X145521158Y-134949500D01*
X145521155Y-134949500D01*
X145366510Y-134980261D01*
X145366498Y-134980264D01*
X145220827Y-135040602D01*
X145220814Y-135040609D01*
X145089711Y-135128210D01*
X145089707Y-135128213D01*
X144978213Y-135239707D01*
X144978210Y-135239711D01*
X144890609Y-135370814D01*
X144890602Y-135370827D01*
X144830264Y-135516498D01*
X144830261Y-135516510D01*
X144799500Y-135671153D01*
X143280608Y-135671153D01*
X143274531Y-135640606D01*
X143269737Y-135616503D01*
X143260348Y-135593836D01*
X143209397Y-135470827D01*
X143209390Y-135470814D01*
X143121789Y-135339711D01*
X143121786Y-135339707D01*
X143010292Y-135228213D01*
X143010288Y-135228210D01*
X142879185Y-135140609D01*
X142879172Y-135140602D01*
X142733501Y-135080264D01*
X142733489Y-135080261D01*
X142578845Y-135049500D01*
X142578842Y-135049500D01*
X142421158Y-135049500D01*
X142421155Y-135049500D01*
X142266510Y-135080261D01*
X142266498Y-135080264D01*
X142120827Y-135140602D01*
X142120814Y-135140609D01*
X141989711Y-135228210D01*
X141989707Y-135228213D01*
X141878213Y-135339707D01*
X141878210Y-135339711D01*
X141790609Y-135470814D01*
X141790604Y-135470823D01*
X141754390Y-135558254D01*
X141710549Y-135612657D01*
X141644255Y-135634722D01*
X141592377Y-135625362D01*
X141483501Y-135580264D01*
X141483489Y-135580261D01*
X141328845Y-135549500D01*
X141328842Y-135549500D01*
X141171158Y-135549500D01*
X141171155Y-135549500D01*
X141016510Y-135580261D01*
X141016498Y-135580264D01*
X140870827Y-135640602D01*
X140870814Y-135640609D01*
X140739711Y-135728210D01*
X140739707Y-135728213D01*
X140628213Y-135839707D01*
X140628210Y-135839711D01*
X140540609Y-135970814D01*
X140540602Y-135970827D01*
X140480264Y-136116498D01*
X140480261Y-136116510D01*
X140449500Y-136271153D01*
X134350500Y-136271153D01*
X134350500Y-136171158D01*
X134350500Y-136171155D01*
X134350499Y-136171153D01*
X134332204Y-136079179D01*
X134319737Y-136016503D01*
X134267701Y-135890875D01*
X134259397Y-135870827D01*
X134259390Y-135870814D01*
X134171789Y-135739711D01*
X134171786Y-135739707D01*
X134060292Y-135628213D01*
X134060288Y-135628210D01*
X134008844Y-135593836D01*
X133964039Y-135540224D01*
X133955332Y-135470899D01*
X133985487Y-135407871D01*
X134044930Y-135371152D01*
X134053544Y-135369117D01*
X134053822Y-135369061D01*
X134161620Y-135347619D01*
X134293653Y-135292929D01*
X134412479Y-135213532D01*
X134513532Y-135112479D01*
X134513533Y-135112476D01*
X134516589Y-135109421D01*
X134577912Y-135075935D01*
X134622417Y-135075537D01*
X134622480Y-135074903D01*
X134628387Y-135075484D01*
X134628465Y-135075484D01*
X134628545Y-135075500D01*
X134628546Y-135075500D01*
X134771457Y-135075500D01*
X134865751Y-135056742D01*
X134911620Y-135047619D01*
X135043653Y-134992929D01*
X135162479Y-134913532D01*
X135263532Y-134812479D01*
X135342929Y-134693653D01*
X135372834Y-134621457D01*
X143224499Y-134621457D01*
X143252379Y-134761614D01*
X143252381Y-134761620D01*
X143307069Y-134893650D01*
X143307074Y-134893659D01*
X143386467Y-135012478D01*
X143386470Y-135012482D01*
X143487517Y-135113529D01*
X143487521Y-135113532D01*
X143606340Y-135192925D01*
X143606346Y-135192928D01*
X143606347Y-135192929D01*
X143738380Y-135247619D01*
X143738384Y-135247619D01*
X143738385Y-135247620D01*
X143878542Y-135275500D01*
X143878545Y-135275500D01*
X144021457Y-135275500D01*
X144115751Y-135256742D01*
X144161620Y-135247619D01*
X144293653Y-135192929D01*
X144412479Y-135113532D01*
X144513532Y-135012479D01*
X144592929Y-134893653D01*
X144647619Y-134761620D01*
X144673105Y-134633497D01*
X144675500Y-134621457D01*
X144675500Y-134478542D01*
X144647620Y-134338385D01*
X144647619Y-134338384D01*
X144647619Y-134338380D01*
X144592929Y-134206347D01*
X144592928Y-134206346D01*
X144592925Y-134206340D01*
X144513532Y-134087521D01*
X144513529Y-134087517D01*
X144412482Y-133986470D01*
X144412478Y-133986467D01*
X144293659Y-133907074D01*
X144293650Y-133907069D01*
X144161620Y-133852381D01*
X144161614Y-133852379D01*
X144021457Y-133824500D01*
X144021455Y-133824500D01*
X143878545Y-133824500D01*
X143878543Y-133824500D01*
X143738385Y-133852379D01*
X143738379Y-133852381D01*
X143606349Y-133907069D01*
X143606340Y-133907074D01*
X143487521Y-133986467D01*
X143487517Y-133986470D01*
X143386470Y-134087517D01*
X143386467Y-134087521D01*
X143307074Y-134206340D01*
X143307069Y-134206349D01*
X143252381Y-134338379D01*
X143252379Y-134338385D01*
X143224500Y-134478542D01*
X143224500Y-134478545D01*
X143224500Y-134621455D01*
X143224500Y-134621457D01*
X143224499Y-134621457D01*
X135372834Y-134621457D01*
X135397619Y-134561620D01*
X135414084Y-134478846D01*
X135420168Y-134448262D01*
X135420168Y-134448260D01*
X135425500Y-134421456D01*
X135425500Y-134278542D01*
X135397620Y-134138385D01*
X135397619Y-134138384D01*
X135397619Y-134138380D01*
X135348924Y-134020821D01*
X135342930Y-134006349D01*
X135342925Y-134006340D01*
X135263532Y-133887521D01*
X135263529Y-133887517D01*
X135162482Y-133786470D01*
X135162478Y-133786467D01*
X135043659Y-133707074D01*
X135043650Y-133707069D01*
X134911620Y-133652381D01*
X134911614Y-133652379D01*
X134771457Y-133624500D01*
X134771455Y-133624500D01*
X134628545Y-133624500D01*
X134628543Y-133624500D01*
X134488385Y-133652379D01*
X134488379Y-133652381D01*
X134356349Y-133707069D01*
X134356340Y-133707074D01*
X134237521Y-133786467D01*
X134133408Y-133890580D01*
X134072085Y-133924064D01*
X134027580Y-133924463D01*
X134027518Y-133925097D01*
X134021631Y-133924517D01*
X134021548Y-133924518D01*
X134021458Y-133924500D01*
X134021455Y-133924500D01*
X133878545Y-133924500D01*
X133878543Y-133924500D01*
X133738385Y-133952379D01*
X133738379Y-133952381D01*
X133606349Y-134007069D01*
X133606340Y-134007074D01*
X133487521Y-134086467D01*
X133487517Y-134086470D01*
X133386470Y-134187517D01*
X133386467Y-134187521D01*
X133307074Y-134306340D01*
X133307069Y-134306349D01*
X133252381Y-134438379D01*
X133252379Y-134438385D01*
X133224500Y-134578542D01*
X133224500Y-134578545D01*
X133224500Y-134721455D01*
X133224500Y-134721457D01*
X133224499Y-134721457D01*
X133252379Y-134861614D01*
X133252381Y-134861620D01*
X133307069Y-134993650D01*
X133307074Y-134993659D01*
X133386467Y-135112478D01*
X133386470Y-135112482D01*
X133487517Y-135213529D01*
X133487525Y-135213535D01*
X133506992Y-135226543D01*
X133551798Y-135280155D01*
X133560505Y-135349480D01*
X133530351Y-135412507D01*
X133470908Y-135449227D01*
X133462294Y-135451262D01*
X133316508Y-135480261D01*
X133316498Y-135480264D01*
X133170827Y-135540602D01*
X133170814Y-135540609D01*
X133039711Y-135628210D01*
X133039707Y-135628213D01*
X132928213Y-135739707D01*
X132928210Y-135739711D01*
X132840609Y-135870814D01*
X132840602Y-135870827D01*
X132780264Y-136016498D01*
X132780261Y-136016510D01*
X132749500Y-136171153D01*
X131932138Y-136171153D01*
X131943010Y-136116498D01*
X131950500Y-136078844D01*
X131950500Y-135921155D01*
X131950499Y-135921153D01*
X131922192Y-135778846D01*
X131919737Y-135766503D01*
X131919735Y-135766498D01*
X131859397Y-135620827D01*
X131859390Y-135620814D01*
X131771789Y-135489711D01*
X131771786Y-135489707D01*
X131660292Y-135378213D01*
X131660288Y-135378210D01*
X131612054Y-135345981D01*
X131567249Y-135292369D01*
X131558542Y-135223044D01*
X131588696Y-135160016D01*
X131633493Y-135128318D01*
X131679172Y-135109397D01*
X131679172Y-135109396D01*
X131679179Y-135109394D01*
X131810289Y-135021789D01*
X131921789Y-134910289D01*
X132009394Y-134779179D01*
X132069737Y-134633497D01*
X132100500Y-134478842D01*
X132100500Y-134321158D01*
X132100500Y-134321155D01*
X132100499Y-134321153D01*
X132077663Y-134206349D01*
X132069737Y-134166503D01*
X132037020Y-134087517D01*
X132009397Y-134020827D01*
X132009390Y-134020814D01*
X131921789Y-133889711D01*
X131921786Y-133889707D01*
X131810292Y-133778213D01*
X131810288Y-133778210D01*
X131679185Y-133690609D01*
X131679172Y-133690602D01*
X131533501Y-133630264D01*
X131533489Y-133630261D01*
X131378845Y-133599500D01*
X131378842Y-133599500D01*
X131221158Y-133599500D01*
X131221155Y-133599500D01*
X131066510Y-133630261D01*
X131066498Y-133630264D01*
X130920827Y-133690602D01*
X130920814Y-133690609D01*
X130789711Y-133778210D01*
X130789707Y-133778213D01*
X130678213Y-133889707D01*
X130678210Y-133889711D01*
X130590609Y-134020814D01*
X130590602Y-134020827D01*
X130530264Y-134166498D01*
X130530261Y-134166510D01*
X130499500Y-134321153D01*
X130499500Y-134478846D01*
X130530261Y-134633489D01*
X130530264Y-134633501D01*
X130590602Y-134779172D01*
X130590609Y-134779185D01*
X130678210Y-134910288D01*
X130678213Y-134910292D01*
X130789707Y-135021786D01*
X130789715Y-135021792D01*
X130837944Y-135054018D01*
X130882750Y-135107630D01*
X130891457Y-135176955D01*
X130861303Y-135239982D01*
X130816509Y-135271680D01*
X130770826Y-135290603D01*
X130770814Y-135290609D01*
X130639711Y-135378210D01*
X130639707Y-135378213D01*
X130528213Y-135489707D01*
X130528210Y-135489711D01*
X130440609Y-135620814D01*
X130440602Y-135620827D01*
X130380264Y-135766498D01*
X130380261Y-135766510D01*
X130349500Y-135921153D01*
X123601818Y-135921153D01*
X123601942Y-132721457D01*
X133474499Y-132721457D01*
X133502379Y-132861614D01*
X133502381Y-132861620D01*
X133557069Y-132993650D01*
X133557074Y-132993659D01*
X133636467Y-133112478D01*
X133636470Y-133112482D01*
X133737517Y-133213529D01*
X133737521Y-133213532D01*
X133856340Y-133292925D01*
X133856346Y-133292928D01*
X133856347Y-133292929D01*
X133988380Y-133347619D01*
X133988384Y-133347619D01*
X133988385Y-133347620D01*
X134128542Y-133375500D01*
X134128545Y-133375500D01*
X134271457Y-133375500D01*
X134365751Y-133356742D01*
X134411620Y-133347619D01*
X134543653Y-133292929D01*
X134662479Y-133213532D01*
X134763532Y-133112479D01*
X134842929Y-132993653D01*
X134897619Y-132861620D01*
X134925500Y-132721455D01*
X134925500Y-132578545D01*
X134925500Y-132578542D01*
X134897620Y-132438385D01*
X134897619Y-132438384D01*
X134897619Y-132438380D01*
X134842929Y-132306347D01*
X134842928Y-132306346D01*
X134842925Y-132306340D01*
X134763532Y-132187521D01*
X134763529Y-132187517D01*
X134662482Y-132086470D01*
X134662478Y-132086467D01*
X134543659Y-132007074D01*
X134543650Y-132007069D01*
X134411620Y-131952381D01*
X134411614Y-131952379D01*
X134271457Y-131924500D01*
X134271455Y-131924500D01*
X134128545Y-131924500D01*
X134128543Y-131924500D01*
X133988385Y-131952379D01*
X133988379Y-131952381D01*
X133856349Y-132007069D01*
X133856340Y-132007074D01*
X133737521Y-132086467D01*
X133737517Y-132086470D01*
X133636470Y-132187517D01*
X133636467Y-132187521D01*
X133557074Y-132306340D01*
X133557069Y-132306349D01*
X133502381Y-132438379D01*
X133502379Y-132438385D01*
X133474500Y-132578542D01*
X133474500Y-132578545D01*
X133474500Y-132721455D01*
X133474500Y-132721457D01*
X133474499Y-132721457D01*
X123601942Y-132721457D01*
X123602029Y-130461153D01*
X135869500Y-130461153D01*
X135869500Y-130618846D01*
X135900261Y-130773489D01*
X135900264Y-130773501D01*
X135960602Y-130919172D01*
X135960609Y-130919185D01*
X136048210Y-131050288D01*
X136048213Y-131050292D01*
X136159707Y-131161786D01*
X136159711Y-131161789D01*
X136290814Y-131249390D01*
X136290827Y-131249397D01*
X136436498Y-131309735D01*
X136436503Y-131309737D01*
X136548783Y-131332071D01*
X136591153Y-131340499D01*
X136591156Y-131340500D01*
X136591158Y-131340500D01*
X136748844Y-131340500D01*
X136748845Y-131340499D01*
X136903497Y-131309737D01*
X137049179Y-131249394D01*
X137180289Y-131161789D01*
X137291789Y-131050289D01*
X137379394Y-130919179D01*
X137439737Y-130773497D01*
X137460094Y-130671158D01*
X137460095Y-130671153D01*
X142599500Y-130671153D01*
X142599500Y-130828846D01*
X142630261Y-130983489D01*
X142630264Y-130983501D01*
X142690602Y-131129172D01*
X142690609Y-131129185D01*
X142778210Y-131260288D01*
X142778213Y-131260292D01*
X142889707Y-131371786D01*
X142889711Y-131371789D01*
X143020814Y-131459390D01*
X143020826Y-131459397D01*
X143120069Y-131500503D01*
X143147366Y-131511810D01*
X143201770Y-131555650D01*
X143223835Y-131621944D01*
X143214476Y-131673822D01*
X143177381Y-131763380D01*
X143177379Y-131763385D01*
X143149500Y-131903542D01*
X143149500Y-131903545D01*
X143149500Y-132046455D01*
X143149500Y-132046457D01*
X143149499Y-132046457D01*
X143177379Y-132186614D01*
X143177381Y-132186620D01*
X143232069Y-132318650D01*
X143232074Y-132318659D01*
X143311467Y-132437478D01*
X143311470Y-132437482D01*
X143412517Y-132538529D01*
X143412521Y-132538532D01*
X143531340Y-132617925D01*
X143531346Y-132617928D01*
X143531347Y-132617929D01*
X143663380Y-132672619D01*
X143663384Y-132672619D01*
X143663385Y-132672620D01*
X143803542Y-132700500D01*
X143803545Y-132700500D01*
X143946457Y-132700500D01*
X144040751Y-132681742D01*
X144086620Y-132672619D01*
X144218653Y-132617929D01*
X144337479Y-132538532D01*
X144438532Y-132437479D01*
X144517929Y-132318653D01*
X144572619Y-132186620D01*
X144581742Y-132140751D01*
X144600500Y-132046457D01*
X144600500Y-131903542D01*
X144572620Y-131763385D01*
X144572619Y-131763384D01*
X144572619Y-131763380D01*
X144517929Y-131631347D01*
X144517928Y-131631346D01*
X144517925Y-131631340D01*
X144438532Y-131512521D01*
X144438529Y-131512517D01*
X144337482Y-131411470D01*
X144337478Y-131411467D01*
X144218659Y-131332074D01*
X144218654Y-131332072D01*
X144218653Y-131332071D01*
X144189318Y-131319920D01*
X144166490Y-131310464D01*
X144112087Y-131266622D01*
X144090023Y-131200328D01*
X144106776Y-131134690D01*
X144106521Y-131134554D01*
X144107077Y-131133513D01*
X144107303Y-131132629D01*
X144108929Y-131130048D01*
X144109390Y-131129184D01*
X144109394Y-131129179D01*
X144169737Y-130983497D01*
X144200500Y-130828842D01*
X144200500Y-130671158D01*
X144200500Y-130671155D01*
X144200499Y-130671153D01*
X144190094Y-130618844D01*
X144169737Y-130516503D01*
X144146813Y-130461158D01*
X144109397Y-130370827D01*
X144109390Y-130370814D01*
X144021789Y-130239711D01*
X144021786Y-130239707D01*
X143910292Y-130128213D01*
X143910288Y-130128210D01*
X143779185Y-130040609D01*
X143779172Y-130040602D01*
X143633501Y-129980264D01*
X143633489Y-129980261D01*
X143478845Y-129949500D01*
X143478842Y-129949500D01*
X143321158Y-129949500D01*
X143321155Y-129949500D01*
X143166510Y-129980261D01*
X143166498Y-129980264D01*
X143020827Y-130040602D01*
X143020814Y-130040609D01*
X142889711Y-130128210D01*
X142889707Y-130128213D01*
X142778213Y-130239707D01*
X142778210Y-130239711D01*
X142690609Y-130370814D01*
X142690602Y-130370827D01*
X142630264Y-130516498D01*
X142630261Y-130516510D01*
X142599500Y-130671153D01*
X137460095Y-130671153D01*
X137466118Y-130640875D01*
X137470499Y-130618846D01*
X137470500Y-130618844D01*
X137470500Y-130461155D01*
X137470499Y-130461153D01*
X137439738Y-130306510D01*
X137439737Y-130306503D01*
X137412071Y-130239711D01*
X137379397Y-130160827D01*
X137379390Y-130160814D01*
X137291789Y-130029711D01*
X137291786Y-130029707D01*
X137180292Y-129918213D01*
X137180288Y-129918210D01*
X137049185Y-129830609D01*
X137049172Y-129830602D01*
X136903501Y-129770264D01*
X136903489Y-129770261D01*
X136748845Y-129739500D01*
X136748842Y-129739500D01*
X136591158Y-129739500D01*
X136591155Y-129739500D01*
X136436510Y-129770261D01*
X136436498Y-129770264D01*
X136290827Y-129830602D01*
X136290814Y-129830609D01*
X136159711Y-129918210D01*
X136159707Y-129918213D01*
X136048213Y-130029707D01*
X136048210Y-130029711D01*
X135960609Y-130160814D01*
X135960602Y-130160827D01*
X135900264Y-130306498D01*
X135900261Y-130306510D01*
X135869500Y-130461153D01*
X123602029Y-130461153D01*
X123602090Y-128883184D01*
X132189391Y-128883184D01*
X132217271Y-129023341D01*
X132217273Y-129023347D01*
X132271961Y-129155377D01*
X132271966Y-129155386D01*
X132351359Y-129274205D01*
X132351362Y-129274209D01*
X132452409Y-129375256D01*
X132452413Y-129375259D01*
X132571232Y-129454652D01*
X132571238Y-129454655D01*
X132571239Y-129454656D01*
X132703272Y-129509346D01*
X132703276Y-129509346D01*
X132703277Y-129509347D01*
X132843434Y-129537227D01*
X132843437Y-129537227D01*
X132986349Y-129537227D01*
X133080643Y-129518469D01*
X133126512Y-129509346D01*
X133258545Y-129454656D01*
X133377371Y-129375259D01*
X133478424Y-129274206D01*
X133557821Y-129155380D01*
X133612511Y-129023347D01*
X133632905Y-128920821D01*
X133640392Y-128883184D01*
X133640392Y-128740269D01*
X133612512Y-128600112D01*
X133612511Y-128600111D01*
X133612511Y-128600107D01*
X133567022Y-128490288D01*
X133557822Y-128468076D01*
X133557817Y-128468068D01*
X133535025Y-128433957D01*
X133493061Y-128371153D01*
X134099500Y-128371153D01*
X134099500Y-128528846D01*
X134130261Y-128683489D01*
X134130264Y-128683501D01*
X134190602Y-128829172D01*
X134190609Y-128829185D01*
X134278210Y-128960288D01*
X134278213Y-128960292D01*
X134389707Y-129071786D01*
X134389711Y-129071789D01*
X134520814Y-129159390D01*
X134520827Y-129159397D01*
X134666498Y-129219735D01*
X134666503Y-129219737D01*
X134821153Y-129250499D01*
X134821156Y-129250500D01*
X134821158Y-129250500D01*
X134978844Y-129250500D01*
X134978845Y-129250499D01*
X135133497Y-129219737D01*
X135279179Y-129159394D01*
X135335956Y-129121457D01*
X149474499Y-129121457D01*
X149502379Y-129261614D01*
X149502381Y-129261620D01*
X149557069Y-129393650D01*
X149557074Y-129393659D01*
X149636467Y-129512478D01*
X149636470Y-129512482D01*
X149737517Y-129613529D01*
X149737521Y-129613532D01*
X149856340Y-129692925D01*
X149856346Y-129692928D01*
X149856347Y-129692929D01*
X149988380Y-129747619D01*
X149988384Y-129747619D01*
X149988385Y-129747620D01*
X150128542Y-129775500D01*
X150128545Y-129775500D01*
X150271457Y-129775500D01*
X150365751Y-129756742D01*
X150411620Y-129747619D01*
X150543653Y-129692929D01*
X150662479Y-129613532D01*
X150763532Y-129512479D01*
X150763534Y-129512475D01*
X150767396Y-129507771D01*
X150768477Y-129508658D01*
X150816665Y-129468379D01*
X150885989Y-129459665D01*
X150949020Y-129489813D01*
X150980727Y-129534618D01*
X151040602Y-129679172D01*
X151040609Y-129679185D01*
X151128210Y-129810288D01*
X151128213Y-129810292D01*
X151239707Y-129921786D01*
X151239711Y-129921789D01*
X151370814Y-130009390D01*
X151370827Y-130009397D01*
X151446181Y-130040609D01*
X151516503Y-130069737D01*
X151671153Y-130100499D01*
X151671156Y-130100500D01*
X151671158Y-130100500D01*
X151828844Y-130100500D01*
X151828845Y-130100499D01*
X151983497Y-130069737D01*
X152129179Y-130009394D01*
X152260289Y-129921789D01*
X152371789Y-129810289D01*
X152459394Y-129679179D01*
X152519737Y-129533497D01*
X152550500Y-129378842D01*
X152550500Y-129221158D01*
X152550500Y-129221155D01*
X152550499Y-129221153D01*
X152530668Y-129121457D01*
X152519737Y-129066503D01*
X152519735Y-129066498D01*
X152459397Y-128920827D01*
X152459390Y-128920814D01*
X152371789Y-128789711D01*
X152371786Y-128789707D01*
X152260292Y-128678213D01*
X152260288Y-128678210D01*
X152129185Y-128590609D01*
X152129172Y-128590602D01*
X151983501Y-128530264D01*
X151983489Y-128530261D01*
X151828845Y-128499500D01*
X151828842Y-128499500D01*
X151671158Y-128499500D01*
X151671155Y-128499500D01*
X151516510Y-128530261D01*
X151516498Y-128530264D01*
X151370827Y-128590602D01*
X151370814Y-128590609D01*
X151239711Y-128678210D01*
X151239707Y-128678213D01*
X151128213Y-128789707D01*
X151128210Y-128789711D01*
X151102303Y-128828484D01*
X151048690Y-128873289D01*
X150979365Y-128881996D01*
X150916338Y-128851841D01*
X150884640Y-128807046D01*
X150842930Y-128706349D01*
X150842923Y-128706337D01*
X150763532Y-128587521D01*
X150763529Y-128587517D01*
X150662482Y-128486470D01*
X150662478Y-128486467D01*
X150543659Y-128407074D01*
X150543650Y-128407069D01*
X150411620Y-128352381D01*
X150411614Y-128352379D01*
X150271457Y-128324500D01*
X150271455Y-128324500D01*
X150128545Y-128324500D01*
X150128543Y-128324500D01*
X149988385Y-128352379D01*
X149988379Y-128352381D01*
X149856349Y-128407069D01*
X149856340Y-128407074D01*
X149737521Y-128486467D01*
X149737517Y-128486470D01*
X149636470Y-128587517D01*
X149636467Y-128587521D01*
X149557077Y-128706337D01*
X149557069Y-128706349D01*
X149502381Y-128838379D01*
X149502379Y-128838385D01*
X149474500Y-128978542D01*
X149474500Y-128978545D01*
X149474500Y-129121455D01*
X149474500Y-129121457D01*
X149474499Y-129121457D01*
X135335956Y-129121457D01*
X135410289Y-129071789D01*
X135521789Y-128960289D01*
X135609394Y-128829179D01*
X135669737Y-128683497D01*
X135700500Y-128528842D01*
X135700500Y-128371158D01*
X135700500Y-128371155D01*
X135700499Y-128371153D01*
X135676041Y-128248195D01*
X135669737Y-128216503D01*
X135658281Y-128188846D01*
X135609397Y-128070827D01*
X135609390Y-128070814D01*
X135537990Y-127963957D01*
X135521789Y-127939711D01*
X135521786Y-127939707D01*
X135483232Y-127901153D01*
X137129500Y-127901153D01*
X137129500Y-128058846D01*
X137160261Y-128213489D01*
X137160264Y-128213501D01*
X137220602Y-128359172D01*
X137220609Y-128359185D01*
X137308210Y-128490288D01*
X137308213Y-128490292D01*
X137419707Y-128601786D01*
X137419711Y-128601789D01*
X137550814Y-128689390D01*
X137550827Y-128689397D01*
X137667981Y-128737923D01*
X137696503Y-128749737D01*
X137851153Y-128780499D01*
X137851156Y-128780500D01*
X137851158Y-128780500D01*
X138008844Y-128780500D01*
X138008845Y-128780499D01*
X138163497Y-128749737D01*
X138309179Y-128689394D01*
X138401076Y-128627989D01*
X138467750Y-128607113D01*
X138535131Y-128625597D01*
X138538856Y-128627991D01*
X138600814Y-128669390D01*
X138600827Y-128669397D01*
X138722363Y-128719738D01*
X138746503Y-128729737D01*
X138901153Y-128760499D01*
X138901156Y-128760500D01*
X138901158Y-128760500D01*
X139058844Y-128760500D01*
X139058845Y-128760499D01*
X139213497Y-128729737D01*
X139359179Y-128669394D01*
X139438593Y-128616330D01*
X139505267Y-128595454D01*
X139572648Y-128613938D01*
X139576373Y-128616332D01*
X139640814Y-128659390D01*
X139640827Y-128659397D01*
X139727989Y-128695500D01*
X139786503Y-128719737D01*
X139877930Y-128737923D01*
X139941153Y-128750499D01*
X139941156Y-128750500D01*
X139941158Y-128750500D01*
X140098844Y-128750500D01*
X140098845Y-128750499D01*
X140253497Y-128719737D01*
X140368557Y-128672078D01*
X140399172Y-128659397D01*
X140399172Y-128659396D01*
X140399179Y-128659394D01*
X140530289Y-128571789D01*
X140530289Y-128571788D01*
X140533641Y-128569549D01*
X140600318Y-128548671D01*
X140667698Y-128567155D01*
X140671423Y-128569549D01*
X140736340Y-128612925D01*
X140736349Y-128612930D01*
X140754123Y-128620292D01*
X140868380Y-128667619D01*
X140868384Y-128667619D01*
X140868385Y-128667620D01*
X141008542Y-128695500D01*
X141008545Y-128695500D01*
X141151457Y-128695500D01*
X141269203Y-128672078D01*
X141291620Y-128667619D01*
X141423653Y-128612929D01*
X141542479Y-128533532D01*
X141643532Y-128432479D01*
X141650897Y-128421457D01*
X144174499Y-128421457D01*
X144202379Y-128561614D01*
X144202381Y-128561620D01*
X144257069Y-128693650D01*
X144257074Y-128693659D01*
X144336467Y-128812478D01*
X144336470Y-128812482D01*
X144437517Y-128913529D01*
X144437521Y-128913532D01*
X144556340Y-128992925D01*
X144556346Y-128992928D01*
X144556347Y-128992929D01*
X144688380Y-129047619D01*
X144688384Y-129047619D01*
X144688385Y-129047620D01*
X144828542Y-129075500D01*
X144828545Y-129075500D01*
X144971457Y-129075500D01*
X145065751Y-129056742D01*
X145111620Y-129047619D01*
X145243653Y-128992929D01*
X145362479Y-128913532D01*
X145463532Y-128812479D01*
X145542929Y-128693653D01*
X145597619Y-128561620D01*
X145611808Y-128490288D01*
X145625500Y-128421457D01*
X145625500Y-128278542D01*
X145597620Y-128138385D01*
X145597619Y-128138384D01*
X145597619Y-128138380D01*
X145553204Y-128031153D01*
X145889500Y-128031153D01*
X145889500Y-128188846D01*
X145920261Y-128343489D01*
X145920264Y-128343501D01*
X145980602Y-128489172D01*
X145980609Y-128489185D01*
X146068210Y-128620288D01*
X146068213Y-128620292D01*
X146179707Y-128731786D01*
X146179711Y-128731789D01*
X146310814Y-128819390D01*
X146310827Y-128819397D01*
X146403764Y-128857892D01*
X146456503Y-128879737D01*
X146611153Y-128910499D01*
X146611156Y-128910500D01*
X146611158Y-128910500D01*
X146768844Y-128910500D01*
X146768845Y-128910499D01*
X146923497Y-128879737D01*
X147069179Y-128819394D01*
X147127388Y-128780500D01*
X147191109Y-128737923D01*
X147257786Y-128717045D01*
X147325166Y-128735529D01*
X147328891Y-128737923D01*
X147450814Y-128819390D01*
X147450827Y-128819397D01*
X147543764Y-128857892D01*
X147596503Y-128879737D01*
X147751153Y-128910499D01*
X147751156Y-128910500D01*
X147751158Y-128910500D01*
X147908844Y-128910500D01*
X147908845Y-128910499D01*
X148063497Y-128879737D01*
X148086126Y-128870363D01*
X148116237Y-128857892D01*
X148209172Y-128819397D01*
X148209172Y-128819396D01*
X148209179Y-128819394D01*
X148340289Y-128731789D01*
X148451789Y-128620289D01*
X148539394Y-128489179D01*
X148599737Y-128343497D01*
X148630500Y-128188842D01*
X148630500Y-128031158D01*
X148630500Y-128031155D01*
X148630499Y-128031153D01*
X148604121Y-127898542D01*
X148599737Y-127876503D01*
X148579734Y-127828210D01*
X148539397Y-127730827D01*
X148539390Y-127730814D01*
X148451789Y-127599711D01*
X148451786Y-127599707D01*
X148340292Y-127488213D01*
X148340288Y-127488210D01*
X148209185Y-127400609D01*
X148209172Y-127400602D01*
X148063501Y-127340264D01*
X148063489Y-127340261D01*
X147908845Y-127309500D01*
X147908842Y-127309500D01*
X147751158Y-127309500D01*
X147751155Y-127309500D01*
X147596510Y-127340261D01*
X147596498Y-127340264D01*
X147450827Y-127400602D01*
X147450814Y-127400609D01*
X147328891Y-127482076D01*
X147262213Y-127502954D01*
X147194833Y-127484469D01*
X147191109Y-127482076D01*
X147069185Y-127400609D01*
X147069172Y-127400602D01*
X146923501Y-127340264D01*
X146923489Y-127340261D01*
X146768845Y-127309500D01*
X146768842Y-127309500D01*
X146611158Y-127309500D01*
X146611155Y-127309500D01*
X146456510Y-127340261D01*
X146456498Y-127340264D01*
X146310827Y-127400602D01*
X146310814Y-127400609D01*
X146179711Y-127488210D01*
X146179707Y-127488213D01*
X146068213Y-127599707D01*
X146068210Y-127599711D01*
X145980609Y-127730814D01*
X145980602Y-127730827D01*
X145920264Y-127876498D01*
X145920261Y-127876510D01*
X145889500Y-128031153D01*
X145553204Y-128031153D01*
X145542932Y-128006353D01*
X145542925Y-128006340D01*
X145463532Y-127887521D01*
X145463529Y-127887517D01*
X145362482Y-127786470D01*
X145362478Y-127786467D01*
X145243659Y-127707074D01*
X145243650Y-127707069D01*
X145111620Y-127652381D01*
X145111614Y-127652379D01*
X144971457Y-127624500D01*
X144971455Y-127624500D01*
X144828545Y-127624500D01*
X144828543Y-127624500D01*
X144688385Y-127652379D01*
X144688379Y-127652381D01*
X144556349Y-127707069D01*
X144556340Y-127707074D01*
X144437521Y-127786467D01*
X144437517Y-127786470D01*
X144336470Y-127887517D01*
X144336467Y-127887521D01*
X144257074Y-128006340D01*
X144257069Y-128006349D01*
X144202381Y-128138379D01*
X144202379Y-128138385D01*
X144174500Y-128278542D01*
X144174500Y-128278545D01*
X144174500Y-128421455D01*
X144174500Y-128421457D01*
X144174499Y-128421457D01*
X141650897Y-128421457D01*
X141722929Y-128313653D01*
X141737473Y-128278542D01*
X141759650Y-128225001D01*
X141759650Y-128225000D01*
X141763167Y-128216510D01*
X141777619Y-128181620D01*
X141799321Y-128072519D01*
X141805500Y-128041457D01*
X141805500Y-127898542D01*
X141777620Y-127758385D01*
X141777619Y-127758384D01*
X141777619Y-127758380D01*
X141722929Y-127626347D01*
X141722928Y-127626346D01*
X141722925Y-127626340D01*
X141643532Y-127507521D01*
X141643529Y-127507517D01*
X141542482Y-127406470D01*
X141542478Y-127406467D01*
X141423659Y-127327074D01*
X141423650Y-127327069D01*
X141291620Y-127272381D01*
X141291614Y-127272379D01*
X141151457Y-127244500D01*
X141151455Y-127244500D01*
X141008545Y-127244500D01*
X141008543Y-127244500D01*
X140868385Y-127272379D01*
X140868379Y-127272381D01*
X140736349Y-127327069D01*
X140736342Y-127327073D01*
X140696753Y-127353526D01*
X140630075Y-127374403D01*
X140562695Y-127355918D01*
X140540179Y-127338101D01*
X140530291Y-127328212D01*
X140530288Y-127328210D01*
X140399185Y-127240609D01*
X140399172Y-127240602D01*
X140253501Y-127180264D01*
X140253489Y-127180261D01*
X140098845Y-127149500D01*
X140098842Y-127149500D01*
X139941158Y-127149500D01*
X139941155Y-127149500D01*
X139786510Y-127180261D01*
X139786498Y-127180264D01*
X139640827Y-127240602D01*
X139640809Y-127240612D01*
X139561407Y-127293667D01*
X139494730Y-127314545D01*
X139427350Y-127296060D01*
X139423627Y-127293668D01*
X139359183Y-127250608D01*
X139359172Y-127250602D01*
X139213501Y-127190264D01*
X139213489Y-127190261D01*
X139058845Y-127159500D01*
X139058842Y-127159500D01*
X138901158Y-127159500D01*
X138901155Y-127159500D01*
X138746510Y-127190261D01*
X138746498Y-127190264D01*
X138600827Y-127250602D01*
X138600814Y-127250609D01*
X138508925Y-127312008D01*
X138442247Y-127332886D01*
X138374867Y-127314401D01*
X138371144Y-127312008D01*
X138309190Y-127270612D01*
X138309172Y-127270602D01*
X138163501Y-127210264D01*
X138163489Y-127210261D01*
X138008845Y-127179500D01*
X138008842Y-127179500D01*
X137851158Y-127179500D01*
X137851155Y-127179500D01*
X137696510Y-127210261D01*
X137696498Y-127210264D01*
X137550827Y-127270602D01*
X137550814Y-127270609D01*
X137419711Y-127358210D01*
X137419707Y-127358213D01*
X137308213Y-127469707D01*
X137308210Y-127469711D01*
X137220609Y-127600814D01*
X137220602Y-127600827D01*
X137160264Y-127746498D01*
X137160261Y-127746510D01*
X137129500Y-127901153D01*
X135483232Y-127901153D01*
X135410292Y-127828213D01*
X135410288Y-127828210D01*
X135279185Y-127740609D01*
X135279172Y-127740602D01*
X135133501Y-127680264D01*
X135133489Y-127680261D01*
X134978845Y-127649500D01*
X134978842Y-127649500D01*
X134821158Y-127649500D01*
X134821155Y-127649500D01*
X134666510Y-127680261D01*
X134666498Y-127680264D01*
X134520827Y-127740602D01*
X134520814Y-127740609D01*
X134389711Y-127828210D01*
X134389707Y-127828213D01*
X134278213Y-127939707D01*
X134278210Y-127939711D01*
X134190609Y-128070814D01*
X134190602Y-128070827D01*
X134130264Y-128216498D01*
X134130261Y-128216510D01*
X134099500Y-128371153D01*
X133493061Y-128371153D01*
X133478424Y-128349248D01*
X133478421Y-128349244D01*
X133377374Y-128248197D01*
X133377370Y-128248194D01*
X133258551Y-128168801D01*
X133258542Y-128168796D01*
X133126512Y-128114108D01*
X133126506Y-128114106D01*
X132986349Y-128086227D01*
X132986347Y-128086227D01*
X132843437Y-128086227D01*
X132843435Y-128086227D01*
X132703277Y-128114106D01*
X132703271Y-128114108D01*
X132571241Y-128168796D01*
X132571232Y-128168801D01*
X132452413Y-128248194D01*
X132452409Y-128248197D01*
X132351362Y-128349244D01*
X132351359Y-128349248D01*
X132271966Y-128468067D01*
X132271961Y-128468076D01*
X132217273Y-128600106D01*
X132217271Y-128600112D01*
X132189392Y-128740269D01*
X132189392Y-128740272D01*
X132189392Y-128883182D01*
X132189392Y-128883184D01*
X132189391Y-128883184D01*
X123602090Y-128883184D01*
X123602181Y-126521153D01*
X132049500Y-126521153D01*
X132049500Y-126678846D01*
X132080261Y-126833489D01*
X132080264Y-126833501D01*
X132140602Y-126979172D01*
X132140609Y-126979185D01*
X132228210Y-127110288D01*
X132228213Y-127110292D01*
X132339707Y-127221786D01*
X132339711Y-127221789D01*
X132470814Y-127309390D01*
X132470827Y-127309397D01*
X132588681Y-127358213D01*
X132616503Y-127369737D01*
X132771153Y-127400499D01*
X132771156Y-127400500D01*
X132771158Y-127400500D01*
X132928844Y-127400500D01*
X132928845Y-127400499D01*
X133083497Y-127369737D01*
X133229179Y-127309394D01*
X133360289Y-127221789D01*
X133471789Y-127110289D01*
X133559394Y-126979179D01*
X133619737Y-126833497D01*
X133650500Y-126678842D01*
X133650500Y-126521158D01*
X133650500Y-126521155D01*
X133650499Y-126521153D01*
X133619738Y-126366510D01*
X133619737Y-126366503D01*
X133619735Y-126366498D01*
X133559397Y-126220827D01*
X133559390Y-126220814D01*
X133471789Y-126089711D01*
X133471786Y-126089707D01*
X133360292Y-125978213D01*
X133360288Y-125978210D01*
X133229185Y-125890609D01*
X133229172Y-125890602D01*
X133083501Y-125830264D01*
X133083489Y-125830261D01*
X132928845Y-125799500D01*
X132928842Y-125799500D01*
X132771158Y-125799500D01*
X132771155Y-125799500D01*
X132616510Y-125830261D01*
X132616498Y-125830264D01*
X132470827Y-125890602D01*
X132470814Y-125890609D01*
X132339711Y-125978210D01*
X132339707Y-125978213D01*
X132228213Y-126089707D01*
X132228210Y-126089711D01*
X132140609Y-126220814D01*
X132140602Y-126220827D01*
X132080264Y-126366498D01*
X132080261Y-126366510D01*
X132049500Y-126521153D01*
X123602181Y-126521153D01*
X123602292Y-123651153D01*
X138499500Y-123651153D01*
X138499500Y-123808846D01*
X138530261Y-123963489D01*
X138530264Y-123963501D01*
X138590602Y-124109172D01*
X138590609Y-124109185D01*
X138678210Y-124240288D01*
X138678213Y-124240292D01*
X138789707Y-124351786D01*
X138789711Y-124351789D01*
X138920814Y-124439390D01*
X138920827Y-124439397D01*
X139066498Y-124499735D01*
X139066503Y-124499737D01*
X139217312Y-124529735D01*
X139221153Y-124530499D01*
X139221156Y-124530500D01*
X139221158Y-124530500D01*
X139378844Y-124530500D01*
X139378845Y-124530499D01*
X139533497Y-124499737D01*
X139679179Y-124439394D01*
X139810289Y-124351789D01*
X139921789Y-124240289D01*
X140009394Y-124109179D01*
X140069737Y-123963497D01*
X140100500Y-123808842D01*
X140100500Y-123681153D01*
X143149500Y-123681153D01*
X143149500Y-123838846D01*
X143180261Y-123993489D01*
X143180264Y-123993501D01*
X143240602Y-124139172D01*
X143240609Y-124139185D01*
X143328210Y-124270288D01*
X143328213Y-124270292D01*
X143439707Y-124381786D01*
X143439711Y-124381789D01*
X143570814Y-124469390D01*
X143570827Y-124469397D01*
X143644078Y-124499738D01*
X143716503Y-124529737D01*
X143871153Y-124560499D01*
X143871156Y-124560500D01*
X143871158Y-124560500D01*
X144028844Y-124560500D01*
X144028845Y-124560499D01*
X144183497Y-124529737D01*
X144329179Y-124469394D01*
X144460289Y-124381789D01*
X144571789Y-124270289D01*
X144659394Y-124139179D01*
X144719737Y-123993497D01*
X144750500Y-123838842D01*
X144750500Y-123681158D01*
X144750500Y-123681155D01*
X144732220Y-123589258D01*
X144732220Y-123589257D01*
X144728619Y-123571153D01*
X149159500Y-123571153D01*
X149159500Y-123728846D01*
X149190261Y-123883489D01*
X149190264Y-123883501D01*
X149250602Y-124029172D01*
X149250609Y-124029185D01*
X149338210Y-124160288D01*
X149338213Y-124160292D01*
X149449707Y-124271786D01*
X149449711Y-124271789D01*
X149580814Y-124359390D01*
X149580827Y-124359397D01*
X149726498Y-124419735D01*
X149726503Y-124419737D01*
X149881153Y-124450499D01*
X149881156Y-124450500D01*
X149881158Y-124450500D01*
X150038844Y-124450500D01*
X150038845Y-124450499D01*
X150193497Y-124419737D01*
X150339179Y-124359394D01*
X150470289Y-124271789D01*
X150581789Y-124160289D01*
X150669394Y-124029179D01*
X150729737Y-123883497D01*
X150760500Y-123728842D01*
X150760500Y-123571158D01*
X150760121Y-123569251D01*
X150760121Y-123569248D01*
X150756522Y-123551153D01*
X155199500Y-123551153D01*
X155199500Y-123708846D01*
X155230261Y-123863489D01*
X155230264Y-123863501D01*
X155290602Y-124009172D01*
X155290609Y-124009185D01*
X155378210Y-124140288D01*
X155378213Y-124140292D01*
X155489707Y-124251786D01*
X155489711Y-124251789D01*
X155620814Y-124339390D01*
X155620827Y-124339397D01*
X155723165Y-124381786D01*
X155766503Y-124399737D01*
X155921153Y-124430499D01*
X155921156Y-124430500D01*
X155921158Y-124430500D01*
X156078844Y-124430500D01*
X156078845Y-124430499D01*
X156233497Y-124399737D01*
X156379179Y-124339394D01*
X156510289Y-124251789D01*
X156621789Y-124140289D01*
X156709394Y-124009179D01*
X156769737Y-123863497D01*
X156800500Y-123708842D01*
X156800500Y-123551158D01*
X156800500Y-123551155D01*
X156800499Y-123551153D01*
X156789627Y-123496498D01*
X156769737Y-123396503D01*
X156763241Y-123380821D01*
X156709397Y-123250827D01*
X156709390Y-123250814D01*
X156621789Y-123119711D01*
X156621786Y-123119707D01*
X156510292Y-123008213D01*
X156510288Y-123008210D01*
X156379185Y-122920609D01*
X156379172Y-122920602D01*
X156233501Y-122860264D01*
X156233489Y-122860261D01*
X156078845Y-122829500D01*
X156078842Y-122829500D01*
X155921158Y-122829500D01*
X155921155Y-122829500D01*
X155766510Y-122860261D01*
X155766498Y-122860264D01*
X155620827Y-122920602D01*
X155620814Y-122920609D01*
X155489711Y-123008210D01*
X155489707Y-123008213D01*
X155378213Y-123119707D01*
X155378210Y-123119711D01*
X155290609Y-123250814D01*
X155290602Y-123250827D01*
X155230264Y-123396498D01*
X155230261Y-123396510D01*
X155199500Y-123551153D01*
X150756522Y-123551153D01*
X150729738Y-123416508D01*
X150729737Y-123416507D01*
X150729737Y-123416503D01*
X150714954Y-123380814D01*
X150669397Y-123270827D01*
X150669390Y-123270814D01*
X150581789Y-123139711D01*
X150581786Y-123139707D01*
X150470292Y-123028213D01*
X150470288Y-123028210D01*
X150339185Y-122940609D01*
X150339172Y-122940602D01*
X150193501Y-122880264D01*
X150193489Y-122880261D01*
X150038845Y-122849500D01*
X150038842Y-122849500D01*
X149881158Y-122849500D01*
X149881155Y-122849500D01*
X149726510Y-122880261D01*
X149726498Y-122880264D01*
X149580827Y-122940602D01*
X149580814Y-122940609D01*
X149449711Y-123028210D01*
X149449707Y-123028213D01*
X149338213Y-123139707D01*
X149338210Y-123139711D01*
X149250609Y-123270814D01*
X149250602Y-123270827D01*
X149190264Y-123416498D01*
X149190261Y-123416510D01*
X149159500Y-123571153D01*
X144728619Y-123571153D01*
X144719738Y-123526510D01*
X144719737Y-123526503D01*
X144665888Y-123396498D01*
X144659397Y-123380827D01*
X144659390Y-123380814D01*
X144571789Y-123249711D01*
X144571786Y-123249707D01*
X144460292Y-123138213D01*
X144460288Y-123138210D01*
X144329185Y-123050609D01*
X144329172Y-123050602D01*
X144183501Y-122990264D01*
X144183489Y-122990261D01*
X144028845Y-122959500D01*
X144028842Y-122959500D01*
X143871158Y-122959500D01*
X143871155Y-122959500D01*
X143716510Y-122990261D01*
X143716498Y-122990264D01*
X143570827Y-123050602D01*
X143570814Y-123050609D01*
X143439711Y-123138210D01*
X143439707Y-123138213D01*
X143328213Y-123249707D01*
X143328210Y-123249711D01*
X143240609Y-123380814D01*
X143240602Y-123380827D01*
X143180264Y-123526498D01*
X143180261Y-123526510D01*
X143149500Y-123681153D01*
X140100500Y-123681153D01*
X140100500Y-123651158D01*
X140100500Y-123651155D01*
X140100499Y-123651153D01*
X140084587Y-123571158D01*
X140069737Y-123496503D01*
X140036603Y-123416510D01*
X140009397Y-123350827D01*
X140009390Y-123350814D01*
X139921789Y-123219711D01*
X139921786Y-123219707D01*
X139810292Y-123108213D01*
X139810288Y-123108210D01*
X139679185Y-123020609D01*
X139679172Y-123020602D01*
X139533501Y-122960264D01*
X139533489Y-122960261D01*
X139378845Y-122929500D01*
X139378842Y-122929500D01*
X139221158Y-122929500D01*
X139221155Y-122929500D01*
X139066510Y-122960261D01*
X139066498Y-122960264D01*
X138920827Y-123020602D01*
X138920814Y-123020609D01*
X138789711Y-123108210D01*
X138789707Y-123108213D01*
X138678213Y-123219707D01*
X138678210Y-123219711D01*
X138590609Y-123350814D01*
X138590602Y-123350827D01*
X138530264Y-123496498D01*
X138530261Y-123496510D01*
X138499500Y-123651153D01*
X123602292Y-123651153D01*
X123602370Y-121631457D01*
X141924499Y-121631457D01*
X141952379Y-121771614D01*
X141952381Y-121771620D01*
X142007069Y-121903650D01*
X142007074Y-121903659D01*
X142086467Y-122022478D01*
X142086470Y-122022482D01*
X142187517Y-122123529D01*
X142187521Y-122123532D01*
X142306340Y-122202925D01*
X142306346Y-122202928D01*
X142306347Y-122202929D01*
X142438380Y-122257619D01*
X142438384Y-122257619D01*
X142438385Y-122257620D01*
X142578542Y-122285500D01*
X142578545Y-122285500D01*
X142721457Y-122285500D01*
X142815751Y-122266742D01*
X142861620Y-122257619D01*
X142993653Y-122202929D01*
X143112479Y-122123532D01*
X143213532Y-122022479D01*
X143292929Y-121903653D01*
X143347619Y-121771620D01*
X143356742Y-121725751D01*
X143375500Y-121631457D01*
X143375500Y-121488542D01*
X143347620Y-121348385D01*
X143347619Y-121348384D01*
X143347619Y-121348380D01*
X143292929Y-121216347D01*
X143292928Y-121216346D01*
X143292925Y-121216340D01*
X143213532Y-121097521D01*
X143213529Y-121097517D01*
X143112482Y-120996470D01*
X143112478Y-120996467D01*
X143104980Y-120991457D01*
X151891299Y-120991457D01*
X151919179Y-121131614D01*
X151919181Y-121131620D01*
X151973869Y-121263650D01*
X151973874Y-121263659D01*
X152053267Y-121382478D01*
X152053270Y-121382482D01*
X152154317Y-121483529D01*
X152154321Y-121483532D01*
X152273140Y-121562925D01*
X152273149Y-121562930D01*
X152303058Y-121575318D01*
X152405180Y-121617619D01*
X152405184Y-121617619D01*
X152405185Y-121617620D01*
X152545342Y-121645500D01*
X152545345Y-121645500D01*
X152688257Y-121645500D01*
X152782551Y-121626742D01*
X152828420Y-121617619D01*
X152895947Y-121589647D01*
X152965415Y-121582178D01*
X152990850Y-121589647D01*
X153020913Y-121602099D01*
X153058374Y-121617617D01*
X153058377Y-121617617D01*
X153058380Y-121617619D01*
X153058384Y-121617619D01*
X153058385Y-121617620D01*
X153198542Y-121645500D01*
X153198545Y-121645500D01*
X153341457Y-121645500D01*
X153435751Y-121626742D01*
X153481620Y-121617619D01*
X153613653Y-121562929D01*
X153732479Y-121483532D01*
X153833532Y-121382479D01*
X153912929Y-121263653D01*
X153967619Y-121131620D01*
X153976742Y-121085751D01*
X153995500Y-120991457D01*
X153995500Y-120848542D01*
X153967620Y-120708385D01*
X153967619Y-120708384D01*
X153967619Y-120708380D01*
X153912929Y-120576347D01*
X153912928Y-120576346D01*
X153912925Y-120576340D01*
X153833532Y-120457521D01*
X153833529Y-120457517D01*
X153732482Y-120356470D01*
X153732478Y-120356467D01*
X153613659Y-120277074D01*
X153613650Y-120277069D01*
X153481620Y-120222381D01*
X153481614Y-120222379D01*
X153341457Y-120194500D01*
X153341455Y-120194500D01*
X153198545Y-120194500D01*
X153198543Y-120194500D01*
X153058385Y-120222379D01*
X153058384Y-120222379D01*
X152990852Y-120250352D01*
X152921382Y-120257820D01*
X152895948Y-120250352D01*
X152828415Y-120222379D01*
X152688257Y-120194500D01*
X152688255Y-120194500D01*
X152545345Y-120194500D01*
X152545343Y-120194500D01*
X152405185Y-120222379D01*
X152405179Y-120222381D01*
X152273149Y-120277069D01*
X152273140Y-120277074D01*
X152154321Y-120356467D01*
X152154317Y-120356470D01*
X152053270Y-120457517D01*
X152053267Y-120457521D01*
X151973874Y-120576340D01*
X151973869Y-120576349D01*
X151919181Y-120708379D01*
X151919179Y-120708385D01*
X151891300Y-120848542D01*
X151891300Y-120848545D01*
X151891300Y-120991455D01*
X151891300Y-120991457D01*
X151891299Y-120991457D01*
X143104980Y-120991457D01*
X143036283Y-120945555D01*
X142993659Y-120917074D01*
X142993650Y-120917069D01*
X142861620Y-120862381D01*
X142861614Y-120862379D01*
X142721457Y-120834500D01*
X142721455Y-120834500D01*
X142578545Y-120834500D01*
X142578543Y-120834500D01*
X142438385Y-120862379D01*
X142438379Y-120862381D01*
X142306349Y-120917069D01*
X142306340Y-120917074D01*
X142187521Y-120996467D01*
X142187517Y-120996470D01*
X142086470Y-121097517D01*
X142086467Y-121097521D01*
X142007074Y-121216340D01*
X142007069Y-121216349D01*
X141952381Y-121348379D01*
X141952379Y-121348385D01*
X141924500Y-121488542D01*
X141924500Y-121488545D01*
X141924500Y-121631455D01*
X141924500Y-121631457D01*
X141924499Y-121631457D01*
X123602370Y-121631457D01*
X123602440Y-119821457D01*
X144604499Y-119821457D01*
X144632379Y-119961614D01*
X144632381Y-119961620D01*
X144687069Y-120093650D01*
X144687074Y-120093659D01*
X144766467Y-120212478D01*
X144766470Y-120212482D01*
X144867517Y-120313529D01*
X144867521Y-120313532D01*
X144986340Y-120392925D01*
X144986346Y-120392928D01*
X144986347Y-120392929D01*
X145118380Y-120447619D01*
X145118384Y-120447619D01*
X145118385Y-120447620D01*
X145258542Y-120475500D01*
X145258545Y-120475500D01*
X145401457Y-120475500D01*
X145495751Y-120456742D01*
X145541620Y-120447619D01*
X145673653Y-120392929D01*
X145792479Y-120313532D01*
X145893532Y-120212479D01*
X145972929Y-120093653D01*
X146027619Y-119961620D01*
X146055500Y-119821455D01*
X146055500Y-119678545D01*
X146055500Y-119678542D01*
X146027620Y-119538385D01*
X146027619Y-119538384D01*
X146027619Y-119538380D01*
X145972929Y-119406347D01*
X145972928Y-119406346D01*
X145972925Y-119406340D01*
X145893532Y-119287521D01*
X145893529Y-119287517D01*
X145792482Y-119186470D01*
X145792478Y-119186467D01*
X145673659Y-119107074D01*
X145673650Y-119107069D01*
X145541620Y-119052381D01*
X145541614Y-119052379D01*
X145401457Y-119024500D01*
X145401455Y-119024500D01*
X145258545Y-119024500D01*
X145258543Y-119024500D01*
X145118385Y-119052379D01*
X145118379Y-119052381D01*
X144986349Y-119107069D01*
X144986340Y-119107074D01*
X144867521Y-119186467D01*
X144867517Y-119186470D01*
X144766470Y-119287517D01*
X144766467Y-119287521D01*
X144687074Y-119406340D01*
X144687069Y-119406349D01*
X144632381Y-119538379D01*
X144632379Y-119538385D01*
X144604500Y-119678542D01*
X144604500Y-119678545D01*
X144604500Y-119821455D01*
X144604500Y-119821457D01*
X144604499Y-119821457D01*
X123602440Y-119821457D01*
X123602514Y-117891002D01*
X146614945Y-117891002D01*
X146642825Y-118031159D01*
X146642827Y-118031165D01*
X146697515Y-118163195D01*
X146697520Y-118163204D01*
X146776913Y-118282023D01*
X146776916Y-118282027D01*
X146877963Y-118383074D01*
X146877967Y-118383077D01*
X146996786Y-118462470D01*
X146996792Y-118462473D01*
X146996793Y-118462474D01*
X147128826Y-118517164D01*
X147128830Y-118517164D01*
X147128831Y-118517165D01*
X147268988Y-118545045D01*
X147268991Y-118545045D01*
X147411903Y-118545045D01*
X147506197Y-118526287D01*
X147552066Y-118517164D01*
X147684099Y-118462474D01*
X147802925Y-118383077D01*
X147903978Y-118282024D01*
X147983375Y-118163198D01*
X148038065Y-118031165D01*
X148065946Y-117891000D01*
X148065946Y-117748090D01*
X148065946Y-117748087D01*
X148038066Y-117607930D01*
X148038065Y-117607929D01*
X148038065Y-117607925D01*
X147983375Y-117475892D01*
X147983374Y-117475891D01*
X147983371Y-117475885D01*
X147903978Y-117357066D01*
X147903975Y-117357062D01*
X147802928Y-117256015D01*
X147802924Y-117256012D01*
X147684105Y-117176619D01*
X147684096Y-117176614D01*
X147552066Y-117121926D01*
X147552060Y-117121924D01*
X147411903Y-117094045D01*
X147411901Y-117094045D01*
X147268991Y-117094045D01*
X147268989Y-117094045D01*
X147128831Y-117121924D01*
X147128825Y-117121926D01*
X146996795Y-117176614D01*
X146996786Y-117176619D01*
X146877967Y-117256012D01*
X146877963Y-117256015D01*
X146776916Y-117357062D01*
X146776913Y-117357066D01*
X146697520Y-117475885D01*
X146697515Y-117475894D01*
X146642827Y-117607924D01*
X146642825Y-117607930D01*
X146614946Y-117748087D01*
X146614946Y-117748090D01*
X146614946Y-117891000D01*
X146614946Y-117891002D01*
X146614945Y-117891002D01*
X123602514Y-117891002D01*
X123603005Y-105158104D01*
X123622692Y-105091070D01*
X123675277Y-105045418D01*
X135540199Y-99599785D01*
X135573574Y-99585961D01*
X135576332Y-99583201D01*
X135579879Y-99581574D01*
X135579880Y-99581572D01*
X135579882Y-99581572D01*
X135602882Y-99556774D01*
X135606059Y-99553474D01*
X135629976Y-99529559D01*
X135629978Y-99529552D01*
X135633390Y-99524446D01*
X135633391Y-99524445D01*
X135633404Y-99524425D01*
X135633909Y-99523668D01*
X135634122Y-99523092D01*
X135634124Y-99523091D01*
X135646683Y-99489222D01*
X135660500Y-99455867D01*
X135660500Y-99451965D01*
X135661858Y-99448304D01*
X135660587Y-99414537D01*
X135660500Y-99409875D01*
X135660500Y-93014324D01*
X135660501Y-93014315D01*
X135660501Y-91971153D01*
X139349500Y-91971153D01*
X139349500Y-92128846D01*
X139380261Y-92283489D01*
X139380264Y-92283501D01*
X139440602Y-92429172D01*
X139440609Y-92429185D01*
X139528210Y-92560288D01*
X139528213Y-92560292D01*
X139639707Y-92671786D01*
X139639711Y-92671789D01*
X139770814Y-92759390D01*
X139770827Y-92759397D01*
X139916498Y-92819735D01*
X139916503Y-92819737D01*
X140071153Y-92850499D01*
X140071156Y-92850500D01*
X140071158Y-92850500D01*
X140228844Y-92850500D01*
X140228845Y-92850499D01*
X140383497Y-92819737D01*
X140529179Y-92759394D01*
X140660289Y-92671789D01*
X140771789Y-92560289D01*
X140859394Y-92429179D01*
X140864533Y-92416771D01*
X140908372Y-92362368D01*
X140974666Y-92340301D01*
X141042366Y-92357578D01*
X141089977Y-92408714D01*
X141093656Y-92416769D01*
X141142069Y-92533650D01*
X141142074Y-92533659D01*
X141221467Y-92652478D01*
X141221470Y-92652482D01*
X141322517Y-92753529D01*
X141322521Y-92753532D01*
X141441340Y-92832925D01*
X141441346Y-92832928D01*
X141441347Y-92832929D01*
X141573380Y-92887619D01*
X141573384Y-92887619D01*
X141573385Y-92887620D01*
X141713542Y-92915500D01*
X141713545Y-92915500D01*
X141856457Y-92915500D01*
X141950751Y-92896742D01*
X141996620Y-92887619D01*
X142128653Y-92832929D01*
X142247479Y-92753532D01*
X142348532Y-92652479D01*
X142427929Y-92533653D01*
X142482619Y-92401620D01*
X142510500Y-92261455D01*
X142510500Y-92118545D01*
X142510500Y-92118542D01*
X142482620Y-91978385D01*
X142482619Y-91978384D01*
X142482619Y-91978380D01*
X142443217Y-91883257D01*
X142435749Y-91813788D01*
X142467024Y-91751309D01*
X142488882Y-91732707D01*
X142562479Y-91683532D01*
X142663532Y-91582479D01*
X142742929Y-91463653D01*
X142797619Y-91331620D01*
X142816910Y-91234640D01*
X142823869Y-91199656D01*
X142831515Y-91185038D01*
X142834379Y-91168790D01*
X142847376Y-91154716D01*
X142856254Y-91137745D01*
X142871008Y-91129128D01*
X142881783Y-91117461D01*
X142908848Y-91107027D01*
X142914336Y-91103823D01*
X142917782Y-91102928D01*
X143045020Y-91077619D01*
X143094880Y-91056965D01*
X143103214Y-91054803D01*
X143129867Y-91055647D01*
X143156378Y-91052797D01*
X143164249Y-91056737D01*
X143173049Y-91057016D01*
X143195016Y-91072137D01*
X143218858Y-91084071D01*
X143224813Y-91092648D01*
X143230601Y-91096632D01*
X143235197Y-91107603D01*
X143248925Y-91127374D01*
X143292611Y-91232843D01*
X143292616Y-91232852D01*
X143380217Y-91363955D01*
X143380220Y-91363959D01*
X143491714Y-91475453D01*
X143491718Y-91475456D01*
X143622821Y-91563057D01*
X143622834Y-91563064D01*
X143768505Y-91623402D01*
X143768510Y-91623404D01*
X143923160Y-91654166D01*
X143923163Y-91654167D01*
X143923165Y-91654167D01*
X144080851Y-91654167D01*
X144080852Y-91654166D01*
X144235504Y-91623404D01*
X144381186Y-91563061D01*
X144512296Y-91475456D01*
X144623796Y-91363956D01*
X144711401Y-91232846D01*
X144771744Y-91087164D01*
X144802507Y-90932509D01*
X144802507Y-90774825D01*
X144802507Y-90774822D01*
X144802506Y-90774820D01*
X144792609Y-90725066D01*
X144771744Y-90620170D01*
X144745358Y-90556467D01*
X144711404Y-90474494D01*
X144711397Y-90474481D01*
X144623796Y-90343378D01*
X144623793Y-90343374D01*
X144512299Y-90231880D01*
X144512295Y-90231877D01*
X144381192Y-90144276D01*
X144381179Y-90144269D01*
X144235506Y-90083930D01*
X144235498Y-90083928D01*
X144200326Y-90076932D01*
X144138415Y-90044547D01*
X144121419Y-90024210D01*
X144050132Y-89917521D01*
X144050130Y-89917518D01*
X143949082Y-89816470D01*
X143949078Y-89816467D01*
X143830259Y-89737074D01*
X143830250Y-89737069D01*
X143698220Y-89682381D01*
X143698214Y-89682379D01*
X143558057Y-89654500D01*
X143558055Y-89654500D01*
X143415145Y-89654500D01*
X143415143Y-89654500D01*
X143274985Y-89682379D01*
X143274984Y-89682379D01*
X143207452Y-89710352D01*
X143137982Y-89717820D01*
X143112548Y-89710352D01*
X143045015Y-89682379D01*
X142904857Y-89654500D01*
X142904855Y-89654500D01*
X142761945Y-89654500D01*
X142761943Y-89654500D01*
X142621785Y-89682379D01*
X142621779Y-89682381D01*
X142489749Y-89737069D01*
X142489740Y-89737074D01*
X142370921Y-89816467D01*
X142370917Y-89816470D01*
X142269870Y-89917517D01*
X142269867Y-89917521D01*
X142190474Y-90036340D01*
X142190469Y-90036349D01*
X142135781Y-90168379D01*
X142135779Y-90168385D01*
X142109530Y-90300344D01*
X142077144Y-90362255D01*
X142016428Y-90396829D01*
X142012105Y-90397769D01*
X141888385Y-90422379D01*
X141888379Y-90422381D01*
X141756349Y-90477069D01*
X141756340Y-90477074D01*
X141637521Y-90556467D01*
X141637517Y-90556470D01*
X141536470Y-90657517D01*
X141536467Y-90657521D01*
X141457074Y-90776340D01*
X141457069Y-90776349D01*
X141402381Y-90908379D01*
X141402379Y-90908385D01*
X141374500Y-91048542D01*
X141374500Y-91048545D01*
X141374500Y-91191455D01*
X141374500Y-91191457D01*
X141374499Y-91191457D01*
X141402379Y-91331614D01*
X141402382Y-91331624D01*
X141441781Y-91426742D01*
X141449250Y-91496211D01*
X141417974Y-91558690D01*
X141396111Y-91577296D01*
X141322521Y-91626467D01*
X141322517Y-91626470D01*
X141221470Y-91727517D01*
X141221467Y-91727521D01*
X141141041Y-91847887D01*
X141087429Y-91892692D01*
X141018104Y-91901399D01*
X140955076Y-91871244D01*
X140923454Y-91821555D01*
X140922068Y-91822130D01*
X140859397Y-91670827D01*
X140859390Y-91670814D01*
X140771789Y-91539711D01*
X140771786Y-91539707D01*
X140660292Y-91428213D01*
X140660288Y-91428210D01*
X140529185Y-91340609D01*
X140529172Y-91340602D01*
X140383501Y-91280264D01*
X140383489Y-91280261D01*
X140228845Y-91249500D01*
X140228842Y-91249500D01*
X140071158Y-91249500D01*
X140071155Y-91249500D01*
X139916510Y-91280261D01*
X139916498Y-91280264D01*
X139770827Y-91340602D01*
X139770814Y-91340609D01*
X139639711Y-91428210D01*
X139639707Y-91428213D01*
X139528213Y-91539707D01*
X139528210Y-91539711D01*
X139440609Y-91670814D01*
X139440602Y-91670827D01*
X139380264Y-91816498D01*
X139380261Y-91816510D01*
X139349500Y-91971153D01*
X135660501Y-91971153D01*
X135660501Y-90731153D01*
X137659500Y-90731153D01*
X137659500Y-90888846D01*
X137690261Y-91043489D01*
X137690264Y-91043501D01*
X137750602Y-91189172D01*
X137750609Y-91189185D01*
X137838210Y-91320288D01*
X137838213Y-91320292D01*
X137949707Y-91431786D01*
X137949711Y-91431789D01*
X138080814Y-91519390D01*
X138080827Y-91519397D01*
X138220610Y-91577296D01*
X138226503Y-91579737D01*
X138381153Y-91610499D01*
X138381156Y-91610500D01*
X138381158Y-91610500D01*
X138538844Y-91610500D01*
X138538845Y-91610499D01*
X138693497Y-91579737D01*
X138839179Y-91519394D01*
X138970289Y-91431789D01*
X139081789Y-91320289D01*
X139169394Y-91189179D01*
X139229737Y-91043497D01*
X139260500Y-90888842D01*
X139260500Y-90731158D01*
X139260500Y-90731155D01*
X139260499Y-90731153D01*
X139259288Y-90725066D01*
X139229737Y-90576503D01*
X139221438Y-90556467D01*
X139169397Y-90430827D01*
X139169390Y-90430814D01*
X139081789Y-90299711D01*
X139081786Y-90299707D01*
X138970292Y-90188213D01*
X138970288Y-90188210D01*
X138839185Y-90100609D01*
X138839172Y-90100602D01*
X138693501Y-90040264D01*
X138693489Y-90040261D01*
X138538845Y-90009500D01*
X138538842Y-90009500D01*
X138381158Y-90009500D01*
X138381155Y-90009500D01*
X138226510Y-90040261D01*
X138226498Y-90040264D01*
X138080827Y-90100602D01*
X138080814Y-90100609D01*
X137949711Y-90188210D01*
X137949707Y-90188213D01*
X137838213Y-90299707D01*
X137838210Y-90299711D01*
X137750609Y-90430814D01*
X137750602Y-90430827D01*
X137690264Y-90576498D01*
X137690261Y-90576510D01*
X137659500Y-90731153D01*
X135660501Y-90731153D01*
X135660501Y-90725066D01*
X135660500Y-87894411D01*
X135680185Y-87827372D01*
X135696819Y-87806730D01*
X135913525Y-87590024D01*
X136212818Y-87290732D01*
X136212818Y-87290730D01*
X136222406Y-87281143D01*
X136222451Y-87281085D01*
X136226428Y-87277110D01*
X136292148Y-87178761D01*
X136337418Y-87069479D01*
X136360498Y-86953466D01*
X136360498Y-86945941D01*
X136360498Y-86934199D01*
X136360500Y-86934197D01*
X136360500Y-86888545D01*
X136360501Y-86854441D01*
X136360500Y-86854438D01*
X136360500Y-86020118D01*
X136360500Y-86007273D01*
X136344128Y-85946171D01*
X136345791Y-85876322D01*
X136384954Y-85818460D01*
X136416445Y-85799521D01*
X136489179Y-85769394D01*
X136620289Y-85681789D01*
X136731789Y-85570289D01*
X136819394Y-85439179D01*
X136879737Y-85293497D01*
X136910500Y-85138842D01*
X136910500Y-84981158D01*
X136910500Y-84981155D01*
X136891646Y-84886372D01*
X136897873Y-84816780D01*
X136940736Y-84761603D01*
X136989072Y-84740563D01*
X137001919Y-84738007D01*
X137043497Y-84729737D01*
X137189179Y-84669394D01*
X137320289Y-84581789D01*
X137431789Y-84470289D01*
X137519394Y-84339179D01*
X137579737Y-84193497D01*
X137610500Y-84038842D01*
X137610500Y-83881158D01*
X137610500Y-83881155D01*
X137610499Y-83881153D01*
X137592067Y-83788489D01*
X137579737Y-83726503D01*
X137541356Y-83633842D01*
X137519397Y-83580827D01*
X137519390Y-83580814D01*
X137491422Y-83538957D01*
X137449457Y-83476153D01*
X139469500Y-83476153D01*
X139469500Y-83633846D01*
X139500261Y-83788489D01*
X139500264Y-83788501D01*
X139560602Y-83934172D01*
X139560609Y-83934185D01*
X139648210Y-84065288D01*
X139648213Y-84065292D01*
X139759707Y-84176786D01*
X139759711Y-84176789D01*
X139890814Y-84264390D01*
X139890827Y-84264397D01*
X140014934Y-84315803D01*
X140036503Y-84324737D01*
X140191153Y-84355499D01*
X140191156Y-84355500D01*
X140191158Y-84355500D01*
X140348844Y-84355500D01*
X140348845Y-84355499D01*
X140503497Y-84324737D01*
X140649179Y-84264394D01*
X140780289Y-84176789D01*
X140891789Y-84065289D01*
X140979394Y-83934179D01*
X141039737Y-83788497D01*
X141070500Y-83633842D01*
X141070500Y-83476158D01*
X141070500Y-83476155D01*
X141070499Y-83476153D01*
X141044264Y-83344257D01*
X141040662Y-83326153D01*
X142199500Y-83326153D01*
X142199500Y-83483846D01*
X142230261Y-83638489D01*
X142230264Y-83638501D01*
X142290602Y-83784172D01*
X142290609Y-83784185D01*
X142378210Y-83915288D01*
X142378213Y-83915292D01*
X142489707Y-84026786D01*
X142489711Y-84026789D01*
X142620814Y-84114390D01*
X142620827Y-84114397D01*
X142766498Y-84174735D01*
X142766503Y-84174737D01*
X142921153Y-84205499D01*
X142921156Y-84205500D01*
X142921158Y-84205500D01*
X143078844Y-84205500D01*
X143078845Y-84205499D01*
X143233497Y-84174737D01*
X143379179Y-84114394D01*
X143510289Y-84026789D01*
X143621789Y-83915289D01*
X143709394Y-83784179D01*
X143769737Y-83638497D01*
X143800500Y-83483842D01*
X143800500Y-83326158D01*
X143800500Y-83326155D01*
X143800499Y-83326153D01*
X143785472Y-83250609D01*
X143769737Y-83171503D01*
X143743065Y-83107110D01*
X143709397Y-83025827D01*
X143709390Y-83025814D01*
X143621789Y-82894711D01*
X143621786Y-82894707D01*
X143510292Y-82783213D01*
X143510288Y-82783210D01*
X143379185Y-82695609D01*
X143379172Y-82695602D01*
X143233501Y-82635264D01*
X143233489Y-82635261D01*
X143078845Y-82604500D01*
X143078842Y-82604500D01*
X142921158Y-82604500D01*
X142921155Y-82604500D01*
X142766510Y-82635261D01*
X142766498Y-82635264D01*
X142620827Y-82695602D01*
X142620814Y-82695609D01*
X142489711Y-82783210D01*
X142489707Y-82783213D01*
X142378213Y-82894707D01*
X142378210Y-82894711D01*
X142290609Y-83025814D01*
X142290602Y-83025827D01*
X142230264Y-83171498D01*
X142230261Y-83171510D01*
X142199500Y-83326153D01*
X141040662Y-83326153D01*
X141039738Y-83321507D01*
X141039735Y-83321498D01*
X140979397Y-83175827D01*
X140979390Y-83175814D01*
X140891789Y-83044711D01*
X140891786Y-83044707D01*
X140780292Y-82933213D01*
X140780288Y-82933210D01*
X140649185Y-82845609D01*
X140649172Y-82845602D01*
X140503501Y-82785264D01*
X140503489Y-82785261D01*
X140348845Y-82754500D01*
X140348842Y-82754500D01*
X140191158Y-82754500D01*
X140191155Y-82754500D01*
X140036510Y-82785261D01*
X140036498Y-82785264D01*
X139890827Y-82845602D01*
X139890814Y-82845609D01*
X139759711Y-82933210D01*
X139759707Y-82933213D01*
X139648213Y-83044707D01*
X139648210Y-83044711D01*
X139560609Y-83175814D01*
X139560602Y-83175827D01*
X139500264Y-83321498D01*
X139500261Y-83321510D01*
X139469500Y-83476153D01*
X137449457Y-83476153D01*
X137431789Y-83449711D01*
X137431786Y-83449707D01*
X137320292Y-83338213D01*
X137320288Y-83338210D01*
X137189185Y-83250609D01*
X137189172Y-83250602D01*
X137043501Y-83190264D01*
X137043492Y-83190261D01*
X136982400Y-83178109D01*
X136920490Y-83145723D01*
X136885916Y-83085007D01*
X136889657Y-83015237D01*
X136892034Y-83009035D01*
X136923444Y-82933213D01*
X136937418Y-82899479D01*
X136960498Y-82783466D01*
X136960498Y-82775941D01*
X136960498Y-82764199D01*
X136960500Y-82764197D01*
X136960500Y-82724307D01*
X136960501Y-82684441D01*
X136960500Y-82684438D01*
X136960500Y-81141941D01*
X136980185Y-81074902D01*
X137032989Y-81029147D01*
X137102147Y-81019203D01*
X137165703Y-81048228D01*
X137172181Y-81054260D01*
X137249707Y-81131786D01*
X137249711Y-81131789D01*
X137380814Y-81219390D01*
X137380827Y-81219397D01*
X137526498Y-81279735D01*
X137526503Y-81279737D01*
X137681153Y-81310499D01*
X137681156Y-81310500D01*
X137681158Y-81310500D01*
X137838844Y-81310500D01*
X137838845Y-81310499D01*
X137993497Y-81279737D01*
X138139179Y-81219394D01*
X138241111Y-81151284D01*
X138307786Y-81130408D01*
X138375166Y-81148892D01*
X138378847Y-81151257D01*
X138480821Y-81219394D01*
X138480823Y-81219395D01*
X138480827Y-81219397D01*
X138626498Y-81279735D01*
X138626503Y-81279737D01*
X138781153Y-81310499D01*
X138781156Y-81310500D01*
X138781158Y-81310500D01*
X138938844Y-81310500D01*
X138938845Y-81310499D01*
X139093497Y-81279737D01*
X139239179Y-81219394D01*
X139341111Y-81151284D01*
X139407786Y-81130408D01*
X139475166Y-81148892D01*
X139478847Y-81151257D01*
X139580821Y-81219394D01*
X139580823Y-81219395D01*
X139580827Y-81219397D01*
X139726498Y-81279735D01*
X139726503Y-81279737D01*
X139881153Y-81310499D01*
X139881156Y-81310500D01*
X139881158Y-81310500D01*
X140038844Y-81310500D01*
X140038845Y-81310499D01*
X140193497Y-81279737D01*
X140339179Y-81219394D01*
X140470289Y-81131789D01*
X140581789Y-81020289D01*
X140669394Y-80889179D01*
X140729737Y-80743497D01*
X140760500Y-80588842D01*
X140760500Y-80431158D01*
X140760500Y-80431155D01*
X140760499Y-80431153D01*
X140759500Y-80426130D01*
X140729737Y-80276503D01*
X140686224Y-80171452D01*
X140678755Y-80101983D01*
X140710030Y-80039504D01*
X140770119Y-80003852D01*
X140800785Y-80000000D01*
X141319215Y-80000000D01*
X141386254Y-80019685D01*
G37*
%TD.AperFunction*%
%TD*%
D14*
X145330000Y-119750000D03*
X142833400Y-90380000D03*
X134200000Y-132650000D03*
X132914892Y-128811727D03*
X143486600Y-90380000D03*
X147340446Y-117819545D03*
X145203200Y-88640000D03*
X153270000Y-120920000D03*
X143875000Y-131975000D03*
X151750000Y-129300000D03*
X148600000Y-136000000D03*
X136810000Y-83960000D03*
X138460000Y-90810000D03*
X142100000Y-91120000D03*
X140270000Y-83555000D03*
X132850000Y-126600000D03*
X145940000Y-89430000D03*
X143460000Y-88590000D03*
X131150000Y-136000000D03*
X136110000Y-85060000D03*
X139300000Y-123730000D03*
X145810000Y-86960000D03*
X146690000Y-128110000D03*
X156000000Y-123630000D03*
X143000000Y-83405000D03*
X143950000Y-123760000D03*
X144002007Y-90853667D03*
X141250000Y-136350000D03*
X143260000Y-80360000D03*
X149960000Y-123650000D03*
X131300000Y-134400000D03*
X145600000Y-135750000D03*
X141000000Y-149400000D03*
X142500000Y-135850000D03*
X152100000Y-135700000D03*
X147830000Y-128110000D03*
X140020000Y-127950000D03*
X137930000Y-127980000D03*
X145730000Y-83405000D03*
X133550000Y-136250000D03*
X138980000Y-127960000D03*
X134900000Y-128450000D03*
X145970000Y-91900000D03*
X140150000Y-92050000D03*
X144900000Y-128350000D03*
X144550000Y-88640000D03*
X152616800Y-120920000D03*
X143950000Y-134550000D03*
X133950000Y-134650000D03*
X144360000Y-80510000D03*
X150200000Y-129050000D03*
X145460000Y-80510000D03*
X134700000Y-134350000D03*
X138000000Y-152100000D03*
X138860000Y-80510000D03*
X133600000Y-155500000D03*
X137760000Y-80510000D03*
X149500000Y-158750000D03*
X139960000Y-80510000D03*
X136670000Y-130540000D03*
X142160000Y-80510000D03*
X143400000Y-130750000D03*
X149450000Y-164050000D03*
X133850000Y-149900000D03*
X145150000Y-149750000D03*
X131650000Y-153450000D03*
X151250000Y-151250000D03*
X141060000Y-81260000D03*
X145200000Y-151450000D03*
X141060000Y-80360000D03*
X142150000Y-128800000D03*
X132500000Y-150700000D03*
X138210000Y-93440000D03*
X148200000Y-150850000D03*
X131250000Y-149850000D03*
X148725000Y-149325000D03*
X147000000Y-152200000D03*
X141785000Y-92190000D03*
X141080000Y-127970000D03*
X142650000Y-121560000D03*
D15*
X154450000Y-162150000D03*
X154450000Y-164150000D03*
X151000000Y-144325000D03*
X131000000Y-144325000D03*
M02*
