%TF.GenerationSoftware,KiCad,Pcbnew,9.0.2*%
%TF.CreationDate,2025-06-23T16:33:29+08:00*%
%TF.ProjectId,SDEX2M2 MicroSD Express to M.2 NVMe Adapter for Switch 2 WIP,53444558-324d-4322-904d-6963726f5344,rev?*%
%TF.SameCoordinates,Original*%
%TF.FileFunction,Legend,Bot*%
%TF.FilePolarity,Positive*%
%FSLAX46Y46*%
G04 Gerber Fmt 4.6, Leading zero omitted, Abs format (unit mm)*
G04 Created by KiCad (PCBNEW 9.0.2) date 2025-06-23 16:33:29*
%MOMM*%
%LPD*%
G01*
G04 APERTURE LIST*
%ADD10C,0.150000*%
%ADD11C,0.120000*%
%ADD12C,0.127000*%
%ADD13C,0.200000*%
%ADD14C,0.350000*%
G04 APERTURE END LIST*
D10*
X134166666Y-152424819D02*
X134499999Y-151948628D01*
X134738094Y-152424819D02*
X134738094Y-151424819D01*
X134738094Y-151424819D02*
X134357142Y-151424819D01*
X134357142Y-151424819D02*
X134261904Y-151472438D01*
X134261904Y-151472438D02*
X134214285Y-151520057D01*
X134214285Y-151520057D02*
X134166666Y-151615295D01*
X134166666Y-151615295D02*
X134166666Y-151758152D01*
X134166666Y-151758152D02*
X134214285Y-151853390D01*
X134214285Y-151853390D02*
X134261904Y-151901009D01*
X134261904Y-151901009D02*
X134357142Y-151948628D01*
X134357142Y-151948628D02*
X134738094Y-151948628D01*
X133214285Y-152424819D02*
X133785713Y-152424819D01*
X133499999Y-152424819D02*
X133499999Y-151424819D01*
X133499999Y-151424819D02*
X133595237Y-151567676D01*
X133595237Y-151567676D02*
X133690475Y-151662914D01*
X133690475Y-151662914D02*
X133785713Y-151710533D01*
X149358333Y-136144819D02*
X149358333Y-136859104D01*
X149358333Y-136859104D02*
X149405952Y-137001961D01*
X149405952Y-137001961D02*
X149501190Y-137097200D01*
X149501190Y-137097200D02*
X149644047Y-137144819D01*
X149644047Y-137144819D02*
X149739285Y-137144819D01*
X148453571Y-136478152D02*
X148453571Y-137144819D01*
X148691666Y-136097200D02*
X148929761Y-136811485D01*
X148929761Y-136811485D02*
X148310714Y-136811485D01*
D11*
%TO.C,R1*%
X134237258Y-152877500D02*
X133762742Y-152877500D01*
X134237258Y-153922500D02*
X133762742Y-153922500D01*
D12*
%TO.C,J4*%
X130075000Y-143180000D02*
X130075000Y-141520000D01*
X130075000Y-147175000D02*
X130075000Y-145470000D01*
X131530000Y-147175000D02*
X130075000Y-147175000D01*
X135530000Y-147175000D02*
X133970000Y-147175000D01*
X135780000Y-138825000D02*
X134220000Y-138825000D01*
X151925000Y-147175000D02*
X150470000Y-147175000D01*
X151925000Y-147175000D02*
X151925000Y-141520000D01*
D13*
X150350000Y-137575000D02*
G75*
G02*
X150150000Y-137575000I-100000J0D01*
G01*
X150150000Y-137575000D02*
G75*
G02*
X150350000Y-137575000I100000J0D01*
G01*
%TD*%
D14*
X154450000Y-162150000D03*
X154450000Y-164150000D03*
X151000000Y-144325000D03*
X131000000Y-144325000D03*
M02*
