%TF.GenerationSoftware,KiCad,Pcbnew,9.0.2*%
%TF.CreationDate,2025-06-23T16:33:29+08:00*%
%TF.ProjectId,SDEX2M2 MicroSD Express to M.2 NVMe Adapter for Switch 2 WIP,53444558-324d-4322-904d-6963726f5344,rev?*%
%TF.SameCoordinates,Original*%
%TF.FileFunction,Copper,L5,Inr*%
%TF.FilePolarity,Positive*%
%FSLAX46Y46*%
G04 Gerber Fmt 4.6, Leading zero omitted, Abs format (unit mm)*
G04 Created by KiCad (PCBNEW 9.0.2) date 2025-06-23 16:33:29*
%MOMM*%
%LPD*%
G01*
G04 APERTURE LIST*
%TA.AperFunction,ComponentPad*%
%ADD10R,1.350000X1.350000*%
%TD*%
%TA.AperFunction,ComponentPad*%
%ADD11C,1.350000*%
%TD*%
%TA.AperFunction,ViaPad*%
%ADD12C,0.450000*%
%TD*%
%TA.AperFunction,ViaPad*%
%ADD13C,0.600000*%
%TD*%
%ADD14C,0.300000*%
%ADD15C,0.350000*%
G04 APERTURE END LIST*
D10*
%TO.N,/CMD*%
%TO.C,J2*%
X154450000Y-162150000D03*
D11*
%TO.N,/CLK*%
X154450000Y-164150000D03*
%TD*%
D12*
%TO.N,/TX+*%
X145330000Y-119750000D03*
X142833400Y-90380000D03*
X134200000Y-132650000D03*
%TO.N,/TX-*%
X132914892Y-128811727D03*
X143486600Y-90380000D03*
X147340446Y-117819545D03*
%TO.N,/RX+*%
X145203200Y-88640000D03*
X153270000Y-120920000D03*
X143875000Y-131975000D03*
D13*
%TO.N,GND*%
X151750000Y-129300000D03*
X148600000Y-136000000D03*
X136810000Y-83960000D03*
X138460000Y-90810000D03*
D12*
X142100000Y-91120000D03*
D13*
X140270000Y-83555000D03*
X132850000Y-126600000D03*
D12*
X145940000Y-89430000D03*
X143460000Y-88590000D03*
D13*
X131150000Y-136000000D03*
X136110000Y-85060000D03*
X139300000Y-123730000D03*
D12*
X145810000Y-86960000D03*
D13*
X146690000Y-128110000D03*
X156000000Y-123630000D03*
X143000000Y-83405000D03*
X143950000Y-123760000D03*
X144002007Y-90853667D03*
X141250000Y-136350000D03*
X143260000Y-80360000D03*
X149960000Y-123650000D03*
X131300000Y-134400000D03*
X145600000Y-135750000D03*
X141000000Y-149400000D03*
X142500000Y-135850000D03*
X152100000Y-135700000D03*
X147830000Y-128110000D03*
X140020000Y-127950000D03*
X137930000Y-127980000D03*
X145730000Y-83405000D03*
X133550000Y-136250000D03*
X138980000Y-127960000D03*
X134900000Y-128450000D03*
D12*
X145970000Y-91900000D03*
D13*
X140150000Y-92050000D03*
D12*
%TO.N,/RX-*%
X144900000Y-128350000D03*
X144550000Y-88640000D03*
X152616800Y-120920000D03*
%TO.N,/REFCLK+*%
X143950000Y-134550000D03*
X133950000Y-134650000D03*
X144360000Y-80510000D03*
%TO.N,/REFCLK-*%
X150200000Y-129050000D03*
X145460000Y-80510000D03*
X134700000Y-134350000D03*
D13*
%TO.N,/PERST*%
X138000000Y-152100000D03*
X138860000Y-80510000D03*
X133600000Y-155500000D03*
%TO.N,/CLKREQ*%
X137760000Y-80510000D03*
%TO.N,/CMD*%
X149500000Y-158750000D03*
X139960000Y-80510000D03*
X136670000Y-130540000D03*
%TO.N,/CLK*%
X142160000Y-80510000D03*
X143400000Y-130750000D03*
X149450000Y-164050000D03*
%TO.N,/3.3V*%
X133850000Y-149900000D03*
X145150000Y-149750000D03*
X131650000Y-153450000D03*
X151250000Y-151250000D03*
X141060000Y-81260000D03*
X145200000Y-151450000D03*
X141060000Y-80360000D03*
X142150000Y-128800000D03*
X132500000Y-150700000D03*
X138210000Y-93440000D03*
X148200000Y-150850000D03*
X131250000Y-149850000D03*
X148725000Y-149325000D03*
X147000000Y-152200000D03*
D12*
%TO.N,unconnected-(J1-1V8-Pad9)*%
X141785000Y-92190000D03*
X141080000Y-127970000D03*
X142650000Y-121560000D03*
%TD*%
%TA.AperFunction,Conductor*%
%TO.N,GND*%
G36*
X143667434Y-80019685D02*
G01*
X143713189Y-80072489D01*
X143723133Y-80141647D01*
X143714956Y-80171453D01*
X143662381Y-80298379D01*
X143662379Y-80298385D01*
X143634500Y-80438542D01*
X143634500Y-80438545D01*
X143634500Y-80581455D01*
X143634500Y-80581457D01*
X143634499Y-80581457D01*
X143662379Y-80721614D01*
X143662381Y-80721620D01*
X143717069Y-80853650D01*
X143717074Y-80853659D01*
X143796467Y-80972478D01*
X143796470Y-80972482D01*
X143897517Y-81073529D01*
X143897521Y-81073532D01*
X144016340Y-81152925D01*
X144016346Y-81152928D01*
X144016347Y-81152929D01*
X144148380Y-81207619D01*
X144148384Y-81207619D01*
X144148385Y-81207620D01*
X144288542Y-81235500D01*
X144288545Y-81235500D01*
X144431457Y-81235500D01*
X144525751Y-81216742D01*
X144571620Y-81207619D01*
X144703653Y-81152929D01*
X144822479Y-81073532D01*
X144822483Y-81073527D01*
X144827189Y-81069667D01*
X144827964Y-81070612D01*
X144883627Y-81040210D01*
X144953320Y-81045186D01*
X144992328Y-81070255D01*
X144992811Y-81069667D01*
X144997521Y-81073532D01*
X145116340Y-81152925D01*
X145116346Y-81152928D01*
X145116347Y-81152929D01*
X145248380Y-81207619D01*
X145248384Y-81207619D01*
X145248385Y-81207620D01*
X145388542Y-81235500D01*
X145388545Y-81235500D01*
X145531457Y-81235500D01*
X145625751Y-81216742D01*
X145671620Y-81207619D01*
X145803653Y-81152929D01*
X145922479Y-81073532D01*
X146023532Y-80972479D01*
X146032397Y-80959212D01*
X146086008Y-80914406D01*
X146155333Y-80905697D01*
X146218361Y-80935851D01*
X146255081Y-80995294D01*
X146259500Y-81028101D01*
X146259500Y-92920118D01*
X146259500Y-99412153D01*
X146258125Y-99448193D01*
X146259500Y-99451907D01*
X146259500Y-99455867D01*
X146272405Y-99487024D01*
X146274115Y-99491387D01*
X146285815Y-99522993D01*
X146289074Y-99528298D01*
X146289569Y-99529104D01*
X146313833Y-99553368D01*
X146317112Y-99556774D01*
X146340027Y-99581507D01*
X146340029Y-99581507D01*
X146345083Y-99585171D01*
X146345084Y-99585172D01*
X146345836Y-99585717D01*
X146377546Y-99598851D01*
X146381879Y-99600743D01*
X158227288Y-105045316D01*
X158279979Y-105091198D01*
X158299500Y-105157983D01*
X158299500Y-169745500D01*
X158279815Y-169812539D01*
X158227011Y-169858294D01*
X158175500Y-169869500D01*
X123724512Y-169869500D01*
X123657473Y-169849815D01*
X123611718Y-169797011D01*
X123600512Y-169745495D01*
X123600735Y-163971153D01*
X148649500Y-163971153D01*
X148649500Y-164128846D01*
X148680261Y-164283489D01*
X148680264Y-164283501D01*
X148740602Y-164429172D01*
X148740609Y-164429185D01*
X148828210Y-164560288D01*
X148828213Y-164560292D01*
X148939707Y-164671786D01*
X148939711Y-164671789D01*
X149070814Y-164759390D01*
X149070827Y-164759397D01*
X149216498Y-164819735D01*
X149216503Y-164819737D01*
X149371153Y-164850499D01*
X149371156Y-164850500D01*
X149371158Y-164850500D01*
X149528844Y-164850500D01*
X149528845Y-164850499D01*
X149683497Y-164819737D01*
X149829179Y-164759394D01*
X149960289Y-164671789D01*
X150071789Y-164560289D01*
X150159394Y-164429179D01*
X150219737Y-164283497D01*
X150250500Y-164128842D01*
X150250500Y-163971158D01*
X150250500Y-163971155D01*
X150250499Y-163971153D01*
X150219738Y-163816510D01*
X150219737Y-163816503D01*
X150170969Y-163698765D01*
X150159397Y-163670827D01*
X150159390Y-163670814D01*
X150071789Y-163539711D01*
X150071786Y-163539707D01*
X149960292Y-163428213D01*
X149960288Y-163428210D01*
X149829185Y-163340609D01*
X149829172Y-163340602D01*
X149683501Y-163280264D01*
X149683489Y-163280261D01*
X149528845Y-163249500D01*
X149528842Y-163249500D01*
X149371158Y-163249500D01*
X149371155Y-163249500D01*
X149216510Y-163280261D01*
X149216498Y-163280264D01*
X149070827Y-163340602D01*
X149070814Y-163340609D01*
X148939711Y-163428210D01*
X148939707Y-163428213D01*
X148828213Y-163539707D01*
X148828210Y-163539711D01*
X148740609Y-163670814D01*
X148740602Y-163670827D01*
X148680264Y-163816498D01*
X148680261Y-163816510D01*
X148649500Y-163971153D01*
X123600735Y-163971153D01*
X123600735Y-163965061D01*
X123600833Y-161427135D01*
X153274500Y-161427135D01*
X153274500Y-162872870D01*
X153274501Y-162872876D01*
X153280908Y-162932483D01*
X153331202Y-163067328D01*
X153331206Y-163067335D01*
X153417452Y-163182544D01*
X153417453Y-163182544D01*
X153417454Y-163182546D01*
X153468740Y-163220939D01*
X153502539Y-163246241D01*
X153544409Y-163302175D01*
X153549393Y-163371867D01*
X153528545Y-163418392D01*
X153444624Y-163533900D01*
X153360620Y-163698764D01*
X153360619Y-163698767D01*
X153303445Y-163874734D01*
X153274500Y-164057486D01*
X153274500Y-164242513D01*
X153303445Y-164425265D01*
X153360619Y-164601232D01*
X153360620Y-164601235D01*
X153396570Y-164671789D01*
X153444622Y-164766096D01*
X153553379Y-164915787D01*
X153684213Y-165046621D01*
X153833904Y-165155378D01*
X153914763Y-165196577D01*
X153998764Y-165239379D01*
X153998767Y-165239380D01*
X154086750Y-165267967D01*
X154174736Y-165296555D01*
X154357486Y-165325500D01*
X154357487Y-165325500D01*
X154542513Y-165325500D01*
X154542514Y-165325500D01*
X154725264Y-165296555D01*
X154901235Y-165239379D01*
X155066096Y-165155378D01*
X155215787Y-165046621D01*
X155346621Y-164915787D01*
X155455378Y-164766096D01*
X155539379Y-164601235D01*
X155596555Y-164425264D01*
X155625500Y-164242514D01*
X155625500Y-164057486D01*
X155596555Y-163874736D01*
X155539379Y-163698765D01*
X155539379Y-163698764D01*
X155496577Y-163614763D01*
X155455378Y-163533904D01*
X155371453Y-163418392D01*
X155347974Y-163352586D01*
X155363799Y-163284532D01*
X155397459Y-163246241D01*
X155482546Y-163182546D01*
X155568796Y-163067331D01*
X155619091Y-162932483D01*
X155625500Y-162872873D01*
X155625499Y-161427128D01*
X155619091Y-161367517D01*
X155568796Y-161232669D01*
X155568795Y-161232668D01*
X155568793Y-161232664D01*
X155482547Y-161117455D01*
X155482544Y-161117452D01*
X155367335Y-161031206D01*
X155367328Y-161031202D01*
X155232482Y-160980908D01*
X155232483Y-160980908D01*
X155172883Y-160974501D01*
X155172881Y-160974500D01*
X155172873Y-160974500D01*
X155172864Y-160974500D01*
X153727129Y-160974500D01*
X153727123Y-160974501D01*
X153667516Y-160980908D01*
X153532671Y-161031202D01*
X153532664Y-161031206D01*
X153417455Y-161117452D01*
X153417452Y-161117455D01*
X153331206Y-161232664D01*
X153331202Y-161232671D01*
X153280908Y-161367517D01*
X153274501Y-161427116D01*
X153274501Y-161427123D01*
X153274500Y-161427135D01*
X123600833Y-161427135D01*
X123600833Y-161423801D01*
X123600841Y-161232671D01*
X123600865Y-160575798D01*
X123600940Y-158671153D01*
X148699500Y-158671153D01*
X148699500Y-158828846D01*
X148730261Y-158983489D01*
X148730264Y-158983501D01*
X148790602Y-159129172D01*
X148790609Y-159129185D01*
X148878210Y-159260288D01*
X148878213Y-159260292D01*
X148989707Y-159371786D01*
X148989711Y-159371789D01*
X149120814Y-159459390D01*
X149120827Y-159459397D01*
X149266498Y-159519735D01*
X149266503Y-159519737D01*
X149421153Y-159550499D01*
X149421156Y-159550500D01*
X149421158Y-159550500D01*
X149578844Y-159550500D01*
X149578845Y-159550499D01*
X149733497Y-159519737D01*
X149879179Y-159459394D01*
X150010289Y-159371789D01*
X150121789Y-159260289D01*
X150209394Y-159129179D01*
X150269737Y-158983497D01*
X150300500Y-158828842D01*
X150300500Y-158671158D01*
X150300500Y-158671155D01*
X150300499Y-158671153D01*
X150269738Y-158516510D01*
X150269737Y-158516503D01*
X150269735Y-158516498D01*
X150209397Y-158370827D01*
X150209390Y-158370814D01*
X150121789Y-158239711D01*
X150121786Y-158239707D01*
X150010292Y-158128213D01*
X150010288Y-158128210D01*
X149879185Y-158040609D01*
X149879172Y-158040602D01*
X149733501Y-157980264D01*
X149733489Y-157980261D01*
X149578845Y-157949500D01*
X149578842Y-157949500D01*
X149421158Y-157949500D01*
X149421155Y-157949500D01*
X149266510Y-157980261D01*
X149266498Y-157980264D01*
X149120827Y-158040602D01*
X149120814Y-158040609D01*
X148989711Y-158128210D01*
X148989707Y-158128213D01*
X148878213Y-158239707D01*
X148878210Y-158239711D01*
X148790609Y-158370814D01*
X148790602Y-158370827D01*
X148730264Y-158516498D01*
X148730261Y-158516510D01*
X148699500Y-158671153D01*
X123600940Y-158671153D01*
X123600940Y-158665061D01*
X123601032Y-156269735D01*
X123601065Y-155421153D01*
X132799500Y-155421153D01*
X132799500Y-155578846D01*
X132830261Y-155733489D01*
X132830264Y-155733501D01*
X132890602Y-155879172D01*
X132890609Y-155879185D01*
X132978210Y-156010288D01*
X132978213Y-156010292D01*
X133089707Y-156121786D01*
X133089711Y-156121789D01*
X133220814Y-156209390D01*
X133220827Y-156209397D01*
X133366498Y-156269735D01*
X133366503Y-156269737D01*
X133521153Y-156300499D01*
X133521156Y-156300500D01*
X133521158Y-156300500D01*
X133678844Y-156300500D01*
X133678845Y-156300499D01*
X133833497Y-156269737D01*
X133979179Y-156209394D01*
X134110289Y-156121789D01*
X134221789Y-156010289D01*
X134309394Y-155879179D01*
X134369737Y-155733497D01*
X134400500Y-155578842D01*
X134400500Y-155421158D01*
X134400500Y-155421155D01*
X134400499Y-155421153D01*
X134369738Y-155266510D01*
X134369737Y-155266503D01*
X134369735Y-155266498D01*
X134309397Y-155120827D01*
X134309390Y-155120814D01*
X134221789Y-154989711D01*
X134221786Y-154989707D01*
X134110292Y-154878213D01*
X134110288Y-154878210D01*
X133979185Y-154790609D01*
X133979172Y-154790602D01*
X133833501Y-154730264D01*
X133833489Y-154730261D01*
X133678845Y-154699500D01*
X133678842Y-154699500D01*
X133521158Y-154699500D01*
X133521155Y-154699500D01*
X133366510Y-154730261D01*
X133366498Y-154730264D01*
X133220827Y-154790602D01*
X133220814Y-154790609D01*
X133089711Y-154878210D01*
X133089707Y-154878213D01*
X132978213Y-154989707D01*
X132978210Y-154989711D01*
X132890609Y-155120814D01*
X132890602Y-155120827D01*
X132830264Y-155266498D01*
X132830261Y-155266510D01*
X132799500Y-155421153D01*
X123601065Y-155421153D01*
X123601144Y-153371153D01*
X130849500Y-153371153D01*
X130849500Y-153528846D01*
X130880261Y-153683489D01*
X130880264Y-153683501D01*
X130940602Y-153829172D01*
X130940609Y-153829185D01*
X131028210Y-153960288D01*
X131028213Y-153960292D01*
X131139707Y-154071786D01*
X131139711Y-154071789D01*
X131270814Y-154159390D01*
X131270827Y-154159397D01*
X131416498Y-154219735D01*
X131416503Y-154219737D01*
X131571153Y-154250499D01*
X131571156Y-154250500D01*
X131571158Y-154250500D01*
X131728844Y-154250500D01*
X131728845Y-154250499D01*
X131883497Y-154219737D01*
X132029179Y-154159394D01*
X132160289Y-154071789D01*
X132271789Y-153960289D01*
X132359394Y-153829179D01*
X132419737Y-153683497D01*
X132450500Y-153528842D01*
X132450500Y-153371158D01*
X132450500Y-153371155D01*
X132450499Y-153371153D01*
X132419738Y-153216510D01*
X132419737Y-153216503D01*
X132419735Y-153216498D01*
X132359397Y-153070827D01*
X132359390Y-153070814D01*
X132271789Y-152939711D01*
X132271786Y-152939707D01*
X132160292Y-152828213D01*
X132160288Y-152828210D01*
X132029185Y-152740609D01*
X132029172Y-152740602D01*
X131883501Y-152680264D01*
X131883489Y-152680261D01*
X131728845Y-152649500D01*
X131728842Y-152649500D01*
X131571158Y-152649500D01*
X131571155Y-152649500D01*
X131416510Y-152680261D01*
X131416498Y-152680264D01*
X131270827Y-152740602D01*
X131270814Y-152740609D01*
X131139711Y-152828210D01*
X131139707Y-152828213D01*
X131028213Y-152939707D01*
X131028210Y-152939711D01*
X130940609Y-153070814D01*
X130940602Y-153070827D01*
X130880264Y-153216498D01*
X130880261Y-153216510D01*
X130849500Y-153371153D01*
X123601144Y-153371153D01*
X123601196Y-152021153D01*
X137199500Y-152021153D01*
X137199500Y-152178846D01*
X137230261Y-152333489D01*
X137230264Y-152333501D01*
X137290602Y-152479172D01*
X137290609Y-152479185D01*
X137378210Y-152610288D01*
X137378213Y-152610292D01*
X137489707Y-152721786D01*
X137489711Y-152721789D01*
X137620814Y-152809390D01*
X137620827Y-152809397D01*
X137666254Y-152828213D01*
X137766503Y-152869737D01*
X137921153Y-152900499D01*
X137921156Y-152900500D01*
X137921158Y-152900500D01*
X138078844Y-152900500D01*
X138078845Y-152900499D01*
X138233497Y-152869737D01*
X138379179Y-152809394D01*
X138510289Y-152721789D01*
X138621789Y-152610289D01*
X138709394Y-152479179D01*
X138769737Y-152333497D01*
X138800500Y-152178842D01*
X138800500Y-152021158D01*
X138800500Y-152021155D01*
X138800499Y-152021153D01*
X138770788Y-151871789D01*
X138769737Y-151866503D01*
X138769735Y-151866498D01*
X138709397Y-151720827D01*
X138709390Y-151720814D01*
X138621789Y-151589711D01*
X138621786Y-151589707D01*
X138510292Y-151478213D01*
X138510288Y-151478210D01*
X138379185Y-151390609D01*
X138379172Y-151390602D01*
X138233501Y-151330264D01*
X138233489Y-151330261D01*
X138078845Y-151299500D01*
X138078842Y-151299500D01*
X137921158Y-151299500D01*
X137921155Y-151299500D01*
X137766510Y-151330261D01*
X137766498Y-151330264D01*
X137620827Y-151390602D01*
X137620814Y-151390609D01*
X137489711Y-151478210D01*
X137489707Y-151478213D01*
X137378213Y-151589707D01*
X137378210Y-151589711D01*
X137290609Y-151720814D01*
X137290602Y-151720827D01*
X137230264Y-151866498D01*
X137230261Y-151866510D01*
X137199500Y-152021153D01*
X123601196Y-152021153D01*
X123601283Y-149771153D01*
X130449500Y-149771153D01*
X130449500Y-149928846D01*
X130480261Y-150083489D01*
X130480264Y-150083501D01*
X130540602Y-150229172D01*
X130540609Y-150229185D01*
X130628210Y-150360288D01*
X130628213Y-150360292D01*
X130739707Y-150471786D01*
X130739711Y-150471789D01*
X130870814Y-150559390D01*
X130870827Y-150559397D01*
X130992665Y-150609863D01*
X131016503Y-150619737D01*
X131166131Y-150649500D01*
X131171153Y-150650499D01*
X131171156Y-150650500D01*
X131171158Y-150650500D01*
X131328844Y-150650500D01*
X131328845Y-150650499D01*
X131483497Y-150619737D01*
X131528050Y-150601282D01*
X131597515Y-150593814D01*
X131659995Y-150625088D01*
X131695648Y-150685177D01*
X131699500Y-150715844D01*
X131699500Y-150778846D01*
X131730261Y-150933489D01*
X131730264Y-150933501D01*
X131790602Y-151079172D01*
X131790609Y-151079185D01*
X131878210Y-151210288D01*
X131878213Y-151210292D01*
X131989707Y-151321786D01*
X131989711Y-151321789D01*
X132120814Y-151409390D01*
X132120827Y-151409397D01*
X132266498Y-151469735D01*
X132266503Y-151469737D01*
X132410515Y-151498383D01*
X132421153Y-151500499D01*
X132421156Y-151500500D01*
X132421158Y-151500500D01*
X132578844Y-151500500D01*
X132578845Y-151500499D01*
X132733497Y-151469737D01*
X132879179Y-151409394D01*
X133010289Y-151321789D01*
X133121789Y-151210289D01*
X133209394Y-151079179D01*
X133212854Y-151070827D01*
X133267163Y-150939711D01*
X133269737Y-150933497D01*
X133300500Y-150778842D01*
X133300500Y-150724424D01*
X133320185Y-150657385D01*
X133372989Y-150611630D01*
X133442147Y-150601686D01*
X133471952Y-150609863D01*
X133570060Y-150650500D01*
X133616503Y-150669737D01*
X133771153Y-150700499D01*
X133771156Y-150700500D01*
X133771158Y-150700500D01*
X133928844Y-150700500D01*
X133928845Y-150700499D01*
X134083497Y-150669737D01*
X134229179Y-150609394D01*
X134360289Y-150521789D01*
X134471789Y-150410289D01*
X134559394Y-150279179D01*
X134567016Y-150260779D01*
X134580102Y-150229185D01*
X134619737Y-150133497D01*
X134650500Y-149978842D01*
X134650500Y-149821158D01*
X134650500Y-149821155D01*
X134650499Y-149821153D01*
X134624264Y-149689257D01*
X134620662Y-149671153D01*
X144349500Y-149671153D01*
X144349500Y-149828846D01*
X144380261Y-149983489D01*
X144380264Y-149983501D01*
X144440602Y-150129172D01*
X144440609Y-150129185D01*
X144528210Y-150260288D01*
X144528213Y-150260292D01*
X144639707Y-150371786D01*
X144639711Y-150371789D01*
X144770814Y-150459390D01*
X144770827Y-150459397D01*
X144858698Y-150495794D01*
X144913102Y-150539635D01*
X144935167Y-150605929D01*
X144917888Y-150673628D01*
X144866751Y-150721239D01*
X144858699Y-150724916D01*
X144820824Y-150740604D01*
X144820814Y-150740609D01*
X144689711Y-150828210D01*
X144689707Y-150828213D01*
X144578213Y-150939707D01*
X144578210Y-150939711D01*
X144490609Y-151070814D01*
X144490602Y-151070827D01*
X144430264Y-151216498D01*
X144430261Y-151216510D01*
X144399500Y-151371153D01*
X144399500Y-151528846D01*
X144430261Y-151683489D01*
X144430264Y-151683501D01*
X144490602Y-151829172D01*
X144490609Y-151829185D01*
X144578210Y-151960288D01*
X144578213Y-151960292D01*
X144689707Y-152071786D01*
X144689711Y-152071789D01*
X144820814Y-152159390D01*
X144820827Y-152159397D01*
X144966498Y-152219735D01*
X144966503Y-152219737D01*
X145121153Y-152250499D01*
X145121156Y-152250500D01*
X145121158Y-152250500D01*
X145278844Y-152250500D01*
X145278845Y-152250499D01*
X145433497Y-152219737D01*
X145579179Y-152159394D01*
X145636411Y-152121153D01*
X146199500Y-152121153D01*
X146199500Y-152278846D01*
X146230261Y-152433489D01*
X146230264Y-152433501D01*
X146290602Y-152579172D01*
X146290609Y-152579185D01*
X146378210Y-152710288D01*
X146378213Y-152710292D01*
X146489707Y-152821786D01*
X146489711Y-152821789D01*
X146620814Y-152909390D01*
X146620827Y-152909397D01*
X146694013Y-152939711D01*
X146766503Y-152969737D01*
X146921153Y-153000499D01*
X146921156Y-153000500D01*
X146921158Y-153000500D01*
X147078844Y-153000500D01*
X147078845Y-153000499D01*
X147233497Y-152969737D01*
X147379179Y-152909394D01*
X147510289Y-152821789D01*
X147621789Y-152710289D01*
X147709394Y-152579179D01*
X147769737Y-152433497D01*
X147800500Y-152278842D01*
X147800500Y-152121158D01*
X147800500Y-152121155D01*
X147800499Y-152121153D01*
X147781847Y-152027385D01*
X147769737Y-151966503D01*
X147766791Y-151959390D01*
X147709397Y-151820827D01*
X147709390Y-151820814D01*
X147650289Y-151732364D01*
X147629411Y-151665687D01*
X147647895Y-151598307D01*
X147699874Y-151551616D01*
X147768844Y-151540440D01*
X147814866Y-151557604D01*
X147815446Y-151556521D01*
X147820827Y-151559397D01*
X147966498Y-151619735D01*
X147966503Y-151619737D01*
X148121153Y-151650499D01*
X148121156Y-151650500D01*
X148121158Y-151650500D01*
X148278844Y-151650500D01*
X148278845Y-151650499D01*
X148433497Y-151619737D01*
X148579179Y-151559394D01*
X148710289Y-151471789D01*
X148821789Y-151360289D01*
X148909394Y-151229179D01*
X148917217Y-151210292D01*
X148933429Y-151171153D01*
X150449500Y-151171153D01*
X150449500Y-151328846D01*
X150480261Y-151483489D01*
X150480264Y-151483501D01*
X150540602Y-151629172D01*
X150540609Y-151629185D01*
X150628210Y-151760288D01*
X150628213Y-151760292D01*
X150739707Y-151871786D01*
X150739711Y-151871789D01*
X150870814Y-151959390D01*
X150870827Y-151959397D01*
X151005214Y-152015061D01*
X151016503Y-152019737D01*
X151171153Y-152050499D01*
X151171156Y-152050500D01*
X151171158Y-152050500D01*
X151328844Y-152050500D01*
X151328845Y-152050499D01*
X151483497Y-152019737D01*
X151629179Y-151959394D01*
X151760289Y-151871789D01*
X151871789Y-151760289D01*
X151959394Y-151629179D01*
X152019737Y-151483497D01*
X152050500Y-151328842D01*
X152050500Y-151171158D01*
X152050500Y-151171155D01*
X152050499Y-151171153D01*
X152032204Y-151079179D01*
X152019737Y-151016503D01*
X151987929Y-150939711D01*
X151959397Y-150870827D01*
X151959390Y-150870814D01*
X151871789Y-150739711D01*
X151871786Y-150739707D01*
X151760292Y-150628213D01*
X151760288Y-150628210D01*
X151629185Y-150540609D01*
X151629172Y-150540602D01*
X151483501Y-150480264D01*
X151483489Y-150480261D01*
X151328845Y-150449500D01*
X151328842Y-150449500D01*
X151171158Y-150449500D01*
X151171155Y-150449500D01*
X151016510Y-150480261D01*
X151016498Y-150480264D01*
X150870827Y-150540602D01*
X150870814Y-150540609D01*
X150739711Y-150628210D01*
X150739707Y-150628213D01*
X150628213Y-150739707D01*
X150628210Y-150739711D01*
X150540609Y-150870814D01*
X150540602Y-150870827D01*
X150480264Y-151016498D01*
X150480261Y-151016510D01*
X150449500Y-151171153D01*
X148933429Y-151171153D01*
X148955603Y-151117621D01*
X148955605Y-151117614D01*
X148969737Y-151083497D01*
X149000500Y-150928842D01*
X149000500Y-150771158D01*
X149000500Y-150771155D01*
X149000499Y-150771153D01*
X148980326Y-150669737D01*
X148969737Y-150616503D01*
X148938298Y-150540602D01*
X148909397Y-150470827D01*
X148909390Y-150470814D01*
X148821789Y-150339711D01*
X148821786Y-150339707D01*
X148804181Y-150322102D01*
X148770696Y-150260779D01*
X148775680Y-150191087D01*
X148817552Y-150135154D01*
X148867671Y-150112804D01*
X148907566Y-150104867D01*
X148958497Y-150094737D01*
X149104179Y-150034394D01*
X149235289Y-149946789D01*
X149346789Y-149835289D01*
X149434394Y-149704179D01*
X149494737Y-149558497D01*
X149525500Y-149403842D01*
X149525500Y-149246158D01*
X149525500Y-149246155D01*
X149525499Y-149246153D01*
X149521930Y-149228210D01*
X149494737Y-149091503D01*
X149490081Y-149080263D01*
X149434397Y-148945827D01*
X149434390Y-148945814D01*
X149346789Y-148814711D01*
X149346786Y-148814707D01*
X149235292Y-148703213D01*
X149235288Y-148703210D01*
X149104185Y-148615609D01*
X149104172Y-148615602D01*
X148958501Y-148555264D01*
X148958489Y-148555261D01*
X148803845Y-148524500D01*
X148803842Y-148524500D01*
X148646158Y-148524500D01*
X148646155Y-148524500D01*
X148491510Y-148555261D01*
X148491498Y-148555264D01*
X148345827Y-148615602D01*
X148345814Y-148615609D01*
X148214711Y-148703210D01*
X148214707Y-148703213D01*
X148103213Y-148814707D01*
X148103210Y-148814711D01*
X148015609Y-148945814D01*
X148015602Y-148945827D01*
X147955264Y-149091498D01*
X147955261Y-149091510D01*
X147924500Y-149246153D01*
X147924500Y-149403846D01*
X147955261Y-149558489D01*
X147955264Y-149558501D01*
X148015602Y-149704172D01*
X148015609Y-149704185D01*
X148103210Y-149835288D01*
X148103213Y-149835292D01*
X148120818Y-149852897D01*
X148154303Y-149914220D01*
X148149319Y-149983912D01*
X148107447Y-150039845D01*
X148057330Y-150062195D01*
X147966507Y-150080261D01*
X147966498Y-150080264D01*
X147820827Y-150140602D01*
X147820814Y-150140609D01*
X147689711Y-150228210D01*
X147689707Y-150228213D01*
X147578213Y-150339707D01*
X147578210Y-150339711D01*
X147490609Y-150470814D01*
X147490602Y-150470827D01*
X147430264Y-150616498D01*
X147430261Y-150616510D01*
X147399500Y-150771153D01*
X147399500Y-150928846D01*
X147430261Y-151083489D01*
X147430264Y-151083501D01*
X147490602Y-151229172D01*
X147490609Y-151229185D01*
X147549710Y-151317635D01*
X147570588Y-151384312D01*
X147552104Y-151451693D01*
X147500125Y-151498383D01*
X147431155Y-151509559D01*
X147385132Y-151492396D01*
X147384554Y-151493479D01*
X147379172Y-151490602D01*
X147233501Y-151430264D01*
X147233489Y-151430261D01*
X147078845Y-151399500D01*
X147078842Y-151399500D01*
X146921158Y-151399500D01*
X146921155Y-151399500D01*
X146766510Y-151430261D01*
X146766498Y-151430264D01*
X146620827Y-151490602D01*
X146620814Y-151490609D01*
X146489711Y-151578210D01*
X146489707Y-151578213D01*
X146378213Y-151689707D01*
X146378210Y-151689711D01*
X146290609Y-151820814D01*
X146290602Y-151820827D01*
X146230264Y-151966498D01*
X146230261Y-151966510D01*
X146199500Y-152121153D01*
X145636411Y-152121153D01*
X145710289Y-152071789D01*
X145731579Y-152050499D01*
X145754694Y-152027385D01*
X145821786Y-151960292D01*
X145821789Y-151960289D01*
X145909394Y-151829179D01*
X145912854Y-151820827D01*
X145949496Y-151732364D01*
X145969737Y-151683497D01*
X146000500Y-151528842D01*
X146000500Y-151371158D01*
X146000500Y-151371155D01*
X146000499Y-151371153D01*
X145992365Y-151330261D01*
X145969737Y-151216503D01*
X145950955Y-151171158D01*
X145909397Y-151070827D01*
X145909390Y-151070814D01*
X145821789Y-150939711D01*
X145821786Y-150939707D01*
X145710292Y-150828213D01*
X145710288Y-150828210D01*
X145579185Y-150740609D01*
X145579175Y-150740604D01*
X145491300Y-150704205D01*
X145436897Y-150660364D01*
X145414832Y-150594070D01*
X145432111Y-150526370D01*
X145483249Y-150478760D01*
X145491288Y-150475088D01*
X145529179Y-150459394D01*
X145660289Y-150371789D01*
X145771789Y-150260289D01*
X145859394Y-150129179D01*
X145919737Y-149983497D01*
X145950500Y-149828842D01*
X145950500Y-149671158D01*
X145950500Y-149671155D01*
X145950499Y-149671153D01*
X145928090Y-149558497D01*
X145919737Y-149516503D01*
X145900812Y-149470814D01*
X145859397Y-149370827D01*
X145859390Y-149370814D01*
X145771789Y-149239711D01*
X145771786Y-149239707D01*
X145660292Y-149128213D01*
X145660288Y-149128210D01*
X145529185Y-149040609D01*
X145529172Y-149040602D01*
X145383501Y-148980264D01*
X145383489Y-148980261D01*
X145228845Y-148949500D01*
X145228842Y-148949500D01*
X145071158Y-148949500D01*
X145071155Y-148949500D01*
X144916510Y-148980261D01*
X144916498Y-148980264D01*
X144770827Y-149040602D01*
X144770814Y-149040609D01*
X144639711Y-149128210D01*
X144639707Y-149128213D01*
X144528213Y-149239707D01*
X144528210Y-149239711D01*
X144440609Y-149370814D01*
X144440602Y-149370827D01*
X144380264Y-149516498D01*
X144380261Y-149516510D01*
X144349500Y-149671153D01*
X134620662Y-149671153D01*
X134619738Y-149666507D01*
X134619735Y-149666498D01*
X134559397Y-149520827D01*
X134559390Y-149520814D01*
X134471789Y-149389711D01*
X134471786Y-149389707D01*
X134360292Y-149278213D01*
X134360288Y-149278210D01*
X134229185Y-149190609D01*
X134229172Y-149190602D01*
X134083501Y-149130264D01*
X134083489Y-149130261D01*
X133928845Y-149099500D01*
X133928842Y-149099500D01*
X133771158Y-149099500D01*
X133771155Y-149099500D01*
X133616510Y-149130261D01*
X133616498Y-149130264D01*
X133470827Y-149190602D01*
X133470814Y-149190609D01*
X133339711Y-149278210D01*
X133339707Y-149278213D01*
X133228213Y-149389707D01*
X133228210Y-149389711D01*
X133140609Y-149520814D01*
X133140602Y-149520827D01*
X133080264Y-149666498D01*
X133080261Y-149666510D01*
X133049500Y-149821153D01*
X133049500Y-149875575D01*
X133029815Y-149942614D01*
X132977011Y-149988369D01*
X132907853Y-149998313D01*
X132878048Y-149990137D01*
X132830314Y-149970365D01*
X132733497Y-149930263D01*
X132733492Y-149930262D01*
X132733489Y-149930261D01*
X132578845Y-149899500D01*
X132578842Y-149899500D01*
X132421158Y-149899500D01*
X132421155Y-149899500D01*
X132266510Y-149930261D01*
X132266498Y-149930264D01*
X132221952Y-149948716D01*
X132152483Y-149956185D01*
X132090004Y-149924909D01*
X132054352Y-149864820D01*
X132050500Y-149834155D01*
X132050500Y-149771155D01*
X132050499Y-149771153D01*
X132037177Y-149704179D01*
X132019737Y-149616503D01*
X131995712Y-149558501D01*
X131959397Y-149470827D01*
X131959390Y-149470814D01*
X131871789Y-149339711D01*
X131871786Y-149339707D01*
X131760292Y-149228213D01*
X131760288Y-149228210D01*
X131629185Y-149140609D01*
X131629172Y-149140602D01*
X131483501Y-149080264D01*
X131483489Y-149080261D01*
X131328845Y-149049500D01*
X131328842Y-149049500D01*
X131171158Y-149049500D01*
X131171155Y-149049500D01*
X131016510Y-149080261D01*
X131016498Y-149080264D01*
X130870827Y-149140602D01*
X130870814Y-149140609D01*
X130739711Y-149228210D01*
X130739707Y-149228213D01*
X130628213Y-149339707D01*
X130628210Y-149339711D01*
X130540609Y-149470814D01*
X130540602Y-149470827D01*
X130480264Y-149616498D01*
X130480261Y-149616510D01*
X130449500Y-149771153D01*
X123601283Y-149771153D01*
X123601473Y-144851220D01*
X123601497Y-144240350D01*
X129924500Y-144240350D01*
X129924500Y-144409649D01*
X129950981Y-144576847D01*
X130003296Y-144737853D01*
X130080152Y-144888688D01*
X130179648Y-145025634D01*
X130179652Y-145025639D01*
X130299360Y-145145347D01*
X130299365Y-145145351D01*
X130418817Y-145232137D01*
X130436315Y-145244850D01*
X130532425Y-145293820D01*
X130587146Y-145321703D01*
X130587148Y-145321703D01*
X130587151Y-145321705D01*
X130673450Y-145349745D01*
X130748152Y-145374018D01*
X130915351Y-145400500D01*
X130915356Y-145400500D01*
X131084649Y-145400500D01*
X131251847Y-145374018D01*
X131412849Y-145321705D01*
X131563685Y-145244850D01*
X131700641Y-145145346D01*
X131820346Y-145025641D01*
X131919850Y-144888685D01*
X131996705Y-144737849D01*
X132049018Y-144576847D01*
X132050770Y-144565783D01*
X132075500Y-144409649D01*
X132075500Y-144406307D01*
X150174499Y-144406307D01*
X150206222Y-144565783D01*
X150206225Y-144565793D01*
X150268450Y-144716019D01*
X150268452Y-144716023D01*
X150358788Y-144851220D01*
X150358794Y-144851228D01*
X150473771Y-144966205D01*
X150473779Y-144966211D01*
X150608976Y-145056547D01*
X150608980Y-145056549D01*
X150759206Y-145118774D01*
X150759211Y-145118776D01*
X150759215Y-145118776D01*
X150759216Y-145118777D01*
X150918692Y-145150500D01*
X150918695Y-145150500D01*
X151081307Y-145150500D01*
X151188598Y-145129157D01*
X151240789Y-145118776D01*
X151391021Y-145056548D01*
X151391023Y-145056547D01*
X151458169Y-145011680D01*
X151526225Y-144966208D01*
X151641208Y-144851225D01*
X151686680Y-144783169D01*
X151731547Y-144716023D01*
X151731549Y-144716019D01*
X151752290Y-144665943D01*
X151793776Y-144565789D01*
X151825500Y-144406305D01*
X151825500Y-144243695D01*
X151825500Y-144243692D01*
X151793777Y-144084216D01*
X151793776Y-144084215D01*
X151793776Y-144084211D01*
X151789195Y-144073152D01*
X151731549Y-143933980D01*
X151731547Y-143933976D01*
X151641211Y-143798779D01*
X151641205Y-143798771D01*
X151526228Y-143683794D01*
X151526220Y-143683788D01*
X151391023Y-143593452D01*
X151391019Y-143593450D01*
X151240793Y-143531225D01*
X151240783Y-143531222D01*
X151081307Y-143499500D01*
X151081305Y-143499500D01*
X150918695Y-143499500D01*
X150918693Y-143499500D01*
X150759216Y-143531222D01*
X150759206Y-143531225D01*
X150608980Y-143593450D01*
X150608976Y-143593452D01*
X150473779Y-143683788D01*
X150473771Y-143683794D01*
X150358794Y-143798771D01*
X150358788Y-143798779D01*
X150268452Y-143933976D01*
X150268450Y-143933980D01*
X150206225Y-144084206D01*
X150206222Y-144084216D01*
X150174500Y-144243692D01*
X150174500Y-144243695D01*
X150174500Y-144406305D01*
X150174500Y-144406307D01*
X150174499Y-144406307D01*
X132075500Y-144406307D01*
X132075500Y-144240350D01*
X132049018Y-144073152D01*
X132024745Y-143998450D01*
X131996705Y-143912151D01*
X131996703Y-143912148D01*
X131996703Y-143912146D01*
X131968820Y-143857425D01*
X131919850Y-143761315D01*
X131863528Y-143683794D01*
X131820351Y-143624365D01*
X131820347Y-143624360D01*
X131700639Y-143504652D01*
X131700634Y-143504648D01*
X131563688Y-143405152D01*
X131563687Y-143405151D01*
X131563685Y-143405150D01*
X131516582Y-143381150D01*
X131412853Y-143328296D01*
X131251847Y-143275981D01*
X131084649Y-143249500D01*
X131084644Y-143249500D01*
X130915356Y-143249500D01*
X130915351Y-143249500D01*
X130748152Y-143275981D01*
X130587146Y-143328296D01*
X130436311Y-143405152D01*
X130299365Y-143504648D01*
X130299360Y-143504652D01*
X130179652Y-143624360D01*
X130179648Y-143624365D01*
X130080152Y-143761311D01*
X130003296Y-143912146D01*
X129950981Y-144073152D01*
X129924500Y-144240350D01*
X123601497Y-144240350D01*
X123601497Y-144235479D01*
X123601864Y-134721457D01*
X133224499Y-134721457D01*
X133252379Y-134861614D01*
X133252381Y-134861620D01*
X133307069Y-134993650D01*
X133307074Y-134993659D01*
X133386467Y-135112478D01*
X133386470Y-135112482D01*
X133487517Y-135213529D01*
X133487521Y-135213532D01*
X133606340Y-135292925D01*
X133606346Y-135292928D01*
X133606347Y-135292929D01*
X133738380Y-135347619D01*
X133738384Y-135347619D01*
X133738385Y-135347620D01*
X133878542Y-135375500D01*
X133878545Y-135375500D01*
X134021457Y-135375500D01*
X134115751Y-135356742D01*
X134161620Y-135347619D01*
X134293653Y-135292929D01*
X134412479Y-135213532D01*
X134513532Y-135112479D01*
X134513533Y-135112476D01*
X134516589Y-135109421D01*
X134577912Y-135075935D01*
X134622417Y-135075537D01*
X134622480Y-135074903D01*
X134628387Y-135075484D01*
X134628465Y-135075484D01*
X134628545Y-135075500D01*
X134628546Y-135075500D01*
X134771457Y-135075500D01*
X134865751Y-135056742D01*
X134911620Y-135047619D01*
X135043653Y-134992929D01*
X135162479Y-134913532D01*
X135263532Y-134812479D01*
X135342929Y-134693653D01*
X135372834Y-134621457D01*
X143224499Y-134621457D01*
X143252379Y-134761614D01*
X143252381Y-134761620D01*
X143307069Y-134893650D01*
X143307074Y-134893659D01*
X143386467Y-135012478D01*
X143386470Y-135012482D01*
X143487517Y-135113529D01*
X143487521Y-135113532D01*
X143606340Y-135192925D01*
X143606346Y-135192928D01*
X143606347Y-135192929D01*
X143738380Y-135247619D01*
X143738384Y-135247619D01*
X143738385Y-135247620D01*
X143878542Y-135275500D01*
X143878545Y-135275500D01*
X144021457Y-135275500D01*
X144115751Y-135256742D01*
X144161620Y-135247619D01*
X144293653Y-135192929D01*
X144412479Y-135113532D01*
X144513532Y-135012479D01*
X144592929Y-134893653D01*
X144647619Y-134761620D01*
X144675500Y-134621455D01*
X144675500Y-134478545D01*
X144675500Y-134478542D01*
X144647620Y-134338385D01*
X144647619Y-134338384D01*
X144647619Y-134338380D01*
X144592929Y-134206347D01*
X144592928Y-134206346D01*
X144592925Y-134206340D01*
X144513532Y-134087521D01*
X144513529Y-134087517D01*
X144412482Y-133986470D01*
X144412478Y-133986467D01*
X144293659Y-133907074D01*
X144293650Y-133907069D01*
X144161620Y-133852381D01*
X144161614Y-133852379D01*
X144021457Y-133824500D01*
X144021455Y-133824500D01*
X143878545Y-133824500D01*
X143878543Y-133824500D01*
X143738385Y-133852379D01*
X143738379Y-133852381D01*
X143606349Y-133907069D01*
X143606340Y-133907074D01*
X143487521Y-133986467D01*
X143487517Y-133986470D01*
X143386470Y-134087517D01*
X143386467Y-134087521D01*
X143307074Y-134206340D01*
X143307069Y-134206349D01*
X143252381Y-134338379D01*
X143252379Y-134338385D01*
X143224500Y-134478542D01*
X143224500Y-134478545D01*
X143224500Y-134621455D01*
X143224500Y-134621457D01*
X143224499Y-134621457D01*
X135372834Y-134621457D01*
X135397619Y-134561620D01*
X135425500Y-134421455D01*
X135425500Y-134278545D01*
X135425500Y-134278542D01*
X135397620Y-134138385D01*
X135397619Y-134138384D01*
X135397619Y-134138380D01*
X135342929Y-134006347D01*
X135342928Y-134006346D01*
X135342925Y-134006340D01*
X135263532Y-133887521D01*
X135263529Y-133887517D01*
X135162482Y-133786470D01*
X135162478Y-133786467D01*
X135043659Y-133707074D01*
X135043650Y-133707069D01*
X134911620Y-133652381D01*
X134911614Y-133652379D01*
X134771457Y-133624500D01*
X134771455Y-133624500D01*
X134628545Y-133624500D01*
X134628543Y-133624500D01*
X134488385Y-133652379D01*
X134488379Y-133652381D01*
X134356349Y-133707069D01*
X134356340Y-133707074D01*
X134237521Y-133786467D01*
X134133408Y-133890580D01*
X134072085Y-133924064D01*
X134027580Y-133924463D01*
X134027518Y-133925097D01*
X134021631Y-133924517D01*
X134021548Y-133924518D01*
X134021458Y-133924500D01*
X134021455Y-133924500D01*
X133878545Y-133924500D01*
X133878543Y-133924500D01*
X133738385Y-133952379D01*
X133738379Y-133952381D01*
X133606349Y-134007069D01*
X133606340Y-134007074D01*
X133487521Y-134086467D01*
X133487517Y-134086470D01*
X133386470Y-134187517D01*
X133386467Y-134187521D01*
X133307074Y-134306340D01*
X133307069Y-134306349D01*
X133252381Y-134438379D01*
X133252379Y-134438385D01*
X133224500Y-134578542D01*
X133224500Y-134578545D01*
X133224500Y-134721455D01*
X133224500Y-134721457D01*
X133224499Y-134721457D01*
X123601864Y-134721457D01*
X123601870Y-134572448D01*
X123601903Y-133707069D01*
X123601941Y-132721457D01*
X133474499Y-132721457D01*
X133502379Y-132861614D01*
X133502381Y-132861620D01*
X133557069Y-132993650D01*
X133557074Y-132993659D01*
X133636467Y-133112478D01*
X133636470Y-133112482D01*
X133737517Y-133213529D01*
X133737521Y-133213532D01*
X133856340Y-133292925D01*
X133856346Y-133292928D01*
X133856347Y-133292929D01*
X133988380Y-133347619D01*
X133988384Y-133347619D01*
X133988385Y-133347620D01*
X134128542Y-133375500D01*
X134128545Y-133375500D01*
X134271457Y-133375500D01*
X134365751Y-133356742D01*
X134411620Y-133347619D01*
X134543653Y-133292929D01*
X134662479Y-133213532D01*
X134763532Y-133112479D01*
X134842929Y-132993653D01*
X134897619Y-132861620D01*
X134925500Y-132721455D01*
X134925500Y-132578545D01*
X134925500Y-132578542D01*
X134897620Y-132438385D01*
X134897619Y-132438384D01*
X134897619Y-132438380D01*
X134842929Y-132306347D01*
X134842928Y-132306346D01*
X134842925Y-132306340D01*
X134763532Y-132187521D01*
X134763529Y-132187517D01*
X134662482Y-132086470D01*
X134662478Y-132086467D01*
X134543659Y-132007074D01*
X134543650Y-132007069D01*
X134411620Y-131952381D01*
X134411614Y-131952379D01*
X134271457Y-131924500D01*
X134271455Y-131924500D01*
X134128545Y-131924500D01*
X134128543Y-131924500D01*
X133988385Y-131952379D01*
X133988379Y-131952381D01*
X133856349Y-132007069D01*
X133856340Y-132007074D01*
X133737521Y-132086467D01*
X133737517Y-132086470D01*
X133636470Y-132187517D01*
X133636467Y-132187521D01*
X133557074Y-132306340D01*
X133557069Y-132306349D01*
X133502381Y-132438379D01*
X133502379Y-132438385D01*
X133474500Y-132578542D01*
X133474500Y-132578545D01*
X133474500Y-132721455D01*
X133474500Y-132721457D01*
X133474499Y-132721457D01*
X123601941Y-132721457D01*
X123602028Y-130461153D01*
X135869500Y-130461153D01*
X135869500Y-130618846D01*
X135900261Y-130773489D01*
X135900264Y-130773501D01*
X135960602Y-130919172D01*
X135960609Y-130919185D01*
X136048210Y-131050288D01*
X136048213Y-131050292D01*
X136159707Y-131161786D01*
X136159711Y-131161789D01*
X136290814Y-131249390D01*
X136290827Y-131249397D01*
X136436498Y-131309735D01*
X136436503Y-131309737D01*
X136548783Y-131332071D01*
X136591153Y-131340499D01*
X136591156Y-131340500D01*
X136591158Y-131340500D01*
X136748844Y-131340500D01*
X136748845Y-131340499D01*
X136903497Y-131309737D01*
X137049179Y-131249394D01*
X137180289Y-131161789D01*
X137291789Y-131050289D01*
X137379394Y-130919179D01*
X137439737Y-130773497D01*
X137460094Y-130671158D01*
X137460095Y-130671153D01*
X142599500Y-130671153D01*
X142599500Y-130828846D01*
X142630261Y-130983489D01*
X142630264Y-130983501D01*
X142690602Y-131129172D01*
X142690609Y-131129185D01*
X142778210Y-131260288D01*
X142778213Y-131260292D01*
X142889707Y-131371786D01*
X142889711Y-131371789D01*
X143020814Y-131459390D01*
X143020826Y-131459397D01*
X143120069Y-131500503D01*
X143147366Y-131511810D01*
X143201770Y-131555650D01*
X143223835Y-131621944D01*
X143214476Y-131673822D01*
X143177381Y-131763380D01*
X143177379Y-131763385D01*
X143149500Y-131903542D01*
X143149500Y-131903545D01*
X143149500Y-132046455D01*
X143149500Y-132046457D01*
X143149499Y-132046457D01*
X143177379Y-132186614D01*
X143177381Y-132186620D01*
X143232069Y-132318650D01*
X143232074Y-132318659D01*
X143311467Y-132437478D01*
X143311470Y-132437482D01*
X143412517Y-132538529D01*
X143412521Y-132538532D01*
X143531340Y-132617925D01*
X143531346Y-132617928D01*
X143531347Y-132617929D01*
X143663380Y-132672619D01*
X143663384Y-132672619D01*
X143663385Y-132672620D01*
X143803542Y-132700500D01*
X143803545Y-132700500D01*
X143946457Y-132700500D01*
X144040751Y-132681742D01*
X144086620Y-132672619D01*
X144218653Y-132617929D01*
X144337479Y-132538532D01*
X144438532Y-132437479D01*
X144517929Y-132318653D01*
X144572619Y-132186620D01*
X144581742Y-132140751D01*
X144600500Y-132046457D01*
X144600500Y-131903542D01*
X144572620Y-131763385D01*
X144572619Y-131763384D01*
X144572619Y-131763380D01*
X144517929Y-131631347D01*
X144517928Y-131631346D01*
X144517925Y-131631340D01*
X144438532Y-131512521D01*
X144438529Y-131512517D01*
X144337482Y-131411470D01*
X144337478Y-131411467D01*
X144218659Y-131332074D01*
X144218654Y-131332072D01*
X144218653Y-131332071D01*
X144189318Y-131319920D01*
X144166490Y-131310464D01*
X144112087Y-131266622D01*
X144090023Y-131200328D01*
X144106776Y-131134690D01*
X144106521Y-131134554D01*
X144107077Y-131133513D01*
X144107303Y-131132629D01*
X144108929Y-131130048D01*
X144109390Y-131129184D01*
X144109394Y-131129179D01*
X144169737Y-130983497D01*
X144200500Y-130828842D01*
X144200500Y-130671158D01*
X144200500Y-130671155D01*
X144200499Y-130671153D01*
X144190094Y-130618844D01*
X144169737Y-130516503D01*
X144146813Y-130461158D01*
X144109397Y-130370827D01*
X144109390Y-130370814D01*
X144021789Y-130239711D01*
X144021786Y-130239707D01*
X143910292Y-130128213D01*
X143910288Y-130128210D01*
X143779185Y-130040609D01*
X143779172Y-130040602D01*
X143633501Y-129980264D01*
X143633489Y-129980261D01*
X143478845Y-129949500D01*
X143478842Y-129949500D01*
X143321158Y-129949500D01*
X143321155Y-129949500D01*
X143166510Y-129980261D01*
X143166498Y-129980264D01*
X143020827Y-130040602D01*
X143020814Y-130040609D01*
X142889711Y-130128210D01*
X142889707Y-130128213D01*
X142778213Y-130239707D01*
X142778210Y-130239711D01*
X142690609Y-130370814D01*
X142690602Y-130370827D01*
X142630264Y-130516498D01*
X142630261Y-130516510D01*
X142599500Y-130671153D01*
X137460095Y-130671153D01*
X137466118Y-130640875D01*
X137470499Y-130618846D01*
X137470500Y-130618844D01*
X137470500Y-130461155D01*
X137470499Y-130461153D01*
X137439738Y-130306510D01*
X137439737Y-130306503D01*
X137412071Y-130239711D01*
X137379397Y-130160827D01*
X137379390Y-130160814D01*
X137291789Y-130029711D01*
X137291786Y-130029707D01*
X137180292Y-129918213D01*
X137180288Y-129918210D01*
X137049185Y-129830609D01*
X137049172Y-129830602D01*
X136903501Y-129770264D01*
X136903489Y-129770261D01*
X136748845Y-129739500D01*
X136748842Y-129739500D01*
X136591158Y-129739500D01*
X136591155Y-129739500D01*
X136436510Y-129770261D01*
X136436498Y-129770264D01*
X136290827Y-129830602D01*
X136290814Y-129830609D01*
X136159711Y-129918210D01*
X136159707Y-129918213D01*
X136048213Y-130029707D01*
X136048210Y-130029711D01*
X135960609Y-130160814D01*
X135960602Y-130160827D01*
X135900264Y-130306498D01*
X135900261Y-130306510D01*
X135869500Y-130461153D01*
X123602028Y-130461153D01*
X123602089Y-128883184D01*
X132189391Y-128883184D01*
X132217271Y-129023341D01*
X132217273Y-129023347D01*
X132271961Y-129155377D01*
X132271966Y-129155386D01*
X132351359Y-129274205D01*
X132351362Y-129274209D01*
X132452409Y-129375256D01*
X132452413Y-129375259D01*
X132571232Y-129454652D01*
X132571238Y-129454655D01*
X132571239Y-129454656D01*
X132703272Y-129509346D01*
X132703276Y-129509346D01*
X132703277Y-129509347D01*
X132843434Y-129537227D01*
X132843437Y-129537227D01*
X132986349Y-129537227D01*
X133080643Y-129518469D01*
X133126512Y-129509346D01*
X133258545Y-129454656D01*
X133377371Y-129375259D01*
X133478424Y-129274206D01*
X133557821Y-129155380D01*
X133612511Y-129023347D01*
X133640392Y-128883182D01*
X133640392Y-128740272D01*
X133640392Y-128740269D01*
X133612512Y-128600112D01*
X133612511Y-128600111D01*
X133612511Y-128600107D01*
X133557821Y-128468074D01*
X133557820Y-128468073D01*
X133557817Y-128468067D01*
X133478424Y-128349248D01*
X133478421Y-128349244D01*
X133377374Y-128248197D01*
X133377370Y-128248194D01*
X133258551Y-128168801D01*
X133258542Y-128168796D01*
X133126512Y-128114108D01*
X133126506Y-128114106D01*
X132986349Y-128086227D01*
X132986347Y-128086227D01*
X132843437Y-128086227D01*
X132843435Y-128086227D01*
X132703277Y-128114106D01*
X132703271Y-128114108D01*
X132571241Y-128168796D01*
X132571232Y-128168801D01*
X132452413Y-128248194D01*
X132452409Y-128248197D01*
X132351362Y-128349244D01*
X132351359Y-128349248D01*
X132271966Y-128468067D01*
X132271961Y-128468076D01*
X132217273Y-128600106D01*
X132217271Y-128600112D01*
X132189392Y-128740269D01*
X132189392Y-128740272D01*
X132189392Y-128883182D01*
X132189392Y-128883184D01*
X132189391Y-128883184D01*
X123602089Y-128883184D01*
X123602121Y-128041457D01*
X140354499Y-128041457D01*
X140382379Y-128181614D01*
X140382381Y-128181620D01*
X140437069Y-128313650D01*
X140437074Y-128313659D01*
X140516467Y-128432478D01*
X140516470Y-128432482D01*
X140617517Y-128533529D01*
X140617521Y-128533532D01*
X140736340Y-128612925D01*
X140736346Y-128612928D01*
X140736347Y-128612929D01*
X140868380Y-128667619D01*
X140868384Y-128667619D01*
X140868385Y-128667620D01*
X141008542Y-128695500D01*
X141008545Y-128695500D01*
X141151455Y-128695500D01*
X141201308Y-128685583D01*
X141270898Y-128691809D01*
X141326076Y-128734671D01*
X141349322Y-128800561D01*
X141349500Y-128807200D01*
X141349500Y-128878846D01*
X141380261Y-129033489D01*
X141380264Y-129033501D01*
X141440602Y-129179172D01*
X141440609Y-129179185D01*
X141528210Y-129310288D01*
X141528213Y-129310292D01*
X141639707Y-129421786D01*
X141639711Y-129421789D01*
X141770814Y-129509390D01*
X141770827Y-129509397D01*
X141838016Y-129537227D01*
X141916503Y-129569737D01*
X142071153Y-129600499D01*
X142071156Y-129600500D01*
X142071158Y-129600500D01*
X142228844Y-129600500D01*
X142228845Y-129600499D01*
X142383497Y-129569737D01*
X142529179Y-129509394D01*
X142660289Y-129421789D01*
X142771789Y-129310289D01*
X142859394Y-129179179D01*
X142883303Y-129121457D01*
X149474499Y-129121457D01*
X149502379Y-129261614D01*
X149502381Y-129261620D01*
X149557069Y-129393650D01*
X149557074Y-129393659D01*
X149636467Y-129512478D01*
X149636470Y-129512482D01*
X149737517Y-129613529D01*
X149737521Y-129613532D01*
X149856340Y-129692925D01*
X149856346Y-129692928D01*
X149856347Y-129692929D01*
X149988380Y-129747619D01*
X149988384Y-129747619D01*
X149988385Y-129747620D01*
X150128542Y-129775500D01*
X150128545Y-129775500D01*
X150271457Y-129775500D01*
X150365751Y-129756742D01*
X150411620Y-129747619D01*
X150543653Y-129692929D01*
X150662479Y-129613532D01*
X150763532Y-129512479D01*
X150842929Y-129393653D01*
X150897619Y-129261620D01*
X150918752Y-129155380D01*
X150925500Y-129121457D01*
X150925500Y-128978542D01*
X150897620Y-128838385D01*
X150897619Y-128838384D01*
X150897619Y-128838380D01*
X150842929Y-128706347D01*
X150842928Y-128706346D01*
X150842925Y-128706340D01*
X150763532Y-128587521D01*
X150763529Y-128587517D01*
X150662482Y-128486470D01*
X150662478Y-128486467D01*
X150543659Y-128407074D01*
X150543650Y-128407069D01*
X150411620Y-128352381D01*
X150411614Y-128352379D01*
X150271457Y-128324500D01*
X150271455Y-128324500D01*
X150128545Y-128324500D01*
X150128543Y-128324500D01*
X149988385Y-128352379D01*
X149988379Y-128352381D01*
X149856349Y-128407069D01*
X149856340Y-128407074D01*
X149737521Y-128486467D01*
X149737517Y-128486470D01*
X149636470Y-128587517D01*
X149636467Y-128587521D01*
X149557074Y-128706340D01*
X149557069Y-128706349D01*
X149502381Y-128838379D01*
X149502379Y-128838385D01*
X149474500Y-128978542D01*
X149474500Y-128978545D01*
X149474500Y-129121455D01*
X149474500Y-129121457D01*
X149474499Y-129121457D01*
X142883303Y-129121457D01*
X142919737Y-129033497D01*
X142950500Y-128878842D01*
X142950500Y-128721158D01*
X142950500Y-128721155D01*
X142950499Y-128721153D01*
X142943424Y-128685583D01*
X142919737Y-128566503D01*
X142906079Y-128533529D01*
X142859658Y-128421457D01*
X144174499Y-128421457D01*
X144202379Y-128561614D01*
X144202381Y-128561620D01*
X144257069Y-128693650D01*
X144257074Y-128693659D01*
X144336467Y-128812478D01*
X144336470Y-128812482D01*
X144437517Y-128913529D01*
X144437521Y-128913532D01*
X144556340Y-128992925D01*
X144556346Y-128992928D01*
X144556347Y-128992929D01*
X144688380Y-129047619D01*
X144688384Y-129047619D01*
X144688385Y-129047620D01*
X144828542Y-129075500D01*
X144828545Y-129075500D01*
X144971457Y-129075500D01*
X145065751Y-129056742D01*
X145111620Y-129047619D01*
X145243653Y-128992929D01*
X145362479Y-128913532D01*
X145362482Y-128913529D01*
X145391240Y-128884772D01*
X145463529Y-128812482D01*
X145463532Y-128812479D01*
X145542929Y-128693653D01*
X145597619Y-128561620D01*
X145612568Y-128486467D01*
X145625500Y-128421457D01*
X145625500Y-128278542D01*
X145597620Y-128138385D01*
X145597619Y-128138384D01*
X145597619Y-128138380D01*
X145542929Y-128006347D01*
X145542928Y-128006346D01*
X145542925Y-128006340D01*
X145463532Y-127887521D01*
X145463529Y-127887517D01*
X145362482Y-127786470D01*
X145362478Y-127786467D01*
X145243659Y-127707074D01*
X145243650Y-127707069D01*
X145111620Y-127652381D01*
X145111614Y-127652379D01*
X144971457Y-127624500D01*
X144971455Y-127624500D01*
X144828545Y-127624500D01*
X144828543Y-127624500D01*
X144688385Y-127652379D01*
X144688379Y-127652381D01*
X144556349Y-127707069D01*
X144556340Y-127707074D01*
X144437521Y-127786467D01*
X144437517Y-127786470D01*
X144336470Y-127887517D01*
X144336467Y-127887521D01*
X144257074Y-128006340D01*
X144257069Y-128006349D01*
X144202381Y-128138379D01*
X144202379Y-128138385D01*
X144174500Y-128278542D01*
X144174500Y-128278545D01*
X144174500Y-128421455D01*
X144174500Y-128421457D01*
X144174499Y-128421457D01*
X142859658Y-128421457D01*
X142859397Y-128420827D01*
X142859390Y-128420814D01*
X142806290Y-128341344D01*
X142771789Y-128289711D01*
X142771786Y-128289707D01*
X142660292Y-128178213D01*
X142660288Y-128178210D01*
X142529185Y-128090609D01*
X142529172Y-128090602D01*
X142383501Y-128030264D01*
X142383489Y-128030261D01*
X142228845Y-127999500D01*
X142228842Y-127999500D01*
X142071158Y-127999500D01*
X142071155Y-127999500D01*
X141953691Y-128022865D01*
X141884100Y-128016638D01*
X141828922Y-127973775D01*
X141805678Y-127907885D01*
X141805500Y-127901248D01*
X141805500Y-127898542D01*
X141777620Y-127758385D01*
X141777619Y-127758384D01*
X141777619Y-127758380D01*
X141722929Y-127626347D01*
X141722928Y-127626346D01*
X141722925Y-127626340D01*
X141643532Y-127507521D01*
X141643529Y-127507517D01*
X141542482Y-127406470D01*
X141542478Y-127406467D01*
X141423659Y-127327074D01*
X141423650Y-127327069D01*
X141291620Y-127272381D01*
X141291614Y-127272379D01*
X141151457Y-127244500D01*
X141151455Y-127244500D01*
X141008545Y-127244500D01*
X141008543Y-127244500D01*
X140868385Y-127272379D01*
X140868379Y-127272381D01*
X140736349Y-127327069D01*
X140736340Y-127327074D01*
X140617521Y-127406467D01*
X140617517Y-127406470D01*
X140516470Y-127507517D01*
X140516467Y-127507521D01*
X140437074Y-127626340D01*
X140437069Y-127626349D01*
X140382381Y-127758379D01*
X140382379Y-127758385D01*
X140354500Y-127898542D01*
X140354500Y-127898545D01*
X140354500Y-128041455D01*
X140354500Y-128041457D01*
X140354499Y-128041457D01*
X123602121Y-128041457D01*
X123602369Y-121631457D01*
X141924499Y-121631457D01*
X141952379Y-121771614D01*
X141952381Y-121771620D01*
X142007069Y-121903650D01*
X142007074Y-121903659D01*
X142086467Y-122022478D01*
X142086470Y-122022482D01*
X142187517Y-122123529D01*
X142187521Y-122123532D01*
X142306340Y-122202925D01*
X142306346Y-122202928D01*
X142306347Y-122202929D01*
X142438380Y-122257619D01*
X142438384Y-122257619D01*
X142438385Y-122257620D01*
X142578542Y-122285500D01*
X142578545Y-122285500D01*
X142721457Y-122285500D01*
X142815751Y-122266742D01*
X142861620Y-122257619D01*
X142993653Y-122202929D01*
X143112479Y-122123532D01*
X143213532Y-122022479D01*
X143292929Y-121903653D01*
X143347619Y-121771620D01*
X143356742Y-121725751D01*
X143375500Y-121631457D01*
X143375500Y-121488542D01*
X143347620Y-121348385D01*
X143347619Y-121348384D01*
X143347619Y-121348380D01*
X143292929Y-121216347D01*
X143292928Y-121216346D01*
X143292925Y-121216340D01*
X143213532Y-121097521D01*
X143213529Y-121097517D01*
X143112482Y-120996470D01*
X143112478Y-120996467D01*
X143104980Y-120991457D01*
X151891299Y-120991457D01*
X151919179Y-121131614D01*
X151919181Y-121131620D01*
X151973869Y-121263650D01*
X151973874Y-121263659D01*
X152053267Y-121382478D01*
X152053270Y-121382482D01*
X152154317Y-121483529D01*
X152154321Y-121483532D01*
X152273140Y-121562925D01*
X152273149Y-121562930D01*
X152303058Y-121575318D01*
X152405180Y-121617619D01*
X152405184Y-121617619D01*
X152405185Y-121617620D01*
X152545342Y-121645500D01*
X152545345Y-121645500D01*
X152688257Y-121645500D01*
X152782551Y-121626742D01*
X152828420Y-121617619D01*
X152895947Y-121589647D01*
X152965415Y-121582178D01*
X152990850Y-121589647D01*
X153020913Y-121602099D01*
X153058374Y-121617617D01*
X153058377Y-121617617D01*
X153058380Y-121617619D01*
X153058384Y-121617619D01*
X153058385Y-121617620D01*
X153198542Y-121645500D01*
X153198545Y-121645500D01*
X153341457Y-121645500D01*
X153435751Y-121626742D01*
X153481620Y-121617619D01*
X153613653Y-121562929D01*
X153732479Y-121483532D01*
X153833532Y-121382479D01*
X153912929Y-121263653D01*
X153967619Y-121131620D01*
X153976742Y-121085751D01*
X153995500Y-120991457D01*
X153995500Y-120848542D01*
X153967620Y-120708385D01*
X153967619Y-120708384D01*
X153967619Y-120708380D01*
X153912929Y-120576347D01*
X153912928Y-120576346D01*
X153912925Y-120576340D01*
X153833532Y-120457521D01*
X153833529Y-120457517D01*
X153732482Y-120356470D01*
X153732478Y-120356467D01*
X153613659Y-120277074D01*
X153613650Y-120277069D01*
X153481620Y-120222381D01*
X153481614Y-120222379D01*
X153341457Y-120194500D01*
X153341455Y-120194500D01*
X153198545Y-120194500D01*
X153198543Y-120194500D01*
X153058385Y-120222379D01*
X153058384Y-120222379D01*
X152990852Y-120250352D01*
X152921382Y-120257820D01*
X152895948Y-120250352D01*
X152828415Y-120222379D01*
X152688257Y-120194500D01*
X152688255Y-120194500D01*
X152545345Y-120194500D01*
X152545343Y-120194500D01*
X152405185Y-120222379D01*
X152405179Y-120222381D01*
X152273149Y-120277069D01*
X152273140Y-120277074D01*
X152154321Y-120356467D01*
X152154317Y-120356470D01*
X152053270Y-120457517D01*
X152053267Y-120457521D01*
X151973874Y-120576340D01*
X151973869Y-120576349D01*
X151919181Y-120708379D01*
X151919179Y-120708385D01*
X151891300Y-120848542D01*
X151891300Y-120848545D01*
X151891300Y-120991455D01*
X151891300Y-120991457D01*
X151891299Y-120991457D01*
X143104980Y-120991457D01*
X143036283Y-120945555D01*
X142993659Y-120917074D01*
X142993650Y-120917069D01*
X142861620Y-120862381D01*
X142861614Y-120862379D01*
X142721457Y-120834500D01*
X142721455Y-120834500D01*
X142578545Y-120834500D01*
X142578543Y-120834500D01*
X142438385Y-120862379D01*
X142438379Y-120862381D01*
X142306349Y-120917069D01*
X142306340Y-120917074D01*
X142187521Y-120996467D01*
X142187517Y-120996470D01*
X142086470Y-121097517D01*
X142086467Y-121097521D01*
X142007074Y-121216340D01*
X142007069Y-121216349D01*
X141952381Y-121348379D01*
X141952379Y-121348385D01*
X141924500Y-121488542D01*
X141924500Y-121488545D01*
X141924500Y-121631455D01*
X141924500Y-121631457D01*
X141924499Y-121631457D01*
X123602369Y-121631457D01*
X123602439Y-119821457D01*
X144604499Y-119821457D01*
X144632379Y-119961614D01*
X144632381Y-119961620D01*
X144687069Y-120093650D01*
X144687074Y-120093659D01*
X144766467Y-120212478D01*
X144766470Y-120212482D01*
X144867517Y-120313529D01*
X144867521Y-120313532D01*
X144986340Y-120392925D01*
X144986346Y-120392928D01*
X144986347Y-120392929D01*
X145118380Y-120447619D01*
X145118384Y-120447619D01*
X145118385Y-120447620D01*
X145258542Y-120475500D01*
X145258545Y-120475500D01*
X145401457Y-120475500D01*
X145495751Y-120456742D01*
X145541620Y-120447619D01*
X145673653Y-120392929D01*
X145792479Y-120313532D01*
X145893532Y-120212479D01*
X145972929Y-120093653D01*
X146027619Y-119961620D01*
X146055500Y-119821455D01*
X146055500Y-119678545D01*
X146055500Y-119678542D01*
X146027620Y-119538385D01*
X146027619Y-119538384D01*
X146027619Y-119538380D01*
X145972929Y-119406347D01*
X145972928Y-119406346D01*
X145972925Y-119406340D01*
X145893532Y-119287521D01*
X145893529Y-119287517D01*
X145792482Y-119186470D01*
X145792478Y-119186467D01*
X145673659Y-119107074D01*
X145673650Y-119107069D01*
X145541620Y-119052381D01*
X145541614Y-119052379D01*
X145401457Y-119024500D01*
X145401455Y-119024500D01*
X145258545Y-119024500D01*
X145258543Y-119024500D01*
X145118385Y-119052379D01*
X145118379Y-119052381D01*
X144986349Y-119107069D01*
X144986340Y-119107074D01*
X144867521Y-119186467D01*
X144867517Y-119186470D01*
X144766470Y-119287517D01*
X144766467Y-119287521D01*
X144687074Y-119406340D01*
X144687069Y-119406349D01*
X144632381Y-119538379D01*
X144632379Y-119538385D01*
X144604500Y-119678542D01*
X144604500Y-119678545D01*
X144604500Y-119821455D01*
X144604500Y-119821457D01*
X144604499Y-119821457D01*
X123602439Y-119821457D01*
X123602514Y-117891002D01*
X146614945Y-117891002D01*
X146642825Y-118031159D01*
X146642827Y-118031165D01*
X146697515Y-118163195D01*
X146697520Y-118163204D01*
X146776913Y-118282023D01*
X146776916Y-118282027D01*
X146877963Y-118383074D01*
X146877967Y-118383077D01*
X146996786Y-118462470D01*
X146996792Y-118462473D01*
X146996793Y-118462474D01*
X147128826Y-118517164D01*
X147128830Y-118517164D01*
X147128831Y-118517165D01*
X147268988Y-118545045D01*
X147268991Y-118545045D01*
X147411903Y-118545045D01*
X147506197Y-118526287D01*
X147552066Y-118517164D01*
X147684099Y-118462474D01*
X147802925Y-118383077D01*
X147903978Y-118282024D01*
X147983375Y-118163198D01*
X148038065Y-118031165D01*
X148065946Y-117891000D01*
X148065946Y-117748090D01*
X148065946Y-117748087D01*
X148038066Y-117607930D01*
X148038065Y-117607929D01*
X148038065Y-117607925D01*
X147983375Y-117475892D01*
X147983374Y-117475891D01*
X147983371Y-117475885D01*
X147903978Y-117357066D01*
X147903975Y-117357062D01*
X147802928Y-117256015D01*
X147802924Y-117256012D01*
X147684105Y-117176619D01*
X147684096Y-117176614D01*
X147552066Y-117121926D01*
X147552060Y-117121924D01*
X147411903Y-117094045D01*
X147411901Y-117094045D01*
X147268991Y-117094045D01*
X147268989Y-117094045D01*
X147128831Y-117121924D01*
X147128825Y-117121926D01*
X146996795Y-117176614D01*
X146996786Y-117176619D01*
X146877967Y-117256012D01*
X146877963Y-117256015D01*
X146776916Y-117357062D01*
X146776913Y-117357066D01*
X146697520Y-117475885D01*
X146697515Y-117475894D01*
X146642827Y-117607924D01*
X146642825Y-117607930D01*
X146614946Y-117748087D01*
X146614946Y-117748090D01*
X146614946Y-117891000D01*
X146614946Y-117891002D01*
X146614945Y-117891002D01*
X123602514Y-117891002D01*
X123603005Y-105158104D01*
X123622692Y-105091070D01*
X123675277Y-105045418D01*
X135540199Y-99599785D01*
X135573574Y-99585961D01*
X135576332Y-99583201D01*
X135579879Y-99581574D01*
X135579880Y-99581572D01*
X135579882Y-99581572D01*
X135602882Y-99556774D01*
X135606059Y-99553474D01*
X135629976Y-99529559D01*
X135629978Y-99529552D01*
X135633390Y-99524446D01*
X135633391Y-99524445D01*
X135633404Y-99524425D01*
X135633909Y-99523668D01*
X135634122Y-99523092D01*
X135634124Y-99523091D01*
X135646683Y-99489222D01*
X135660500Y-99455867D01*
X135660500Y-99451965D01*
X135661858Y-99448304D01*
X135660587Y-99414537D01*
X135660500Y-99409875D01*
X135660500Y-93361153D01*
X137409500Y-93361153D01*
X137409500Y-93518846D01*
X137440261Y-93673489D01*
X137440264Y-93673501D01*
X137500602Y-93819172D01*
X137500609Y-93819185D01*
X137588210Y-93950288D01*
X137588213Y-93950292D01*
X137699707Y-94061786D01*
X137699711Y-94061789D01*
X137830814Y-94149390D01*
X137830827Y-94149397D01*
X137976498Y-94209735D01*
X137976503Y-94209737D01*
X138131153Y-94240499D01*
X138131156Y-94240500D01*
X138131158Y-94240500D01*
X138288844Y-94240500D01*
X138288845Y-94240499D01*
X138443497Y-94209737D01*
X138589179Y-94149394D01*
X138720289Y-94061789D01*
X138831789Y-93950289D01*
X138919394Y-93819179D01*
X138979737Y-93673497D01*
X139010500Y-93518842D01*
X139010500Y-93361158D01*
X139010500Y-93361155D01*
X139010499Y-93361153D01*
X138979738Y-93206510D01*
X138979737Y-93206503D01*
X138979735Y-93206498D01*
X138919397Y-93060827D01*
X138919390Y-93060814D01*
X138831789Y-92929711D01*
X138831786Y-92929707D01*
X138720292Y-92818213D01*
X138720288Y-92818210D01*
X138589185Y-92730609D01*
X138589172Y-92730602D01*
X138443501Y-92670264D01*
X138443489Y-92670261D01*
X138288845Y-92639500D01*
X138288842Y-92639500D01*
X138131158Y-92639500D01*
X138131155Y-92639500D01*
X137976510Y-92670261D01*
X137976498Y-92670264D01*
X137830827Y-92730602D01*
X137830814Y-92730609D01*
X137699711Y-92818210D01*
X137699707Y-92818213D01*
X137588213Y-92929707D01*
X137588210Y-92929711D01*
X137500609Y-93060814D01*
X137500602Y-93060827D01*
X137440264Y-93206498D01*
X137440261Y-93206510D01*
X137409500Y-93361153D01*
X135660500Y-93361153D01*
X135660500Y-93014324D01*
X135660501Y-93014315D01*
X135660501Y-92261457D01*
X141059499Y-92261457D01*
X141087379Y-92401614D01*
X141087381Y-92401620D01*
X141142069Y-92533650D01*
X141142074Y-92533659D01*
X141221467Y-92652478D01*
X141221470Y-92652482D01*
X141322517Y-92753529D01*
X141322521Y-92753532D01*
X141441340Y-92832925D01*
X141441346Y-92832928D01*
X141441347Y-92832929D01*
X141573380Y-92887619D01*
X141573384Y-92887619D01*
X141573385Y-92887620D01*
X141713542Y-92915500D01*
X141713545Y-92915500D01*
X141856457Y-92915500D01*
X141950751Y-92896742D01*
X141996620Y-92887619D01*
X142128653Y-92832929D01*
X142247479Y-92753532D01*
X142348532Y-92652479D01*
X142427929Y-92533653D01*
X142482619Y-92401620D01*
X142510500Y-92261455D01*
X142510500Y-92118545D01*
X142510500Y-92118542D01*
X142482620Y-91978385D01*
X142482619Y-91978384D01*
X142482619Y-91978380D01*
X142427929Y-91846347D01*
X142427928Y-91846346D01*
X142427925Y-91846340D01*
X142348532Y-91727521D01*
X142348529Y-91727517D01*
X142247482Y-91626470D01*
X142247478Y-91626467D01*
X142128659Y-91547074D01*
X142128650Y-91547069D01*
X141996620Y-91492381D01*
X141996614Y-91492379D01*
X141856457Y-91464500D01*
X141856455Y-91464500D01*
X141713545Y-91464500D01*
X141713543Y-91464500D01*
X141573385Y-91492379D01*
X141573379Y-91492381D01*
X141441349Y-91547069D01*
X141441340Y-91547074D01*
X141322521Y-91626467D01*
X141322517Y-91626470D01*
X141221470Y-91727517D01*
X141221467Y-91727521D01*
X141142074Y-91846340D01*
X141142069Y-91846349D01*
X141087381Y-91978379D01*
X141087379Y-91978385D01*
X141059500Y-92118542D01*
X141059500Y-92118545D01*
X141059500Y-92261455D01*
X141059500Y-92261457D01*
X141059499Y-92261457D01*
X135660501Y-92261457D01*
X135660501Y-90451457D01*
X142107899Y-90451457D01*
X142135779Y-90591614D01*
X142135781Y-90591620D01*
X142190469Y-90723650D01*
X142190474Y-90723659D01*
X142269867Y-90842478D01*
X142269870Y-90842482D01*
X142370917Y-90943529D01*
X142370921Y-90943532D01*
X142489740Y-91022925D01*
X142489749Y-91022930D01*
X142519658Y-91035318D01*
X142621780Y-91077619D01*
X142621784Y-91077619D01*
X142621785Y-91077620D01*
X142761942Y-91105500D01*
X142761945Y-91105500D01*
X142904857Y-91105500D01*
X142999151Y-91086742D01*
X143045020Y-91077619D01*
X143112547Y-91049647D01*
X143182015Y-91042178D01*
X143207450Y-91049647D01*
X143237513Y-91062099D01*
X143274974Y-91077617D01*
X143274977Y-91077617D01*
X143274980Y-91077619D01*
X143274984Y-91077619D01*
X143274985Y-91077620D01*
X143415142Y-91105500D01*
X143415145Y-91105500D01*
X143558057Y-91105500D01*
X143652351Y-91086742D01*
X143698220Y-91077619D01*
X143830253Y-91022929D01*
X143949079Y-90943532D01*
X144050132Y-90842479D01*
X144129529Y-90723653D01*
X144184219Y-90591620D01*
X144212100Y-90451455D01*
X144212100Y-90308545D01*
X144212100Y-90308542D01*
X144184220Y-90168385D01*
X144184219Y-90168384D01*
X144184219Y-90168380D01*
X144129529Y-90036347D01*
X144129528Y-90036346D01*
X144129525Y-90036340D01*
X144050132Y-89917521D01*
X144050129Y-89917517D01*
X143949082Y-89816470D01*
X143949078Y-89816467D01*
X143830259Y-89737074D01*
X143830250Y-89737069D01*
X143698220Y-89682381D01*
X143698214Y-89682379D01*
X143558057Y-89654500D01*
X143558055Y-89654500D01*
X143415145Y-89654500D01*
X143415143Y-89654500D01*
X143274985Y-89682379D01*
X143274984Y-89682379D01*
X143207452Y-89710352D01*
X143137982Y-89717820D01*
X143112548Y-89710352D01*
X143045015Y-89682379D01*
X142904857Y-89654500D01*
X142904855Y-89654500D01*
X142761945Y-89654500D01*
X142761943Y-89654500D01*
X142621785Y-89682379D01*
X142621779Y-89682381D01*
X142489749Y-89737069D01*
X142489740Y-89737074D01*
X142370921Y-89816467D01*
X142370917Y-89816470D01*
X142269870Y-89917517D01*
X142269867Y-89917521D01*
X142190474Y-90036340D01*
X142190469Y-90036349D01*
X142135781Y-90168379D01*
X142135779Y-90168385D01*
X142107900Y-90308542D01*
X142107900Y-90308545D01*
X142107900Y-90451455D01*
X142107900Y-90451457D01*
X142107899Y-90451457D01*
X135660501Y-90451457D01*
X135660501Y-90302453D01*
X135660500Y-88711457D01*
X143824499Y-88711457D01*
X143852379Y-88851614D01*
X143852381Y-88851620D01*
X143907069Y-88983650D01*
X143907074Y-88983659D01*
X143986467Y-89102478D01*
X143986470Y-89102482D01*
X144087517Y-89203529D01*
X144087521Y-89203532D01*
X144206340Y-89282925D01*
X144206349Y-89282930D01*
X144236258Y-89295318D01*
X144338380Y-89337619D01*
X144338384Y-89337619D01*
X144338385Y-89337620D01*
X144478542Y-89365500D01*
X144478545Y-89365500D01*
X144621457Y-89365500D01*
X144715751Y-89346742D01*
X144761620Y-89337619D01*
X144829147Y-89309647D01*
X144898615Y-89302178D01*
X144924050Y-89309647D01*
X144954113Y-89322099D01*
X144991574Y-89337617D01*
X144991577Y-89337617D01*
X144991580Y-89337619D01*
X144991584Y-89337619D01*
X144991585Y-89337620D01*
X145131742Y-89365500D01*
X145131745Y-89365500D01*
X145274657Y-89365500D01*
X145368951Y-89346742D01*
X145414820Y-89337619D01*
X145546853Y-89282929D01*
X145665679Y-89203532D01*
X145766732Y-89102479D01*
X145846129Y-88983653D01*
X145900819Y-88851620D01*
X145928700Y-88711455D01*
X145928700Y-88568545D01*
X145928700Y-88568542D01*
X145900820Y-88428385D01*
X145900819Y-88428384D01*
X145900819Y-88428380D01*
X145846129Y-88296347D01*
X145846128Y-88296346D01*
X145846125Y-88296340D01*
X145766732Y-88177521D01*
X145766729Y-88177517D01*
X145665682Y-88076470D01*
X145665678Y-88076467D01*
X145546859Y-87997074D01*
X145546850Y-87997069D01*
X145414820Y-87942381D01*
X145414814Y-87942379D01*
X145274657Y-87914500D01*
X145274655Y-87914500D01*
X145131745Y-87914500D01*
X145131743Y-87914500D01*
X144991585Y-87942379D01*
X144991584Y-87942379D01*
X144924052Y-87970352D01*
X144854582Y-87977820D01*
X144829148Y-87970352D01*
X144761615Y-87942379D01*
X144621457Y-87914500D01*
X144621455Y-87914500D01*
X144478545Y-87914500D01*
X144478543Y-87914500D01*
X144338385Y-87942379D01*
X144338379Y-87942381D01*
X144206349Y-87997069D01*
X144206340Y-87997074D01*
X144087521Y-88076467D01*
X144087517Y-88076470D01*
X143986470Y-88177517D01*
X143986467Y-88177521D01*
X143907074Y-88296340D01*
X143907069Y-88296349D01*
X143852381Y-88428379D01*
X143852379Y-88428385D01*
X143824500Y-88568542D01*
X143824500Y-88568545D01*
X143824500Y-88711455D01*
X143824500Y-88711457D01*
X143824499Y-88711457D01*
X135660500Y-88711457D01*
X135660500Y-88562453D01*
X135660500Y-87894411D01*
X135680185Y-87827372D01*
X135696819Y-87806730D01*
X135913525Y-87590024D01*
X136212818Y-87290732D01*
X136212818Y-87290730D01*
X136222406Y-87281143D01*
X136222451Y-87281085D01*
X136226428Y-87277110D01*
X136292148Y-87178761D01*
X136337418Y-87069479D01*
X136360498Y-86953466D01*
X136360498Y-86945941D01*
X136360498Y-86934199D01*
X136360500Y-86934197D01*
X136360500Y-86894307D01*
X136360501Y-86854441D01*
X136360500Y-86854438D01*
X136360500Y-86020118D01*
X136360500Y-86007273D01*
X136333207Y-85905413D01*
X136280480Y-85814087D01*
X136205913Y-85739520D01*
X136114587Y-85686793D01*
X136012727Y-85659500D01*
X136012726Y-85659500D01*
X135784500Y-85659500D01*
X135717461Y-85639815D01*
X135671706Y-85587011D01*
X135660500Y-85535500D01*
X135660500Y-84363819D01*
X135661560Y-84347643D01*
X135665169Y-84320238D01*
X135673543Y-84288985D01*
X135680985Y-84271022D01*
X135697165Y-84242998D01*
X135714052Y-84220992D01*
X135724726Y-84208822D01*
X135733029Y-84200521D01*
X135747130Y-84186421D01*
X135747130Y-84186419D01*
X135764564Y-84168987D01*
X135764568Y-84168980D01*
X136812818Y-83120732D01*
X136812818Y-83120730D01*
X136822406Y-83111143D01*
X136822451Y-83111085D01*
X136826428Y-83107110D01*
X136892148Y-83008761D01*
X136937418Y-82899479D01*
X136960498Y-82783466D01*
X136960498Y-82775941D01*
X136960498Y-82764199D01*
X136960500Y-82764197D01*
X136960500Y-82724307D01*
X136960501Y-82684441D01*
X136960500Y-82684438D01*
X136960500Y-81141941D01*
X136980185Y-81074902D01*
X137032989Y-81029147D01*
X137102147Y-81019203D01*
X137165703Y-81048228D01*
X137172181Y-81054260D01*
X137249707Y-81131786D01*
X137249711Y-81131789D01*
X137380814Y-81219390D01*
X137380827Y-81219397D01*
X137526498Y-81279735D01*
X137526503Y-81279737D01*
X137681153Y-81310499D01*
X137681156Y-81310500D01*
X137681158Y-81310500D01*
X137838844Y-81310500D01*
X137838845Y-81310499D01*
X137993497Y-81279737D01*
X138139179Y-81219394D01*
X138241111Y-81151284D01*
X138307786Y-81130408D01*
X138375166Y-81148892D01*
X138378847Y-81151257D01*
X138480821Y-81219394D01*
X138480823Y-81219395D01*
X138480827Y-81219397D01*
X138626498Y-81279735D01*
X138626503Y-81279737D01*
X138781153Y-81310499D01*
X138781156Y-81310500D01*
X138781158Y-81310500D01*
X138938844Y-81310500D01*
X138938845Y-81310499D01*
X139093497Y-81279737D01*
X139239179Y-81219394D01*
X139341111Y-81151284D01*
X139407786Y-81130408D01*
X139475166Y-81148892D01*
X139478847Y-81151257D01*
X139580821Y-81219394D01*
X139580823Y-81219395D01*
X139580827Y-81219397D01*
X139726498Y-81279735D01*
X139726503Y-81279737D01*
X139881153Y-81310499D01*
X139881156Y-81310500D01*
X139881158Y-81310500D01*
X140038844Y-81310500D01*
X140124060Y-81293549D01*
X140193652Y-81299776D01*
X140248829Y-81342639D01*
X140269869Y-81390974D01*
X140290261Y-81493491D01*
X140290264Y-81493501D01*
X140350602Y-81639172D01*
X140350609Y-81639185D01*
X140438210Y-81770288D01*
X140438213Y-81770292D01*
X140549707Y-81881786D01*
X140549711Y-81881789D01*
X140680814Y-81969390D01*
X140680827Y-81969397D01*
X140826498Y-82029735D01*
X140826503Y-82029737D01*
X140981153Y-82060499D01*
X140981156Y-82060500D01*
X140981158Y-82060500D01*
X141138844Y-82060500D01*
X141138845Y-82060499D01*
X141293497Y-82029737D01*
X141439179Y-81969394D01*
X141570289Y-81881789D01*
X141681789Y-81770289D01*
X141769394Y-81639179D01*
X141829737Y-81493497D01*
X141850130Y-81390974D01*
X141882514Y-81329064D01*
X141943230Y-81294490D01*
X141995939Y-81293549D01*
X142081155Y-81310500D01*
X142081158Y-81310500D01*
X142238844Y-81310500D01*
X142238845Y-81310499D01*
X142393497Y-81279737D01*
X142539179Y-81219394D01*
X142670289Y-81131789D01*
X142781789Y-81020289D01*
X142869394Y-80889179D01*
X142929737Y-80743497D01*
X142960500Y-80588842D01*
X142960500Y-80431158D01*
X142960500Y-80431155D01*
X142960499Y-80431153D01*
X142959500Y-80426130D01*
X142929737Y-80276503D01*
X142886224Y-80171452D01*
X142878755Y-80101983D01*
X142910030Y-80039504D01*
X142970119Y-80003852D01*
X143000785Y-80000000D01*
X143600395Y-80000000D01*
X143667434Y-80019685D01*
G37*
%TD.AperFunction*%
%TD*%
D14*
X145330000Y-119750000D03*
X142833400Y-90380000D03*
X134200000Y-132650000D03*
X132914892Y-128811727D03*
X143486600Y-90380000D03*
X147340446Y-117819545D03*
X145203200Y-88640000D03*
X153270000Y-120920000D03*
X143875000Y-131975000D03*
X151750000Y-129300000D03*
X148600000Y-136000000D03*
X136810000Y-83960000D03*
X138460000Y-90810000D03*
X142100000Y-91120000D03*
X140270000Y-83555000D03*
X132850000Y-126600000D03*
X145940000Y-89430000D03*
X143460000Y-88590000D03*
X131150000Y-136000000D03*
X136110000Y-85060000D03*
X139300000Y-123730000D03*
X145810000Y-86960000D03*
X146690000Y-128110000D03*
X156000000Y-123630000D03*
X143000000Y-83405000D03*
X143950000Y-123760000D03*
X144002007Y-90853667D03*
X141250000Y-136350000D03*
X143260000Y-80360000D03*
X149960000Y-123650000D03*
X131300000Y-134400000D03*
X145600000Y-135750000D03*
X141000000Y-149400000D03*
X142500000Y-135850000D03*
X152100000Y-135700000D03*
X147830000Y-128110000D03*
X140020000Y-127950000D03*
X137930000Y-127980000D03*
X145730000Y-83405000D03*
X133550000Y-136250000D03*
X138980000Y-127960000D03*
X134900000Y-128450000D03*
X145970000Y-91900000D03*
X140150000Y-92050000D03*
X144900000Y-128350000D03*
X144550000Y-88640000D03*
X152616800Y-120920000D03*
X143950000Y-134550000D03*
X133950000Y-134650000D03*
X144360000Y-80510000D03*
X150200000Y-129050000D03*
X145460000Y-80510000D03*
X134700000Y-134350000D03*
X138000000Y-152100000D03*
X138860000Y-80510000D03*
X133600000Y-155500000D03*
X137760000Y-80510000D03*
X149500000Y-158750000D03*
X139960000Y-80510000D03*
X136670000Y-130540000D03*
X142160000Y-80510000D03*
X143400000Y-130750000D03*
X149450000Y-164050000D03*
X133850000Y-149900000D03*
X145150000Y-149750000D03*
X131650000Y-153450000D03*
X151250000Y-151250000D03*
X141060000Y-81260000D03*
X145200000Y-151450000D03*
X141060000Y-80360000D03*
X142150000Y-128800000D03*
X132500000Y-150700000D03*
X138210000Y-93440000D03*
X148200000Y-150850000D03*
X131250000Y-149850000D03*
X148725000Y-149325000D03*
X147000000Y-152200000D03*
X141785000Y-92190000D03*
X141080000Y-127970000D03*
X142650000Y-121560000D03*
D15*
X154450000Y-162150000D03*
X154450000Y-164150000D03*
X151000000Y-144325000D03*
X131000000Y-144325000D03*
M02*
