%TF.GenerationSoftware,KiCad,Pcbnew,9.0.2*%
%TF.CreationDate,2025-06-23T10:18:23+08:00*%
%TF.ProjectId,SDEX2M2 MicroSD Express to SD Express Adapter,53444558-324d-4322-904d-6963726f5344,rev?*%
%TF.SameCoordinates,Original*%
%TF.FileFunction,Copper,L3,Inr*%
%TF.FilePolarity,Positive*%
%FSLAX46Y46*%
G04 Gerber Fmt 4.6, Leading zero omitted, Abs format (unit mm)*
G04 Created by KiCad (PCBNEW 9.0.2) date 2025-06-23 10:18:23*
%MOMM*%
%LPD*%
G01*
G04 APERTURE LIST*
%TA.AperFunction,ComponentPad*%
%ADD10O,1.158000X2.558000*%
%TD*%
%TA.AperFunction,ViaPad*%
%ADD11C,0.450000*%
%TD*%
%TA.AperFunction,ViaPad*%
%ADD12C,0.600000*%
%TD*%
%ADD13C,0.300000*%
%ADD14C,0.350000*%
%ADD15O,0.650000X2.050000*%
G04 APERTURE END LIST*
D10*
%TO.N,GND*%
%TO.C,J2*%
X154345000Y-137980000D03*
X128095000Y-137980000D03*
X154345000Y-149280000D03*
X128095000Y-149280000D03*
%TD*%
D11*
%TO.N,/TX+*%
X135410000Y-128810000D03*
X145330000Y-119750000D03*
X142833400Y-90380000D03*
%TO.N,/TX-*%
X132914892Y-128811727D03*
X143486600Y-90380000D03*
X147340446Y-117819545D03*
D12*
%TO.N,Net-(J1-3V3)*%
X141060000Y-81260000D03*
X141060000Y-80360000D03*
X138210000Y-93440000D03*
D11*
%TO.N,/RX+*%
X145203200Y-88640000D03*
X153270000Y-120920000D03*
X145400000Y-128110000D03*
%TO.N,Net-(J1-1V8)*%
X141785000Y-92190000D03*
X141080000Y-127970000D03*
X142650000Y-121560000D03*
D12*
%TO.N,GND*%
X136810000Y-83960000D03*
X138460000Y-90810000D03*
D11*
X142100000Y-91120000D03*
D12*
X156690000Y-149250000D03*
X129150000Y-127940000D03*
X140270000Y-83555000D03*
X156680000Y-137970000D03*
D11*
X145940000Y-89430000D03*
X143460000Y-88590000D03*
D12*
X136110000Y-85060000D03*
X139300000Y-123730000D03*
D11*
X145810000Y-86960000D03*
D12*
X146690000Y-128110000D03*
X156000000Y-123630000D03*
X143000000Y-83405000D03*
X143950000Y-123760000D03*
X144002007Y-90853667D03*
X143260000Y-80360000D03*
X149960000Y-123650000D03*
X147830000Y-128110000D03*
X125530000Y-138020000D03*
X140020000Y-127950000D03*
X125500000Y-149270000D03*
X137930000Y-127980000D03*
X145730000Y-83405000D03*
X138980000Y-127960000D03*
D11*
X145970000Y-91900000D03*
D12*
X140150000Y-92050000D03*
D11*
%TO.N,/RX-*%
X143200000Y-128120000D03*
X144550000Y-88640000D03*
X152616800Y-120920000D03*
%TO.N,/REFCLK+*%
X144360000Y-80510000D03*
%TO.N,/REFCLK-*%
X145460000Y-80510000D03*
D12*
%TO.N,/PERST*%
X138860000Y-80510000D03*
%TO.N,/CLKREQ*%
X137760000Y-80510000D03*
%TO.N,/CMD*%
X139960000Y-80510000D03*
%TO.N,/CLK*%
X142160000Y-80510000D03*
%TD*%
%TA.AperFunction,Conductor*%
%TO.N,Net-(J1-3V3)*%
G36*
X141386254Y-80019685D02*
G01*
X141432009Y-80072489D01*
X141441953Y-80141647D01*
X141433776Y-80171452D01*
X141390264Y-80276498D01*
X141390261Y-80276510D01*
X141359500Y-80431153D01*
X141359500Y-80588846D01*
X141390261Y-80743489D01*
X141390264Y-80743501D01*
X141450602Y-80889172D01*
X141450609Y-80889185D01*
X141538210Y-81020288D01*
X141538213Y-81020292D01*
X141649707Y-81131786D01*
X141649711Y-81131789D01*
X141780814Y-81219390D01*
X141780827Y-81219397D01*
X141926498Y-81279735D01*
X141926503Y-81279737D01*
X142081153Y-81310499D01*
X142081156Y-81310500D01*
X142081158Y-81310500D01*
X142238844Y-81310500D01*
X142238845Y-81310499D01*
X142393497Y-81279737D01*
X142539179Y-81219394D01*
X142670289Y-81131789D01*
X142720060Y-81082018D01*
X142781383Y-81048532D01*
X142851074Y-81053516D01*
X142876635Y-81066598D01*
X142880811Y-81069388D01*
X142880817Y-81069391D01*
X142880821Y-81069394D01*
X142880823Y-81069395D01*
X142880827Y-81069397D01*
X142935585Y-81092078D01*
X143026503Y-81129737D01*
X143181153Y-81160499D01*
X143181156Y-81160500D01*
X143181158Y-81160500D01*
X143338844Y-81160500D01*
X143338845Y-81160499D01*
X143493497Y-81129737D01*
X143608702Y-81082018D01*
X143639172Y-81069397D01*
X143639172Y-81069396D01*
X143639179Y-81069394D01*
X143639184Y-81069390D01*
X143639187Y-81069389D01*
X143706948Y-81024112D01*
X143773625Y-81003233D01*
X143841006Y-81021717D01*
X143863522Y-81039533D01*
X143897517Y-81073529D01*
X143897521Y-81073532D01*
X144016340Y-81152925D01*
X144016349Y-81152930D01*
X144034625Y-81160500D01*
X144148380Y-81207619D01*
X144148384Y-81207619D01*
X144148385Y-81207620D01*
X144288542Y-81235500D01*
X144288545Y-81235500D01*
X144431457Y-81235500D01*
X144525751Y-81216742D01*
X144571620Y-81207619D01*
X144703653Y-81152929D01*
X144822479Y-81073532D01*
X144822483Y-81073527D01*
X144827189Y-81069667D01*
X144827964Y-81070612D01*
X144883627Y-81040210D01*
X144953320Y-81045186D01*
X144992328Y-81070255D01*
X144992811Y-81069667D01*
X144997521Y-81073532D01*
X145116340Y-81152925D01*
X145116349Y-81152930D01*
X145134625Y-81160500D01*
X145248380Y-81207619D01*
X145248384Y-81207619D01*
X145248385Y-81207620D01*
X145388542Y-81235500D01*
X145388545Y-81235500D01*
X145531457Y-81235500D01*
X145625751Y-81216742D01*
X145671620Y-81207619D01*
X145803653Y-81152929D01*
X145922479Y-81073532D01*
X146023532Y-80972479D01*
X146032397Y-80959212D01*
X146086008Y-80914406D01*
X146155333Y-80905697D01*
X146218361Y-80935851D01*
X146255081Y-80995294D01*
X146259500Y-81028101D01*
X146259500Y-82572291D01*
X146239815Y-82639330D01*
X146187011Y-82685085D01*
X146117853Y-82695029D01*
X146088048Y-82686853D01*
X146059397Y-82674985D01*
X145963497Y-82635263D01*
X145963492Y-82635262D01*
X145963489Y-82635261D01*
X145808845Y-82604500D01*
X145808842Y-82604500D01*
X145651158Y-82604500D01*
X145651155Y-82604500D01*
X145496510Y-82635261D01*
X145496498Y-82635264D01*
X145350827Y-82695602D01*
X145350814Y-82695609D01*
X145219711Y-82783210D01*
X145219707Y-82783213D01*
X145108213Y-82894707D01*
X145108210Y-82894711D01*
X145020609Y-83025814D01*
X145020602Y-83025827D01*
X144960264Y-83171498D01*
X144960261Y-83171510D01*
X144929500Y-83326153D01*
X144929500Y-83483846D01*
X144960261Y-83638489D01*
X144960264Y-83638501D01*
X145020602Y-83784172D01*
X145020609Y-83784185D01*
X145108210Y-83915288D01*
X145108213Y-83915292D01*
X145219707Y-84026786D01*
X145219711Y-84026789D01*
X145350814Y-84114390D01*
X145350827Y-84114397D01*
X145496498Y-84174735D01*
X145496503Y-84174737D01*
X145651153Y-84205499D01*
X145651156Y-84205500D01*
X145651158Y-84205500D01*
X145808844Y-84205500D01*
X145808845Y-84205499D01*
X145963497Y-84174737D01*
X146030574Y-84146953D01*
X146088048Y-84123147D01*
X146157517Y-84115678D01*
X146219996Y-84146953D01*
X146255648Y-84207042D01*
X146259500Y-84237708D01*
X146259500Y-86175335D01*
X146239815Y-86242374D01*
X146187011Y-86288129D01*
X146117853Y-86298073D01*
X146088047Y-86289896D01*
X146021620Y-86262381D01*
X146021614Y-86262379D01*
X145881457Y-86234500D01*
X145881455Y-86234500D01*
X145738545Y-86234500D01*
X145738543Y-86234500D01*
X145598385Y-86262379D01*
X145598379Y-86262381D01*
X145466349Y-86317069D01*
X145466340Y-86317074D01*
X145347521Y-86396467D01*
X145347517Y-86396470D01*
X145246470Y-86497517D01*
X145246467Y-86497521D01*
X145167074Y-86616340D01*
X145167069Y-86616349D01*
X145112381Y-86748379D01*
X145112379Y-86748385D01*
X145084500Y-86888542D01*
X145084500Y-86888545D01*
X145084500Y-87031455D01*
X145084500Y-87031457D01*
X145084499Y-87031457D01*
X145112379Y-87171614D01*
X145112381Y-87171620D01*
X145167069Y-87303650D01*
X145167074Y-87303659D01*
X145246467Y-87422478D01*
X145246470Y-87422482D01*
X145347517Y-87523529D01*
X145347521Y-87523532D01*
X145466340Y-87602925D01*
X145466346Y-87602928D01*
X145466347Y-87602929D01*
X145598380Y-87657619D01*
X145598384Y-87657619D01*
X145598385Y-87657620D01*
X145738542Y-87685500D01*
X145738545Y-87685500D01*
X145881457Y-87685500D01*
X145975751Y-87666742D01*
X146021620Y-87657619D01*
X146088050Y-87630102D01*
X146157515Y-87622634D01*
X146219995Y-87653908D01*
X146255648Y-87713997D01*
X146259500Y-87744664D01*
X146259500Y-88602744D01*
X146253564Y-88622957D01*
X146252437Y-88643997D01*
X146243917Y-88655811D01*
X146239815Y-88669783D01*
X146223894Y-88683578D01*
X146211570Y-88700669D01*
X146198016Y-88706001D01*
X146187011Y-88715538D01*
X146166156Y-88718536D01*
X146146552Y-88726250D01*
X146121755Y-88724920D01*
X146117853Y-88725482D01*
X146111309Y-88724361D01*
X146028509Y-88707891D01*
X145966598Y-88675506D01*
X145932024Y-88614791D01*
X145928700Y-88586274D01*
X145928700Y-88568542D01*
X145900820Y-88428385D01*
X145900819Y-88428384D01*
X145900819Y-88428380D01*
X145846129Y-88296347D01*
X145846128Y-88296346D01*
X145846125Y-88296340D01*
X145766732Y-88177521D01*
X145766729Y-88177517D01*
X145665682Y-88076470D01*
X145665678Y-88076467D01*
X145546859Y-87997074D01*
X145546850Y-87997069D01*
X145414820Y-87942381D01*
X145414814Y-87942379D01*
X145274657Y-87914500D01*
X145274655Y-87914500D01*
X145131745Y-87914500D01*
X145131743Y-87914500D01*
X144991585Y-87942379D01*
X144991584Y-87942379D01*
X144924052Y-87970352D01*
X144854582Y-87977820D01*
X144829148Y-87970352D01*
X144761615Y-87942379D01*
X144621457Y-87914500D01*
X144621455Y-87914500D01*
X144478545Y-87914500D01*
X144478543Y-87914500D01*
X144338385Y-87942379D01*
X144338379Y-87942381D01*
X144206349Y-87997069D01*
X144206342Y-87997073D01*
X144103171Y-88066010D01*
X144036494Y-88086887D01*
X143969114Y-88068402D01*
X143946600Y-88050588D01*
X143922482Y-88026470D01*
X143922478Y-88026467D01*
X143803659Y-87947074D01*
X143803650Y-87947069D01*
X143671620Y-87892381D01*
X143671614Y-87892379D01*
X143531457Y-87864500D01*
X143531455Y-87864500D01*
X143388545Y-87864500D01*
X143388543Y-87864500D01*
X143248385Y-87892379D01*
X143248379Y-87892381D01*
X143116349Y-87947069D01*
X143116340Y-87947074D01*
X142997521Y-88026467D01*
X142997517Y-88026470D01*
X142896470Y-88127517D01*
X142896467Y-88127521D01*
X142817074Y-88246340D01*
X142817069Y-88246349D01*
X142762381Y-88378379D01*
X142762379Y-88378385D01*
X142734500Y-88518542D01*
X142734500Y-88518545D01*
X142734500Y-88661455D01*
X142734500Y-88661457D01*
X142734499Y-88661457D01*
X142762379Y-88801614D01*
X142762381Y-88801620D01*
X142817069Y-88933650D01*
X142817074Y-88933659D01*
X142896467Y-89052478D01*
X142896470Y-89052482D01*
X142997517Y-89153529D01*
X142997521Y-89153532D01*
X143116340Y-89232925D01*
X143116346Y-89232928D01*
X143116347Y-89232929D01*
X143248380Y-89287619D01*
X143248384Y-89287619D01*
X143248385Y-89287620D01*
X143388542Y-89315500D01*
X143388545Y-89315500D01*
X143531457Y-89315500D01*
X143659690Y-89289992D01*
X143671620Y-89287619D01*
X143803653Y-89232929D01*
X143906827Y-89163989D01*
X143973504Y-89143112D01*
X144040884Y-89161596D01*
X144063399Y-89179411D01*
X144087517Y-89203529D01*
X144087521Y-89203532D01*
X144206340Y-89282925D01*
X144206349Y-89282930D01*
X144236258Y-89295318D01*
X144338380Y-89337619D01*
X144338384Y-89337619D01*
X144338385Y-89337620D01*
X144478542Y-89365500D01*
X144478545Y-89365500D01*
X144621457Y-89365500D01*
X144715751Y-89346742D01*
X144761620Y-89337619D01*
X144829147Y-89309647D01*
X144852446Y-89307142D01*
X144874837Y-89300221D01*
X144889929Y-89303111D01*
X144898615Y-89302178D01*
X144909840Y-89304746D01*
X144917086Y-89306762D01*
X144991580Y-89337619D01*
X145119261Y-89363016D01*
X145123740Y-89364263D01*
X145149610Y-89380374D01*
X145176602Y-89394493D01*
X145178975Y-89398661D01*
X145183049Y-89401198D01*
X145196103Y-89428739D01*
X145211176Y-89455209D01*
X145212000Y-89462277D01*
X145212975Y-89464335D01*
X145212588Y-89467325D01*
X145214500Y-89483725D01*
X145214500Y-89501455D01*
X145214500Y-89501457D01*
X145214499Y-89501457D01*
X145242379Y-89641614D01*
X145242381Y-89641620D01*
X145297069Y-89773650D01*
X145297074Y-89773659D01*
X145376467Y-89892478D01*
X145376470Y-89892482D01*
X145477517Y-89993529D01*
X145477521Y-89993532D01*
X145596340Y-90072925D01*
X145596346Y-90072928D01*
X145596347Y-90072929D01*
X145728380Y-90127619D01*
X145728384Y-90127619D01*
X145728385Y-90127620D01*
X145868542Y-90155500D01*
X145868545Y-90155500D01*
X146011457Y-90155500D01*
X146111308Y-90135638D01*
X146180900Y-90141865D01*
X146236077Y-90184728D01*
X146259322Y-90250617D01*
X146259500Y-90257255D01*
X146259500Y-91066777D01*
X146239815Y-91133816D01*
X146187011Y-91179571D01*
X146117853Y-91189515D01*
X146111309Y-91188394D01*
X146041459Y-91174500D01*
X146041455Y-91174500D01*
X145898545Y-91174500D01*
X145898543Y-91174500D01*
X145758385Y-91202379D01*
X145758379Y-91202381D01*
X145626349Y-91257069D01*
X145626340Y-91257074D01*
X145507521Y-91336467D01*
X145507517Y-91336470D01*
X145406470Y-91437517D01*
X145406467Y-91437521D01*
X145327074Y-91556340D01*
X145327069Y-91556349D01*
X145272381Y-91688379D01*
X145272379Y-91688385D01*
X145244500Y-91828542D01*
X145244500Y-91828545D01*
X145244500Y-91971455D01*
X145244500Y-91971457D01*
X145244499Y-91971457D01*
X145272379Y-92111614D01*
X145272381Y-92111620D01*
X145327069Y-92243650D01*
X145327074Y-92243659D01*
X145406467Y-92362478D01*
X145406470Y-92362482D01*
X145507517Y-92463529D01*
X145507521Y-92463532D01*
X145626340Y-92542925D01*
X145626346Y-92542928D01*
X145626347Y-92542929D01*
X145758380Y-92597619D01*
X145758384Y-92597619D01*
X145758385Y-92597620D01*
X145898542Y-92625500D01*
X145898545Y-92625500D01*
X146041456Y-92625500D01*
X146066766Y-92620465D01*
X146111308Y-92611605D01*
X146180899Y-92617832D01*
X146236077Y-92660694D01*
X146259322Y-92726584D01*
X146259500Y-92733222D01*
X146259500Y-92920118D01*
X146259500Y-99412153D01*
X146258125Y-99448193D01*
X146259500Y-99451907D01*
X146259500Y-99455867D01*
X146272405Y-99487024D01*
X146274115Y-99491387D01*
X146285815Y-99522993D01*
X146289074Y-99528298D01*
X146289569Y-99529104D01*
X146313833Y-99553368D01*
X146317112Y-99556774D01*
X146340027Y-99581507D01*
X146340029Y-99581507D01*
X146345083Y-99585171D01*
X146345084Y-99585172D01*
X146345836Y-99585717D01*
X146377546Y-99598851D01*
X146381879Y-99600743D01*
X158227288Y-105045316D01*
X158279979Y-105091198D01*
X158299500Y-105157983D01*
X158299500Y-169745500D01*
X158279815Y-169812539D01*
X158227011Y-169858294D01*
X158175500Y-169869500D01*
X123724512Y-169869500D01*
X123657473Y-169849815D01*
X123611718Y-169797011D01*
X123600512Y-169745495D01*
X123601306Y-149191153D01*
X124699500Y-149191153D01*
X124699500Y-149348846D01*
X124730261Y-149503489D01*
X124730264Y-149503501D01*
X124790602Y-149649172D01*
X124790609Y-149649185D01*
X124878210Y-149780288D01*
X124878213Y-149780292D01*
X124989707Y-149891786D01*
X124989711Y-149891789D01*
X125120814Y-149979390D01*
X125120827Y-149979397D01*
X125266498Y-150039735D01*
X125266503Y-150039737D01*
X125393297Y-150064958D01*
X125421153Y-150070499D01*
X125421156Y-150070500D01*
X125421158Y-150070500D01*
X125578844Y-150070500D01*
X125578845Y-150070499D01*
X125733497Y-150039737D01*
X125879179Y-149979394D01*
X126010289Y-149891789D01*
X126121789Y-149780289D01*
X126209394Y-149649179D01*
X126269737Y-149503497D01*
X126300500Y-149348842D01*
X126300500Y-149191158D01*
X126300500Y-149191155D01*
X126300499Y-149191153D01*
X126269738Y-149036510D01*
X126269737Y-149036503D01*
X126261451Y-149016498D01*
X126209397Y-148890827D01*
X126209390Y-148890814D01*
X126121789Y-148759711D01*
X126121786Y-148759707D01*
X126010292Y-148648213D01*
X126010288Y-148648210D01*
X125928068Y-148593272D01*
X125879185Y-148560609D01*
X125879172Y-148560602D01*
X125733501Y-148500264D01*
X125733489Y-148500261D01*
X125707221Y-148495036D01*
X127015500Y-148495036D01*
X127015500Y-150064963D01*
X127042080Y-150232784D01*
X127094589Y-150394388D01*
X127171729Y-150545781D01*
X127271604Y-150683247D01*
X127391753Y-150803396D01*
X127529219Y-150903271D01*
X127600745Y-150939715D01*
X127680611Y-150980410D01*
X127680613Y-150980410D01*
X127680616Y-150980412D01*
X127767237Y-151008557D01*
X127842215Y-151032919D01*
X128010037Y-151059500D01*
X128010042Y-151059500D01*
X128179963Y-151059500D01*
X128347784Y-151032919D01*
X128509384Y-150980412D01*
X128660781Y-150903271D01*
X128798247Y-150803396D01*
X128918396Y-150683247D01*
X129018271Y-150545781D01*
X129095412Y-150394384D01*
X129147919Y-150232784D01*
X129174500Y-150064963D01*
X129174500Y-148495036D01*
X153265500Y-148495036D01*
X153265500Y-150064963D01*
X153292080Y-150232784D01*
X153344589Y-150394388D01*
X153421729Y-150545781D01*
X153521604Y-150683247D01*
X153641753Y-150803396D01*
X153779219Y-150903271D01*
X153850745Y-150939715D01*
X153930611Y-150980410D01*
X153930613Y-150980410D01*
X153930616Y-150980412D01*
X154017237Y-151008557D01*
X154092215Y-151032919D01*
X154260037Y-151059500D01*
X154260042Y-151059500D01*
X154429963Y-151059500D01*
X154597784Y-151032919D01*
X154759384Y-150980412D01*
X154910781Y-150903271D01*
X155048247Y-150803396D01*
X155168396Y-150683247D01*
X155268271Y-150545781D01*
X155345412Y-150394384D01*
X155397919Y-150232784D01*
X155424500Y-150064963D01*
X155424500Y-149171153D01*
X155889500Y-149171153D01*
X155889500Y-149328846D01*
X155920261Y-149483489D01*
X155920264Y-149483501D01*
X155980602Y-149629172D01*
X155980609Y-149629185D01*
X156068210Y-149760288D01*
X156068213Y-149760292D01*
X156179707Y-149871786D01*
X156179711Y-149871789D01*
X156310814Y-149959390D01*
X156310827Y-149959397D01*
X156456498Y-150019735D01*
X156456503Y-150019737D01*
X156611153Y-150050499D01*
X156611156Y-150050500D01*
X156611158Y-150050500D01*
X156768844Y-150050500D01*
X156768845Y-150050499D01*
X156923497Y-150019737D01*
X157069179Y-149959394D01*
X157200289Y-149871789D01*
X157311789Y-149760289D01*
X157399394Y-149629179D01*
X157459737Y-149483497D01*
X157490500Y-149328842D01*
X157490500Y-149171158D01*
X157490500Y-149171155D01*
X157490499Y-149171153D01*
X157459737Y-149016503D01*
X157407681Y-148890827D01*
X157399397Y-148870827D01*
X157399390Y-148870814D01*
X157311789Y-148739711D01*
X157311786Y-148739707D01*
X157200292Y-148628213D01*
X157200288Y-148628210D01*
X157069185Y-148540609D01*
X157069172Y-148540602D01*
X156923501Y-148480264D01*
X156923489Y-148480261D01*
X156768845Y-148449500D01*
X156768842Y-148449500D01*
X156611158Y-148449500D01*
X156611155Y-148449500D01*
X156456510Y-148480261D01*
X156456498Y-148480264D01*
X156310827Y-148540602D01*
X156310814Y-148540609D01*
X156179711Y-148628210D01*
X156179707Y-148628213D01*
X156068213Y-148739707D01*
X156068210Y-148739711D01*
X155980609Y-148870814D01*
X155980602Y-148870827D01*
X155920264Y-149016498D01*
X155920261Y-149016510D01*
X155889500Y-149171153D01*
X155424500Y-149171153D01*
X155424500Y-148495036D01*
X155397919Y-148327215D01*
X155345410Y-148165611D01*
X155268270Y-148014218D01*
X155168396Y-147876753D01*
X155048247Y-147756604D01*
X154910781Y-147656729D01*
X154759388Y-147579589D01*
X154597784Y-147527080D01*
X154429963Y-147500500D01*
X154429958Y-147500500D01*
X154260042Y-147500500D01*
X154260037Y-147500500D01*
X154092215Y-147527080D01*
X153930611Y-147579589D01*
X153779218Y-147656729D01*
X153700789Y-147713711D01*
X153641753Y-147756604D01*
X153641751Y-147756606D01*
X153641750Y-147756606D01*
X153521606Y-147876750D01*
X153521606Y-147876751D01*
X153521604Y-147876753D01*
X153478711Y-147935789D01*
X153421729Y-148014218D01*
X153344589Y-148165611D01*
X153292080Y-148327215D01*
X153265500Y-148495036D01*
X129174500Y-148495036D01*
X129147919Y-148327215D01*
X129095410Y-148165611D01*
X129018270Y-148014218D01*
X128918396Y-147876753D01*
X128798247Y-147756604D01*
X128660781Y-147656729D01*
X128509388Y-147579589D01*
X128347784Y-147527080D01*
X128179963Y-147500500D01*
X128179958Y-147500500D01*
X128010042Y-147500500D01*
X128010037Y-147500500D01*
X127842215Y-147527080D01*
X127680611Y-147579589D01*
X127529218Y-147656729D01*
X127450789Y-147713711D01*
X127391753Y-147756604D01*
X127391751Y-147756606D01*
X127391750Y-147756606D01*
X127271606Y-147876750D01*
X127271606Y-147876751D01*
X127271604Y-147876753D01*
X127228711Y-147935789D01*
X127171729Y-148014218D01*
X127094589Y-148165611D01*
X127042080Y-148327215D01*
X127015500Y-148495036D01*
X125707221Y-148495036D01*
X125578845Y-148469500D01*
X125578842Y-148469500D01*
X125421158Y-148469500D01*
X125421155Y-148469500D01*
X125266510Y-148500261D01*
X125266498Y-148500264D01*
X125120827Y-148560602D01*
X125120814Y-148560609D01*
X124989711Y-148648210D01*
X124989707Y-148648213D01*
X124878213Y-148759707D01*
X124878210Y-148759711D01*
X124790609Y-148890814D01*
X124790602Y-148890827D01*
X124730264Y-149036498D01*
X124730261Y-149036510D01*
X124699500Y-149191153D01*
X123601306Y-149191153D01*
X123601306Y-149185061D01*
X123601676Y-139603270D01*
X123601740Y-137941153D01*
X124729500Y-137941153D01*
X124729500Y-138098846D01*
X124760261Y-138253489D01*
X124760264Y-138253501D01*
X124820602Y-138399172D01*
X124820609Y-138399185D01*
X124908210Y-138530288D01*
X124908213Y-138530292D01*
X125019707Y-138641786D01*
X125019711Y-138641789D01*
X125150814Y-138729390D01*
X125150827Y-138729397D01*
X125250060Y-138770500D01*
X125296503Y-138789737D01*
X125451153Y-138820499D01*
X125451156Y-138820500D01*
X125451158Y-138820500D01*
X125608844Y-138820500D01*
X125608845Y-138820499D01*
X125763497Y-138789737D01*
X125909179Y-138729394D01*
X126040289Y-138641789D01*
X126151789Y-138530289D01*
X126239394Y-138399179D01*
X126299737Y-138253497D01*
X126330500Y-138098842D01*
X126330500Y-137941158D01*
X126330500Y-137941155D01*
X126330499Y-137941153D01*
X126299738Y-137786510D01*
X126299737Y-137786503D01*
X126299735Y-137786498D01*
X126239397Y-137640827D01*
X126239390Y-137640814D01*
X126151789Y-137509711D01*
X126151786Y-137509707D01*
X126040292Y-137398213D01*
X126040288Y-137398210D01*
X125909185Y-137310609D01*
X125909175Y-137310604D01*
X125894996Y-137304731D01*
X125894994Y-137304730D01*
X125763501Y-137250264D01*
X125763489Y-137250261D01*
X125608845Y-137219500D01*
X125608842Y-137219500D01*
X125451158Y-137219500D01*
X125451155Y-137219500D01*
X125296510Y-137250261D01*
X125296498Y-137250264D01*
X125150827Y-137310602D01*
X125150814Y-137310609D01*
X125019711Y-137398210D01*
X125019707Y-137398213D01*
X124908213Y-137509707D01*
X124908210Y-137509711D01*
X124820609Y-137640814D01*
X124820602Y-137640827D01*
X124760264Y-137786498D01*
X124760261Y-137786510D01*
X124729500Y-137941153D01*
X123601740Y-137941153D01*
X123601769Y-137195036D01*
X127015500Y-137195036D01*
X127015500Y-138764963D01*
X127042080Y-138932784D01*
X127094589Y-139094388D01*
X127171729Y-139245781D01*
X127271604Y-139383247D01*
X127391753Y-139503396D01*
X127529219Y-139603271D01*
X127600745Y-139639715D01*
X127680611Y-139680410D01*
X127680613Y-139680410D01*
X127680616Y-139680412D01*
X127767237Y-139708557D01*
X127842215Y-139732919D01*
X128010037Y-139759500D01*
X128010042Y-139759500D01*
X128179963Y-139759500D01*
X128347784Y-139732919D01*
X128509384Y-139680412D01*
X128660781Y-139603271D01*
X128798247Y-139503396D01*
X128918396Y-139383247D01*
X129018271Y-139245781D01*
X129095412Y-139094384D01*
X129147919Y-138932784D01*
X129174500Y-138764963D01*
X129174500Y-137195036D01*
X153265500Y-137195036D01*
X153265500Y-138764963D01*
X153292080Y-138932784D01*
X153344589Y-139094388D01*
X153421729Y-139245781D01*
X153521604Y-139383247D01*
X153641753Y-139503396D01*
X153779219Y-139603271D01*
X153850745Y-139639715D01*
X153930611Y-139680410D01*
X153930613Y-139680410D01*
X153930616Y-139680412D01*
X154017237Y-139708557D01*
X154092215Y-139732919D01*
X154260037Y-139759500D01*
X154260042Y-139759500D01*
X154429963Y-139759500D01*
X154597784Y-139732919D01*
X154759384Y-139680412D01*
X154910781Y-139603271D01*
X155048247Y-139503396D01*
X155168396Y-139383247D01*
X155268271Y-139245781D01*
X155345412Y-139094384D01*
X155397919Y-138932784D01*
X155424500Y-138764963D01*
X155424500Y-137891153D01*
X155879500Y-137891153D01*
X155879500Y-138048846D01*
X155910261Y-138203489D01*
X155910264Y-138203501D01*
X155970602Y-138349172D01*
X155970609Y-138349185D01*
X156058210Y-138480288D01*
X156058213Y-138480292D01*
X156169707Y-138591786D01*
X156169711Y-138591789D01*
X156300814Y-138679390D01*
X156300827Y-138679397D01*
X156446498Y-138739735D01*
X156446503Y-138739737D01*
X156573297Y-138764958D01*
X156601153Y-138770499D01*
X156601156Y-138770500D01*
X156601158Y-138770500D01*
X156758844Y-138770500D01*
X156758845Y-138770499D01*
X156913497Y-138739737D01*
X157059179Y-138679394D01*
X157190289Y-138591789D01*
X157301789Y-138480289D01*
X157389394Y-138349179D01*
X157449737Y-138203497D01*
X157480500Y-138048842D01*
X157480500Y-137891158D01*
X157480500Y-137891155D01*
X157480499Y-137891153D01*
X157459684Y-137786510D01*
X157449737Y-137736503D01*
X157410102Y-137640814D01*
X157389397Y-137590827D01*
X157389390Y-137590814D01*
X157301789Y-137459711D01*
X157301786Y-137459707D01*
X157190292Y-137348213D01*
X157190288Y-137348210D01*
X157059185Y-137260609D01*
X157059172Y-137260602D01*
X156913501Y-137200264D01*
X156913489Y-137200261D01*
X156758845Y-137169500D01*
X156758842Y-137169500D01*
X156601158Y-137169500D01*
X156601155Y-137169500D01*
X156446510Y-137200261D01*
X156446498Y-137200264D01*
X156300827Y-137260602D01*
X156300814Y-137260609D01*
X156169711Y-137348210D01*
X156169707Y-137348213D01*
X156058213Y-137459707D01*
X156058210Y-137459711D01*
X155970609Y-137590814D01*
X155970602Y-137590827D01*
X155910264Y-137736498D01*
X155910261Y-137736510D01*
X155879500Y-137891153D01*
X155424500Y-137891153D01*
X155424500Y-137195036D01*
X155397919Y-137027215D01*
X155345410Y-136865611D01*
X155268270Y-136714218D01*
X155168396Y-136576753D01*
X155048247Y-136456604D01*
X154910781Y-136356729D01*
X154759388Y-136279589D01*
X154597784Y-136227080D01*
X154429963Y-136200500D01*
X154429958Y-136200500D01*
X154260042Y-136200500D01*
X154260037Y-136200500D01*
X154092215Y-136227080D01*
X153930611Y-136279589D01*
X153779218Y-136356729D01*
X153700789Y-136413711D01*
X153641753Y-136456604D01*
X153641751Y-136456606D01*
X153641750Y-136456606D01*
X153521606Y-136576750D01*
X153521606Y-136576751D01*
X153521604Y-136576753D01*
X153478711Y-136635789D01*
X153421729Y-136714218D01*
X153344589Y-136865611D01*
X153292080Y-137027215D01*
X153265500Y-137195036D01*
X129174500Y-137195036D01*
X129147919Y-137027215D01*
X129095410Y-136865611D01*
X129018270Y-136714218D01*
X128918396Y-136576753D01*
X128798247Y-136456604D01*
X128660781Y-136356729D01*
X128509388Y-136279589D01*
X128347784Y-136227080D01*
X128179963Y-136200500D01*
X128179958Y-136200500D01*
X128010042Y-136200500D01*
X128010037Y-136200500D01*
X127842215Y-136227080D01*
X127680611Y-136279589D01*
X127529218Y-136356729D01*
X127450789Y-136413711D01*
X127391753Y-136456604D01*
X127391751Y-136456606D01*
X127391750Y-136456606D01*
X127271606Y-136576750D01*
X127271606Y-136576751D01*
X127271604Y-136576753D01*
X127228711Y-136635789D01*
X127171729Y-136714218D01*
X127094589Y-136865611D01*
X127042080Y-137027215D01*
X127015500Y-137195036D01*
X123601769Y-137195036D01*
X123601889Y-134089448D01*
X128669500Y-134089448D01*
X128669500Y-134270551D01*
X128697829Y-134449410D01*
X128753787Y-134621636D01*
X128753788Y-134621639D01*
X128836006Y-134782997D01*
X128942441Y-134929494D01*
X128942445Y-134929499D01*
X129070500Y-135057554D01*
X129070505Y-135057558D01*
X129198287Y-135150396D01*
X129217006Y-135163996D01*
X129322484Y-135217740D01*
X129378360Y-135246211D01*
X129378363Y-135246212D01*
X129464476Y-135274191D01*
X129550591Y-135302171D01*
X129633429Y-135315291D01*
X129729449Y-135330500D01*
X129729454Y-135330500D01*
X129910551Y-135330500D01*
X129997259Y-135316765D01*
X130089409Y-135302171D01*
X130261639Y-135246211D01*
X130422994Y-135163996D01*
X130569501Y-135057553D01*
X130697553Y-134929501D01*
X130803996Y-134782994D01*
X130886211Y-134621639D01*
X130942171Y-134449409D01*
X130956765Y-134357259D01*
X130970500Y-134270551D01*
X130970500Y-134089448D01*
X151469500Y-134089448D01*
X151469500Y-134270551D01*
X151497829Y-134449410D01*
X151553787Y-134621636D01*
X151553788Y-134621639D01*
X151636006Y-134782997D01*
X151742441Y-134929494D01*
X151742445Y-134929499D01*
X151870500Y-135057554D01*
X151870505Y-135057558D01*
X151998287Y-135150396D01*
X152017006Y-135163996D01*
X152122484Y-135217740D01*
X152178360Y-135246211D01*
X152178363Y-135246212D01*
X152264476Y-135274191D01*
X152350591Y-135302171D01*
X152433429Y-135315291D01*
X152529449Y-135330500D01*
X152529454Y-135330500D01*
X152710551Y-135330500D01*
X152797259Y-135316765D01*
X152889409Y-135302171D01*
X153061639Y-135246211D01*
X153222994Y-135163996D01*
X153369501Y-135057553D01*
X153497553Y-134929501D01*
X153603996Y-134782994D01*
X153686211Y-134621639D01*
X153742171Y-134449409D01*
X153756765Y-134357259D01*
X153770500Y-134270551D01*
X153770500Y-134089448D01*
X153754019Y-133985397D01*
X153742171Y-133910591D01*
X153686211Y-133738361D01*
X153686211Y-133738360D01*
X153657740Y-133682484D01*
X153603996Y-133577006D01*
X153590396Y-133558287D01*
X153497558Y-133430505D01*
X153497554Y-133430500D01*
X153369499Y-133302445D01*
X153369494Y-133302441D01*
X153222997Y-133196006D01*
X153222996Y-133196005D01*
X153222994Y-133196004D01*
X153171300Y-133169664D01*
X153061639Y-133113788D01*
X153061636Y-133113787D01*
X152889410Y-133057829D01*
X152710551Y-133029500D01*
X152710546Y-133029500D01*
X152529454Y-133029500D01*
X152529449Y-133029500D01*
X152350589Y-133057829D01*
X152178363Y-133113787D01*
X152178360Y-133113788D01*
X152017002Y-133196006D01*
X151870505Y-133302441D01*
X151870500Y-133302445D01*
X151742445Y-133430500D01*
X151742441Y-133430505D01*
X151636006Y-133577002D01*
X151553788Y-133738360D01*
X151553787Y-133738363D01*
X151497829Y-133910589D01*
X151469500Y-134089448D01*
X130970500Y-134089448D01*
X130954019Y-133985397D01*
X130942171Y-133910591D01*
X130886211Y-133738361D01*
X130886211Y-133738360D01*
X130857740Y-133682484D01*
X130803996Y-133577006D01*
X130790396Y-133558287D01*
X130697558Y-133430505D01*
X130697554Y-133430500D01*
X130569499Y-133302445D01*
X130569494Y-133302441D01*
X130422997Y-133196006D01*
X130422996Y-133196005D01*
X130422994Y-133196004D01*
X130371300Y-133169664D01*
X130261639Y-133113788D01*
X130261636Y-133113787D01*
X130089410Y-133057829D01*
X129910551Y-133029500D01*
X129910546Y-133029500D01*
X129729454Y-133029500D01*
X129729449Y-133029500D01*
X129550589Y-133057829D01*
X129378363Y-133113787D01*
X129378360Y-133113788D01*
X129217002Y-133196006D01*
X129070505Y-133302441D01*
X129070500Y-133302445D01*
X128942445Y-133430500D01*
X128942441Y-133430505D01*
X128836006Y-133577002D01*
X128753788Y-133738360D01*
X128753787Y-133738363D01*
X128697829Y-133910589D01*
X128669500Y-134089448D01*
X123601889Y-134089448D01*
X123601909Y-133577006D01*
X123602064Y-129537227D01*
X123602089Y-128883184D01*
X132189391Y-128883184D01*
X132217271Y-129023341D01*
X132217273Y-129023347D01*
X132271961Y-129155377D01*
X132271966Y-129155386D01*
X132351359Y-129274205D01*
X132351362Y-129274209D01*
X132452409Y-129375256D01*
X132452413Y-129375259D01*
X132571232Y-129454652D01*
X132571238Y-129454655D01*
X132571239Y-129454656D01*
X132703272Y-129509346D01*
X132703276Y-129509346D01*
X132703277Y-129509347D01*
X132843434Y-129537227D01*
X132843437Y-129537227D01*
X132986349Y-129537227D01*
X133080643Y-129518469D01*
X133126512Y-129509346D01*
X133258545Y-129454656D01*
X133377371Y-129375259D01*
X133478424Y-129274206D01*
X133557821Y-129155380D01*
X133612511Y-129023347D01*
X133634958Y-128910500D01*
X133640392Y-128883184D01*
X133640392Y-128881457D01*
X134684499Y-128881457D01*
X134712379Y-129021614D01*
X134712381Y-129021620D01*
X134767069Y-129153650D01*
X134767074Y-129153659D01*
X134846467Y-129272478D01*
X134846470Y-129272482D01*
X134947517Y-129373529D01*
X134947521Y-129373532D01*
X135066340Y-129452925D01*
X135066349Y-129452930D01*
X135096258Y-129465318D01*
X135198380Y-129507619D01*
X135198384Y-129507619D01*
X135198385Y-129507620D01*
X135338542Y-129535500D01*
X135338545Y-129535500D01*
X135481457Y-129535500D01*
X135575751Y-129516742D01*
X135621620Y-129507619D01*
X135753653Y-129452929D01*
X135872479Y-129373532D01*
X135973532Y-129272479D01*
X136052929Y-129153653D01*
X136107619Y-129021620D01*
X136116742Y-128975751D01*
X136135500Y-128881457D01*
X136135500Y-128738542D01*
X136107620Y-128598385D01*
X136107619Y-128598384D01*
X136107619Y-128598380D01*
X136053645Y-128468076D01*
X136052930Y-128466349D01*
X136052925Y-128466340D01*
X135973532Y-128347521D01*
X135973529Y-128347517D01*
X135872482Y-128246470D01*
X135872478Y-128246467D01*
X135753659Y-128167074D01*
X135753650Y-128167069D01*
X135621620Y-128112381D01*
X135621614Y-128112379D01*
X135481457Y-128084500D01*
X135481455Y-128084500D01*
X135338545Y-128084500D01*
X135338543Y-128084500D01*
X135198385Y-128112379D01*
X135198379Y-128112381D01*
X135066349Y-128167069D01*
X135066340Y-128167074D01*
X134947521Y-128246467D01*
X134947517Y-128246470D01*
X134846470Y-128347517D01*
X134846467Y-128347521D01*
X134767074Y-128466340D01*
X134767069Y-128466349D01*
X134712381Y-128598379D01*
X134712379Y-128598385D01*
X134684500Y-128738542D01*
X134684500Y-128738545D01*
X134684500Y-128881455D01*
X134684500Y-128881457D01*
X134684499Y-128881457D01*
X133640392Y-128881457D01*
X133640392Y-128740270D01*
X133640391Y-128740269D01*
X133640047Y-128738542D01*
X133612511Y-128600107D01*
X133567022Y-128490288D01*
X133557822Y-128468076D01*
X133557817Y-128468067D01*
X133478424Y-128349248D01*
X133478421Y-128349244D01*
X133377374Y-128248197D01*
X133377370Y-128248194D01*
X133258551Y-128168801D01*
X133258542Y-128168796D01*
X133126512Y-128114108D01*
X133126506Y-128114106D01*
X132986349Y-128086227D01*
X132986347Y-128086227D01*
X132843437Y-128086227D01*
X132843435Y-128086227D01*
X132703277Y-128114106D01*
X132703271Y-128114108D01*
X132571241Y-128168796D01*
X132571232Y-128168801D01*
X132452413Y-128248194D01*
X132452409Y-128248197D01*
X132351362Y-128349244D01*
X132351359Y-128349248D01*
X132271966Y-128468067D01*
X132271961Y-128468076D01*
X132217273Y-128600106D01*
X132217271Y-128600112D01*
X132189392Y-128740269D01*
X132189392Y-128740270D01*
X132189392Y-128740272D01*
X132189392Y-128883182D01*
X132189392Y-128883184D01*
X132189391Y-128883184D01*
X123602089Y-128883184D01*
X123602129Y-127861153D01*
X128349500Y-127861153D01*
X128349500Y-128018846D01*
X128380261Y-128173489D01*
X128380264Y-128173501D01*
X128440602Y-128319172D01*
X128440609Y-128319185D01*
X128528210Y-128450288D01*
X128528213Y-128450292D01*
X128639707Y-128561786D01*
X128639711Y-128561789D01*
X128770814Y-128649390D01*
X128770827Y-128649397D01*
X128916498Y-128709735D01*
X128916503Y-128709737D01*
X129058203Y-128737923D01*
X129071153Y-128740499D01*
X129071156Y-128740500D01*
X129071158Y-128740500D01*
X129228844Y-128740500D01*
X129228845Y-128740499D01*
X129383497Y-128709737D01*
X129496166Y-128663067D01*
X129529172Y-128649397D01*
X129529172Y-128649396D01*
X129529179Y-128649394D01*
X129529186Y-128649388D01*
X129529190Y-128649387D01*
X129556588Y-128631080D01*
X129556592Y-128631078D01*
X129613148Y-128593287D01*
X129660289Y-128561789D01*
X129771789Y-128450289D01*
X129859394Y-128319179D01*
X129861681Y-128313659D01*
X129903167Y-128213501D01*
X129919737Y-128173497D01*
X129950500Y-128018842D01*
X129950500Y-127901153D01*
X137129500Y-127901153D01*
X137129500Y-128058846D01*
X137160261Y-128213489D01*
X137160264Y-128213501D01*
X137220602Y-128359172D01*
X137220609Y-128359185D01*
X137308210Y-128490288D01*
X137308213Y-128490292D01*
X137419707Y-128601786D01*
X137419711Y-128601789D01*
X137550814Y-128689390D01*
X137550827Y-128689397D01*
X137696498Y-128749735D01*
X137696503Y-128749737D01*
X137851153Y-128780499D01*
X137851156Y-128780500D01*
X137851158Y-128780500D01*
X138008844Y-128780500D01*
X138008845Y-128780499D01*
X138163497Y-128749737D01*
X138309179Y-128689394D01*
X138401076Y-128627989D01*
X138467750Y-128607113D01*
X138535131Y-128625597D01*
X138538856Y-128627991D01*
X138600814Y-128669390D01*
X138600827Y-128669397D01*
X138722363Y-128719738D01*
X138746503Y-128729737D01*
X138901153Y-128760499D01*
X138901156Y-128760500D01*
X138901158Y-128760500D01*
X139058844Y-128760500D01*
X139058845Y-128760499D01*
X139213497Y-128729737D01*
X139359179Y-128669394D01*
X139438593Y-128616330D01*
X139505267Y-128595454D01*
X139572648Y-128613938D01*
X139576373Y-128616332D01*
X139640814Y-128659390D01*
X139640827Y-128659397D01*
X139762363Y-128709738D01*
X139786503Y-128719737D01*
X139937312Y-128749735D01*
X139941153Y-128750499D01*
X139941156Y-128750500D01*
X139941158Y-128750500D01*
X140098844Y-128750500D01*
X140098845Y-128750499D01*
X140253497Y-128719737D01*
X140368557Y-128672078D01*
X140399172Y-128659397D01*
X140399172Y-128659396D01*
X140399179Y-128659394D01*
X140530289Y-128571789D01*
X140530289Y-128571788D01*
X140533641Y-128569549D01*
X140600318Y-128548671D01*
X140667698Y-128567155D01*
X140671423Y-128569549D01*
X140736340Y-128612925D01*
X140736349Y-128612930D01*
X140754123Y-128620292D01*
X140868380Y-128667619D01*
X140868384Y-128667619D01*
X140868385Y-128667620D01*
X141008542Y-128695500D01*
X141008545Y-128695500D01*
X141151457Y-128695500D01*
X141245751Y-128676742D01*
X141291620Y-128667619D01*
X141423653Y-128612929D01*
X141542479Y-128533532D01*
X141643532Y-128432479D01*
X141722929Y-128313653D01*
X141773544Y-128191457D01*
X142474499Y-128191457D01*
X142502379Y-128331614D01*
X142502381Y-128331620D01*
X142557069Y-128463650D01*
X142557074Y-128463659D01*
X142636467Y-128582478D01*
X142636470Y-128582482D01*
X142737517Y-128683529D01*
X142737521Y-128683532D01*
X142856340Y-128762925D01*
X142856346Y-128762928D01*
X142856347Y-128762929D01*
X142988380Y-128817619D01*
X142988384Y-128817619D01*
X142988385Y-128817620D01*
X143128542Y-128845500D01*
X143128545Y-128845500D01*
X143271457Y-128845500D01*
X143365751Y-128826742D01*
X143411620Y-128817619D01*
X143543653Y-128762929D01*
X143662479Y-128683532D01*
X143763532Y-128582479D01*
X143842929Y-128463653D01*
X143897619Y-128331620D01*
X143925500Y-128191455D01*
X143925500Y-128181457D01*
X144674499Y-128181457D01*
X144702379Y-128321614D01*
X144702381Y-128321620D01*
X144757069Y-128453650D01*
X144757074Y-128453659D01*
X144836467Y-128572478D01*
X144836470Y-128572482D01*
X144937517Y-128673529D01*
X144937521Y-128673532D01*
X145056340Y-128752925D01*
X145056349Y-128752930D01*
X145074625Y-128760500D01*
X145188380Y-128807619D01*
X145188384Y-128807619D01*
X145188385Y-128807620D01*
X145328542Y-128835500D01*
X145328545Y-128835500D01*
X145471457Y-128835500D01*
X145565751Y-128816742D01*
X145611620Y-128807619D01*
X145743653Y-128752929D01*
X145862479Y-128673532D01*
X145904284Y-128631727D01*
X145965607Y-128598241D01*
X146035298Y-128603225D01*
X146079647Y-128631726D01*
X146179707Y-128731786D01*
X146179711Y-128731789D01*
X146310814Y-128819390D01*
X146310827Y-128819397D01*
X146456498Y-128879735D01*
X146456503Y-128879737D01*
X146611153Y-128910499D01*
X146611156Y-128910500D01*
X146611158Y-128910500D01*
X146768844Y-128910500D01*
X146768845Y-128910499D01*
X146923497Y-128879737D01*
X147069179Y-128819394D01*
X147127388Y-128780500D01*
X147191109Y-128737923D01*
X147257786Y-128717045D01*
X147325166Y-128735529D01*
X147328891Y-128737923D01*
X147450814Y-128819390D01*
X147450827Y-128819397D01*
X147596498Y-128879735D01*
X147596503Y-128879737D01*
X147751153Y-128910499D01*
X147751156Y-128910500D01*
X147751158Y-128910500D01*
X147908844Y-128910500D01*
X147908845Y-128910499D01*
X148063497Y-128879737D01*
X148209179Y-128819394D01*
X148340289Y-128731789D01*
X148451789Y-128620289D01*
X148539394Y-128489179D01*
X148599737Y-128343497D01*
X148630500Y-128188842D01*
X148630500Y-128031158D01*
X148630500Y-128031155D01*
X148630499Y-128031153D01*
X148628050Y-128018842D01*
X148599737Y-127876503D01*
X148590856Y-127855061D01*
X148539397Y-127730827D01*
X148539390Y-127730814D01*
X148451789Y-127599711D01*
X148451786Y-127599707D01*
X148340292Y-127488213D01*
X148340288Y-127488210D01*
X148209185Y-127400609D01*
X148209172Y-127400602D01*
X148063501Y-127340264D01*
X148063489Y-127340261D01*
X147908845Y-127309500D01*
X147908842Y-127309500D01*
X147751158Y-127309500D01*
X147751155Y-127309500D01*
X147596510Y-127340261D01*
X147596498Y-127340264D01*
X147450827Y-127400602D01*
X147450814Y-127400609D01*
X147328891Y-127482076D01*
X147262213Y-127502954D01*
X147194833Y-127484469D01*
X147191109Y-127482076D01*
X147069185Y-127400609D01*
X147069172Y-127400602D01*
X146923501Y-127340264D01*
X146923489Y-127340261D01*
X146768845Y-127309500D01*
X146768842Y-127309500D01*
X146611158Y-127309500D01*
X146611155Y-127309500D01*
X146456510Y-127340261D01*
X146456498Y-127340264D01*
X146310827Y-127400602D01*
X146310814Y-127400609D01*
X146179711Y-127488210D01*
X146079647Y-127588274D01*
X146018324Y-127621758D01*
X145948632Y-127616774D01*
X145904285Y-127588273D01*
X145862482Y-127546470D01*
X145862478Y-127546467D01*
X145743659Y-127467074D01*
X145743650Y-127467069D01*
X145611620Y-127412381D01*
X145611614Y-127412379D01*
X145471457Y-127384500D01*
X145471455Y-127384500D01*
X145328545Y-127384500D01*
X145328543Y-127384500D01*
X145188385Y-127412379D01*
X145188379Y-127412381D01*
X145056349Y-127467069D01*
X145056340Y-127467074D01*
X144937521Y-127546467D01*
X144937517Y-127546470D01*
X144836470Y-127647517D01*
X144836467Y-127647521D01*
X144757074Y-127766340D01*
X144757069Y-127766349D01*
X144702381Y-127898379D01*
X144702379Y-127898385D01*
X144674500Y-128038542D01*
X144674500Y-128038545D01*
X144674500Y-128181455D01*
X144674500Y-128181457D01*
X144674499Y-128181457D01*
X143925500Y-128181457D01*
X143925500Y-128048545D01*
X143923510Y-128038542D01*
X143897620Y-127908385D01*
X143897619Y-127908384D01*
X143897619Y-127908380D01*
X143842929Y-127776347D01*
X143842928Y-127776346D01*
X143842925Y-127776340D01*
X143763532Y-127657521D01*
X143763529Y-127657517D01*
X143662482Y-127556470D01*
X143662478Y-127556467D01*
X143543659Y-127477074D01*
X143543650Y-127477069D01*
X143411620Y-127422381D01*
X143411614Y-127422379D01*
X143271457Y-127394500D01*
X143271455Y-127394500D01*
X143128545Y-127394500D01*
X143128543Y-127394500D01*
X142988385Y-127422379D01*
X142988379Y-127422381D01*
X142856349Y-127477069D01*
X142856340Y-127477074D01*
X142737521Y-127556467D01*
X142737517Y-127556470D01*
X142636470Y-127657517D01*
X142636467Y-127657521D01*
X142557074Y-127776340D01*
X142557069Y-127776349D01*
X142502381Y-127908379D01*
X142502379Y-127908385D01*
X142474500Y-128048542D01*
X142474500Y-128048545D01*
X142474500Y-128191455D01*
X142474500Y-128191457D01*
X142474499Y-128191457D01*
X141773544Y-128191457D01*
X141777619Y-128181620D01*
X141802041Y-128058846D01*
X141805500Y-128041457D01*
X141805500Y-127898542D01*
X141777620Y-127758385D01*
X141777619Y-127758384D01*
X141777619Y-127758380D01*
X141722929Y-127626347D01*
X141722928Y-127626346D01*
X141722925Y-127626340D01*
X141643532Y-127507521D01*
X141643529Y-127507517D01*
X141542482Y-127406470D01*
X141542478Y-127406467D01*
X141423659Y-127327074D01*
X141423650Y-127327069D01*
X141291620Y-127272381D01*
X141291614Y-127272379D01*
X141151457Y-127244500D01*
X141151455Y-127244500D01*
X141008545Y-127244500D01*
X141008543Y-127244500D01*
X140868385Y-127272379D01*
X140868379Y-127272381D01*
X140736349Y-127327069D01*
X140736342Y-127327073D01*
X140696753Y-127353526D01*
X140630075Y-127374403D01*
X140562695Y-127355918D01*
X140540179Y-127338101D01*
X140530291Y-127328212D01*
X140530288Y-127328210D01*
X140399185Y-127240609D01*
X140399172Y-127240602D01*
X140253501Y-127180264D01*
X140253489Y-127180261D01*
X140098845Y-127149500D01*
X140098842Y-127149500D01*
X139941158Y-127149500D01*
X139941155Y-127149500D01*
X139786510Y-127180261D01*
X139786498Y-127180264D01*
X139640827Y-127240602D01*
X139640809Y-127240612D01*
X139561407Y-127293667D01*
X139494730Y-127314545D01*
X139427350Y-127296060D01*
X139423627Y-127293668D01*
X139359183Y-127250608D01*
X139359172Y-127250602D01*
X139213501Y-127190264D01*
X139213489Y-127190261D01*
X139058845Y-127159500D01*
X139058842Y-127159500D01*
X138901158Y-127159500D01*
X138901155Y-127159500D01*
X138746510Y-127190261D01*
X138746498Y-127190264D01*
X138600827Y-127250602D01*
X138600814Y-127250609D01*
X138508925Y-127312008D01*
X138442247Y-127332886D01*
X138374867Y-127314401D01*
X138371144Y-127312008D01*
X138309190Y-127270612D01*
X138309172Y-127270602D01*
X138163501Y-127210264D01*
X138163489Y-127210261D01*
X138008845Y-127179500D01*
X138008842Y-127179500D01*
X137851158Y-127179500D01*
X137851155Y-127179500D01*
X137696510Y-127210261D01*
X137696498Y-127210264D01*
X137550827Y-127270602D01*
X137550814Y-127270609D01*
X137419711Y-127358210D01*
X137419707Y-127358213D01*
X137308213Y-127469707D01*
X137308210Y-127469711D01*
X137220609Y-127600814D01*
X137220602Y-127600827D01*
X137160264Y-127746498D01*
X137160261Y-127746510D01*
X137129500Y-127901153D01*
X129950500Y-127901153D01*
X129950500Y-127861158D01*
X129950500Y-127861155D01*
X129950499Y-127861153D01*
X129933630Y-127776347D01*
X129919737Y-127706503D01*
X129899448Y-127657521D01*
X129859397Y-127560827D01*
X129859390Y-127560814D01*
X129771789Y-127429711D01*
X129771786Y-127429707D01*
X129660292Y-127318213D01*
X129660288Y-127318210D01*
X129529185Y-127230609D01*
X129529172Y-127230602D01*
X129383501Y-127170264D01*
X129383489Y-127170261D01*
X129228845Y-127139500D01*
X129228842Y-127139500D01*
X129071158Y-127139500D01*
X129071155Y-127139500D01*
X128916510Y-127170261D01*
X128916498Y-127170264D01*
X128770827Y-127230602D01*
X128770814Y-127230609D01*
X128639711Y-127318210D01*
X128639707Y-127318213D01*
X128528213Y-127429707D01*
X128528210Y-127429711D01*
X128440609Y-127560814D01*
X128440602Y-127560827D01*
X128380264Y-127706498D01*
X128380261Y-127706510D01*
X128349500Y-127861153D01*
X123602129Y-127861153D01*
X123602291Y-123651153D01*
X138499500Y-123651153D01*
X138499500Y-123808846D01*
X138530261Y-123963489D01*
X138530264Y-123963501D01*
X138590602Y-124109172D01*
X138590609Y-124109185D01*
X138678210Y-124240288D01*
X138678213Y-124240292D01*
X138789707Y-124351786D01*
X138789711Y-124351789D01*
X138920814Y-124439390D01*
X138920827Y-124439397D01*
X139066498Y-124499735D01*
X139066503Y-124499737D01*
X139217312Y-124529735D01*
X139221153Y-124530499D01*
X139221156Y-124530500D01*
X139221158Y-124530500D01*
X139378844Y-124530500D01*
X139378845Y-124530499D01*
X139533497Y-124499737D01*
X139679179Y-124439394D01*
X139810289Y-124351789D01*
X139921789Y-124240289D01*
X140009394Y-124109179D01*
X140069737Y-123963497D01*
X140100500Y-123808842D01*
X140100500Y-123681153D01*
X143149500Y-123681153D01*
X143149500Y-123838846D01*
X143180261Y-123993489D01*
X143180264Y-123993501D01*
X143240602Y-124139172D01*
X143240609Y-124139185D01*
X143328210Y-124270288D01*
X143328213Y-124270292D01*
X143439707Y-124381786D01*
X143439711Y-124381789D01*
X143570814Y-124469390D01*
X143570827Y-124469397D01*
X143644078Y-124499738D01*
X143716503Y-124529737D01*
X143871153Y-124560499D01*
X143871156Y-124560500D01*
X143871158Y-124560500D01*
X144028844Y-124560500D01*
X144028845Y-124560499D01*
X144183497Y-124529737D01*
X144329179Y-124469394D01*
X144460289Y-124381789D01*
X144571789Y-124270289D01*
X144659394Y-124139179D01*
X144719737Y-123993497D01*
X144750500Y-123838842D01*
X144750500Y-123681158D01*
X144750500Y-123681155D01*
X144732220Y-123589258D01*
X144732220Y-123589257D01*
X144728619Y-123571153D01*
X149159500Y-123571153D01*
X149159500Y-123728846D01*
X149190261Y-123883489D01*
X149190264Y-123883501D01*
X149250602Y-124029172D01*
X149250609Y-124029185D01*
X149338210Y-124160288D01*
X149338213Y-124160292D01*
X149449707Y-124271786D01*
X149449711Y-124271789D01*
X149580814Y-124359390D01*
X149580827Y-124359397D01*
X149726498Y-124419735D01*
X149726503Y-124419737D01*
X149881153Y-124450499D01*
X149881156Y-124450500D01*
X149881158Y-124450500D01*
X150038844Y-124450500D01*
X150038845Y-124450499D01*
X150193497Y-124419737D01*
X150339179Y-124359394D01*
X150470289Y-124271789D01*
X150581789Y-124160289D01*
X150669394Y-124029179D01*
X150729737Y-123883497D01*
X150760500Y-123728842D01*
X150760500Y-123571158D01*
X150760121Y-123569251D01*
X150760121Y-123569248D01*
X150756522Y-123551153D01*
X155199500Y-123551153D01*
X155199500Y-123708846D01*
X155230261Y-123863489D01*
X155230264Y-123863501D01*
X155290602Y-124009172D01*
X155290609Y-124009185D01*
X155378210Y-124140288D01*
X155378213Y-124140292D01*
X155489707Y-124251786D01*
X155489711Y-124251789D01*
X155620814Y-124339390D01*
X155620827Y-124339397D01*
X155723165Y-124381786D01*
X155766503Y-124399737D01*
X155921153Y-124430499D01*
X155921156Y-124430500D01*
X155921158Y-124430500D01*
X156078844Y-124430500D01*
X156078845Y-124430499D01*
X156233497Y-124399737D01*
X156379179Y-124339394D01*
X156510289Y-124251789D01*
X156621789Y-124140289D01*
X156709394Y-124009179D01*
X156769737Y-123863497D01*
X156800500Y-123708842D01*
X156800500Y-123551158D01*
X156800500Y-123551155D01*
X156800499Y-123551153D01*
X156789627Y-123496498D01*
X156769737Y-123396503D01*
X156763241Y-123380821D01*
X156709397Y-123250827D01*
X156709390Y-123250814D01*
X156621789Y-123119711D01*
X156621786Y-123119707D01*
X156510292Y-123008213D01*
X156510288Y-123008210D01*
X156379185Y-122920609D01*
X156379172Y-122920602D01*
X156233501Y-122860264D01*
X156233489Y-122860261D01*
X156078845Y-122829500D01*
X156078842Y-122829500D01*
X155921158Y-122829500D01*
X155921155Y-122829500D01*
X155766510Y-122860261D01*
X155766498Y-122860264D01*
X155620827Y-122920602D01*
X155620814Y-122920609D01*
X155489711Y-123008210D01*
X155489707Y-123008213D01*
X155378213Y-123119707D01*
X155378210Y-123119711D01*
X155290609Y-123250814D01*
X155290602Y-123250827D01*
X155230264Y-123396498D01*
X155230261Y-123396510D01*
X155199500Y-123551153D01*
X150756522Y-123551153D01*
X150729738Y-123416508D01*
X150729737Y-123416507D01*
X150729737Y-123416503D01*
X150714954Y-123380814D01*
X150669397Y-123270827D01*
X150669390Y-123270814D01*
X150581789Y-123139711D01*
X150581786Y-123139707D01*
X150470292Y-123028213D01*
X150470288Y-123028210D01*
X150339185Y-122940609D01*
X150339172Y-122940602D01*
X150193501Y-122880264D01*
X150193489Y-122880261D01*
X150038845Y-122849500D01*
X150038842Y-122849500D01*
X149881158Y-122849500D01*
X149881155Y-122849500D01*
X149726510Y-122880261D01*
X149726498Y-122880264D01*
X149580827Y-122940602D01*
X149580814Y-122940609D01*
X149449711Y-123028210D01*
X149449707Y-123028213D01*
X149338213Y-123139707D01*
X149338210Y-123139711D01*
X149250609Y-123270814D01*
X149250602Y-123270827D01*
X149190264Y-123416498D01*
X149190261Y-123416510D01*
X149159500Y-123571153D01*
X144728619Y-123571153D01*
X144719738Y-123526510D01*
X144719737Y-123526503D01*
X144665888Y-123396498D01*
X144659397Y-123380827D01*
X144659390Y-123380814D01*
X144571789Y-123249711D01*
X144571786Y-123249707D01*
X144460292Y-123138213D01*
X144460288Y-123138210D01*
X144329185Y-123050609D01*
X144329172Y-123050602D01*
X144183501Y-122990264D01*
X144183489Y-122990261D01*
X144028845Y-122959500D01*
X144028842Y-122959500D01*
X143871158Y-122959500D01*
X143871155Y-122959500D01*
X143716510Y-122990261D01*
X143716498Y-122990264D01*
X143570827Y-123050602D01*
X143570814Y-123050609D01*
X143439711Y-123138210D01*
X143439707Y-123138213D01*
X143328213Y-123249707D01*
X143328210Y-123249711D01*
X143240609Y-123380814D01*
X143240602Y-123380827D01*
X143180264Y-123526498D01*
X143180261Y-123526510D01*
X143149500Y-123681153D01*
X140100500Y-123681153D01*
X140100500Y-123651158D01*
X140100500Y-123651155D01*
X140100499Y-123651153D01*
X140084587Y-123571158D01*
X140069737Y-123496503D01*
X140036603Y-123416510D01*
X140009397Y-123350827D01*
X140009390Y-123350814D01*
X139921789Y-123219711D01*
X139921786Y-123219707D01*
X139810292Y-123108213D01*
X139810288Y-123108210D01*
X139679185Y-123020609D01*
X139679172Y-123020602D01*
X139533501Y-122960264D01*
X139533489Y-122960261D01*
X139378845Y-122929500D01*
X139378842Y-122929500D01*
X139221158Y-122929500D01*
X139221155Y-122929500D01*
X139066510Y-122960261D01*
X139066498Y-122960264D01*
X138920827Y-123020602D01*
X138920814Y-123020609D01*
X138789711Y-123108210D01*
X138789707Y-123108213D01*
X138678213Y-123219707D01*
X138678210Y-123219711D01*
X138590609Y-123350814D01*
X138590602Y-123350827D01*
X138530264Y-123496498D01*
X138530261Y-123496510D01*
X138499500Y-123651153D01*
X123602291Y-123651153D01*
X123602369Y-121631457D01*
X141924499Y-121631457D01*
X141952379Y-121771614D01*
X141952381Y-121771620D01*
X142007069Y-121903650D01*
X142007074Y-121903659D01*
X142086467Y-122022478D01*
X142086470Y-122022482D01*
X142187517Y-122123529D01*
X142187521Y-122123532D01*
X142306340Y-122202925D01*
X142306346Y-122202928D01*
X142306347Y-122202929D01*
X142438380Y-122257619D01*
X142438384Y-122257619D01*
X142438385Y-122257620D01*
X142578542Y-122285500D01*
X142578545Y-122285500D01*
X142721457Y-122285500D01*
X142815751Y-122266742D01*
X142861620Y-122257619D01*
X142993653Y-122202929D01*
X143112479Y-122123532D01*
X143213532Y-122022479D01*
X143292929Y-121903653D01*
X143347619Y-121771620D01*
X143356742Y-121725751D01*
X143375500Y-121631457D01*
X143375500Y-121488542D01*
X143347620Y-121348385D01*
X143347619Y-121348384D01*
X143347619Y-121348380D01*
X143292929Y-121216347D01*
X143292928Y-121216346D01*
X143292925Y-121216340D01*
X143213532Y-121097521D01*
X143213529Y-121097517D01*
X143112482Y-120996470D01*
X143112478Y-120996467D01*
X143104980Y-120991457D01*
X151891299Y-120991457D01*
X151919179Y-121131614D01*
X151919181Y-121131620D01*
X151973869Y-121263650D01*
X151973874Y-121263659D01*
X152053267Y-121382478D01*
X152053270Y-121382482D01*
X152154317Y-121483529D01*
X152154321Y-121483532D01*
X152273140Y-121562925D01*
X152273149Y-121562930D01*
X152303058Y-121575318D01*
X152405180Y-121617619D01*
X152405184Y-121617619D01*
X152405185Y-121617620D01*
X152545342Y-121645500D01*
X152545345Y-121645500D01*
X152688257Y-121645500D01*
X152782551Y-121626742D01*
X152828420Y-121617619D01*
X152895947Y-121589647D01*
X152965415Y-121582178D01*
X152990850Y-121589647D01*
X153020913Y-121602099D01*
X153058374Y-121617617D01*
X153058377Y-121617617D01*
X153058380Y-121617619D01*
X153058384Y-121617619D01*
X153058385Y-121617620D01*
X153198542Y-121645500D01*
X153198545Y-121645500D01*
X153341457Y-121645500D01*
X153435751Y-121626742D01*
X153481620Y-121617619D01*
X153613653Y-121562929D01*
X153732479Y-121483532D01*
X153833532Y-121382479D01*
X153912929Y-121263653D01*
X153967619Y-121131620D01*
X153976742Y-121085751D01*
X153995500Y-120991457D01*
X153995500Y-120848542D01*
X153967620Y-120708385D01*
X153967619Y-120708384D01*
X153967619Y-120708380D01*
X153912929Y-120576347D01*
X153912928Y-120576346D01*
X153912925Y-120576340D01*
X153833532Y-120457521D01*
X153833529Y-120457517D01*
X153732482Y-120356470D01*
X153732478Y-120356467D01*
X153613659Y-120277074D01*
X153613650Y-120277069D01*
X153481620Y-120222381D01*
X153481614Y-120222379D01*
X153341457Y-120194500D01*
X153341455Y-120194500D01*
X153198545Y-120194500D01*
X153198543Y-120194500D01*
X153058385Y-120222379D01*
X153058384Y-120222379D01*
X152990852Y-120250352D01*
X152921382Y-120257820D01*
X152895948Y-120250352D01*
X152828415Y-120222379D01*
X152688257Y-120194500D01*
X152688255Y-120194500D01*
X152545345Y-120194500D01*
X152545343Y-120194500D01*
X152405185Y-120222379D01*
X152405179Y-120222381D01*
X152273149Y-120277069D01*
X152273140Y-120277074D01*
X152154321Y-120356467D01*
X152154317Y-120356470D01*
X152053270Y-120457517D01*
X152053267Y-120457521D01*
X151973874Y-120576340D01*
X151973869Y-120576349D01*
X151919181Y-120708379D01*
X151919179Y-120708385D01*
X151891300Y-120848542D01*
X151891300Y-120848545D01*
X151891300Y-120991455D01*
X151891300Y-120991457D01*
X151891299Y-120991457D01*
X143104980Y-120991457D01*
X143036283Y-120945555D01*
X142993659Y-120917074D01*
X142993650Y-120917069D01*
X142861620Y-120862381D01*
X142861614Y-120862379D01*
X142721457Y-120834500D01*
X142721455Y-120834500D01*
X142578545Y-120834500D01*
X142578543Y-120834500D01*
X142438385Y-120862379D01*
X142438379Y-120862381D01*
X142306349Y-120917069D01*
X142306340Y-120917074D01*
X142187521Y-120996467D01*
X142187517Y-120996470D01*
X142086470Y-121097517D01*
X142086467Y-121097521D01*
X142007074Y-121216340D01*
X142007069Y-121216349D01*
X141952381Y-121348379D01*
X141952379Y-121348385D01*
X141924500Y-121488542D01*
X141924500Y-121488545D01*
X141924500Y-121631455D01*
X141924500Y-121631457D01*
X141924499Y-121631457D01*
X123602369Y-121631457D01*
X123602439Y-119821457D01*
X144604499Y-119821457D01*
X144632379Y-119961614D01*
X144632381Y-119961620D01*
X144687069Y-120093650D01*
X144687074Y-120093659D01*
X144766467Y-120212478D01*
X144766470Y-120212482D01*
X144867517Y-120313529D01*
X144867521Y-120313532D01*
X144986340Y-120392925D01*
X144986346Y-120392928D01*
X144986347Y-120392929D01*
X145118380Y-120447619D01*
X145118384Y-120447619D01*
X145118385Y-120447620D01*
X145258542Y-120475500D01*
X145258545Y-120475500D01*
X145401457Y-120475500D01*
X145495751Y-120456742D01*
X145541620Y-120447619D01*
X145673653Y-120392929D01*
X145792479Y-120313532D01*
X145893532Y-120212479D01*
X145972929Y-120093653D01*
X146027619Y-119961620D01*
X146055500Y-119821455D01*
X146055500Y-119678545D01*
X146055500Y-119678542D01*
X146027620Y-119538385D01*
X146027619Y-119538384D01*
X146027619Y-119538380D01*
X145972929Y-119406347D01*
X145972928Y-119406346D01*
X145972925Y-119406340D01*
X145893532Y-119287521D01*
X145893529Y-119287517D01*
X145792482Y-119186470D01*
X145792478Y-119186467D01*
X145673659Y-119107074D01*
X145673650Y-119107069D01*
X145541620Y-119052381D01*
X145541614Y-119052379D01*
X145401457Y-119024500D01*
X145401455Y-119024500D01*
X145258545Y-119024500D01*
X145258543Y-119024500D01*
X145118385Y-119052379D01*
X145118379Y-119052381D01*
X144986349Y-119107069D01*
X144986340Y-119107074D01*
X144867521Y-119186467D01*
X144867517Y-119186470D01*
X144766470Y-119287517D01*
X144766467Y-119287521D01*
X144687074Y-119406340D01*
X144687069Y-119406349D01*
X144632381Y-119538379D01*
X144632379Y-119538385D01*
X144604500Y-119678542D01*
X144604500Y-119678545D01*
X144604500Y-119821455D01*
X144604500Y-119821457D01*
X144604499Y-119821457D01*
X123602439Y-119821457D01*
X123602514Y-117891002D01*
X146614945Y-117891002D01*
X146642825Y-118031159D01*
X146642827Y-118031165D01*
X146697515Y-118163195D01*
X146697520Y-118163204D01*
X146776913Y-118282023D01*
X146776916Y-118282027D01*
X146877963Y-118383074D01*
X146877967Y-118383077D01*
X146996786Y-118462470D01*
X146996792Y-118462473D01*
X146996793Y-118462474D01*
X147128826Y-118517164D01*
X147128830Y-118517164D01*
X147128831Y-118517165D01*
X147268988Y-118545045D01*
X147268991Y-118545045D01*
X147411903Y-118545045D01*
X147506197Y-118526287D01*
X147552066Y-118517164D01*
X147684099Y-118462474D01*
X147802925Y-118383077D01*
X147903978Y-118282024D01*
X147983375Y-118163198D01*
X148038065Y-118031165D01*
X148065946Y-117891000D01*
X148065946Y-117748090D01*
X148065946Y-117748087D01*
X148038066Y-117607930D01*
X148038065Y-117607929D01*
X148038065Y-117607925D01*
X147983375Y-117475892D01*
X147983374Y-117475891D01*
X147983371Y-117475885D01*
X147903978Y-117357066D01*
X147903975Y-117357062D01*
X147802928Y-117256015D01*
X147802924Y-117256012D01*
X147684105Y-117176619D01*
X147684096Y-117176614D01*
X147552066Y-117121926D01*
X147552060Y-117121924D01*
X147411903Y-117094045D01*
X147411901Y-117094045D01*
X147268991Y-117094045D01*
X147268989Y-117094045D01*
X147128831Y-117121924D01*
X147128825Y-117121926D01*
X146996795Y-117176614D01*
X146996786Y-117176619D01*
X146877967Y-117256012D01*
X146877963Y-117256015D01*
X146776916Y-117357062D01*
X146776913Y-117357066D01*
X146697520Y-117475885D01*
X146697515Y-117475894D01*
X146642827Y-117607924D01*
X146642825Y-117607930D01*
X146614946Y-117748087D01*
X146614946Y-117748090D01*
X146614946Y-117891000D01*
X146614946Y-117891002D01*
X146614945Y-117891002D01*
X123602514Y-117891002D01*
X123603005Y-105158104D01*
X123622692Y-105091070D01*
X123675277Y-105045418D01*
X135540199Y-99599785D01*
X135573574Y-99585961D01*
X135576332Y-99583201D01*
X135579879Y-99581574D01*
X135579880Y-99581572D01*
X135579882Y-99581572D01*
X135602882Y-99556774D01*
X135606059Y-99553474D01*
X135629976Y-99529559D01*
X135629978Y-99529552D01*
X135633390Y-99524446D01*
X135633391Y-99524445D01*
X135633404Y-99524425D01*
X135633909Y-99523668D01*
X135634122Y-99523092D01*
X135634124Y-99523091D01*
X135646683Y-99489222D01*
X135660500Y-99455867D01*
X135660500Y-99451965D01*
X135661858Y-99448304D01*
X135660587Y-99414537D01*
X135660500Y-99409875D01*
X135660500Y-93014324D01*
X135660501Y-93014315D01*
X135660501Y-91971153D01*
X139349500Y-91971153D01*
X139349500Y-92128846D01*
X139380261Y-92283489D01*
X139380264Y-92283501D01*
X139440602Y-92429172D01*
X139440609Y-92429185D01*
X139528210Y-92560288D01*
X139528213Y-92560292D01*
X139639707Y-92671786D01*
X139639711Y-92671789D01*
X139770814Y-92759390D01*
X139770827Y-92759397D01*
X139916498Y-92819735D01*
X139916503Y-92819737D01*
X140071153Y-92850499D01*
X140071156Y-92850500D01*
X140071158Y-92850500D01*
X140228844Y-92850500D01*
X140228845Y-92850499D01*
X140383497Y-92819737D01*
X140529179Y-92759394D01*
X140660289Y-92671789D01*
X140771789Y-92560289D01*
X140859394Y-92429179D01*
X140864533Y-92416771D01*
X140908372Y-92362368D01*
X140974666Y-92340301D01*
X141042366Y-92357578D01*
X141089977Y-92408714D01*
X141093656Y-92416769D01*
X141142069Y-92533650D01*
X141142074Y-92533659D01*
X141221467Y-92652478D01*
X141221470Y-92652482D01*
X141322517Y-92753529D01*
X141322521Y-92753532D01*
X141441340Y-92832925D01*
X141441346Y-92832928D01*
X141441347Y-92832929D01*
X141573380Y-92887619D01*
X141573384Y-92887619D01*
X141573385Y-92887620D01*
X141713542Y-92915500D01*
X141713545Y-92915500D01*
X141856457Y-92915500D01*
X141950751Y-92896742D01*
X141996620Y-92887619D01*
X142128653Y-92832929D01*
X142247479Y-92753532D01*
X142348532Y-92652479D01*
X142427929Y-92533653D01*
X142482619Y-92401620D01*
X142510500Y-92261455D01*
X142510500Y-92118545D01*
X142510500Y-92118542D01*
X142482620Y-91978385D01*
X142482619Y-91978384D01*
X142482619Y-91978380D01*
X142443217Y-91883257D01*
X142435749Y-91813788D01*
X142467024Y-91751309D01*
X142488882Y-91732707D01*
X142562479Y-91683532D01*
X142663532Y-91582479D01*
X142742929Y-91463653D01*
X142797619Y-91331620D01*
X142816910Y-91234640D01*
X142823869Y-91199656D01*
X142831515Y-91185038D01*
X142834379Y-91168790D01*
X142847376Y-91154716D01*
X142856254Y-91137745D01*
X142871008Y-91129128D01*
X142881783Y-91117461D01*
X142908848Y-91107027D01*
X142914336Y-91103823D01*
X142917782Y-91102928D01*
X143045020Y-91077619D01*
X143094880Y-91056965D01*
X143103214Y-91054803D01*
X143129867Y-91055647D01*
X143156378Y-91052797D01*
X143164249Y-91056737D01*
X143173049Y-91057016D01*
X143195016Y-91072137D01*
X143218858Y-91084071D01*
X143224813Y-91092648D01*
X143230601Y-91096632D01*
X143235197Y-91107603D01*
X143248925Y-91127374D01*
X143292611Y-91232843D01*
X143292616Y-91232852D01*
X143380217Y-91363955D01*
X143380220Y-91363959D01*
X143491714Y-91475453D01*
X143491718Y-91475456D01*
X143622821Y-91563057D01*
X143622834Y-91563064D01*
X143768505Y-91623402D01*
X143768510Y-91623404D01*
X143923160Y-91654166D01*
X143923163Y-91654167D01*
X143923165Y-91654167D01*
X144080851Y-91654167D01*
X144080852Y-91654166D01*
X144235504Y-91623404D01*
X144381186Y-91563061D01*
X144512296Y-91475456D01*
X144623796Y-91363956D01*
X144711401Y-91232846D01*
X144771744Y-91087164D01*
X144802507Y-90932509D01*
X144802507Y-90774825D01*
X144802507Y-90774822D01*
X144802506Y-90774820D01*
X144792609Y-90725066D01*
X144771744Y-90620170D01*
X144745358Y-90556467D01*
X144711404Y-90474494D01*
X144711397Y-90474481D01*
X144623796Y-90343378D01*
X144623793Y-90343374D01*
X144512299Y-90231880D01*
X144512295Y-90231877D01*
X144381192Y-90144276D01*
X144381179Y-90144269D01*
X144235506Y-90083930D01*
X144235498Y-90083928D01*
X144200326Y-90076932D01*
X144138415Y-90044547D01*
X144121419Y-90024210D01*
X144050132Y-89917521D01*
X144050130Y-89917518D01*
X143949082Y-89816470D01*
X143949078Y-89816467D01*
X143830259Y-89737074D01*
X143830250Y-89737069D01*
X143698220Y-89682381D01*
X143698214Y-89682379D01*
X143558057Y-89654500D01*
X143558055Y-89654500D01*
X143415145Y-89654500D01*
X143415143Y-89654500D01*
X143274985Y-89682379D01*
X143274984Y-89682379D01*
X143207452Y-89710352D01*
X143137982Y-89717820D01*
X143112548Y-89710352D01*
X143045015Y-89682379D01*
X142904857Y-89654500D01*
X142904855Y-89654500D01*
X142761945Y-89654500D01*
X142761943Y-89654500D01*
X142621785Y-89682379D01*
X142621779Y-89682381D01*
X142489749Y-89737069D01*
X142489740Y-89737074D01*
X142370921Y-89816467D01*
X142370917Y-89816470D01*
X142269870Y-89917517D01*
X142269867Y-89917521D01*
X142190474Y-90036340D01*
X142190469Y-90036349D01*
X142135781Y-90168379D01*
X142135779Y-90168385D01*
X142109530Y-90300344D01*
X142077144Y-90362255D01*
X142016428Y-90396829D01*
X142012105Y-90397769D01*
X141888385Y-90422379D01*
X141888379Y-90422381D01*
X141756349Y-90477069D01*
X141756340Y-90477074D01*
X141637521Y-90556467D01*
X141637517Y-90556470D01*
X141536470Y-90657517D01*
X141536467Y-90657521D01*
X141457074Y-90776340D01*
X141457069Y-90776349D01*
X141402381Y-90908379D01*
X141402379Y-90908385D01*
X141374500Y-91048542D01*
X141374500Y-91048545D01*
X141374500Y-91191455D01*
X141374500Y-91191457D01*
X141374499Y-91191457D01*
X141402379Y-91331614D01*
X141402382Y-91331624D01*
X141441781Y-91426742D01*
X141449250Y-91496211D01*
X141417974Y-91558690D01*
X141396111Y-91577296D01*
X141322521Y-91626467D01*
X141322517Y-91626470D01*
X141221470Y-91727517D01*
X141221467Y-91727521D01*
X141141041Y-91847887D01*
X141087429Y-91892692D01*
X141018104Y-91901399D01*
X140955076Y-91871244D01*
X140923454Y-91821555D01*
X140922068Y-91822130D01*
X140859397Y-91670827D01*
X140859390Y-91670814D01*
X140771789Y-91539711D01*
X140771786Y-91539707D01*
X140660292Y-91428213D01*
X140660288Y-91428210D01*
X140529185Y-91340609D01*
X140529172Y-91340602D01*
X140383501Y-91280264D01*
X140383489Y-91280261D01*
X140228845Y-91249500D01*
X140228842Y-91249500D01*
X140071158Y-91249500D01*
X140071155Y-91249500D01*
X139916510Y-91280261D01*
X139916498Y-91280264D01*
X139770827Y-91340602D01*
X139770814Y-91340609D01*
X139639711Y-91428210D01*
X139639707Y-91428213D01*
X139528213Y-91539707D01*
X139528210Y-91539711D01*
X139440609Y-91670814D01*
X139440602Y-91670827D01*
X139380264Y-91816498D01*
X139380261Y-91816510D01*
X139349500Y-91971153D01*
X135660501Y-91971153D01*
X135660501Y-90731153D01*
X137659500Y-90731153D01*
X137659500Y-90888846D01*
X137690261Y-91043489D01*
X137690264Y-91043501D01*
X137750602Y-91189172D01*
X137750609Y-91189185D01*
X137838210Y-91320288D01*
X137838213Y-91320292D01*
X137949707Y-91431786D01*
X137949711Y-91431789D01*
X138080814Y-91519390D01*
X138080827Y-91519397D01*
X138220610Y-91577296D01*
X138226503Y-91579737D01*
X138381153Y-91610499D01*
X138381156Y-91610500D01*
X138381158Y-91610500D01*
X138538844Y-91610500D01*
X138538845Y-91610499D01*
X138693497Y-91579737D01*
X138839179Y-91519394D01*
X138970289Y-91431789D01*
X139081789Y-91320289D01*
X139169394Y-91189179D01*
X139229737Y-91043497D01*
X139260500Y-90888842D01*
X139260500Y-90731158D01*
X139260500Y-90731155D01*
X139260499Y-90731153D01*
X139259288Y-90725066D01*
X139229737Y-90576503D01*
X139221438Y-90556467D01*
X139169397Y-90430827D01*
X139169390Y-90430814D01*
X139081789Y-90299711D01*
X139081786Y-90299707D01*
X138970292Y-90188213D01*
X138970288Y-90188210D01*
X138839185Y-90100609D01*
X138839172Y-90100602D01*
X138693501Y-90040264D01*
X138693489Y-90040261D01*
X138538845Y-90009500D01*
X138538842Y-90009500D01*
X138381158Y-90009500D01*
X138381155Y-90009500D01*
X138226510Y-90040261D01*
X138226498Y-90040264D01*
X138080827Y-90100602D01*
X138080814Y-90100609D01*
X137949711Y-90188210D01*
X137949707Y-90188213D01*
X137838213Y-90299707D01*
X137838210Y-90299711D01*
X137750609Y-90430814D01*
X137750602Y-90430827D01*
X137690264Y-90576498D01*
X137690261Y-90576510D01*
X137659500Y-90731153D01*
X135660501Y-90731153D01*
X135660501Y-90725066D01*
X135660500Y-87894411D01*
X135680185Y-87827372D01*
X135696819Y-87806730D01*
X135913525Y-87590024D01*
X136212818Y-87290732D01*
X136212818Y-87290730D01*
X136222406Y-87281143D01*
X136222451Y-87281085D01*
X136226428Y-87277110D01*
X136292148Y-87178761D01*
X136337418Y-87069479D01*
X136360498Y-86953466D01*
X136360498Y-86945941D01*
X136360498Y-86934199D01*
X136360500Y-86934197D01*
X136360500Y-86888545D01*
X136360501Y-86854441D01*
X136360500Y-86854438D01*
X136360500Y-86020118D01*
X136360500Y-86007273D01*
X136344128Y-85946171D01*
X136345791Y-85876322D01*
X136384954Y-85818460D01*
X136416445Y-85799521D01*
X136489179Y-85769394D01*
X136620289Y-85681789D01*
X136731789Y-85570289D01*
X136819394Y-85439179D01*
X136879737Y-85293497D01*
X136910500Y-85138842D01*
X136910500Y-84981158D01*
X136910500Y-84981155D01*
X136891646Y-84886372D01*
X136897873Y-84816780D01*
X136940736Y-84761603D01*
X136989072Y-84740563D01*
X137001919Y-84738007D01*
X137043497Y-84729737D01*
X137189179Y-84669394D01*
X137320289Y-84581789D01*
X137431789Y-84470289D01*
X137519394Y-84339179D01*
X137579737Y-84193497D01*
X137610500Y-84038842D01*
X137610500Y-83881158D01*
X137610500Y-83881155D01*
X137610499Y-83881153D01*
X137592067Y-83788489D01*
X137579737Y-83726503D01*
X137541356Y-83633842D01*
X137519397Y-83580827D01*
X137519390Y-83580814D01*
X137491422Y-83538957D01*
X137449457Y-83476153D01*
X139469500Y-83476153D01*
X139469500Y-83633846D01*
X139500261Y-83788489D01*
X139500264Y-83788501D01*
X139560602Y-83934172D01*
X139560609Y-83934185D01*
X139648210Y-84065288D01*
X139648213Y-84065292D01*
X139759707Y-84176786D01*
X139759711Y-84176789D01*
X139890814Y-84264390D01*
X139890827Y-84264397D01*
X140014934Y-84315803D01*
X140036503Y-84324737D01*
X140191153Y-84355499D01*
X140191156Y-84355500D01*
X140191158Y-84355500D01*
X140348844Y-84355500D01*
X140348845Y-84355499D01*
X140503497Y-84324737D01*
X140649179Y-84264394D01*
X140780289Y-84176789D01*
X140891789Y-84065289D01*
X140979394Y-83934179D01*
X141039737Y-83788497D01*
X141070500Y-83633842D01*
X141070500Y-83476158D01*
X141070500Y-83476155D01*
X141070499Y-83476153D01*
X141044264Y-83344257D01*
X141040662Y-83326153D01*
X142199500Y-83326153D01*
X142199500Y-83483846D01*
X142230261Y-83638489D01*
X142230264Y-83638501D01*
X142290602Y-83784172D01*
X142290609Y-83784185D01*
X142378210Y-83915288D01*
X142378213Y-83915292D01*
X142489707Y-84026786D01*
X142489711Y-84026789D01*
X142620814Y-84114390D01*
X142620827Y-84114397D01*
X142766498Y-84174735D01*
X142766503Y-84174737D01*
X142921153Y-84205499D01*
X142921156Y-84205500D01*
X142921158Y-84205500D01*
X143078844Y-84205500D01*
X143078845Y-84205499D01*
X143233497Y-84174737D01*
X143379179Y-84114394D01*
X143510289Y-84026789D01*
X143621789Y-83915289D01*
X143709394Y-83784179D01*
X143769737Y-83638497D01*
X143800500Y-83483842D01*
X143800500Y-83326158D01*
X143800500Y-83326155D01*
X143800499Y-83326153D01*
X143785472Y-83250609D01*
X143769737Y-83171503D01*
X143743065Y-83107110D01*
X143709397Y-83025827D01*
X143709390Y-83025814D01*
X143621789Y-82894711D01*
X143621786Y-82894707D01*
X143510292Y-82783213D01*
X143510288Y-82783210D01*
X143379185Y-82695609D01*
X143379172Y-82695602D01*
X143233501Y-82635264D01*
X143233489Y-82635261D01*
X143078845Y-82604500D01*
X143078842Y-82604500D01*
X142921158Y-82604500D01*
X142921155Y-82604500D01*
X142766510Y-82635261D01*
X142766498Y-82635264D01*
X142620827Y-82695602D01*
X142620814Y-82695609D01*
X142489711Y-82783210D01*
X142489707Y-82783213D01*
X142378213Y-82894707D01*
X142378210Y-82894711D01*
X142290609Y-83025814D01*
X142290602Y-83025827D01*
X142230264Y-83171498D01*
X142230261Y-83171510D01*
X142199500Y-83326153D01*
X141040662Y-83326153D01*
X141039738Y-83321507D01*
X141039735Y-83321498D01*
X140979397Y-83175827D01*
X140979390Y-83175814D01*
X140891789Y-83044711D01*
X140891786Y-83044707D01*
X140780292Y-82933213D01*
X140780288Y-82933210D01*
X140649185Y-82845609D01*
X140649172Y-82845602D01*
X140503501Y-82785264D01*
X140503489Y-82785261D01*
X140348845Y-82754500D01*
X140348842Y-82754500D01*
X140191158Y-82754500D01*
X140191155Y-82754500D01*
X140036510Y-82785261D01*
X140036498Y-82785264D01*
X139890827Y-82845602D01*
X139890814Y-82845609D01*
X139759711Y-82933210D01*
X139759707Y-82933213D01*
X139648213Y-83044707D01*
X139648210Y-83044711D01*
X139560609Y-83175814D01*
X139560602Y-83175827D01*
X139500264Y-83321498D01*
X139500261Y-83321510D01*
X139469500Y-83476153D01*
X137449457Y-83476153D01*
X137431789Y-83449711D01*
X137431786Y-83449707D01*
X137320292Y-83338213D01*
X137320288Y-83338210D01*
X137189185Y-83250609D01*
X137189172Y-83250602D01*
X137043501Y-83190264D01*
X137043492Y-83190261D01*
X136982400Y-83178109D01*
X136920490Y-83145723D01*
X136885916Y-83085007D01*
X136889657Y-83015237D01*
X136892034Y-83009035D01*
X136923444Y-82933213D01*
X136937418Y-82899479D01*
X136960498Y-82783466D01*
X136960498Y-82775941D01*
X136960498Y-82764199D01*
X136960500Y-82764197D01*
X136960500Y-82724307D01*
X136960501Y-82684441D01*
X136960500Y-82684438D01*
X136960500Y-81141941D01*
X136980185Y-81074902D01*
X137032989Y-81029147D01*
X137102147Y-81019203D01*
X137165703Y-81048228D01*
X137172181Y-81054260D01*
X137249707Y-81131786D01*
X137249711Y-81131789D01*
X137380814Y-81219390D01*
X137380827Y-81219397D01*
X137526498Y-81279735D01*
X137526503Y-81279737D01*
X137681153Y-81310499D01*
X137681156Y-81310500D01*
X137681158Y-81310500D01*
X137838844Y-81310500D01*
X137838845Y-81310499D01*
X137993497Y-81279737D01*
X138139179Y-81219394D01*
X138241111Y-81151284D01*
X138307786Y-81130408D01*
X138375166Y-81148892D01*
X138378847Y-81151257D01*
X138480821Y-81219394D01*
X138480823Y-81219395D01*
X138480827Y-81219397D01*
X138626498Y-81279735D01*
X138626503Y-81279737D01*
X138781153Y-81310499D01*
X138781156Y-81310500D01*
X138781158Y-81310500D01*
X138938844Y-81310500D01*
X138938845Y-81310499D01*
X139093497Y-81279737D01*
X139239179Y-81219394D01*
X139341111Y-81151284D01*
X139407786Y-81130408D01*
X139475166Y-81148892D01*
X139478847Y-81151257D01*
X139580821Y-81219394D01*
X139580823Y-81219395D01*
X139580827Y-81219397D01*
X139726498Y-81279735D01*
X139726503Y-81279737D01*
X139881153Y-81310499D01*
X139881156Y-81310500D01*
X139881158Y-81310500D01*
X140038844Y-81310500D01*
X140038845Y-81310499D01*
X140193497Y-81279737D01*
X140339179Y-81219394D01*
X140470289Y-81131789D01*
X140581789Y-81020289D01*
X140669394Y-80889179D01*
X140729737Y-80743497D01*
X140760500Y-80588842D01*
X140760500Y-80431158D01*
X140760500Y-80431155D01*
X140760499Y-80431153D01*
X140759500Y-80426130D01*
X140729737Y-80276503D01*
X140686224Y-80171452D01*
X140678755Y-80101983D01*
X140710030Y-80039504D01*
X140770119Y-80003852D01*
X140800785Y-80000000D01*
X141319215Y-80000000D01*
X141386254Y-80019685D01*
G37*
%TD.AperFunction*%
%TD*%
D13*
X135410000Y-128810000D03*
X145330000Y-119750000D03*
X142833400Y-90380000D03*
X132914892Y-128811727D03*
X143486600Y-90380000D03*
X147340446Y-117819545D03*
X141060000Y-81260000D03*
X141060000Y-80360000D03*
X138210000Y-93440000D03*
X145203200Y-88640000D03*
X153270000Y-120920000D03*
X145400000Y-128110000D03*
X141785000Y-92190000D03*
X141080000Y-127970000D03*
X142650000Y-121560000D03*
X136810000Y-83960000D03*
X138460000Y-90810000D03*
X142100000Y-91120000D03*
X156690000Y-149250000D03*
X129150000Y-127940000D03*
X140270000Y-83555000D03*
X156680000Y-137970000D03*
X145940000Y-89430000D03*
X143460000Y-88590000D03*
X136110000Y-85060000D03*
X139300000Y-123730000D03*
X145810000Y-86960000D03*
X146690000Y-128110000D03*
X156000000Y-123630000D03*
X143000000Y-83405000D03*
X143950000Y-123760000D03*
X144002007Y-90853667D03*
X143260000Y-80360000D03*
X149960000Y-123650000D03*
X147830000Y-128110000D03*
X125530000Y-138020000D03*
X140020000Y-127950000D03*
X125500000Y-149270000D03*
X137930000Y-127980000D03*
X145730000Y-83405000D03*
X138980000Y-127960000D03*
X145970000Y-91900000D03*
X140150000Y-92050000D03*
X143200000Y-128120000D03*
X144550000Y-88640000D03*
X152616800Y-120920000D03*
X144360000Y-80510000D03*
X145460000Y-80510000D03*
X138860000Y-80510000D03*
X137760000Y-80510000D03*
X139960000Y-80510000D03*
X142160000Y-80510000D03*
D14*
X152620000Y-134180000D03*
X129820000Y-134180000D03*
D15*
X154345000Y-137980000D03*
X128095000Y-137980000D03*
X154345000Y-149280000D03*
X128095000Y-149280000D03*
M02*
