%TF.GenerationSoftware,KiCad,Pcbnew,9.0.2*%
%TF.CreationDate,2025-06-23T10:18:23+08:00*%
%TF.ProjectId,SDEX2M2 MicroSD Express to SD Express Adapter,53444558-324d-4322-904d-6963726f5344,rev?*%
%TF.SameCoordinates,Original*%
%TF.FileFunction,Copper,L6,Bot*%
%TF.FilePolarity,Positive*%
%FSLAX46Y46*%
G04 Gerber Fmt 4.6, Leading zero omitted, Abs format (unit mm)*
G04 Created by KiCad (PCBNEW 9.0.2) date 2025-06-23 10:18:23*
%MOMM*%
%LPD*%
G01*
G04 APERTURE LIST*
%TA.AperFunction,SMDPad,CuDef*%
%ADD10R,0.500000X1.800000*%
%TD*%
%TA.AperFunction,ComponentPad*%
%ADD11O,1.158000X2.558000*%
%TD*%
%TA.AperFunction,ViaPad*%
%ADD12C,0.450000*%
%TD*%
%TA.AperFunction,ViaPad*%
%ADD13C,0.600000*%
%TD*%
%TA.AperFunction,Conductor*%
%ADD14C,0.200000*%
%TD*%
%TA.AperFunction,Conductor*%
%ADD15C,0.300000*%
%TD*%
%TA.AperFunction,Conductor*%
%ADD16C,0.400000*%
%TD*%
%ADD17C,0.300000*%
%ADD18C,0.350000*%
%ADD19O,0.650000X2.050000*%
G04 APERTURE END LIST*
D10*
%TO.P,J2,1,VSS3*%
%TO.N,GND*%
X129170000Y-130540000D03*
%TO.P,J2,2,RESERVED*%
%TO.N,unconnected-(J2-RESERVED-Pad2)*%
X130420000Y-130540000D03*
%TO.P,J2,3,DAT2*%
%TO.N,/CLKREQ*%
X131670000Y-130540000D03*
%TO.P,J2,4,PCIE_TX+*%
%TO.N,/TX-*%
X132920000Y-130540000D03*
%TO.P,J2,5,CD/DAT3*%
%TO.N,/PERST*%
X134170000Y-130540000D03*
%TO.P,J2,6,PCIE_TX-*%
%TO.N,/TX+*%
X135420000Y-130540000D03*
%TO.P,J2,7,CMD*%
%TO.N,/CMD*%
X136670000Y-130540000D03*
%TO.P,J2,8,CD*%
%TO.N,GND*%
X137920000Y-130540000D03*
%TO.P,J2,9,VSS1*%
X138970000Y-130540000D03*
%TO.P,J2,10,VSS4*%
X140020000Y-130540000D03*
%TO.P,J2,11,VDD2*%
%TO.N,Net-(J1-1V8)*%
X141070000Y-130540000D03*
%TO.P,J2,12,VDD*%
%TO.N,Net-(J1-3V3)*%
X142120000Y-130540000D03*
%TO.P,J2,13,PCIE_RX-*%
%TO.N,/RX-*%
X143170000Y-130540000D03*
%TO.P,J2,14,CLK*%
%TO.N,/CLK*%
X144220000Y-130540000D03*
%TO.P,J2,15,PCIE_RX+*%
%TO.N,/RX+*%
X145420000Y-130540000D03*
%TO.P,J2,16,VSS2*%
%TO.N,GND*%
X146670000Y-130540000D03*
%TO.P,J2,17,VSS5*%
X147870000Y-130540000D03*
%TO.P,J2,18,DAT0*%
%TO.N,/REFCLK+*%
X149095000Y-130540000D03*
%TO.P,J2,19,VDD3*%
%TO.N,unconnected-(J2-VDD3-Pad19)*%
X149945000Y-130540000D03*
%TO.P,J2,20,DAT1*%
%TO.N,/REFCLK-*%
X150795000Y-130540000D03*
%TO.P,J2,21,WP*%
%TO.N,unconnected-(J2-WP-Pad21)*%
X151995000Y-130540000D03*
D11*
%TO.P,J2,GND1,GND/SHIELD*%
%TO.N,GND*%
X154345000Y-137980000D03*
%TO.P,J2,GND2,GND/SHIELD__1*%
X128095000Y-137980000D03*
%TO.P,J2,GND3,GND/SHIELD__2*%
X154345000Y-149280000D03*
%TO.P,J2,GND4,GND/SHIELD__3*%
X128095000Y-149280000D03*
%TD*%
D12*
%TO.N,/TX+*%
X135410000Y-128810000D03*
X145330000Y-119750000D03*
X142833400Y-90380000D03*
%TO.N,/TX-*%
X132914892Y-128811727D03*
X143486600Y-90380000D03*
X147340446Y-117819545D03*
D13*
%TO.N,Net-(J1-3V3)*%
X141060000Y-81260000D03*
X141060000Y-80360000D03*
X138210000Y-93440000D03*
D12*
%TO.N,/RX+*%
X145203200Y-88640000D03*
X153270000Y-120920000D03*
X145400000Y-128110000D03*
%TO.N,Net-(J1-1V8)*%
X141785000Y-92190000D03*
X141080000Y-127970000D03*
X142650000Y-121560000D03*
D13*
%TO.N,GND*%
X136810000Y-83960000D03*
X138460000Y-90810000D03*
D12*
X142100000Y-91120000D03*
D13*
X156690000Y-149250000D03*
X129150000Y-127940000D03*
X140270000Y-83555000D03*
X156680000Y-137970000D03*
D12*
X145940000Y-89430000D03*
X143460000Y-88590000D03*
D13*
X136110000Y-85060000D03*
X139300000Y-123730000D03*
D12*
X145810000Y-86960000D03*
D13*
X146690000Y-128110000D03*
X156000000Y-123630000D03*
X143000000Y-83405000D03*
X143950000Y-123760000D03*
X144002007Y-90853667D03*
X143260000Y-80360000D03*
X149960000Y-123650000D03*
X147830000Y-128110000D03*
X125530000Y-138020000D03*
X140020000Y-127950000D03*
X125500000Y-149270000D03*
X137930000Y-127980000D03*
X145730000Y-83405000D03*
X138980000Y-127960000D03*
D12*
X145970000Y-91900000D03*
D13*
X140150000Y-92050000D03*
D12*
%TO.N,/RX-*%
X143200000Y-128120000D03*
X144550000Y-88640000D03*
X152616800Y-120920000D03*
%TO.N,/REFCLK+*%
X144360000Y-80510000D03*
%TO.N,/REFCLK-*%
X145460000Y-80510000D03*
D13*
%TO.N,/PERST*%
X138860000Y-80510000D03*
%TO.N,/CLKREQ*%
X137760000Y-80510000D03*
%TO.N,/CMD*%
X139960000Y-80510000D03*
%TO.N,/CLK*%
X142160000Y-80510000D03*
%TD*%
D14*
%TO.N,/TX+*%
X146288521Y-119680000D02*
X146820000Y-119148521D01*
X135420000Y-130540000D02*
X135420000Y-128820000D01*
X145400000Y-119680000D02*
X146288521Y-119680000D01*
X146820000Y-107138198D02*
X142932384Y-103250582D01*
X146820000Y-119148521D02*
X146820000Y-107138198D01*
X142932384Y-103250582D02*
X142932384Y-90478984D01*
X142932384Y-90478984D02*
X142833400Y-90380000D01*
X145330000Y-119750000D02*
X145400000Y-119680000D01*
X135420000Y-128820000D02*
X135410000Y-128810000D01*
%TO.N,/TX-*%
X147260000Y-117739099D02*
X147340446Y-117819545D01*
X143387616Y-103069418D02*
X147199554Y-106881356D01*
X132920000Y-128816835D02*
X132914892Y-128811727D01*
X143486600Y-90380000D02*
X143387616Y-90478984D01*
X147340446Y-117819545D02*
X147340446Y-117891447D01*
X143387616Y-90478984D02*
X143387616Y-103069418D01*
X147199554Y-106881356D02*
X147260000Y-106941802D01*
X147260000Y-106941802D02*
X147260000Y-117739099D01*
X132920000Y-130540000D02*
X132920000Y-128816835D01*
%TO.N,Net-(J1-3V3)*%
X131950000Y-121950000D02*
X134730000Y-124730000D01*
X140750000Y-126080000D02*
X142120000Y-127450000D01*
X142120000Y-127450000D02*
X142120000Y-130540000D01*
X138210000Y-100160000D02*
X131950000Y-106420000D01*
X131950000Y-106420000D02*
X131950000Y-121950000D01*
X138210000Y-93440000D02*
X138210000Y-100160000D01*
X138320000Y-124780000D02*
X139620000Y-126080000D01*
X134780000Y-124780000D02*
X138320000Y-124780000D01*
X139620000Y-126080000D02*
X140750000Y-126080000D01*
X134730000Y-124730000D02*
X134780000Y-124780000D01*
%TO.N,/RX+*%
X145051000Y-88847521D02*
X145000001Y-88898520D01*
X145000001Y-88898520D02*
X145000001Y-99731803D01*
X145420000Y-130540000D02*
X145420000Y-128130000D01*
X145000001Y-99731803D02*
X153168401Y-107900203D01*
X153168401Y-120818401D02*
X153270000Y-120920000D01*
X145203200Y-88640000D02*
X145051000Y-88792200D01*
X145420000Y-128130000D02*
X145400000Y-128110000D01*
X145051000Y-88792200D02*
X145051000Y-88847521D01*
X153168401Y-107900203D02*
X153168401Y-120818401D01*
%TO.N,Net-(J1-1V8)*%
X142650000Y-109000000D02*
X141785000Y-108135000D01*
X141070000Y-130540000D02*
X141070000Y-127980000D01*
D15*
X141785000Y-92190000D02*
X141785000Y-94185000D01*
D14*
X141070000Y-127980000D02*
X141080000Y-127970000D01*
X142650000Y-121560000D02*
X142650000Y-109000000D01*
X141070000Y-130540000D02*
X141070000Y-131190000D01*
X141785000Y-108135000D02*
X141785000Y-94185000D01*
%TO.N,GND*%
X143990000Y-89680000D02*
X143250000Y-88940000D01*
X128095000Y-137980000D02*
X125570000Y-137980000D01*
X143950000Y-105550000D02*
X143950000Y-123740000D01*
X149950000Y-107050000D02*
X149950000Y-123640000D01*
X143370000Y-88590000D02*
X143460000Y-88590000D01*
X142335000Y-94185000D02*
X142310000Y-94210000D01*
X128260000Y-129630000D02*
X128260000Y-128830000D01*
X129170000Y-130540000D02*
X128260000Y-129630000D01*
X140150000Y-101300000D02*
X140150000Y-92050000D01*
X144002007Y-90853667D02*
X143990000Y-90841660D01*
X146670000Y-128130000D02*
X146690000Y-128110000D01*
X146670000Y-130540000D02*
X146670000Y-128130000D01*
X143990000Y-90841660D02*
X143990000Y-89680000D01*
D15*
X142335000Y-94185000D02*
X142335000Y-91355000D01*
X143985000Y-94185000D02*
X143985000Y-92285000D01*
D14*
X143985000Y-101085000D02*
X149950000Y-107050000D01*
X143250000Y-88800000D02*
X143460000Y-88590000D01*
X143250000Y-88940000D02*
X143250000Y-88800000D01*
X138970000Y-127970000D02*
X138980000Y-127960000D01*
D15*
X143985000Y-92285000D02*
X143990000Y-92280000D01*
D14*
X135950000Y-105500000D02*
X140150000Y-101300000D01*
X156670000Y-137980000D02*
X156680000Y-137970000D01*
X128260000Y-128830000D02*
X129150000Y-127940000D01*
X143330000Y-88630000D02*
X143370000Y-88590000D01*
D16*
X140840000Y-83860000D02*
X140840000Y-86320000D01*
X140840000Y-86320000D02*
X138780000Y-88380000D01*
D14*
X125510000Y-149280000D02*
X125500000Y-149270000D01*
D15*
X143990000Y-90865674D02*
X144002007Y-90853667D01*
X140150000Y-88860000D02*
X140400000Y-88610000D01*
X142335000Y-91355000D02*
X142100000Y-91120000D01*
D14*
X139300000Y-123730000D02*
X135950000Y-120380000D01*
X135950000Y-120380000D02*
X135950000Y-105500000D01*
X147870000Y-128150000D02*
X147830000Y-128110000D01*
X142310000Y-94210000D02*
X142310000Y-103910000D01*
X154345000Y-137980000D02*
X156670000Y-137980000D01*
D15*
X143990000Y-92280000D02*
X143990000Y-90865674D01*
D16*
X140270000Y-83555000D02*
X140535000Y-83555000D01*
D14*
X128095000Y-149280000D02*
X125510000Y-149280000D01*
X138970000Y-130540000D02*
X138970000Y-127970000D01*
X145710000Y-99510000D02*
X145710000Y-92100000D01*
D16*
X140535000Y-83555000D02*
X140840000Y-83860000D01*
D14*
X142310000Y-103910000D02*
X143950000Y-105550000D01*
X156000000Y-123630000D02*
X156000000Y-109800000D01*
X125570000Y-137980000D02*
X125530000Y-138020000D01*
D15*
X140135000Y-92065000D02*
X140150000Y-92050000D01*
D14*
X149950000Y-123640000D02*
X149960000Y-123650000D01*
X137920000Y-130540000D02*
X137920000Y-127990000D01*
X143985000Y-94185000D02*
X143985000Y-101085000D01*
X147870000Y-130540000D02*
X147870000Y-128150000D01*
X145910000Y-91900000D02*
X145970000Y-91900000D01*
X154345000Y-149280000D02*
X156660000Y-149280000D01*
D15*
X140150000Y-92050000D02*
X140150000Y-88860000D01*
D14*
X140020000Y-130540000D02*
X140020000Y-127950000D01*
X156000000Y-109800000D02*
X145710000Y-99510000D01*
X156660000Y-149280000D02*
X156690000Y-149250000D01*
X137920000Y-127990000D02*
X137930000Y-127980000D01*
D16*
X138780000Y-88380000D02*
X138780000Y-88502190D01*
X143000000Y-83405000D02*
X143000000Y-85340000D01*
D14*
%TO.N,/RX-*%
X144550000Y-91084906D02*
X144550000Y-99918198D01*
X144553007Y-90625435D02*
X144553007Y-91081899D01*
X143170000Y-130540000D02*
X143170000Y-128150000D01*
X144550000Y-88640000D02*
X144550000Y-90622428D01*
X152724999Y-120811801D02*
X152616800Y-120920000D01*
X143170000Y-128150000D02*
X143200000Y-128120000D01*
X144550000Y-99918198D02*
X152724999Y-108093197D01*
X144553007Y-91081899D02*
X144550000Y-91084906D01*
X152724999Y-108093197D02*
X152724999Y-120811801D01*
X144550000Y-90622428D02*
X144553007Y-90625435D01*
%TO.N,/REFCLK+*%
X144360000Y-80510000D02*
X144360000Y-85721802D01*
X142706802Y-125405000D02*
X147876802Y-125405000D01*
X149720000Y-128564999D02*
X149095000Y-129189999D01*
X140825000Y-89256802D02*
X140825000Y-104806802D01*
X140825000Y-104806802D02*
X138724999Y-106906803D01*
X147876802Y-125405000D02*
X149720000Y-127248198D01*
X138724999Y-106906803D02*
X138724999Y-121423197D01*
X144360000Y-85721802D02*
X140825000Y-89256802D01*
X149720000Y-127248198D02*
X149720000Y-128564999D01*
X138724999Y-121423197D02*
X142706802Y-125405000D01*
X149095000Y-129189999D02*
X149095000Y-130540000D01*
%TO.N,/REFCLK-*%
X150795000Y-129189999D02*
X150795000Y-130540000D01*
X141275000Y-89443198D02*
X141275000Y-104993198D01*
X145135001Y-80834999D02*
X145135001Y-85583197D01*
X145460000Y-80510000D02*
X145135001Y-80834999D01*
X150170000Y-127061802D02*
X150170000Y-128564999D01*
X141275000Y-104993198D02*
X139175001Y-107093197D01*
X139175001Y-121236803D02*
X142893198Y-124955000D01*
X139175001Y-107093197D02*
X139175001Y-121236803D01*
X150170000Y-128564999D02*
X150795000Y-129189999D01*
X148063198Y-124955000D02*
X150170000Y-127061802D01*
X145135001Y-85583197D02*
X141275000Y-89443198D01*
X142893198Y-124955000D02*
X148063198Y-124955000D01*
%TO.N,/PERST*%
X127950000Y-108670000D02*
X127950000Y-121950000D01*
X138860000Y-85810000D02*
X136460000Y-88210000D01*
X134170000Y-128170000D02*
X127950000Y-121950000D01*
X138860000Y-80510000D02*
X138860000Y-85810000D01*
X134170000Y-130540000D02*
X134170000Y-128170000D01*
X136460000Y-100160000D02*
X127950000Y-108670000D01*
X136460000Y-88210000D02*
X136460000Y-100160000D01*
%TO.N,/CLKREQ*%
X131670000Y-130540000D02*
X131670000Y-127670000D01*
X137760000Y-86150000D02*
X135960000Y-87950000D01*
X135960000Y-99760000D02*
X125950000Y-109770000D01*
X131670000Y-127670000D02*
X125950000Y-121950000D01*
X135960000Y-87950000D02*
X135960000Y-99760000D01*
X125950000Y-109770000D02*
X125950000Y-121950000D01*
X137760000Y-80510000D02*
X137760000Y-86150000D01*
%TO.N,/CMD*%
X137060000Y-88990000D02*
X139690000Y-86360000D01*
X129950000Y-121950000D02*
X129950000Y-108850000D01*
X136670000Y-130540000D02*
X136670000Y-128670000D01*
X139690000Y-80780000D02*
X139960000Y-80510000D01*
X129960000Y-108840000D02*
X129960000Y-107460000D01*
X129950000Y-108850000D02*
X129960000Y-108840000D01*
X129960000Y-107460000D02*
X137060000Y-100360000D01*
X136670000Y-128670000D02*
X129950000Y-121950000D01*
X139690000Y-86360000D02*
X139690000Y-80780000D01*
X137060000Y-100360000D02*
X137060000Y-88990000D01*
%TO.N,/CLK*%
X144220000Y-128110000D02*
X141170000Y-125060000D01*
X133950000Y-121950000D02*
X133950000Y-105350000D01*
X139585000Y-88335000D02*
X142160000Y-85760000D01*
X142160000Y-85760000D02*
X142160000Y-80510000D01*
X136101000Y-124101000D02*
X133950000Y-121950000D01*
X139585000Y-99715000D02*
X139585000Y-88335000D01*
X139850768Y-125060000D02*
X138891768Y-124101000D01*
X133950000Y-105350000D02*
X139585000Y-99715000D01*
X138891768Y-124101000D02*
X136101000Y-124101000D01*
X141170000Y-125060000D02*
X139850768Y-125060000D01*
X144220000Y-130540000D02*
X144220000Y-128110000D01*
%TD*%
%TA.AperFunction,Conductor*%
%TO.N,GND*%
G36*
X146218361Y-80935851D02*
G01*
X146255081Y-80995294D01*
X146259500Y-81028101D01*
X146259500Y-99409785D01*
X146259410Y-99414511D01*
X146258125Y-99448194D01*
X146259109Y-99454368D01*
X146259110Y-99454370D01*
X146259253Y-99455271D01*
X146259500Y-99455867D01*
X146272405Y-99487024D01*
X146274115Y-99491387D01*
X146285815Y-99522993D01*
X146289074Y-99528298D01*
X146289569Y-99529104D01*
X146313833Y-99553368D01*
X146317112Y-99556774D01*
X146340027Y-99581507D01*
X146340029Y-99581507D01*
X146345083Y-99585171D01*
X146345084Y-99585172D01*
X146345836Y-99585717D01*
X146377546Y-99598851D01*
X146381879Y-99600743D01*
X158227288Y-105045316D01*
X158279979Y-105091198D01*
X158299500Y-105157983D01*
X158299500Y-169745500D01*
X158279815Y-169812539D01*
X158227011Y-169858294D01*
X158175500Y-169869500D01*
X123724512Y-169869500D01*
X123657473Y-169849815D01*
X123611718Y-169797011D01*
X123600512Y-169745495D01*
X123601295Y-149478633D01*
X123601333Y-148495081D01*
X127016000Y-148495081D01*
X127016000Y-149030000D01*
X127770000Y-149030000D01*
X127770000Y-149530000D01*
X127016000Y-149530000D01*
X127016000Y-150064918D01*
X127042568Y-150232666D01*
X127095053Y-150394196D01*
X127172159Y-150545522D01*
X127271979Y-150682914D01*
X127271983Y-150682919D01*
X127392080Y-150803016D01*
X127392085Y-150803020D01*
X127529477Y-150902840D01*
X127680805Y-150979946D01*
X127842336Y-151032431D01*
X127845000Y-151032853D01*
X127845000Y-150189618D01*
X127895446Y-150240064D01*
X127969555Y-150282851D01*
X128052213Y-150305000D01*
X128137787Y-150305000D01*
X128220445Y-150282851D01*
X128294554Y-150240064D01*
X128345000Y-150189618D01*
X128345000Y-151032853D01*
X128347663Y-151032431D01*
X128509194Y-150979946D01*
X128660522Y-150902840D01*
X128797914Y-150803020D01*
X128797919Y-150803016D01*
X128918016Y-150682919D01*
X128918020Y-150682914D01*
X129017840Y-150545522D01*
X129094946Y-150394196D01*
X129147431Y-150232666D01*
X129174000Y-150064918D01*
X129174000Y-149530000D01*
X128420000Y-149530000D01*
X128420000Y-149030000D01*
X129174000Y-149030000D01*
X129174000Y-148495081D01*
X153266000Y-148495081D01*
X153266000Y-149030000D01*
X154020000Y-149030000D01*
X154020000Y-149530000D01*
X153266000Y-149530000D01*
X153266000Y-150064918D01*
X153292568Y-150232666D01*
X153345053Y-150394196D01*
X153422159Y-150545522D01*
X153521979Y-150682914D01*
X153521983Y-150682919D01*
X153642080Y-150803016D01*
X153642085Y-150803020D01*
X153779477Y-150902840D01*
X153930805Y-150979946D01*
X154092336Y-151032431D01*
X154095000Y-151032853D01*
X154095000Y-150189618D01*
X154145446Y-150240064D01*
X154219555Y-150282851D01*
X154302213Y-150305000D01*
X154387787Y-150305000D01*
X154470445Y-150282851D01*
X154544554Y-150240064D01*
X154595000Y-150189618D01*
X154595000Y-151032853D01*
X154597663Y-151032431D01*
X154759194Y-150979946D01*
X154910522Y-150902840D01*
X155047914Y-150803020D01*
X155047919Y-150803016D01*
X155168016Y-150682919D01*
X155168020Y-150682914D01*
X155267840Y-150545522D01*
X155344946Y-150394196D01*
X155397431Y-150232666D01*
X155424000Y-150064918D01*
X155424000Y-149530000D01*
X154670000Y-149530000D01*
X154670000Y-149030000D01*
X155424000Y-149030000D01*
X155424000Y-148495081D01*
X155397431Y-148327333D01*
X155344946Y-148165803D01*
X155267840Y-148014477D01*
X155168020Y-147877085D01*
X155168016Y-147877080D01*
X155047919Y-147756983D01*
X155047914Y-147756979D01*
X154910522Y-147657159D01*
X154759194Y-147580053D01*
X154597666Y-147527569D01*
X154595000Y-147527145D01*
X154595000Y-148370382D01*
X154544554Y-148319936D01*
X154470445Y-148277149D01*
X154387787Y-148255000D01*
X154302213Y-148255000D01*
X154219555Y-148277149D01*
X154145446Y-148319936D01*
X154095000Y-148370382D01*
X154095000Y-147527145D01*
X154094999Y-147527145D01*
X154092333Y-147527569D01*
X153930805Y-147580053D01*
X153779477Y-147657159D01*
X153642085Y-147756979D01*
X153642080Y-147756983D01*
X153521983Y-147877080D01*
X153521979Y-147877085D01*
X153422159Y-148014477D01*
X153345053Y-148165803D01*
X153292568Y-148327333D01*
X153266000Y-148495081D01*
X129174000Y-148495081D01*
X129147431Y-148327333D01*
X129094946Y-148165803D01*
X129017840Y-148014477D01*
X128918020Y-147877085D01*
X128918016Y-147877080D01*
X128797919Y-147756983D01*
X128797914Y-147756979D01*
X128660522Y-147657159D01*
X128509194Y-147580053D01*
X128347666Y-147527569D01*
X128345000Y-147527145D01*
X128345000Y-148370382D01*
X128294554Y-148319936D01*
X128220445Y-148277149D01*
X128137787Y-148255000D01*
X128052213Y-148255000D01*
X127969555Y-148277149D01*
X127895446Y-148319936D01*
X127845000Y-148370382D01*
X127845000Y-147527145D01*
X127844999Y-147527145D01*
X127842333Y-147527569D01*
X127680805Y-147580053D01*
X127529477Y-147657159D01*
X127392085Y-147756979D01*
X127392080Y-147756983D01*
X127271983Y-147877080D01*
X127271979Y-147877085D01*
X127172159Y-148014477D01*
X127095053Y-148165803D01*
X127042568Y-148327333D01*
X127016000Y-148495081D01*
X123601333Y-148495081D01*
X123601333Y-148490204D01*
X123601441Y-145680000D01*
X131040000Y-145680000D01*
X151480000Y-145680000D01*
X151480000Y-138380000D01*
X131040000Y-138380000D01*
X131040000Y-145680000D01*
X123601441Y-145680000D01*
X123601731Y-138178633D01*
X123601769Y-137195081D01*
X127016000Y-137195081D01*
X127016000Y-137730000D01*
X127770000Y-137730000D01*
X127770000Y-138230000D01*
X127016000Y-138230000D01*
X127016000Y-138764918D01*
X127042568Y-138932666D01*
X127095053Y-139094196D01*
X127172159Y-139245522D01*
X127271979Y-139382914D01*
X127271983Y-139382919D01*
X127392080Y-139503016D01*
X127392085Y-139503020D01*
X127529477Y-139602840D01*
X127680805Y-139679946D01*
X127842336Y-139732431D01*
X127845000Y-139732853D01*
X127845000Y-138889618D01*
X127895446Y-138940064D01*
X127969555Y-138982851D01*
X128052213Y-139005000D01*
X128137787Y-139005000D01*
X128220445Y-138982851D01*
X128294554Y-138940064D01*
X128345000Y-138889618D01*
X128345000Y-139732853D01*
X128347663Y-139732431D01*
X128509194Y-139679946D01*
X128660522Y-139602840D01*
X128797914Y-139503020D01*
X128797919Y-139503016D01*
X128918016Y-139382919D01*
X128918020Y-139382914D01*
X129017840Y-139245522D01*
X129094946Y-139094196D01*
X129147431Y-138932666D01*
X129174000Y-138764918D01*
X129174000Y-138230000D01*
X128420000Y-138230000D01*
X128420000Y-137730000D01*
X129174000Y-137730000D01*
X129174000Y-137195081D01*
X153266000Y-137195081D01*
X153266000Y-137730000D01*
X154020000Y-137730000D01*
X154020000Y-138230000D01*
X153266000Y-138230000D01*
X153266000Y-138764918D01*
X153292568Y-138932666D01*
X153345053Y-139094196D01*
X153422159Y-139245522D01*
X153521979Y-139382914D01*
X153521983Y-139382919D01*
X153642080Y-139503016D01*
X153642085Y-139503020D01*
X153779477Y-139602840D01*
X153930805Y-139679946D01*
X154092336Y-139732431D01*
X154095000Y-139732853D01*
X154095000Y-138889618D01*
X154145446Y-138940064D01*
X154219555Y-138982851D01*
X154302213Y-139005000D01*
X154387787Y-139005000D01*
X154470445Y-138982851D01*
X154544554Y-138940064D01*
X154595000Y-138889618D01*
X154595000Y-139732852D01*
X154597663Y-139732431D01*
X154759194Y-139679946D01*
X154910522Y-139602840D01*
X155047914Y-139503020D01*
X155047919Y-139503016D01*
X155168016Y-139382919D01*
X155168020Y-139382914D01*
X155267840Y-139245522D01*
X155344946Y-139094196D01*
X155397431Y-138932666D01*
X155424000Y-138764918D01*
X155424000Y-138230000D01*
X154670000Y-138230000D01*
X154670000Y-137730000D01*
X155424000Y-137730000D01*
X155424000Y-137195081D01*
X155397431Y-137027333D01*
X155344946Y-136865803D01*
X155267840Y-136714477D01*
X155168020Y-136577085D01*
X155168016Y-136577080D01*
X155047919Y-136456983D01*
X155047914Y-136456979D01*
X154910522Y-136357159D01*
X154759194Y-136280053D01*
X154597666Y-136227569D01*
X154595000Y-136227145D01*
X154595000Y-137070382D01*
X154544554Y-137019936D01*
X154470445Y-136977149D01*
X154387787Y-136955000D01*
X154302213Y-136955000D01*
X154219555Y-136977149D01*
X154145446Y-137019936D01*
X154095000Y-137070382D01*
X154095000Y-136227145D01*
X154094999Y-136227145D01*
X154092333Y-136227569D01*
X153930805Y-136280053D01*
X153779477Y-136357159D01*
X153642085Y-136456979D01*
X153642080Y-136456983D01*
X153521983Y-136577080D01*
X153521979Y-136577085D01*
X153422159Y-136714477D01*
X153345053Y-136865803D01*
X153292568Y-137027333D01*
X153266000Y-137195081D01*
X129174000Y-137195081D01*
X129147431Y-137027333D01*
X129094946Y-136865803D01*
X129017840Y-136714477D01*
X128918020Y-136577085D01*
X128918016Y-136577080D01*
X128797919Y-136456983D01*
X128797914Y-136456979D01*
X128660522Y-136357159D01*
X128509194Y-136280053D01*
X128347666Y-136227569D01*
X128345000Y-136227145D01*
X128345000Y-137070382D01*
X128294554Y-137019936D01*
X128220445Y-136977149D01*
X128137787Y-136955000D01*
X128052213Y-136955000D01*
X127969555Y-136977149D01*
X127895446Y-137019936D01*
X127845000Y-137070382D01*
X127845000Y-136227145D01*
X127844999Y-136227145D01*
X127842333Y-136227569D01*
X127680805Y-136280053D01*
X127529477Y-136357159D01*
X127392085Y-136456979D01*
X127392080Y-136456983D01*
X127271983Y-136577080D01*
X127271979Y-136577085D01*
X127172159Y-136714477D01*
X127095053Y-136865803D01*
X127042568Y-137027333D01*
X127016000Y-137195081D01*
X123601769Y-137195081D01*
X123601769Y-137190204D01*
X123601889Y-134089448D01*
X128669500Y-134089448D01*
X128669500Y-134270551D01*
X128697829Y-134449410D01*
X128753787Y-134621636D01*
X128753788Y-134621639D01*
X128836006Y-134782997D01*
X128942441Y-134929494D01*
X128942445Y-134929499D01*
X129070500Y-135057554D01*
X129070505Y-135057558D01*
X129198287Y-135150396D01*
X129217006Y-135163996D01*
X129322484Y-135217740D01*
X129378360Y-135246211D01*
X129378363Y-135246212D01*
X129464476Y-135274191D01*
X129550591Y-135302171D01*
X129633429Y-135315291D01*
X129729449Y-135330500D01*
X129729454Y-135330500D01*
X129910551Y-135330500D01*
X129997259Y-135316765D01*
X130089409Y-135302171D01*
X130261639Y-135246211D01*
X130422994Y-135163996D01*
X130569501Y-135057553D01*
X130697553Y-134929501D01*
X130803996Y-134782994D01*
X130886211Y-134621639D01*
X130942171Y-134449409D01*
X130956765Y-134357259D01*
X130970500Y-134270551D01*
X130970500Y-134089448D01*
X151469500Y-134089448D01*
X151469500Y-134270551D01*
X151497829Y-134449410D01*
X151553787Y-134621636D01*
X151553788Y-134621639D01*
X151636006Y-134782997D01*
X151742441Y-134929494D01*
X151742445Y-134929499D01*
X151870500Y-135057554D01*
X151870505Y-135057558D01*
X151998287Y-135150396D01*
X152017006Y-135163996D01*
X152122484Y-135217740D01*
X152178360Y-135246211D01*
X152178363Y-135246212D01*
X152264476Y-135274191D01*
X152350591Y-135302171D01*
X152433429Y-135315291D01*
X152529449Y-135330500D01*
X152529454Y-135330500D01*
X152710551Y-135330500D01*
X152797259Y-135316765D01*
X152889409Y-135302171D01*
X153061639Y-135246211D01*
X153222994Y-135163996D01*
X153369501Y-135057553D01*
X153497553Y-134929501D01*
X153603996Y-134782994D01*
X153686211Y-134621639D01*
X153742171Y-134449409D01*
X153756765Y-134357259D01*
X153770500Y-134270551D01*
X153770500Y-134089448D01*
X153754019Y-133985397D01*
X153742171Y-133910591D01*
X153686211Y-133738361D01*
X153686211Y-133738360D01*
X153657740Y-133682484D01*
X153603996Y-133577006D01*
X153590396Y-133558287D01*
X153497558Y-133430505D01*
X153497554Y-133430500D01*
X153369499Y-133302445D01*
X153369494Y-133302441D01*
X153222997Y-133196006D01*
X153222996Y-133196005D01*
X153222994Y-133196004D01*
X153171300Y-133169664D01*
X153061639Y-133113788D01*
X153061636Y-133113787D01*
X152889410Y-133057829D01*
X152710551Y-133029500D01*
X152710546Y-133029500D01*
X152529454Y-133029500D01*
X152529449Y-133029500D01*
X152350589Y-133057829D01*
X152178363Y-133113787D01*
X152178360Y-133113788D01*
X152017002Y-133196006D01*
X151870505Y-133302441D01*
X151870500Y-133302445D01*
X151742445Y-133430500D01*
X151742441Y-133430505D01*
X151636006Y-133577002D01*
X151553788Y-133738360D01*
X151553787Y-133738363D01*
X151497829Y-133910589D01*
X151469500Y-134089448D01*
X130970500Y-134089448D01*
X130954019Y-133985397D01*
X130942171Y-133910591D01*
X130886211Y-133738361D01*
X130886211Y-133738360D01*
X130857740Y-133682484D01*
X130803996Y-133577006D01*
X130790396Y-133558287D01*
X130697558Y-133430505D01*
X130697554Y-133430500D01*
X130569499Y-133302445D01*
X130569494Y-133302441D01*
X130422997Y-133196006D01*
X130422996Y-133196005D01*
X130422994Y-133196004D01*
X130371300Y-133169664D01*
X130261639Y-133113788D01*
X130261636Y-133113787D01*
X130089410Y-133057829D01*
X129910551Y-133029500D01*
X129910546Y-133029500D01*
X129729454Y-133029500D01*
X129729449Y-133029500D01*
X129550589Y-133057829D01*
X129378363Y-133113787D01*
X129378360Y-133113788D01*
X129217002Y-133196006D01*
X129070505Y-133302441D01*
X129070500Y-133302445D01*
X128942445Y-133430500D01*
X128942441Y-133430505D01*
X128836006Y-133577002D01*
X128753788Y-133738360D01*
X128753787Y-133738363D01*
X128697829Y-133910589D01*
X128669500Y-134089448D01*
X123601889Y-134089448D01*
X123601889Y-134084577D01*
X123601976Y-131824737D01*
X123601989Y-131487844D01*
X128420000Y-131487844D01*
X128426401Y-131547372D01*
X128426403Y-131547379D01*
X128476645Y-131682086D01*
X128476649Y-131682093D01*
X128562809Y-131797187D01*
X128562812Y-131797190D01*
X128677906Y-131883350D01*
X128677913Y-131883354D01*
X128812620Y-131933596D01*
X128812627Y-131933598D01*
X128872155Y-131939999D01*
X128872172Y-131940000D01*
X128920000Y-131940000D01*
X128920000Y-130790000D01*
X128420000Y-130790000D01*
X128420000Y-131487844D01*
X123601989Y-131487844D01*
X123602062Y-129592155D01*
X128420000Y-129592155D01*
X128420000Y-130290000D01*
X128920000Y-130290000D01*
X128920000Y-129140000D01*
X128872155Y-129140000D01*
X128812627Y-129146401D01*
X128812620Y-129146403D01*
X128677913Y-129196645D01*
X128677906Y-129196649D01*
X128562812Y-129282809D01*
X128562809Y-129282812D01*
X128476649Y-129397906D01*
X128476645Y-129397913D01*
X128426403Y-129532620D01*
X128426401Y-129532627D01*
X128420000Y-129592155D01*
X123602062Y-129592155D01*
X123603005Y-105158104D01*
X123622692Y-105091070D01*
X123675277Y-105045418D01*
X134414566Y-100116415D01*
X134483702Y-100106342D01*
X134547313Y-100135247D01*
X134585198Y-100193954D01*
X134585330Y-100263823D01*
X134553968Y-100316794D01*
X125581286Y-109289478D01*
X125469481Y-109401282D01*
X125469479Y-109401285D01*
X125419361Y-109488094D01*
X125419359Y-109488096D01*
X125390425Y-109538209D01*
X125390424Y-109538210D01*
X125390423Y-109538215D01*
X125349499Y-109690943D01*
X125349499Y-109690945D01*
X125349499Y-109859046D01*
X125349500Y-109859059D01*
X125349500Y-121863330D01*
X125349499Y-121863348D01*
X125349499Y-122029054D01*
X125349498Y-122029054D01*
X125390423Y-122181785D01*
X125402631Y-122202929D01*
X125402632Y-122202932D01*
X125469475Y-122318709D01*
X125469481Y-122318717D01*
X125588349Y-122437585D01*
X125588355Y-122437590D01*
X131033181Y-127882416D01*
X131066666Y-127943739D01*
X131069500Y-127970097D01*
X131069500Y-129076230D01*
X131049815Y-129143269D01*
X130997011Y-129189024D01*
X130927853Y-129198968D01*
X130902168Y-129192412D01*
X130777488Y-129145910D01*
X130777484Y-129145909D01*
X130777483Y-129145909D01*
X130717873Y-129139500D01*
X130717863Y-129139500D01*
X130122129Y-129139500D01*
X130122123Y-129139501D01*
X130062516Y-129145908D01*
X129927671Y-129196202D01*
X129927665Y-129196205D01*
X129868891Y-129240203D01*
X129803427Y-129264619D01*
X129735154Y-129249767D01*
X129720271Y-129240202D01*
X129662088Y-129196647D01*
X129662086Y-129196645D01*
X129527379Y-129146403D01*
X129527372Y-129146401D01*
X129467844Y-129140000D01*
X129420000Y-129140000D01*
X129420000Y-131940000D01*
X129467828Y-131940000D01*
X129467844Y-131939999D01*
X129527372Y-131933598D01*
X129527379Y-131933596D01*
X129662086Y-131883354D01*
X129662089Y-131883352D01*
X129720271Y-131839797D01*
X129785735Y-131815379D01*
X129854008Y-131830230D01*
X129868887Y-131839792D01*
X129927075Y-131883351D01*
X129927668Y-131883795D01*
X129927671Y-131883797D01*
X129972618Y-131900561D01*
X130062517Y-131934091D01*
X130122127Y-131940500D01*
X130717872Y-131940499D01*
X130777483Y-131934091D01*
X130912331Y-131883796D01*
X130970689Y-131840108D01*
X131036153Y-131815692D01*
X131104426Y-131830543D01*
X131119309Y-131840107D01*
X131175967Y-131882522D01*
X131177669Y-131883796D01*
X131177671Y-131883797D01*
X131222618Y-131900561D01*
X131312517Y-131934091D01*
X131372127Y-131940500D01*
X131967872Y-131940499D01*
X132027483Y-131934091D01*
X132162331Y-131883796D01*
X132220689Y-131840108D01*
X132286153Y-131815692D01*
X132354426Y-131830543D01*
X132369309Y-131840107D01*
X132425967Y-131882522D01*
X132427669Y-131883796D01*
X132427671Y-131883797D01*
X132472618Y-131900561D01*
X132562517Y-131934091D01*
X132622127Y-131940500D01*
X133217872Y-131940499D01*
X133277483Y-131934091D01*
X133412331Y-131883796D01*
X133470689Y-131840108D01*
X133536153Y-131815692D01*
X133604426Y-131830543D01*
X133619309Y-131840107D01*
X133675967Y-131882522D01*
X133677669Y-131883796D01*
X133677671Y-131883797D01*
X133722618Y-131900561D01*
X133812517Y-131934091D01*
X133872127Y-131940500D01*
X134467872Y-131940499D01*
X134527483Y-131934091D01*
X134662331Y-131883796D01*
X134720689Y-131840108D01*
X134786153Y-131815692D01*
X134854426Y-131830543D01*
X134869309Y-131840107D01*
X134925967Y-131882522D01*
X134927669Y-131883796D01*
X134927671Y-131883797D01*
X134972618Y-131900561D01*
X135062517Y-131934091D01*
X135122127Y-131940500D01*
X135717872Y-131940499D01*
X135777483Y-131934091D01*
X135912331Y-131883796D01*
X135970689Y-131840108D01*
X136036153Y-131815692D01*
X136104426Y-131830543D01*
X136119309Y-131840107D01*
X136175967Y-131882522D01*
X136177669Y-131883796D01*
X136177671Y-131883797D01*
X136222618Y-131900561D01*
X136312517Y-131934091D01*
X136372127Y-131940500D01*
X136967872Y-131940499D01*
X137027483Y-131934091D01*
X137162331Y-131883796D01*
X137221105Y-131839797D01*
X137286568Y-131815380D01*
X137354841Y-131830231D01*
X137369726Y-131839797D01*
X137427907Y-131883350D01*
X137427913Y-131883354D01*
X137562620Y-131933596D01*
X137562627Y-131933598D01*
X137622155Y-131939999D01*
X137622172Y-131940000D01*
X137670000Y-131940000D01*
X138170000Y-131940000D01*
X138217828Y-131940000D01*
X138217844Y-131939999D01*
X138277372Y-131933598D01*
X138277383Y-131933595D01*
X138401666Y-131887240D01*
X138471357Y-131882255D01*
X138488334Y-131887240D01*
X138612616Y-131933595D01*
X138612627Y-131933598D01*
X138672155Y-131939999D01*
X138672172Y-131940000D01*
X138720000Y-131940000D01*
X139220000Y-131940000D01*
X139267828Y-131940000D01*
X139267844Y-131939999D01*
X139327372Y-131933598D01*
X139327383Y-131933595D01*
X139451666Y-131887240D01*
X139521357Y-131882255D01*
X139538334Y-131887240D01*
X139662616Y-131933595D01*
X139662627Y-131933598D01*
X139722155Y-131939999D01*
X139722172Y-131940000D01*
X139770000Y-131940000D01*
X139770000Y-130790000D01*
X139220000Y-130790000D01*
X139220000Y-131940000D01*
X138720000Y-131940000D01*
X138720000Y-130790000D01*
X138170000Y-130790000D01*
X138170000Y-131940000D01*
X137670000Y-131940000D01*
X137670000Y-130290000D01*
X138170000Y-130290000D01*
X138720000Y-130290000D01*
X139220000Y-130290000D01*
X139770000Y-130290000D01*
X139770000Y-129140000D01*
X139722155Y-129140000D01*
X139662627Y-129146401D01*
X139662619Y-129146403D01*
X139538333Y-129192759D01*
X139468641Y-129197743D01*
X139451667Y-129192759D01*
X139327380Y-129146403D01*
X139327372Y-129146401D01*
X139267844Y-129140000D01*
X139220000Y-129140000D01*
X139220000Y-130290000D01*
X138720000Y-130290000D01*
X138720000Y-129140000D01*
X138672155Y-129140000D01*
X138612627Y-129146401D01*
X138612619Y-129146403D01*
X138488333Y-129192759D01*
X138418641Y-129197743D01*
X138401667Y-129192759D01*
X138277380Y-129146403D01*
X138277372Y-129146401D01*
X138217844Y-129140000D01*
X138170000Y-129140000D01*
X138170000Y-130290000D01*
X137670000Y-130290000D01*
X137670000Y-129140000D01*
X137622155Y-129140000D01*
X137562627Y-129146401D01*
X137562617Y-129146403D01*
X137437832Y-129192945D01*
X137368141Y-129197929D01*
X137306818Y-129164443D01*
X137273334Y-129103120D01*
X137270500Y-129076763D01*
X137270500Y-128590945D01*
X137270499Y-128590941D01*
X137256506Y-128538716D01*
X137229577Y-128438215D01*
X137179676Y-128351785D01*
X137150520Y-128301284D01*
X137038716Y-128189480D01*
X137038715Y-128189479D01*
X137034385Y-128185149D01*
X137034374Y-128185139D01*
X134363861Y-125514626D01*
X134330376Y-125453303D01*
X134335360Y-125383611D01*
X134377232Y-125327678D01*
X134442696Y-125303261D01*
X134510969Y-125318113D01*
X134513533Y-125319552D01*
X134548216Y-125339577D01*
X134700943Y-125380501D01*
X134700945Y-125380501D01*
X134866654Y-125380501D01*
X134866670Y-125380500D01*
X138019903Y-125380500D01*
X138086942Y-125400185D01*
X138107583Y-125416818D01*
X139251284Y-126560520D01*
X139251286Y-126560521D01*
X139251290Y-126560524D01*
X139388209Y-126639573D01*
X139388216Y-126639577D01*
X139540943Y-126680501D01*
X139540945Y-126680501D01*
X139706654Y-126680501D01*
X139706670Y-126680500D01*
X140449903Y-126680500D01*
X140516942Y-126700185D01*
X140537583Y-126716818D01*
X140896089Y-127075325D01*
X140929574Y-127136647D01*
X140924590Y-127206339D01*
X140882718Y-127262272D01*
X140855861Y-127277566D01*
X140736350Y-127327069D01*
X140736340Y-127327074D01*
X140617521Y-127406467D01*
X140617517Y-127406470D01*
X140516470Y-127507517D01*
X140516467Y-127507521D01*
X140437074Y-127626340D01*
X140437069Y-127626349D01*
X140382381Y-127758379D01*
X140382379Y-127758385D01*
X140354500Y-127898542D01*
X140354500Y-127898545D01*
X140354500Y-128041455D01*
X140354500Y-128041457D01*
X140354499Y-128041457D01*
X140382379Y-128181614D01*
X140382381Y-128181620D01*
X140431947Y-128301284D01*
X140437071Y-128313653D01*
X140448602Y-128330910D01*
X140469480Y-128397584D01*
X140469500Y-128399800D01*
X140469500Y-129018260D01*
X140449815Y-129085299D01*
X140397011Y-129131054D01*
X140332245Y-129141550D01*
X140317828Y-129140000D01*
X140270000Y-129140000D01*
X140270000Y-131940000D01*
X140317828Y-131940000D01*
X140317844Y-131939999D01*
X140377372Y-131933598D01*
X140377376Y-131933597D01*
X140500951Y-131887506D01*
X140570643Y-131882522D01*
X140587605Y-131887501D01*
X140688333Y-131925071D01*
X140712511Y-131934089D01*
X140712517Y-131934091D01*
X140772127Y-131940500D01*
X141367872Y-131940499D01*
X141427483Y-131934091D01*
X141551668Y-131887772D01*
X141621357Y-131882788D01*
X141638324Y-131887770D01*
X141724965Y-131920085D01*
X141762511Y-131934089D01*
X141762517Y-131934091D01*
X141822127Y-131940500D01*
X142417872Y-131940499D01*
X142477483Y-131934091D01*
X142601668Y-131887772D01*
X142671357Y-131882788D01*
X142688324Y-131887770D01*
X142774965Y-131920085D01*
X142812511Y-131934089D01*
X142812517Y-131934091D01*
X142872127Y-131940500D01*
X143467872Y-131940499D01*
X143527483Y-131934091D01*
X143651668Y-131887772D01*
X143721357Y-131882788D01*
X143738324Y-131887770D01*
X143824965Y-131920085D01*
X143862511Y-131934089D01*
X143862517Y-131934091D01*
X143922127Y-131940500D01*
X144517872Y-131940499D01*
X144577483Y-131934091D01*
X144615035Y-131920085D01*
X144712329Y-131883797D01*
X144712329Y-131883796D01*
X144712331Y-131883796D01*
X144745689Y-131858823D01*
X144811151Y-131834406D01*
X144879425Y-131849257D01*
X144894305Y-131858820D01*
X144927669Y-131883796D01*
X144927670Y-131883796D01*
X144927670Y-131883797D01*
X144994998Y-131908908D01*
X145062517Y-131934091D01*
X145122127Y-131940500D01*
X145717872Y-131940499D01*
X145777483Y-131934091D01*
X145912331Y-131883796D01*
X145971105Y-131839797D01*
X146036568Y-131815380D01*
X146104841Y-131830231D01*
X146119726Y-131839797D01*
X146177907Y-131883350D01*
X146177913Y-131883354D01*
X146312620Y-131933596D01*
X146312627Y-131933598D01*
X146372155Y-131939999D01*
X146372172Y-131940000D01*
X146420000Y-131940000D01*
X146920000Y-131940000D01*
X146967828Y-131940000D01*
X146967844Y-131939999D01*
X147027372Y-131933598D01*
X147027376Y-131933597D01*
X147162090Y-131883351D01*
X147195688Y-131858200D01*
X147261152Y-131833782D01*
X147329425Y-131848633D01*
X147344312Y-131858200D01*
X147377909Y-131883351D01*
X147512623Y-131933597D01*
X147512627Y-131933598D01*
X147572155Y-131939999D01*
X147572172Y-131940000D01*
X147620000Y-131940000D01*
X147620000Y-130790000D01*
X146920000Y-130790000D01*
X146920000Y-131940000D01*
X146420000Y-131940000D01*
X146420000Y-130290000D01*
X146920000Y-130290000D01*
X147620000Y-130290000D01*
X147620000Y-129140000D01*
X147572155Y-129140000D01*
X147512627Y-129146401D01*
X147512620Y-129146403D01*
X147377913Y-129196645D01*
X147377907Y-129196648D01*
X147344309Y-129221800D01*
X147278845Y-129246216D01*
X147210572Y-129231364D01*
X147195691Y-129221800D01*
X147162092Y-129196648D01*
X147162086Y-129196645D01*
X147027379Y-129146403D01*
X147027372Y-129146401D01*
X146967844Y-129140000D01*
X146920000Y-129140000D01*
X146920000Y-130290000D01*
X146420000Y-130290000D01*
X146420000Y-129140000D01*
X146372155Y-129140000D01*
X146312627Y-129146401D01*
X146312617Y-129146403D01*
X146187832Y-129192945D01*
X146118141Y-129197929D01*
X146056818Y-129164443D01*
X146023334Y-129103120D01*
X146020500Y-129076763D01*
X146020500Y-128524834D01*
X146040185Y-128457795D01*
X146041342Y-128456027D01*
X146042929Y-128453653D01*
X146097619Y-128321620D01*
X146109531Y-128261737D01*
X146125500Y-128181457D01*
X146125500Y-128038542D01*
X146097620Y-127898385D01*
X146097619Y-127898384D01*
X146097619Y-127898380D01*
X146042929Y-127766347D01*
X146042928Y-127766346D01*
X146042925Y-127766340D01*
X145963532Y-127647521D01*
X145963529Y-127647517D01*
X145862482Y-127546470D01*
X145862478Y-127546467D01*
X145743659Y-127467074D01*
X145743650Y-127467069D01*
X145611620Y-127412381D01*
X145611614Y-127412379D01*
X145471457Y-127384500D01*
X145471455Y-127384500D01*
X145328545Y-127384500D01*
X145328543Y-127384500D01*
X145188385Y-127412379D01*
X145188379Y-127412381D01*
X145056349Y-127467069D01*
X145056340Y-127467074D01*
X144937521Y-127546467D01*
X144937517Y-127546470D01*
X144836470Y-127647517D01*
X144836464Y-127647525D01*
X144828398Y-127659596D01*
X144812232Y-127673104D01*
X144799610Y-127689967D01*
X144785962Y-127695057D01*
X144774784Y-127704399D01*
X144753882Y-127707023D01*
X144734146Y-127714385D01*
X144719910Y-127711288D01*
X144705459Y-127713103D01*
X144686459Y-127704011D01*
X144665873Y-127699534D01*
X144645987Y-127684647D01*
X144642432Y-127682946D01*
X144637619Y-127678383D01*
X144618832Y-127659596D01*
X144588716Y-127629480D01*
X144588713Y-127629478D01*
X143176416Y-126217181D01*
X143142931Y-126155858D01*
X143147915Y-126086166D01*
X143189787Y-126030233D01*
X143255251Y-126005816D01*
X143264097Y-126005500D01*
X147576705Y-126005500D01*
X147643744Y-126025185D01*
X147664386Y-126041819D01*
X149083181Y-127460614D01*
X149116666Y-127521937D01*
X149119500Y-127548295D01*
X149119500Y-128264901D01*
X149099815Y-128331940D01*
X149083181Y-128352582D01*
X148614481Y-128821281D01*
X148614479Y-128821284D01*
X148597110Y-128851369D01*
X148579740Y-128881455D01*
X148535423Y-128958214D01*
X148501371Y-129085299D01*
X148496895Y-129102002D01*
X148460529Y-129161662D01*
X148397682Y-129192191D01*
X148333787Y-129186090D01*
X148227380Y-129146403D01*
X148227372Y-129146401D01*
X148167844Y-129140000D01*
X148120000Y-129140000D01*
X148120000Y-131940000D01*
X148167828Y-131940000D01*
X148167844Y-131939999D01*
X148227372Y-131933598D01*
X148227379Y-131933596D01*
X148362086Y-131883354D01*
X148362089Y-131883352D01*
X148407771Y-131849155D01*
X148473235Y-131824737D01*
X148541508Y-131839588D01*
X148556392Y-131849153D01*
X148602075Y-131883351D01*
X148602668Y-131883795D01*
X148602671Y-131883797D01*
X148647618Y-131900561D01*
X148737517Y-131934091D01*
X148797127Y-131940500D01*
X149392872Y-131940499D01*
X149452483Y-131934091D01*
X149476663Y-131925071D01*
X149546353Y-131920085D01*
X149563329Y-131925069D01*
X149587517Y-131934091D01*
X149647127Y-131940500D01*
X150242872Y-131940499D01*
X150302483Y-131934091D01*
X150326663Y-131925071D01*
X150396353Y-131920085D01*
X150413329Y-131925069D01*
X150437517Y-131934091D01*
X150497127Y-131940500D01*
X151092872Y-131940499D01*
X151152483Y-131934091D01*
X151190035Y-131920085D01*
X151287329Y-131883797D01*
X151287329Y-131883796D01*
X151287331Y-131883796D01*
X151320689Y-131858823D01*
X151386151Y-131834406D01*
X151454425Y-131849257D01*
X151469305Y-131858820D01*
X151502669Y-131883796D01*
X151502670Y-131883796D01*
X151502670Y-131883797D01*
X151569998Y-131908908D01*
X151637517Y-131934091D01*
X151697127Y-131940500D01*
X152292872Y-131940499D01*
X152352483Y-131934091D01*
X152487331Y-131883796D01*
X152602546Y-131797546D01*
X152688796Y-131682331D01*
X152739091Y-131547483D01*
X152745500Y-131487873D01*
X152745499Y-129592128D01*
X152739091Y-129532517D01*
X152688884Y-129397906D01*
X152688797Y-129397671D01*
X152688793Y-129397664D01*
X152602547Y-129282455D01*
X152602544Y-129282452D01*
X152487335Y-129196206D01*
X152487328Y-129196202D01*
X152352486Y-129145910D01*
X152352485Y-129145909D01*
X152352483Y-129145909D01*
X152292873Y-129139500D01*
X152292863Y-129139500D01*
X151697129Y-129139500D01*
X151697123Y-129139501D01*
X151637516Y-129145908D01*
X151553810Y-129177129D01*
X151484118Y-129182113D01*
X151422795Y-129148627D01*
X151390704Y-129093043D01*
X151354577Y-128958215D01*
X151310260Y-128881455D01*
X151275524Y-128821289D01*
X151275521Y-128821285D01*
X151275520Y-128821283D01*
X151163716Y-128709479D01*
X151163715Y-128709478D01*
X151159385Y-128705148D01*
X151159374Y-128705138D01*
X150806819Y-128352583D01*
X150773334Y-128291260D01*
X150770500Y-128264902D01*
X150770500Y-127150861D01*
X150770501Y-127150848D01*
X150770501Y-126982747D01*
X150770501Y-126982745D01*
X150729577Y-126830017D01*
X150693585Y-126767678D01*
X150693585Y-126767676D01*
X150650524Y-126693092D01*
X150650521Y-126693088D01*
X150650520Y-126693086D01*
X150538716Y-126581282D01*
X150538715Y-126581281D01*
X150534385Y-126576951D01*
X150534374Y-126576941D01*
X148550788Y-124593355D01*
X148550786Y-124593352D01*
X148431915Y-124474481D01*
X148431914Y-124474480D01*
X148345102Y-124424360D01*
X148345102Y-124424359D01*
X148345098Y-124424358D01*
X148294983Y-124395423D01*
X148142255Y-124354499D01*
X147984141Y-124354499D01*
X147976545Y-124354499D01*
X147976529Y-124354500D01*
X143193296Y-124354500D01*
X143126257Y-124334815D01*
X143105615Y-124318181D01*
X139811820Y-121024386D01*
X139778335Y-120963063D01*
X139775501Y-120936705D01*
X139775501Y-107393294D01*
X139795186Y-107326255D01*
X139811820Y-107305613D01*
X140972819Y-106144614D01*
X141034142Y-106111129D01*
X141103834Y-106116113D01*
X141159767Y-106157985D01*
X141184184Y-106223449D01*
X141184500Y-106232295D01*
X141184500Y-108048330D01*
X141184499Y-108048348D01*
X141184499Y-108214054D01*
X141184498Y-108214054D01*
X141225423Y-108366787D01*
X141233470Y-108380723D01*
X141233469Y-108380723D01*
X141233471Y-108380725D01*
X141304475Y-108503709D01*
X141304481Y-108503717D01*
X141423349Y-108622585D01*
X141423355Y-108622590D01*
X142013181Y-109212416D01*
X142046666Y-109273739D01*
X142049500Y-109300097D01*
X142049500Y-121115232D01*
X142029815Y-121182271D01*
X142028603Y-121184122D01*
X142007070Y-121216348D01*
X141952381Y-121348379D01*
X141952379Y-121348385D01*
X141924500Y-121488542D01*
X141924500Y-121488545D01*
X141924500Y-121631455D01*
X141924500Y-121631457D01*
X141924499Y-121631457D01*
X141952379Y-121771614D01*
X141952381Y-121771620D01*
X142007069Y-121903650D01*
X142007074Y-121903659D01*
X142086467Y-122022478D01*
X142086470Y-122022482D01*
X142187517Y-122123529D01*
X142187521Y-122123532D01*
X142306340Y-122202925D01*
X142306347Y-122202929D01*
X142438380Y-122257619D01*
X142438384Y-122257619D01*
X142438385Y-122257620D01*
X142578542Y-122285500D01*
X142578545Y-122285500D01*
X142721457Y-122285500D01*
X142815751Y-122266742D01*
X142861620Y-122257619D01*
X142993653Y-122202929D01*
X143112479Y-122123532D01*
X143213532Y-122022479D01*
X143292929Y-121903653D01*
X143347619Y-121771620D01*
X143360851Y-121705101D01*
X143375500Y-121631457D01*
X143375500Y-121488542D01*
X143347620Y-121348385D01*
X143347619Y-121348384D01*
X143347619Y-121348380D01*
X143292929Y-121216347D01*
X143271396Y-121184121D01*
X143250520Y-121117444D01*
X143250500Y-121115232D01*
X143250500Y-109089060D01*
X143250501Y-109089047D01*
X143250501Y-108920944D01*
X143250501Y-108920943D01*
X143209577Y-108768216D01*
X143205378Y-108760943D01*
X143130524Y-108631290D01*
X143130518Y-108631282D01*
X142421819Y-107922583D01*
X142388334Y-107861260D01*
X142385500Y-107834902D01*
X142385500Y-103852295D01*
X142405185Y-103785256D01*
X142457989Y-103739501D01*
X142527147Y-103729557D01*
X142590703Y-103758582D01*
X142597181Y-103764614D01*
X146183181Y-107350614D01*
X146216666Y-107411937D01*
X146219500Y-107438295D01*
X146219500Y-118848424D01*
X146210855Y-118877864D01*
X146204332Y-118907851D01*
X146200577Y-118912866D01*
X146199815Y-118915463D01*
X146183181Y-118936105D01*
X146076105Y-119043181D01*
X146014782Y-119076666D01*
X145988424Y-119079500D01*
X145631756Y-119079500D01*
X145584303Y-119070061D01*
X145582859Y-119069463D01*
X145541620Y-119052381D01*
X145541614Y-119052379D01*
X145401457Y-119024500D01*
X145401455Y-119024500D01*
X145258545Y-119024500D01*
X145258543Y-119024500D01*
X145118385Y-119052379D01*
X145118379Y-119052381D01*
X144986349Y-119107069D01*
X144986340Y-119107074D01*
X144867521Y-119186467D01*
X144867517Y-119186470D01*
X144766470Y-119287517D01*
X144766467Y-119287521D01*
X144687074Y-119406340D01*
X144687069Y-119406349D01*
X144632381Y-119538379D01*
X144632379Y-119538385D01*
X144604500Y-119678542D01*
X144604500Y-119678545D01*
X144604500Y-119821455D01*
X144604500Y-119821457D01*
X144604499Y-119821457D01*
X144632379Y-119961614D01*
X144632381Y-119961620D01*
X144687069Y-120093650D01*
X144687074Y-120093659D01*
X144766467Y-120212478D01*
X144766470Y-120212482D01*
X144867517Y-120313529D01*
X144867521Y-120313532D01*
X144986340Y-120392925D01*
X144986346Y-120392928D01*
X144986347Y-120392929D01*
X145118380Y-120447619D01*
X145118384Y-120447619D01*
X145118385Y-120447620D01*
X145258542Y-120475500D01*
X145258545Y-120475500D01*
X145401457Y-120475500D01*
X145495751Y-120456742D01*
X145541620Y-120447619D01*
X145673653Y-120392929D01*
X145792479Y-120313532D01*
X145792483Y-120313527D01*
X145797189Y-120309667D01*
X145798767Y-120311590D01*
X145850516Y-120283334D01*
X145876874Y-120280500D01*
X146201852Y-120280500D01*
X146201868Y-120280501D01*
X146209464Y-120280501D01*
X146367575Y-120280501D01*
X146367578Y-120280501D01*
X146520306Y-120239577D01*
X146598381Y-120194500D01*
X146657237Y-120160520D01*
X146769041Y-120048716D01*
X146769041Y-120048714D01*
X146779245Y-120038511D01*
X146779249Y-120038506D01*
X147178506Y-119639249D01*
X147178511Y-119639245D01*
X147188714Y-119629041D01*
X147188716Y-119629041D01*
X147300520Y-119517237D01*
X147379011Y-119381286D01*
X147379012Y-119381285D01*
X147379014Y-119381286D01*
X147379029Y-119381254D01*
X147379577Y-119380306D01*
X147420501Y-119227578D01*
X147420501Y-119069463D01*
X147420501Y-119061868D01*
X147420500Y-119061850D01*
X147420500Y-118645098D01*
X147440185Y-118578059D01*
X147492989Y-118532304D01*
X147520304Y-118523481D01*
X147552066Y-118517164D01*
X147684099Y-118462474D01*
X147802925Y-118383077D01*
X147903978Y-118282024D01*
X147983375Y-118163198D01*
X148038065Y-118031165D01*
X148065946Y-117891000D01*
X148065946Y-117748090D01*
X148065946Y-117748087D01*
X148038066Y-117607930D01*
X148038065Y-117607929D01*
X148038065Y-117607925D01*
X147983375Y-117475892D01*
X147983374Y-117475891D01*
X147983371Y-117475885D01*
X147903978Y-117357066D01*
X147903975Y-117357062D01*
X147896819Y-117349906D01*
X147863334Y-117288583D01*
X147860500Y-117262225D01*
X147860500Y-107030862D01*
X147860501Y-107030849D01*
X147860501Y-106862746D01*
X147851123Y-106827746D01*
X147819577Y-106710018D01*
X147799369Y-106675016D01*
X147740524Y-106573092D01*
X147740521Y-106573088D01*
X147740520Y-106573086D01*
X147660131Y-106492697D01*
X147628716Y-106461282D01*
X147621651Y-106454217D01*
X147621644Y-106454211D01*
X144024435Y-102857002D01*
X143990950Y-102795679D01*
X143988116Y-102769321D01*
X143988116Y-100504911D01*
X144007801Y-100437872D01*
X144060605Y-100392117D01*
X144129763Y-100382173D01*
X144193319Y-100411198D01*
X144199797Y-100417230D01*
X152088180Y-108305613D01*
X152121665Y-108366936D01*
X152124499Y-108393294D01*
X152124499Y-120334927D01*
X152104814Y-120401966D01*
X152088180Y-120422608D01*
X152053270Y-120457517D01*
X152053267Y-120457521D01*
X151973874Y-120576340D01*
X151973869Y-120576349D01*
X151919181Y-120708379D01*
X151919179Y-120708385D01*
X151891300Y-120848542D01*
X151891300Y-120848545D01*
X151891300Y-120991455D01*
X151891300Y-120991457D01*
X151891299Y-120991457D01*
X151919179Y-121131614D01*
X151919181Y-121131620D01*
X151973869Y-121263650D01*
X151973874Y-121263659D01*
X152053267Y-121382478D01*
X152053270Y-121382482D01*
X152154317Y-121483529D01*
X152154321Y-121483532D01*
X152273140Y-121562925D01*
X152273149Y-121562930D01*
X152303058Y-121575318D01*
X152405180Y-121617619D01*
X152405184Y-121617619D01*
X152405185Y-121617620D01*
X152545342Y-121645500D01*
X152545345Y-121645500D01*
X152688257Y-121645500D01*
X152782551Y-121626742D01*
X152828420Y-121617619D01*
X152895947Y-121589647D01*
X152965415Y-121582178D01*
X152990850Y-121589647D01*
X153020913Y-121602099D01*
X153058374Y-121617617D01*
X153058377Y-121617617D01*
X153058380Y-121617619D01*
X153058384Y-121617619D01*
X153058385Y-121617620D01*
X153198542Y-121645500D01*
X153198545Y-121645500D01*
X153341457Y-121645500D01*
X153435751Y-121626742D01*
X153481620Y-121617619D01*
X153613653Y-121562929D01*
X153732479Y-121483532D01*
X153833532Y-121382479D01*
X153912929Y-121263653D01*
X153967619Y-121131620D01*
X153995500Y-120991455D01*
X153995500Y-120848545D01*
X153995500Y-120848542D01*
X153967620Y-120708385D01*
X153967619Y-120708384D01*
X153967619Y-120708380D01*
X153912929Y-120576347D01*
X153912928Y-120576346D01*
X153912925Y-120576340D01*
X153833532Y-120457521D01*
X153833529Y-120457517D01*
X153805220Y-120429208D01*
X153771735Y-120367885D01*
X153768901Y-120341527D01*
X153768901Y-107821148D01*
X153768901Y-107821146D01*
X153735844Y-107697775D01*
X153727978Y-107668418D01*
X153674287Y-107575423D01*
X153648921Y-107531487D01*
X153537117Y-107419683D01*
X153537114Y-107419681D01*
X145636820Y-99519387D01*
X145603335Y-99458064D01*
X145600501Y-99431706D01*
X145600501Y-89313361D01*
X145620186Y-89246322D01*
X145655610Y-89210259D01*
X145665679Y-89203532D01*
X145766732Y-89102479D01*
X145846129Y-88983653D01*
X145900819Y-88851620D01*
X145915805Y-88776280D01*
X145928700Y-88711457D01*
X145928700Y-88568542D01*
X145900820Y-88428385D01*
X145900819Y-88428384D01*
X145900819Y-88428380D01*
X145846129Y-88296347D01*
X145846128Y-88296346D01*
X145846125Y-88296340D01*
X145766732Y-88177521D01*
X145766729Y-88177517D01*
X145665682Y-88076470D01*
X145665678Y-88076467D01*
X145546859Y-87997074D01*
X145546850Y-87997069D01*
X145414820Y-87942381D01*
X145414814Y-87942379D01*
X145274657Y-87914500D01*
X145274655Y-87914500D01*
X145131745Y-87914500D01*
X145131743Y-87914500D01*
X144991585Y-87942379D01*
X144991584Y-87942379D01*
X144924052Y-87970352D01*
X144854582Y-87977820D01*
X144829148Y-87970352D01*
X144761615Y-87942379D01*
X144621457Y-87914500D01*
X144621455Y-87914500D01*
X144478545Y-87914500D01*
X144478543Y-87914500D01*
X144338385Y-87942379D01*
X144338379Y-87942381D01*
X144206349Y-87997069D01*
X144206340Y-87997074D01*
X144087521Y-88076467D01*
X144087517Y-88076470D01*
X143986470Y-88177517D01*
X143986467Y-88177521D01*
X143907074Y-88296340D01*
X143907069Y-88296349D01*
X143852381Y-88428379D01*
X143852379Y-88428385D01*
X143824500Y-88568542D01*
X143824500Y-88568545D01*
X143824500Y-88711455D01*
X143824500Y-88711457D01*
X143824499Y-88711457D01*
X143852379Y-88851614D01*
X143852381Y-88851620D01*
X143907070Y-88983651D01*
X143928601Y-89015874D01*
X143949480Y-89082551D01*
X143949500Y-89084766D01*
X143949500Y-89600885D01*
X143929815Y-89667924D01*
X143877011Y-89713679D01*
X143807853Y-89723623D01*
X143778048Y-89715446D01*
X143698224Y-89682382D01*
X143698214Y-89682379D01*
X143558057Y-89654500D01*
X143558055Y-89654500D01*
X143415145Y-89654500D01*
X143415143Y-89654500D01*
X143274985Y-89682379D01*
X143274984Y-89682379D01*
X143207452Y-89710352D01*
X143137982Y-89717820D01*
X143112548Y-89710352D01*
X143068080Y-89691933D01*
X143045020Y-89682381D01*
X143045019Y-89682380D01*
X143045015Y-89682379D01*
X142904857Y-89654500D01*
X142904855Y-89654500D01*
X142761945Y-89654500D01*
X142761943Y-89654500D01*
X142621785Y-89682379D01*
X142621779Y-89682381D01*
X142489749Y-89737069D01*
X142489740Y-89737074D01*
X142370921Y-89816467D01*
X142370917Y-89816470D01*
X142269870Y-89917517D01*
X142269867Y-89917521D01*
X142190474Y-90036340D01*
X142190469Y-90036349D01*
X142135781Y-90168379D01*
X142135779Y-90168385D01*
X142121117Y-90242097D01*
X142088732Y-90304008D01*
X142028016Y-90338582D01*
X141958246Y-90334841D01*
X141901575Y-90293975D01*
X141875993Y-90228957D01*
X141875500Y-90217905D01*
X141875500Y-89743295D01*
X141895185Y-89676256D01*
X141911819Y-89655614D01*
X143712955Y-87854478D01*
X145615521Y-85951913D01*
X145694578Y-85814981D01*
X145735502Y-85662254D01*
X145735502Y-85504139D01*
X145735502Y-85496544D01*
X145735501Y-85496526D01*
X145735501Y-81263679D01*
X145755186Y-81196640D01*
X145798702Y-81156487D01*
X145798587Y-81156314D01*
X145799687Y-81155578D01*
X145801056Y-81154316D01*
X145803638Y-81152935D01*
X145803653Y-81152929D01*
X145922479Y-81073532D01*
X146023532Y-80972479D01*
X146032397Y-80959212D01*
X146086008Y-80914406D01*
X146155333Y-80905697D01*
X146218361Y-80935851D01*
G37*
%TD.AperFunction*%
%TA.AperFunction,Conductor*%
G36*
X140115005Y-100105854D02*
G01*
X140143834Y-100107916D01*
X140143835Y-100107916D01*
X140143836Y-100107917D01*
X140171647Y-100128737D01*
X140199767Y-100149788D01*
X140199769Y-100149790D01*
X140211968Y-100182501D01*
X140224184Y-100215252D01*
X140224500Y-100224098D01*
X140224500Y-104506704D01*
X140204815Y-104573743D01*
X140188181Y-104594385D01*
X138244481Y-106538084D01*
X138244479Y-106538086D01*
X138232814Y-106558292D01*
X138224273Y-106573086D01*
X138178101Y-106653058D01*
X138169050Y-106668735D01*
X138165422Y-106675018D01*
X138124498Y-106827746D01*
X138124498Y-106827748D01*
X138124498Y-106995849D01*
X138124499Y-106995862D01*
X138124499Y-121336527D01*
X138124498Y-121336545D01*
X138124498Y-121502251D01*
X138124497Y-121502251D01*
X138155410Y-121617617D01*
X138165422Y-121654982D01*
X138192144Y-121701265D01*
X138194357Y-121705097D01*
X138194358Y-121705101D01*
X138194359Y-121705101D01*
X138244478Y-121791911D01*
X138244480Y-121791914D01*
X138363348Y-121910782D01*
X138363354Y-121910787D01*
X140700385Y-124247819D01*
X140733870Y-124309142D01*
X140728886Y-124378834D01*
X140687014Y-124434767D01*
X140621550Y-124459184D01*
X140612704Y-124459500D01*
X140150865Y-124459500D01*
X140083826Y-124439815D01*
X140063184Y-124423181D01*
X139379358Y-123739355D01*
X139379356Y-123739352D01*
X139260485Y-123620481D01*
X139260484Y-123620480D01*
X139173672Y-123570360D01*
X139173672Y-123570359D01*
X139173668Y-123570358D01*
X139123553Y-123541423D01*
X138970825Y-123500499D01*
X138812711Y-123500499D01*
X138805115Y-123500499D01*
X138805099Y-123500500D01*
X136401097Y-123500500D01*
X136334058Y-123480815D01*
X136313416Y-123464181D01*
X134586819Y-121737584D01*
X134553334Y-121676261D01*
X134550500Y-121649903D01*
X134550500Y-105650096D01*
X134570185Y-105583057D01*
X134586814Y-105562420D01*
X139953713Y-100195521D01*
X139953716Y-100195520D01*
X140012821Y-100136415D01*
X140065015Y-100107916D01*
X140074142Y-100102932D01*
X140074143Y-100102932D01*
X140074145Y-100102931D01*
X140115005Y-100105854D01*
G37*
%TD.AperFunction*%
%TA.AperFunction,Conductor*%
G36*
X138881149Y-88086283D02*
G01*
X138913174Y-88088574D01*
X138915619Y-88090404D01*
X138918650Y-88090767D01*
X138943402Y-88111203D01*
X138969107Y-88130446D01*
X138970173Y-88133306D01*
X138972529Y-88135251D01*
X138982306Y-88165835D01*
X138993524Y-88195910D01*
X138993155Y-88199770D01*
X138993805Y-88201802D01*
X138989615Y-88236847D01*
X138984499Y-88255938D01*
X138984499Y-88424046D01*
X138984500Y-88424059D01*
X138984500Y-92783059D01*
X138964815Y-92850098D01*
X138912011Y-92895853D01*
X138842853Y-92905797D01*
X138779297Y-92876772D01*
X138772819Y-92870740D01*
X138720292Y-92818213D01*
X138720288Y-92818210D01*
X138589185Y-92730609D01*
X138589172Y-92730602D01*
X138443501Y-92670264D01*
X138443489Y-92670261D01*
X138288845Y-92639500D01*
X138288842Y-92639500D01*
X138131158Y-92639500D01*
X138131155Y-92639500D01*
X137976510Y-92670261D01*
X137976507Y-92670262D01*
X137976506Y-92670262D01*
X137976503Y-92670263D01*
X137896372Y-92703454D01*
X137831952Y-92730137D01*
X137762482Y-92737605D01*
X137700003Y-92706329D01*
X137664351Y-92646240D01*
X137660500Y-92615575D01*
X137660500Y-89290097D01*
X137680185Y-89223058D01*
X137696819Y-89202416D01*
X138187780Y-88711455D01*
X138782162Y-88117073D01*
X138784838Y-88115611D01*
X138786428Y-88113004D01*
X138815313Y-88098971D01*
X138843482Y-88083590D01*
X138846526Y-88083807D01*
X138849274Y-88082473D01*
X138881149Y-88086283D01*
G37*
%TD.AperFunction*%
%TA.AperFunction,Conductor*%
G36*
X142080703Y-90448381D02*
G01*
X142118477Y-90507159D01*
X142121117Y-90517902D01*
X142135779Y-90591614D01*
X142135781Y-90591620D01*
X142190469Y-90723650D01*
X142190474Y-90723659D01*
X142269866Y-90842477D01*
X142269867Y-90842478D01*
X142269868Y-90842479D01*
X142295565Y-90868176D01*
X142329050Y-90929497D01*
X142331884Y-90955857D01*
X142331884Y-91450877D01*
X142312199Y-91517916D01*
X142259395Y-91563671D01*
X142190237Y-91573615D01*
X142161357Y-91565817D01*
X142149563Y-91561043D01*
X142128653Y-91547071D01*
X141996620Y-91492381D01*
X141963828Y-91485858D01*
X141952973Y-91481464D01*
X141934399Y-91466741D01*
X141913396Y-91455755D01*
X141907521Y-91445437D01*
X141898217Y-91438063D01*
X141890551Y-91415635D01*
X141878823Y-91395039D01*
X141876397Y-91374227D01*
X141875619Y-91371949D01*
X141875967Y-91370535D01*
X141875500Y-91366524D01*
X141875500Y-90542094D01*
X141895185Y-90475055D01*
X141947989Y-90429300D01*
X142017147Y-90419356D01*
X142080703Y-90448381D01*
G37*
%TD.AperFunction*%
%TA.AperFunction,Conductor*%
G36*
X143667434Y-80019685D02*
G01*
X143713189Y-80072489D01*
X143723133Y-80141647D01*
X143714956Y-80171453D01*
X143662381Y-80298379D01*
X143662379Y-80298385D01*
X143634500Y-80438542D01*
X143634500Y-80438545D01*
X143634500Y-80581455D01*
X143634500Y-80581457D01*
X143634499Y-80581457D01*
X143662379Y-80721614D01*
X143662381Y-80721620D01*
X143717070Y-80853651D01*
X143738601Y-80885874D01*
X143759480Y-80952551D01*
X143759500Y-80954766D01*
X143759500Y-85421704D01*
X143739815Y-85488743D01*
X143723181Y-85509385D01*
X140397181Y-88835385D01*
X140377744Y-88845997D01*
X140361011Y-88860498D01*
X140347679Y-88862414D01*
X140335858Y-88868870D01*
X140313771Y-88867290D01*
X140291853Y-88870442D01*
X140279601Y-88864846D01*
X140266166Y-88863886D01*
X140248439Y-88850615D01*
X140228297Y-88841417D01*
X140221014Y-88830085D01*
X140210233Y-88822014D01*
X140202495Y-88801268D01*
X140190523Y-88782639D01*
X140187371Y-88760720D01*
X140185816Y-88756550D01*
X140185500Y-88747704D01*
X140185500Y-88635096D01*
X140205185Y-88568057D01*
X140221814Y-88547420D01*
X142518506Y-86250727D01*
X142518511Y-86250724D01*
X142528714Y-86240520D01*
X142528716Y-86240520D01*
X142640520Y-86128716D01*
X142710635Y-86007273D01*
X142719577Y-85991785D01*
X142760501Y-85839057D01*
X142760501Y-85680943D01*
X142760501Y-85673348D01*
X142760500Y-85673330D01*
X142760500Y-81089765D01*
X142780185Y-81022726D01*
X142781398Y-81020874D01*
X142869390Y-80889185D01*
X142869390Y-80889184D01*
X142869394Y-80889179D01*
X142929737Y-80743497D01*
X142960500Y-80588842D01*
X142960500Y-80431158D01*
X142960500Y-80431155D01*
X142960499Y-80431153D01*
X142959500Y-80426130D01*
X142929737Y-80276503D01*
X142886224Y-80171452D01*
X142878755Y-80101983D01*
X142910030Y-80039504D01*
X142970119Y-80003852D01*
X143000785Y-80000000D01*
X143600395Y-80000000D01*
X143667434Y-80019685D01*
G37*
%TD.AperFunction*%
%TA.AperFunction,Conductor*%
G36*
X140495703Y-81828228D02*
G01*
X140502181Y-81834260D01*
X140549707Y-81881786D01*
X140549711Y-81881789D01*
X140680814Y-81969390D01*
X140680827Y-81969397D01*
X140789425Y-82014379D01*
X140826503Y-82029737D01*
X140981153Y-82060499D01*
X140981156Y-82060500D01*
X140981158Y-82060500D01*
X141138844Y-82060500D01*
X141138845Y-82060499D01*
X141293497Y-82029737D01*
X141388048Y-81990572D01*
X141457517Y-81983104D01*
X141519996Y-82014379D01*
X141555648Y-82074468D01*
X141559500Y-82105134D01*
X141559500Y-85459902D01*
X141539815Y-85526941D01*
X141523181Y-85547583D01*
X140492840Y-86577923D01*
X140431517Y-86611408D01*
X140361825Y-86606424D01*
X140305892Y-86564552D01*
X140281475Y-86499088D01*
X140281274Y-86484907D01*
X140281859Y-86471306D01*
X140290501Y-86439057D01*
X140290501Y-86280942D01*
X140290500Y-86280938D01*
X140290500Y-81921941D01*
X140310185Y-81854902D01*
X140362989Y-81809147D01*
X140432147Y-81799203D01*
X140495703Y-81828228D01*
G37*
%TD.AperFunction*%
%TA.AperFunction,Conductor*%
G36*
X137039753Y-82865004D02*
G01*
X137048562Y-82863401D01*
X137073079Y-82873511D01*
X137098776Y-82880071D01*
X137104876Y-82886624D01*
X137113155Y-82890038D01*
X137128317Y-82911802D01*
X137146385Y-82931210D01*
X137148719Y-82941088D01*
X137153093Y-82947367D01*
X137153634Y-82961888D01*
X137159500Y-82986711D01*
X137159500Y-85849903D01*
X137139815Y-85916942D01*
X137123181Y-85937584D01*
X136572181Y-86488584D01*
X136510858Y-86522069D01*
X136441166Y-86517085D01*
X136385233Y-86475213D01*
X136360816Y-86409749D01*
X136360500Y-86400903D01*
X136360500Y-86007273D01*
X136360499Y-86007271D01*
X136333207Y-85905413D01*
X136280480Y-85814087D01*
X136205913Y-85739520D01*
X136114587Y-85686793D01*
X136012727Y-85659500D01*
X136012726Y-85659500D01*
X135784500Y-85659500D01*
X135717461Y-85639815D01*
X135671706Y-85587011D01*
X135660500Y-85535500D01*
X135660500Y-84363819D01*
X135661560Y-84347643D01*
X135665169Y-84320238D01*
X135673543Y-84288985D01*
X135680985Y-84271022D01*
X135697165Y-84242998D01*
X135714052Y-84220992D01*
X135724726Y-84208822D01*
X135733029Y-84200521D01*
X135747130Y-84186421D01*
X135747130Y-84186419D01*
X135764564Y-84168987D01*
X135764568Y-84168980D01*
X136812818Y-83120732D01*
X136812826Y-83120710D01*
X136826428Y-83107110D01*
X136892148Y-83008761D01*
X136924298Y-82931149D01*
X136928759Y-82923605D01*
X136948141Y-82905502D01*
X136964783Y-82884853D01*
X136973277Y-82882025D01*
X136979822Y-82875914D01*
X137005915Y-82871164D01*
X137031078Y-82862790D01*
X137039753Y-82865004D01*
G37*
%TD.AperFunction*%
%TD*%
D17*
X135410000Y-128810000D03*
X145330000Y-119750000D03*
X142833400Y-90380000D03*
X132914892Y-128811727D03*
X143486600Y-90380000D03*
X147340446Y-117819545D03*
X141060000Y-81260000D03*
X141060000Y-80360000D03*
X138210000Y-93440000D03*
X145203200Y-88640000D03*
X153270000Y-120920000D03*
X145400000Y-128110000D03*
X141785000Y-92190000D03*
X141080000Y-127970000D03*
X142650000Y-121560000D03*
X136810000Y-83960000D03*
X138460000Y-90810000D03*
X142100000Y-91120000D03*
X156690000Y-149250000D03*
X129150000Y-127940000D03*
X140270000Y-83555000D03*
X156680000Y-137970000D03*
X145940000Y-89430000D03*
X143460000Y-88590000D03*
X136110000Y-85060000D03*
X139300000Y-123730000D03*
X145810000Y-86960000D03*
X146690000Y-128110000D03*
X156000000Y-123630000D03*
X143000000Y-83405000D03*
X143950000Y-123760000D03*
X144002007Y-90853667D03*
X143260000Y-80360000D03*
X149960000Y-123650000D03*
X147830000Y-128110000D03*
X125530000Y-138020000D03*
X140020000Y-127950000D03*
X125500000Y-149270000D03*
X137930000Y-127980000D03*
X145730000Y-83405000D03*
X138980000Y-127960000D03*
X145970000Y-91900000D03*
X140150000Y-92050000D03*
X143200000Y-128120000D03*
X144550000Y-88640000D03*
X152616800Y-120920000D03*
X144360000Y-80510000D03*
X145460000Y-80510000D03*
X138860000Y-80510000D03*
X137760000Y-80510000D03*
X139960000Y-80510000D03*
X142160000Y-80510000D03*
D18*
X152620000Y-134180000D03*
X129820000Y-134180000D03*
D19*
X154345000Y-137980000D03*
X128095000Y-137980000D03*
X154345000Y-149280000D03*
X128095000Y-149280000D03*
M02*
