M48
; DRILL file {KiCad 9.0.2} date 2025-06-23T10:18:23+0800
; FORMAT={-:-/ absolute / metric / decimal}
; #@! TF.CreationDate,2025-06-23T10:18:23+08:00
; #@! TF.GenerationSoftware,Kicad,Pcbnew,9.0.2
; #@! TF.FileFunction,Plated,1,6,PTH
FMAT,2
METRIC
; #@! TA.AperFunction,Plated,PTH,ViaDrill
T1C0.300
; #@! TA.AperFunction,Plated,PTH,ComponentDrill
T2C0.650
%
G90
G05
T1
X125.5Y-149.27
X125.53Y-138.02
X129.15Y-127.94
X132.915Y-128.812
X135.41Y-128.81
X136.11Y-85.06
X136.81Y-83.96
X137.76Y-80.51
X137.93Y-127.98
X138.21Y-93.44
X138.46Y-90.81
X138.86Y-80.51
X138.98Y-127.96
X139.3Y-123.73
X139.96Y-80.51
X140.02Y-127.95
X140.15Y-92.05
X140.27Y-83.555
X141.06Y-80.36
X141.06Y-81.26
X141.08Y-127.97
X141.785Y-92.19
X142.1Y-91.12
X142.16Y-80.51
X142.65Y-121.56
X142.833Y-90.38
X143.0Y-83.405
X143.2Y-128.12
X143.26Y-80.36
X143.46Y-88.59
X143.487Y-90.38
X143.95Y-123.76
X144.002Y-90.854
X144.36Y-80.51
X144.55Y-88.64
X145.203Y-88.64
X145.33Y-119.75
X145.4Y-128.11
X145.46Y-80.51
X145.73Y-83.405
X145.81Y-86.96
X145.94Y-89.43
X145.97Y-91.9
X146.69Y-128.11
X147.34Y-117.82
X147.83Y-128.11
X149.96Y-123.65
X152.617Y-120.92
X153.27Y-120.92
X156.0Y-123.63
X156.68Y-137.97
X156.69Y-149.25
T2
G00X128.095Y-138.68
M15
G01X128.095Y-137.28
M16
G05
G00X128.095Y-149.98
M15
G01X128.095Y-148.58
M16
G05
G00X154.345Y-138.68
M15
G01X154.345Y-137.28
M16
G05
G00X154.345Y-149.98
M15
G01X154.345Y-148.58
M16
G05
M30
