%TF.GenerationSoftware,KiCad,Pcbnew,9.0.2*%
%TF.CreationDate,2025-06-23T10:18:22+08:00*%
%TF.ProjectId,SDEX2M2 MicroSD Express to SD Express Adapter,53444558-324d-4322-904d-6963726f5344,rev?*%
%TF.SameCoordinates,Original*%
%TF.FileFunction,Copper,L1,Top*%
%TF.FilePolarity,Positive*%
%FSLAX46Y46*%
G04 Gerber Fmt 4.6, Leading zero omitted, Abs format (unit mm)*
G04 Created by KiCad (PCBNEW 9.0.2) date 2025-06-23 10:18:22*
%MOMM*%
%LPD*%
G01*
G04 APERTURE LIST*
%TA.AperFunction,SMDPad,CuDef*%
%ADD10R,0.800000X2.900000*%
%TD*%
%TA.AperFunction,SMDPad,CuDef*%
%ADD11R,0.800000X3.200000*%
%TD*%
%TA.AperFunction,SMDPad,CuDef*%
%ADD12R,0.760000X1.670000*%
%TD*%
%TA.AperFunction,SMDPad,CuDef*%
%ADD13R,0.760000X1.370000*%
%TD*%
%TA.AperFunction,ComponentPad*%
%ADD14O,1.158000X2.558000*%
%TD*%
%TA.AperFunction,ViaPad*%
%ADD15C,0.450000*%
%TD*%
%TA.AperFunction,ViaPad*%
%ADD16C,0.600000*%
%TD*%
%TA.AperFunction,Conductor*%
%ADD17C,0.200000*%
%TD*%
%TA.AperFunction,Conductor*%
%ADD18C,0.205232*%
%TD*%
%TA.AperFunction,Conductor*%
%ADD19C,0.300000*%
%TD*%
%TA.AperFunction,Conductor*%
%ADD20C,0.400000*%
%TD*%
%ADD21C,0.300000*%
%ADD22C,0.350000*%
%ADD23O,0.650000X2.050000*%
G04 APERTURE END LIST*
D10*
%TO.P,J1,1,~{CLKREQ}/DAT2*%
%TO.N,/CLKREQ*%
X137760000Y-80510000D03*
%TO.P,J1,2,~{PERST}/DAT3/CD*%
%TO.N,/PERST*%
X138860000Y-80510000D03*
%TO.P,J1,3,CMD*%
%TO.N,/CMD*%
X139960000Y-80510000D03*
D11*
%TO.P,J1,4,3V3*%
%TO.N,Net-(J1-3V3)*%
X141060000Y-80360000D03*
D10*
%TO.P,J1,5,CLK*%
%TO.N,/CLK*%
X142160000Y-80510000D03*
D11*
%TO.P,J1,6,GND*%
%TO.N,GND*%
X143260000Y-80360000D03*
D10*
%TO.P,J1,7,REFCLK+/DAT0*%
%TO.N,/REFCLK+*%
X144360000Y-80510000D03*
%TO.P,J1,8,REFCLK-/DAT1*%
%TO.N,/REFCLK-*%
X145460000Y-80510000D03*
D12*
%TO.P,J1,9,1V8*%
%TO.N,Net-(J1-1V8)*%
X138230000Y-83555000D03*
%TO.P,J1,10,GND*%
%TO.N,GND*%
X140270000Y-83555000D03*
D13*
%TO.P,J1,11,PCIe_TX+*%
%TO.N,/TX+*%
X141180000Y-83405000D03*
%TO.P,J1,12,PCIe_TX-*%
%TO.N,/TX-*%
X142090000Y-83405000D03*
%TO.P,J1,13,GND*%
%TO.N,GND*%
X143000000Y-83405000D03*
%TO.P,J1,14,PCIe_RX-*%
%TO.N,/RX-*%
X143910000Y-83405000D03*
%TO.P,J1,15,PCIe_RX+*%
%TO.N,/RX+*%
X144820000Y-83405000D03*
%TO.P,J1,16,GND*%
%TO.N,GND*%
X145730000Y-83405000D03*
D12*
%TO.P,J1,17,1V2*%
%TO.N,unconnected-(J1-1V2-Pad17)*%
X139360000Y-83555000D03*
%TD*%
D14*
%TO.P,J2,GND1,GND/SHIELD*%
%TO.N,GND*%
X154345000Y-137980000D03*
%TO.P,J2,GND2,GND/SHIELD__1*%
X128095000Y-137980000D03*
%TO.P,J2,GND3,GND/SHIELD__2*%
X154345000Y-149280000D03*
%TO.P,J2,GND4,GND/SHIELD__3*%
X128095000Y-149280000D03*
%TD*%
D15*
%TO.N,/TX+*%
X135410000Y-128810000D03*
X145330000Y-119750000D03*
X142833400Y-90380000D03*
%TO.N,/TX-*%
X132914892Y-128811727D03*
X143486600Y-90380000D03*
X147340446Y-117819545D03*
D16*
%TO.N,Net-(J1-3V3)*%
X141060000Y-81260000D03*
X141060000Y-80360000D03*
X138210000Y-93440000D03*
D15*
%TO.N,/RX+*%
X145203200Y-88640000D03*
X153270000Y-120920000D03*
X145400000Y-128110000D03*
%TO.N,Net-(J1-1V8)*%
X141785000Y-92190000D03*
X141080000Y-127970000D03*
X142650000Y-121560000D03*
D16*
%TO.N,GND*%
X136810000Y-83960000D03*
X138460000Y-90810000D03*
D15*
X142100000Y-91120000D03*
D16*
X156690000Y-149250000D03*
X129150000Y-127940000D03*
X140270000Y-83555000D03*
X156680000Y-137970000D03*
D15*
X145940000Y-89430000D03*
X143460000Y-88590000D03*
D16*
X136110000Y-85060000D03*
X139300000Y-123730000D03*
D15*
X145810000Y-86960000D03*
D16*
X146690000Y-128110000D03*
X156000000Y-123630000D03*
X143000000Y-83405000D03*
X143950000Y-123760000D03*
X144002007Y-90853667D03*
X143260000Y-80360000D03*
X149960000Y-123650000D03*
X147830000Y-128110000D03*
X125530000Y-138020000D03*
X140020000Y-127950000D03*
X125500000Y-149270000D03*
X137930000Y-127980000D03*
X145730000Y-83405000D03*
X138980000Y-127960000D03*
D15*
X145970000Y-91900000D03*
D16*
X140150000Y-92050000D03*
D15*
%TO.N,/RX-*%
X143200000Y-128120000D03*
X144550000Y-88640000D03*
X152616800Y-120920000D03*
%TO.N,/REFCLK+*%
X144360000Y-80510000D03*
%TO.N,/REFCLK-*%
X145460000Y-80510000D03*
D16*
%TO.N,/PERST*%
X138860000Y-80510000D03*
%TO.N,/CLKREQ*%
X137760000Y-80510000D03*
%TO.N,/CMD*%
X139960000Y-80510000D03*
%TO.N,/CLK*%
X142160000Y-80510000D03*
%TD*%
D17*
%TO.N,/TX+*%
X134388310Y-123009888D02*
X137723198Y-119675000D01*
D18*
X142809336Y-89858142D02*
X142136197Y-89185003D01*
D17*
X134388310Y-127788310D02*
X134388310Y-123009888D01*
X135410000Y-128810000D02*
X134388310Y-127788310D01*
D18*
X141180000Y-84432501D02*
X141180000Y-83405000D01*
X142955783Y-90257617D02*
X142955783Y-90211696D01*
D17*
X145255000Y-119675000D02*
X145330000Y-119750000D01*
X137723198Y-119675000D02*
X145255000Y-119675000D01*
D18*
X141430784Y-84683285D02*
X141180000Y-84432501D01*
X142833400Y-90380000D02*
X142955783Y-90257617D01*
X141430784Y-87481985D02*
X141430784Y-84683285D01*
X142955783Y-90211696D02*
G75*
G03*
X142809330Y-89858148I-499983J-4D01*
G01*
X141430784Y-87481985D02*
G75*
G03*
X142136193Y-89185007I2408416J-15D01*
G01*
%TO.N,/TX-*%
X143486600Y-90380000D02*
X143364217Y-90257617D01*
X143364217Y-90257617D02*
X143364217Y-90211696D01*
D17*
X137536802Y-119225000D02*
X146745000Y-119225000D01*
X132914892Y-128811727D02*
X133938308Y-127788310D01*
D18*
X142090000Y-84432501D02*
X142090000Y-83405000D01*
X141839216Y-87481983D02*
X141839216Y-84683285D01*
X143098143Y-89569337D02*
X142425002Y-88896196D01*
D17*
X147280000Y-118690000D02*
X147280000Y-117879991D01*
X146745000Y-119225000D02*
X147280000Y-118690000D01*
D18*
X141839216Y-84683285D02*
X142090000Y-84432501D01*
D17*
X133938308Y-122823494D02*
X137536802Y-119225000D01*
X133938308Y-127788310D02*
X133938308Y-122823494D01*
X147280000Y-117879991D02*
X147340446Y-117819545D01*
D18*
X142425002Y-88896196D02*
G75*
G02*
X141839223Y-87481983I1414198J1414196D01*
G01*
X143098143Y-89569337D02*
G75*
G02*
X143364224Y-90211696I-642343J-642363D01*
G01*
%TO.N,/RX+*%
X145203200Y-88640000D02*
X145053616Y-88490416D01*
X145014217Y-88391996D02*
X145014217Y-88071696D01*
X145014217Y-88071696D02*
X145012437Y-87982399D01*
X144569216Y-87043303D02*
X144569216Y-84683285D01*
X144570679Y-87108936D02*
X144569216Y-87043303D01*
D17*
X146985000Y-123069069D02*
X147409069Y-122645000D01*
X145400000Y-128110000D02*
X145400000Y-126556397D01*
X153270000Y-120975321D02*
X153270000Y-120920000D01*
X145400000Y-126556397D02*
X146985000Y-124971397D01*
D18*
X144569216Y-84683285D02*
X144820000Y-84432501D01*
D17*
X147409069Y-122645000D02*
X151600321Y-122645000D01*
X146985000Y-124971397D02*
X146985000Y-123069069D01*
D18*
X144748143Y-87429337D02*
X144715662Y-87396856D01*
X144820000Y-84432501D02*
X144820000Y-83405000D01*
X145012437Y-87982399D02*
X144977593Y-87807236D01*
X144604655Y-87235730D02*
X144570679Y-87108936D01*
X144977593Y-87807236D02*
X144909247Y-87642237D01*
X145053616Y-88431395D02*
X145014217Y-88391996D01*
D17*
X151600321Y-122645000D02*
X153270000Y-120975321D01*
D18*
X144670290Y-87349408D02*
X144604655Y-87235730D01*
X144715662Y-87396856D02*
X144670290Y-87349408D01*
X144810023Y-87493743D02*
X144748143Y-87429337D01*
X145053616Y-88490416D02*
X145053616Y-88431395D01*
X144909247Y-87642237D02*
X144810023Y-87493743D01*
D17*
%TO.N,Net-(J1-1V8)*%
X142650000Y-121560000D02*
X142650000Y-122240000D01*
X142650000Y-122240000D02*
X141080000Y-123810000D01*
D19*
X141785000Y-91785000D02*
X138230000Y-88230000D01*
X138230000Y-88230000D02*
X138230000Y-83555000D01*
X141785000Y-92190000D02*
X141785000Y-91785000D01*
D17*
X141080000Y-123810000D02*
X141080000Y-127970000D01*
D20*
%TO.N,GND*%
X140270000Y-83555000D02*
X140270000Y-85520000D01*
X143000000Y-83402500D02*
X143000000Y-85337500D01*
X145730000Y-83405000D02*
X145730000Y-84910000D01*
D17*
%TO.N,/RX-*%
X151358603Y-122195000D02*
X152616800Y-120936803D01*
D18*
X143910000Y-84432501D02*
X143910000Y-83405000D01*
X144605783Y-88517617D02*
X144605783Y-88071696D01*
X144160784Y-84683285D02*
X143910000Y-84432501D01*
D17*
X146535000Y-122882673D02*
X147222673Y-122195000D01*
X143200000Y-128120000D02*
X146535000Y-124785000D01*
D18*
X144459336Y-87718142D02*
X144426857Y-87685663D01*
D17*
X146535000Y-124785000D02*
X146535000Y-122882673D01*
X147222673Y-122195000D02*
X151358603Y-122195000D01*
D18*
X144483400Y-88640000D02*
X144605783Y-88517617D01*
X144160784Y-87043305D02*
X144160784Y-84683285D01*
D17*
X152616800Y-120936803D02*
X152616800Y-120920000D01*
D18*
X144605783Y-88071696D02*
G75*
G03*
X144459330Y-87718148I-499983J-4D01*
G01*
X144426857Y-87685663D02*
G75*
G02*
X144160776Y-87043305I642343J642363D01*
G01*
%TD*%
%TA.AperFunction,Conductor*%
%TO.N,GND*%
G36*
X137098853Y-82401504D02*
G01*
X137102147Y-82401031D01*
X137121227Y-82405900D01*
X137125482Y-82406737D01*
X137126663Y-82407150D01*
X137252517Y-82454091D01*
X137264340Y-82455362D01*
X137277839Y-82460089D01*
X137334605Y-82500824D01*
X137360338Y-82565783D01*
X137357536Y-82605626D01*
X137355909Y-82612513D01*
X137349501Y-82672116D01*
X137349500Y-82672135D01*
X137349500Y-84437870D01*
X137349501Y-84437876D01*
X137355908Y-84497483D01*
X137406202Y-84632328D01*
X137406203Y-84632329D01*
X137406204Y-84632331D01*
X137492454Y-84747546D01*
X137529810Y-84775510D01*
X137571682Y-84831443D01*
X137579500Y-84874777D01*
X137579500Y-88294069D01*
X137579500Y-88294071D01*
X137579499Y-88294071D01*
X137603664Y-88415550D01*
X137604496Y-88419733D01*
X137604498Y-88419740D01*
X137604499Y-88419744D01*
X137653535Y-88538127D01*
X137724723Y-88644669D01*
X137724726Y-88644673D01*
X137724727Y-88644674D01*
X141035711Y-91955656D01*
X141069196Y-92016979D01*
X141069648Y-92067527D01*
X141059500Y-92118545D01*
X141059500Y-92261455D01*
X141059500Y-92261457D01*
X141059499Y-92261457D01*
X141087379Y-92401614D01*
X141087381Y-92401620D01*
X141142069Y-92533650D01*
X141142074Y-92533659D01*
X141221467Y-92652478D01*
X141221470Y-92652482D01*
X141322517Y-92753529D01*
X141322521Y-92753532D01*
X141441340Y-92832925D01*
X141441346Y-92832928D01*
X141441347Y-92832929D01*
X141573380Y-92887619D01*
X141573384Y-92887619D01*
X141573385Y-92887620D01*
X141713542Y-92915500D01*
X141713545Y-92915500D01*
X141856457Y-92915500D01*
X141950751Y-92896742D01*
X141996620Y-92887619D01*
X142128653Y-92832929D01*
X142247479Y-92753532D01*
X142348532Y-92652479D01*
X142427929Y-92533653D01*
X142482619Y-92401620D01*
X142510500Y-92261455D01*
X142510500Y-92118545D01*
X142510500Y-92118542D01*
X142482620Y-91978385D01*
X142482619Y-91978384D01*
X142482619Y-91978380D01*
X142482617Y-91978375D01*
X142444939Y-91887410D01*
X142435500Y-91839958D01*
X142435500Y-91720928D01*
X142410502Y-91595261D01*
X142410501Y-91595260D01*
X142410501Y-91595256D01*
X142361465Y-91476873D01*
X142361464Y-91476872D01*
X142361461Y-91476866D01*
X142290277Y-91370332D01*
X142290276Y-91370331D01*
X142199669Y-91279724D01*
X138916819Y-87996873D01*
X138883334Y-87935550D01*
X138880500Y-87909192D01*
X138880500Y-85014499D01*
X138900185Y-84947460D01*
X138952989Y-84901705D01*
X139004495Y-84890499D01*
X139787872Y-84890499D01*
X139804096Y-84888755D01*
X139830604Y-84888755D01*
X139842177Y-84889999D01*
X139842178Y-84890000D01*
X140701149Y-84890000D01*
X140701149Y-84891015D01*
X140765029Y-84906111D01*
X140813544Y-84956391D01*
X140827668Y-85013865D01*
X140827668Y-87568942D01*
X140827674Y-87569039D01*
X140827674Y-87629929D01*
X140835454Y-87708928D01*
X140856673Y-87924387D01*
X140856673Y-87924390D01*
X140914398Y-88214605D01*
X141000293Y-88497767D01*
X141113524Y-88771131D01*
X141113531Y-88771145D01*
X141253010Y-89032095D01*
X141417404Y-89278128D01*
X141605119Y-89506860D01*
X141649243Y-89550983D01*
X141649262Y-89551004D01*
X142115521Y-90017262D01*
X142149006Y-90078585D01*
X142144022Y-90148276D01*
X142142404Y-90152389D01*
X142135781Y-90168380D01*
X142135779Y-90168386D01*
X142107900Y-90308542D01*
X142107900Y-90308545D01*
X142107900Y-90451455D01*
X142107900Y-90451457D01*
X142107899Y-90451457D01*
X142135779Y-90591614D01*
X142135781Y-90591620D01*
X142190469Y-90723650D01*
X142190474Y-90723659D01*
X142269867Y-90842478D01*
X142269870Y-90842482D01*
X142370917Y-90943529D01*
X142370921Y-90943532D01*
X142489740Y-91022925D01*
X142489749Y-91022930D01*
X142519658Y-91035318D01*
X142621780Y-91077619D01*
X142621784Y-91077619D01*
X142621785Y-91077620D01*
X142761942Y-91105500D01*
X142761945Y-91105500D01*
X142904857Y-91105500D01*
X142999151Y-91086742D01*
X143045020Y-91077619D01*
X143112547Y-91049647D01*
X143182015Y-91042178D01*
X143207450Y-91049647D01*
X143237513Y-91062099D01*
X143274974Y-91077617D01*
X143274977Y-91077617D01*
X143274980Y-91077619D01*
X143274984Y-91077619D01*
X143274985Y-91077620D01*
X143415142Y-91105500D01*
X143415145Y-91105500D01*
X143558057Y-91105500D01*
X143652351Y-91086742D01*
X143698220Y-91077619D01*
X143830253Y-91022929D01*
X143949079Y-90943532D01*
X144050132Y-90842479D01*
X144129529Y-90723653D01*
X144184219Y-90591620D01*
X144212100Y-90451455D01*
X144212100Y-90308545D01*
X144212100Y-90308542D01*
X144184220Y-90168385D01*
X144184219Y-90168384D01*
X144184219Y-90168380D01*
X144129529Y-90036347D01*
X144129528Y-90036346D01*
X144129525Y-90036340D01*
X144050132Y-89917521D01*
X144050129Y-89917517D01*
X143949082Y-89816470D01*
X143949077Y-89816466D01*
X143946079Y-89814463D01*
X143944862Y-89813007D01*
X143944371Y-89812604D01*
X143944447Y-89812510D01*
X143901273Y-89760852D01*
X143895193Y-89743452D01*
X143890190Y-89724781D01*
X143890189Y-89724776D01*
X143814360Y-89541714D01*
X143814354Y-89541705D01*
X143814353Y-89541701D01*
X143715293Y-89370129D01*
X143715282Y-89370112D01*
X143690347Y-89337617D01*
X143594660Y-89212917D01*
X143594658Y-89212915D01*
X143594655Y-89212911D01*
X143524605Y-89142864D01*
X142854351Y-88472610D01*
X142848804Y-88466688D01*
X142736353Y-88338462D01*
X142726479Y-88325594D01*
X142633998Y-88187186D01*
X142625888Y-88173138D01*
X142552262Y-88023838D01*
X142546054Y-88008852D01*
X142492545Y-87851214D01*
X142488348Y-87835548D01*
X142465388Y-87720118D01*
X142455873Y-87672283D01*
X142453758Y-87656224D01*
X142442596Y-87485903D01*
X142442332Y-87477805D01*
X142442333Y-87408757D01*
X142442332Y-87408752D01*
X142442332Y-84984466D01*
X142462017Y-84917427D01*
X142478651Y-84896785D01*
X142500659Y-84874777D01*
X142572613Y-84802823D01*
X142652014Y-84665295D01*
X142652014Y-84665293D01*
X142656077Y-84658257D01*
X142657510Y-84659084D01*
X142695332Y-84612147D01*
X142761625Y-84590079D01*
X142766056Y-84590000D01*
X143233944Y-84590000D01*
X143300983Y-84609685D01*
X143343355Y-84658584D01*
X143343923Y-84658257D01*
X143345624Y-84661203D01*
X143346738Y-84662489D01*
X143347878Y-84665107D01*
X143347985Y-84665293D01*
X143347986Y-84665295D01*
X143395473Y-84747546D01*
X143427386Y-84802821D01*
X143427388Y-84802824D01*
X143521349Y-84896785D01*
X143554834Y-84958108D01*
X143557668Y-84984466D01*
X143557668Y-86970072D01*
X143557667Y-86970077D01*
X143557667Y-86985894D01*
X143557667Y-86991941D01*
X143557659Y-86991968D01*
X143557660Y-87142381D01*
X143583426Y-87338071D01*
X143583526Y-87338831D01*
X143634811Y-87530225D01*
X143710640Y-87713287D01*
X143710641Y-87713288D01*
X143710646Y-87713299D01*
X143809706Y-87884871D01*
X143809712Y-87884880D01*
X143809715Y-87884885D01*
X143930341Y-88042083D01*
X143946275Y-88058017D01*
X143979762Y-88119339D01*
X143974779Y-88189030D01*
X143961698Y-88214591D01*
X143907074Y-88296340D01*
X143907069Y-88296349D01*
X143852381Y-88428379D01*
X143852379Y-88428385D01*
X143824500Y-88568542D01*
X143824500Y-88568545D01*
X143824500Y-88711455D01*
X143824500Y-88711457D01*
X143824499Y-88711457D01*
X143852379Y-88851614D01*
X143852381Y-88851620D01*
X143907069Y-88983650D01*
X143907074Y-88983659D01*
X143986467Y-89102478D01*
X143986470Y-89102482D01*
X144087517Y-89203529D01*
X144087521Y-89203532D01*
X144206340Y-89282925D01*
X144206349Y-89282930D01*
X144236258Y-89295318D01*
X144338380Y-89337619D01*
X144338384Y-89337619D01*
X144338385Y-89337620D01*
X144478542Y-89365500D01*
X144478545Y-89365500D01*
X144621457Y-89365500D01*
X144715751Y-89346742D01*
X144761620Y-89337619D01*
X144829147Y-89309647D01*
X144898615Y-89302178D01*
X144924050Y-89309647D01*
X144954113Y-89322099D01*
X144991574Y-89337617D01*
X144991577Y-89337617D01*
X144991580Y-89337619D01*
X144991584Y-89337619D01*
X144991585Y-89337620D01*
X145131742Y-89365500D01*
X145131745Y-89365500D01*
X145274657Y-89365500D01*
X145368951Y-89346742D01*
X145414820Y-89337619D01*
X145546853Y-89282929D01*
X145665679Y-89203532D01*
X145766732Y-89102479D01*
X145846129Y-88983653D01*
X145900819Y-88851620D01*
X145928700Y-88711455D01*
X145928700Y-88568545D01*
X145928700Y-88568542D01*
X145900820Y-88428385D01*
X145900819Y-88428384D01*
X145900819Y-88428380D01*
X145846129Y-88296347D01*
X145846128Y-88296346D01*
X145846125Y-88296340D01*
X145766732Y-88177521D01*
X145766729Y-88177517D01*
X145665679Y-88076467D01*
X145662725Y-88074043D01*
X145661592Y-88072380D01*
X145661372Y-88072160D01*
X145661413Y-88072118D01*
X145643620Y-88045998D01*
X145624050Y-88018287D01*
X145623882Y-88017023D01*
X145623389Y-88016299D01*
X145617505Y-87983605D01*
X145617209Y-87976846D01*
X145619454Y-87942607D01*
X145614658Y-87918498D01*
X145614244Y-87909030D01*
X145614401Y-87908391D01*
X145614151Y-87906090D01*
X145613851Y-87890993D01*
X145600402Y-87844530D01*
X145597901Y-87834262D01*
X145596530Y-87827372D01*
X145572970Y-87708928D01*
X145565184Y-87649788D01*
X145557530Y-87631311D01*
X145553628Y-87611692D01*
X145529031Y-87561816D01*
X145525684Y-87554428D01*
X145515659Y-87530225D01*
X145474006Y-87429668D01*
X145454829Y-87373175D01*
X145443718Y-87356547D01*
X145436066Y-87338073D01*
X145436065Y-87338071D01*
X145402219Y-87293963D01*
X145397493Y-87287368D01*
X145328763Y-87184510D01*
X145325814Y-87180096D01*
X145299946Y-87133147D01*
X145281870Y-87114333D01*
X145267376Y-87092642D01*
X145243484Y-87071690D01*
X145237082Y-87065660D01*
X145231100Y-87059611D01*
X145230756Y-87059015D01*
X145208436Y-87036695D01*
X145208167Y-87036423D01*
X145191756Y-87005970D01*
X145175166Y-86975587D01*
X145175111Y-86975082D01*
X145175022Y-86974916D01*
X145175052Y-86974526D01*
X145172332Y-86949229D01*
X145172332Y-84984466D01*
X145192017Y-84917427D01*
X145208651Y-84896785D01*
X145230659Y-84874777D01*
X145302613Y-84802823D01*
X145382014Y-84665295D01*
X145382014Y-84665293D01*
X145386077Y-84658257D01*
X145387510Y-84659084D01*
X145425332Y-84612147D01*
X145491625Y-84590079D01*
X145496056Y-84590000D01*
X146135500Y-84590000D01*
X146202539Y-84609685D01*
X146248294Y-84662489D01*
X146259500Y-84714000D01*
X146259500Y-92920118D01*
X146259500Y-99412153D01*
X146258125Y-99448193D01*
X146259500Y-99451907D01*
X146259500Y-99455867D01*
X146272405Y-99487024D01*
X146274115Y-99491387D01*
X146285815Y-99522993D01*
X146289074Y-99528298D01*
X146289569Y-99529104D01*
X146313833Y-99553368D01*
X146317112Y-99556774D01*
X146340027Y-99581507D01*
X146340029Y-99581507D01*
X146345083Y-99585171D01*
X146345084Y-99585172D01*
X146345836Y-99585717D01*
X146377546Y-99598851D01*
X146381879Y-99600743D01*
X158227288Y-105045316D01*
X158279979Y-105091198D01*
X158299500Y-105157983D01*
X158299500Y-169745500D01*
X158279815Y-169812539D01*
X158227011Y-169858294D01*
X158175500Y-169869500D01*
X123724512Y-169869500D01*
X123657473Y-169849815D01*
X123611718Y-169797011D01*
X123600512Y-169745495D01*
X123601295Y-149478633D01*
X123601333Y-148495081D01*
X127016000Y-148495081D01*
X127016000Y-149030000D01*
X127770000Y-149030000D01*
X127770000Y-149530000D01*
X127016000Y-149530000D01*
X127016000Y-150064918D01*
X127042568Y-150232666D01*
X127095053Y-150394196D01*
X127172159Y-150545522D01*
X127271979Y-150682914D01*
X127271983Y-150682919D01*
X127392080Y-150803016D01*
X127392085Y-150803020D01*
X127529477Y-150902840D01*
X127680805Y-150979946D01*
X127842336Y-151032431D01*
X127845000Y-151032853D01*
X127845000Y-150189618D01*
X127895446Y-150240064D01*
X127969555Y-150282851D01*
X128052213Y-150305000D01*
X128137787Y-150305000D01*
X128220445Y-150282851D01*
X128294554Y-150240064D01*
X128345000Y-150189618D01*
X128345000Y-151032853D01*
X128347663Y-151032431D01*
X128509194Y-150979946D01*
X128660522Y-150902840D01*
X128797914Y-150803020D01*
X128797919Y-150803016D01*
X128918016Y-150682919D01*
X128918020Y-150682914D01*
X129017840Y-150545522D01*
X129094946Y-150394196D01*
X129147431Y-150232666D01*
X129174000Y-150064918D01*
X129174000Y-149530000D01*
X128420000Y-149530000D01*
X128420000Y-149030000D01*
X129174000Y-149030000D01*
X129174000Y-148495081D01*
X153266000Y-148495081D01*
X153266000Y-149030000D01*
X154020000Y-149030000D01*
X154020000Y-149530000D01*
X153266000Y-149530000D01*
X153266000Y-150064918D01*
X153292568Y-150232666D01*
X153345053Y-150394196D01*
X153422159Y-150545522D01*
X153521979Y-150682914D01*
X153521983Y-150682919D01*
X153642080Y-150803016D01*
X153642085Y-150803020D01*
X153779477Y-150902840D01*
X153930805Y-150979946D01*
X154092336Y-151032431D01*
X154095000Y-151032853D01*
X154095000Y-150189618D01*
X154145446Y-150240064D01*
X154219555Y-150282851D01*
X154302213Y-150305000D01*
X154387787Y-150305000D01*
X154470445Y-150282851D01*
X154544554Y-150240064D01*
X154595000Y-150189618D01*
X154595000Y-151032853D01*
X154597663Y-151032431D01*
X154759194Y-150979946D01*
X154910522Y-150902840D01*
X155047914Y-150803020D01*
X155047919Y-150803016D01*
X155168016Y-150682919D01*
X155168020Y-150682914D01*
X155267840Y-150545522D01*
X155344946Y-150394196D01*
X155397431Y-150232666D01*
X155424000Y-150064918D01*
X155424000Y-149530000D01*
X154670000Y-149530000D01*
X154670000Y-149030000D01*
X155424000Y-149030000D01*
X155424000Y-148495081D01*
X155397431Y-148327333D01*
X155344946Y-148165803D01*
X155267840Y-148014477D01*
X155168020Y-147877085D01*
X155168016Y-147877080D01*
X155047919Y-147756983D01*
X155047914Y-147756979D01*
X154910522Y-147657159D01*
X154759194Y-147580053D01*
X154597666Y-147527569D01*
X154595000Y-147527145D01*
X154595000Y-148370382D01*
X154544554Y-148319936D01*
X154470445Y-148277149D01*
X154387787Y-148255000D01*
X154302213Y-148255000D01*
X154219555Y-148277149D01*
X154145446Y-148319936D01*
X154095000Y-148370382D01*
X154095000Y-147527145D01*
X154094999Y-147527145D01*
X154092333Y-147527569D01*
X153930805Y-147580053D01*
X153779477Y-147657159D01*
X153642085Y-147756979D01*
X153642080Y-147756983D01*
X153521983Y-147877080D01*
X153521979Y-147877085D01*
X153422159Y-148014477D01*
X153345053Y-148165803D01*
X153292568Y-148327333D01*
X153266000Y-148495081D01*
X129174000Y-148495081D01*
X129147431Y-148327333D01*
X129094946Y-148165803D01*
X129017840Y-148014477D01*
X128918020Y-147877085D01*
X128918016Y-147877080D01*
X128797919Y-147756983D01*
X128797914Y-147756979D01*
X128660522Y-147657159D01*
X128509194Y-147580053D01*
X128347666Y-147527569D01*
X128345000Y-147527145D01*
X128345000Y-148370382D01*
X128294554Y-148319936D01*
X128220445Y-148277149D01*
X128137787Y-148255000D01*
X128052213Y-148255000D01*
X127969555Y-148277149D01*
X127895446Y-148319936D01*
X127845000Y-148370382D01*
X127845000Y-147527145D01*
X127844999Y-147527145D01*
X127842333Y-147527569D01*
X127680805Y-147580053D01*
X127529477Y-147657159D01*
X127392085Y-147756979D01*
X127392080Y-147756983D01*
X127271983Y-147877080D01*
X127271979Y-147877085D01*
X127172159Y-148014477D01*
X127095053Y-148165803D01*
X127042568Y-148327333D01*
X127016000Y-148495081D01*
X123601333Y-148495081D01*
X123601333Y-148490204D01*
X123601731Y-138178633D01*
X123601769Y-137195081D01*
X127016000Y-137195081D01*
X127016000Y-137730000D01*
X127770000Y-137730000D01*
X127770000Y-138230000D01*
X127016000Y-138230000D01*
X127016000Y-138764918D01*
X127042568Y-138932666D01*
X127095053Y-139094196D01*
X127172159Y-139245522D01*
X127271979Y-139382914D01*
X127271983Y-139382919D01*
X127392080Y-139503016D01*
X127392085Y-139503020D01*
X127529477Y-139602840D01*
X127680805Y-139679946D01*
X127842336Y-139732431D01*
X127845000Y-139732853D01*
X127845000Y-138889618D01*
X127895446Y-138940064D01*
X127969555Y-138982851D01*
X128052213Y-139005000D01*
X128137787Y-139005000D01*
X128220445Y-138982851D01*
X128294554Y-138940064D01*
X128345000Y-138889618D01*
X128345000Y-139732853D01*
X128347663Y-139732431D01*
X128509194Y-139679946D01*
X128660522Y-139602840D01*
X128797914Y-139503020D01*
X128797919Y-139503016D01*
X128918016Y-139382919D01*
X128918020Y-139382914D01*
X129017840Y-139245522D01*
X129094946Y-139094196D01*
X129147431Y-138932666D01*
X129174000Y-138764918D01*
X129174000Y-138230000D01*
X128420000Y-138230000D01*
X128420000Y-137730000D01*
X129174000Y-137730000D01*
X129174000Y-137195081D01*
X153266000Y-137195081D01*
X153266000Y-137730000D01*
X154020000Y-137730000D01*
X154020000Y-138230000D01*
X153266000Y-138230000D01*
X153266000Y-138764918D01*
X153292568Y-138932666D01*
X153345053Y-139094196D01*
X153422159Y-139245522D01*
X153521979Y-139382914D01*
X153521983Y-139382919D01*
X153642080Y-139503016D01*
X153642085Y-139503020D01*
X153779477Y-139602840D01*
X153930805Y-139679946D01*
X154092336Y-139732431D01*
X154095000Y-139732853D01*
X154095000Y-138889618D01*
X154145446Y-138940064D01*
X154219555Y-138982851D01*
X154302213Y-139005000D01*
X154387787Y-139005000D01*
X154470445Y-138982851D01*
X154544554Y-138940064D01*
X154595000Y-138889618D01*
X154595000Y-139732853D01*
X154597663Y-139732431D01*
X154759194Y-139679946D01*
X154910522Y-139602840D01*
X155047914Y-139503020D01*
X155047919Y-139503016D01*
X155168016Y-139382919D01*
X155168020Y-139382914D01*
X155267840Y-139245522D01*
X155344946Y-139094196D01*
X155397431Y-138932666D01*
X155424000Y-138764918D01*
X155424000Y-138230000D01*
X154670000Y-138230000D01*
X154670000Y-137730000D01*
X155424000Y-137730000D01*
X155424000Y-137195081D01*
X155397431Y-137027333D01*
X155344946Y-136865803D01*
X155267840Y-136714477D01*
X155168020Y-136577085D01*
X155168016Y-136577080D01*
X155047919Y-136456983D01*
X155047914Y-136456979D01*
X154910522Y-136357159D01*
X154759194Y-136280053D01*
X154597666Y-136227569D01*
X154595000Y-136227145D01*
X154595000Y-137070382D01*
X154544554Y-137019936D01*
X154470445Y-136977149D01*
X154387787Y-136955000D01*
X154302213Y-136955000D01*
X154219555Y-136977149D01*
X154145446Y-137019936D01*
X154095000Y-137070382D01*
X154095000Y-136227145D01*
X154094999Y-136227145D01*
X154092333Y-136227569D01*
X153930805Y-136280053D01*
X153779477Y-136357159D01*
X153642085Y-136456979D01*
X153642080Y-136456983D01*
X153521983Y-136577080D01*
X153521979Y-136577085D01*
X153422159Y-136714477D01*
X153345053Y-136865803D01*
X153292568Y-137027333D01*
X153266000Y-137195081D01*
X129174000Y-137195081D01*
X129147431Y-137027333D01*
X129094946Y-136865803D01*
X129017840Y-136714477D01*
X128918020Y-136577085D01*
X128918016Y-136577080D01*
X128797919Y-136456983D01*
X128797914Y-136456979D01*
X128660522Y-136357159D01*
X128509194Y-136280053D01*
X128347666Y-136227569D01*
X128345000Y-136227145D01*
X128345000Y-137070382D01*
X128294554Y-137019936D01*
X128220445Y-136977149D01*
X128137787Y-136955000D01*
X128052213Y-136955000D01*
X127969555Y-136977149D01*
X127895446Y-137019936D01*
X127845000Y-137070382D01*
X127845000Y-136227145D01*
X127844999Y-136227145D01*
X127842333Y-136227569D01*
X127680805Y-136280053D01*
X127529477Y-136357159D01*
X127392085Y-136456979D01*
X127392080Y-136456983D01*
X127271983Y-136577080D01*
X127271979Y-136577085D01*
X127172159Y-136714477D01*
X127095053Y-136865803D01*
X127042568Y-137027333D01*
X127016000Y-137195081D01*
X123601769Y-137195081D01*
X123601769Y-137190204D01*
X123601889Y-134089448D01*
X128669500Y-134089448D01*
X128669500Y-134270551D01*
X128697829Y-134449410D01*
X128753787Y-134621636D01*
X128753788Y-134621639D01*
X128836006Y-134782997D01*
X128942441Y-134929494D01*
X128942445Y-134929499D01*
X129070500Y-135057554D01*
X129070505Y-135057558D01*
X129198287Y-135150396D01*
X129217006Y-135163996D01*
X129322484Y-135217740D01*
X129378360Y-135246211D01*
X129378363Y-135246212D01*
X129464476Y-135274191D01*
X129550591Y-135302171D01*
X129633429Y-135315291D01*
X129729449Y-135330500D01*
X129729454Y-135330500D01*
X129910551Y-135330500D01*
X129997259Y-135316765D01*
X130089409Y-135302171D01*
X130261639Y-135246211D01*
X130422994Y-135163996D01*
X130569501Y-135057553D01*
X130697553Y-134929501D01*
X130803996Y-134782994D01*
X130886211Y-134621639D01*
X130942171Y-134449409D01*
X130956765Y-134357259D01*
X130970500Y-134270551D01*
X130970500Y-134089448D01*
X151469500Y-134089448D01*
X151469500Y-134270551D01*
X151497829Y-134449410D01*
X151553787Y-134621636D01*
X151553788Y-134621639D01*
X151636006Y-134782997D01*
X151742441Y-134929494D01*
X151742445Y-134929499D01*
X151870500Y-135057554D01*
X151870505Y-135057558D01*
X151998287Y-135150396D01*
X152017006Y-135163996D01*
X152122484Y-135217740D01*
X152178360Y-135246211D01*
X152178363Y-135246212D01*
X152264476Y-135274191D01*
X152350591Y-135302171D01*
X152433429Y-135315291D01*
X152529449Y-135330500D01*
X152529454Y-135330500D01*
X152710551Y-135330500D01*
X152797259Y-135316765D01*
X152889409Y-135302171D01*
X153061639Y-135246211D01*
X153222994Y-135163996D01*
X153369501Y-135057553D01*
X153497553Y-134929501D01*
X153603996Y-134782994D01*
X153686211Y-134621639D01*
X153742171Y-134449409D01*
X153756765Y-134357259D01*
X153770500Y-134270551D01*
X153770500Y-134089448D01*
X153754019Y-133985397D01*
X153742171Y-133910591D01*
X153686211Y-133738361D01*
X153686211Y-133738360D01*
X153657740Y-133682484D01*
X153603996Y-133577006D01*
X153590396Y-133558287D01*
X153497558Y-133430505D01*
X153497554Y-133430500D01*
X153369499Y-133302445D01*
X153369494Y-133302441D01*
X153222997Y-133196006D01*
X153222996Y-133196005D01*
X153222994Y-133196004D01*
X153171300Y-133169664D01*
X153061639Y-133113788D01*
X153061636Y-133113787D01*
X152889410Y-133057829D01*
X152710551Y-133029500D01*
X152710546Y-133029500D01*
X152529454Y-133029500D01*
X152529449Y-133029500D01*
X152350589Y-133057829D01*
X152178363Y-133113787D01*
X152178360Y-133113788D01*
X152017002Y-133196006D01*
X151870505Y-133302441D01*
X151870500Y-133302445D01*
X151742445Y-133430500D01*
X151742441Y-133430505D01*
X151636006Y-133577002D01*
X151553788Y-133738360D01*
X151553787Y-133738363D01*
X151497829Y-133910589D01*
X151469500Y-134089448D01*
X130970500Y-134089448D01*
X130954019Y-133985397D01*
X130942171Y-133910591D01*
X130886211Y-133738361D01*
X130886211Y-133738360D01*
X130857740Y-133682484D01*
X130803996Y-133577006D01*
X130790396Y-133558287D01*
X130697558Y-133430505D01*
X130697554Y-133430500D01*
X130569499Y-133302445D01*
X130569494Y-133302441D01*
X130422997Y-133196006D01*
X130422996Y-133196005D01*
X130422994Y-133196004D01*
X130371300Y-133169664D01*
X130261639Y-133113788D01*
X130261636Y-133113787D01*
X130089410Y-133057829D01*
X129910551Y-133029500D01*
X129910546Y-133029500D01*
X129729454Y-133029500D01*
X129729449Y-133029500D01*
X129550589Y-133057829D01*
X129378363Y-133113787D01*
X129378360Y-133113788D01*
X129217002Y-133196006D01*
X129070505Y-133302441D01*
X129070500Y-133302445D01*
X128942445Y-133430500D01*
X128942441Y-133430505D01*
X128836006Y-133577002D01*
X128753788Y-133738360D01*
X128753787Y-133738363D01*
X128697829Y-133910589D01*
X128669500Y-134089448D01*
X123601889Y-134089448D01*
X123601889Y-134084577D01*
X123602064Y-129537227D01*
X123602089Y-128883184D01*
X132189391Y-128883184D01*
X132217271Y-129023341D01*
X132217273Y-129023347D01*
X132271961Y-129155377D01*
X132271966Y-129155386D01*
X132351359Y-129274205D01*
X132351362Y-129274209D01*
X132452409Y-129375256D01*
X132452413Y-129375259D01*
X132571232Y-129454652D01*
X132571238Y-129454655D01*
X132571239Y-129454656D01*
X132703272Y-129509346D01*
X132703276Y-129509346D01*
X132703277Y-129509347D01*
X132843434Y-129537227D01*
X132843437Y-129537227D01*
X132986349Y-129537227D01*
X133080643Y-129518469D01*
X133126512Y-129509346D01*
X133258545Y-129454656D01*
X133377371Y-129375259D01*
X133478424Y-129274206D01*
X133557821Y-129155380D01*
X133612511Y-129023347D01*
X133620072Y-128985333D01*
X133652455Y-128923424D01*
X133653950Y-128921902D01*
X134075628Y-128500225D01*
X134136951Y-128466740D01*
X134206643Y-128471724D01*
X134250990Y-128500225D01*
X134670883Y-128920118D01*
X134704368Y-128981441D01*
X134704819Y-128983607D01*
X134712379Y-129021614D01*
X134712380Y-129021618D01*
X134767069Y-129153650D01*
X134767074Y-129153659D01*
X134846467Y-129272478D01*
X134846470Y-129272482D01*
X134947517Y-129373529D01*
X134947521Y-129373532D01*
X135066340Y-129452925D01*
X135066349Y-129452930D01*
X135096258Y-129465318D01*
X135198380Y-129507619D01*
X135198384Y-129507619D01*
X135198385Y-129507620D01*
X135338542Y-129535500D01*
X135338545Y-129535500D01*
X135481457Y-129535500D01*
X135575751Y-129516742D01*
X135621620Y-129507619D01*
X135753653Y-129452929D01*
X135872479Y-129373532D01*
X135973532Y-129272479D01*
X136052929Y-129153653D01*
X136107619Y-129021620D01*
X136127466Y-128921844D01*
X136135500Y-128881457D01*
X136135500Y-128738542D01*
X136107620Y-128598385D01*
X136107619Y-128598384D01*
X136107619Y-128598380D01*
X136053645Y-128468076D01*
X136052930Y-128466349D01*
X136052925Y-128466340D01*
X135973532Y-128347521D01*
X135973529Y-128347517D01*
X135872482Y-128246470D01*
X135872478Y-128246467D01*
X135753659Y-128167074D01*
X135753650Y-128167069D01*
X135621618Y-128112380D01*
X135621614Y-128112379D01*
X135583607Y-128104819D01*
X135566850Y-128096053D01*
X135548372Y-128092034D01*
X135523335Y-128073291D01*
X135521696Y-128072434D01*
X135520118Y-128070883D01*
X135490692Y-128041457D01*
X140354499Y-128041457D01*
X140382379Y-128181614D01*
X140382381Y-128181620D01*
X140437069Y-128313650D01*
X140437074Y-128313659D01*
X140516467Y-128432478D01*
X140516470Y-128432482D01*
X140617517Y-128533529D01*
X140617521Y-128533532D01*
X140736340Y-128612925D01*
X140736346Y-128612928D01*
X140736347Y-128612929D01*
X140868380Y-128667619D01*
X140868384Y-128667619D01*
X140868385Y-128667620D01*
X141008542Y-128695500D01*
X141008545Y-128695500D01*
X141151457Y-128695500D01*
X141245751Y-128676742D01*
X141291620Y-128667619D01*
X141423653Y-128612929D01*
X141542479Y-128533532D01*
X141643532Y-128432479D01*
X141722929Y-128313653D01*
X141773544Y-128191457D01*
X142474499Y-128191457D01*
X142502379Y-128331614D01*
X142502381Y-128331620D01*
X142557069Y-128463650D01*
X142557074Y-128463659D01*
X142636467Y-128582478D01*
X142636470Y-128582482D01*
X142737517Y-128683529D01*
X142737521Y-128683532D01*
X142856340Y-128762925D01*
X142856346Y-128762928D01*
X142856347Y-128762929D01*
X142988380Y-128817619D01*
X142988384Y-128817619D01*
X142988385Y-128817620D01*
X143128542Y-128845500D01*
X143128545Y-128845500D01*
X143271457Y-128845500D01*
X143365751Y-128826742D01*
X143411620Y-128817619D01*
X143543653Y-128762929D01*
X143662479Y-128683532D01*
X143763532Y-128582479D01*
X143842929Y-128463653D01*
X143897619Y-128331620D01*
X143905180Y-128293606D01*
X143937563Y-128231697D01*
X143939056Y-128230177D01*
X144580039Y-127589195D01*
X144641361Y-127555711D01*
X144711053Y-127560695D01*
X144766986Y-127602567D01*
X144791403Y-127668031D01*
X144776551Y-127736304D01*
X144770822Y-127745766D01*
X144757071Y-127766346D01*
X144702381Y-127898379D01*
X144702379Y-127898385D01*
X144674500Y-128038542D01*
X144674500Y-128038545D01*
X144674500Y-128181455D01*
X144674500Y-128181457D01*
X144674499Y-128181457D01*
X144702379Y-128321614D01*
X144702381Y-128321620D01*
X144757069Y-128453650D01*
X144757074Y-128453659D01*
X144836467Y-128572478D01*
X144836470Y-128572482D01*
X144937517Y-128673529D01*
X144937521Y-128673532D01*
X145056340Y-128752925D01*
X145056346Y-128752928D01*
X145056347Y-128752929D01*
X145188380Y-128807619D01*
X145188384Y-128807619D01*
X145188385Y-128807620D01*
X145328542Y-128835500D01*
X145328545Y-128835500D01*
X145471457Y-128835500D01*
X145565751Y-128816742D01*
X145611620Y-128807619D01*
X145743653Y-128752929D01*
X145862479Y-128673532D01*
X145963532Y-128572479D01*
X146042929Y-128453653D01*
X146097619Y-128321620D01*
X146115506Y-128231697D01*
X146125500Y-128181457D01*
X146125500Y-128038542D01*
X146097620Y-127898385D01*
X146097619Y-127898384D01*
X146097619Y-127898380D01*
X146042929Y-127766347D01*
X146021396Y-127734121D01*
X146000520Y-127667444D01*
X146000500Y-127665232D01*
X146000500Y-126856493D01*
X146020185Y-126789454D01*
X146036814Y-126768817D01*
X147343506Y-125462124D01*
X147343511Y-125462121D01*
X147353714Y-125451917D01*
X147353716Y-125451917D01*
X147465520Y-125340113D01*
X147544577Y-125203181D01*
X147585500Y-125050454D01*
X147585500Y-123369500D01*
X147605185Y-123302461D01*
X147657989Y-123256706D01*
X147709500Y-123245500D01*
X151513652Y-123245500D01*
X151513668Y-123245501D01*
X151521264Y-123245501D01*
X151679375Y-123245501D01*
X151679378Y-123245501D01*
X151832106Y-123204577D01*
X151882225Y-123175639D01*
X151969037Y-123125520D01*
X152080841Y-123013716D01*
X152080841Y-123013714D01*
X152091049Y-123003507D01*
X152091050Y-123003504D01*
X153456186Y-121638369D01*
X153496410Y-121611492D01*
X153613653Y-121562929D01*
X153732479Y-121483532D01*
X153833532Y-121382479D01*
X153912929Y-121263653D01*
X153967619Y-121131620D01*
X153976742Y-121085751D01*
X153995500Y-120991457D01*
X153995500Y-120848542D01*
X153967620Y-120708385D01*
X153967619Y-120708381D01*
X153967619Y-120708380D01*
X153912929Y-120576347D01*
X153912928Y-120576346D01*
X153912925Y-120576340D01*
X153833532Y-120457521D01*
X153833529Y-120457517D01*
X153732482Y-120356470D01*
X153732478Y-120356467D01*
X153613659Y-120277074D01*
X153613650Y-120277069D01*
X153481620Y-120222381D01*
X153481614Y-120222379D01*
X153341457Y-120194500D01*
X153341455Y-120194500D01*
X153198545Y-120194500D01*
X153198543Y-120194500D01*
X153058385Y-120222379D01*
X153058384Y-120222379D01*
X152990852Y-120250352D01*
X152921382Y-120257820D01*
X152895948Y-120250352D01*
X152828415Y-120222379D01*
X152688257Y-120194500D01*
X152688255Y-120194500D01*
X152545345Y-120194500D01*
X152545343Y-120194500D01*
X152405185Y-120222379D01*
X152405179Y-120222381D01*
X152273149Y-120277069D01*
X152273140Y-120277074D01*
X152154321Y-120356467D01*
X152154317Y-120356470D01*
X152053270Y-120457517D01*
X152053267Y-120457521D01*
X151973874Y-120576340D01*
X151973869Y-120576349D01*
X151919180Y-120708381D01*
X151919179Y-120708385D01*
X151907447Y-120767366D01*
X151875062Y-120829277D01*
X151873511Y-120830855D01*
X151146187Y-121558181D01*
X151084864Y-121591666D01*
X151058506Y-121594500D01*
X147143613Y-121594500D01*
X147102692Y-121605464D01*
X147102692Y-121605465D01*
X147080203Y-121611491D01*
X146990887Y-121635423D01*
X146990882Y-121635426D01*
X146853963Y-121714475D01*
X146853955Y-121714481D01*
X146054481Y-122513955D01*
X146054475Y-122513963D01*
X146011415Y-122588547D01*
X146011415Y-122588549D01*
X145975423Y-122650887D01*
X145975423Y-122650888D01*
X145934499Y-122803616D01*
X145934499Y-122803618D01*
X145934499Y-122971719D01*
X145934500Y-122971732D01*
X145934500Y-124484902D01*
X145914815Y-124551941D01*
X145898181Y-124572583D01*
X143089880Y-127380883D01*
X143028557Y-127414368D01*
X143026392Y-127414819D01*
X142988383Y-127422379D01*
X142988381Y-127422380D01*
X142856349Y-127477069D01*
X142856340Y-127477074D01*
X142737521Y-127556467D01*
X142737517Y-127556470D01*
X142636470Y-127657517D01*
X142636467Y-127657521D01*
X142557074Y-127776340D01*
X142557069Y-127776349D01*
X142502381Y-127908379D01*
X142502379Y-127908385D01*
X142474500Y-128048542D01*
X142474500Y-128048545D01*
X142474500Y-128191455D01*
X142474500Y-128191457D01*
X142474499Y-128191457D01*
X141773544Y-128191457D01*
X141777619Y-128181620D01*
X141791392Y-128112379D01*
X141805500Y-128041457D01*
X141805500Y-127898542D01*
X141777620Y-127758385D01*
X141777619Y-127758384D01*
X141777619Y-127758380D01*
X141722929Y-127626347D01*
X141701396Y-127594121D01*
X141680520Y-127527444D01*
X141680500Y-127525232D01*
X141680500Y-124110096D01*
X141700185Y-124043057D01*
X141716814Y-124022420D01*
X143008506Y-122730727D01*
X143008511Y-122730724D01*
X143018714Y-122720520D01*
X143018716Y-122720520D01*
X143130520Y-122608716D01*
X143185229Y-122513957D01*
X143209577Y-122471785D01*
X143250500Y-122319058D01*
X143250500Y-122160943D01*
X143250500Y-122004766D01*
X143270185Y-121937727D01*
X143271399Y-121935874D01*
X143292929Y-121903653D01*
X143347619Y-121771620D01*
X143358986Y-121714475D01*
X143375500Y-121631457D01*
X143375500Y-121488542D01*
X143347620Y-121348385D01*
X143347619Y-121348384D01*
X143347619Y-121348380D01*
X143292929Y-121216347D01*
X143292928Y-121216346D01*
X143292925Y-121216340D01*
X143213532Y-121097521D01*
X143213529Y-121097517D01*
X143112482Y-120996470D01*
X143112478Y-120996467D01*
X142993659Y-120917074D01*
X142993650Y-120917069D01*
X142861620Y-120862381D01*
X142861614Y-120862379D01*
X142721457Y-120834500D01*
X142721455Y-120834500D01*
X142578545Y-120834500D01*
X142578543Y-120834500D01*
X142438385Y-120862379D01*
X142438379Y-120862381D01*
X142306349Y-120917069D01*
X142306340Y-120917074D01*
X142187521Y-120996467D01*
X142187517Y-120996470D01*
X142086470Y-121097517D01*
X142086467Y-121097521D01*
X142007074Y-121216340D01*
X142007069Y-121216349D01*
X141952381Y-121348379D01*
X141952379Y-121348385D01*
X141924500Y-121488542D01*
X141924500Y-121488545D01*
X141924500Y-121631455D01*
X141924500Y-121631457D01*
X141924499Y-121631457D01*
X141952379Y-121771614D01*
X141952381Y-121771620D01*
X142007068Y-121903648D01*
X142009011Y-121907281D01*
X142023259Y-121975682D01*
X141998265Y-122040928D01*
X141987339Y-122053425D01*
X140599481Y-123441282D01*
X140599479Y-123441285D01*
X140549361Y-123528094D01*
X140549359Y-123528096D01*
X140520425Y-123578209D01*
X140520424Y-123578210D01*
X140520423Y-123578215D01*
X140479499Y-123730943D01*
X140479499Y-123730945D01*
X140479499Y-123899046D01*
X140479500Y-123899059D01*
X140479500Y-127525232D01*
X140459815Y-127592271D01*
X140458603Y-127594122D01*
X140437070Y-127626348D01*
X140382381Y-127758379D01*
X140382379Y-127758385D01*
X140354500Y-127898542D01*
X140354500Y-127898545D01*
X140354500Y-128041455D01*
X140354500Y-128041457D01*
X140354499Y-128041457D01*
X135490692Y-128041457D01*
X135025129Y-127575894D01*
X134991644Y-127514571D01*
X134988810Y-127488213D01*
X134988810Y-123309985D01*
X135008495Y-123242946D01*
X135025129Y-123222304D01*
X137935614Y-120311819D01*
X137996937Y-120278334D01*
X138023295Y-120275500D01*
X144778126Y-120275500D01*
X144845165Y-120295185D01*
X144865807Y-120311819D01*
X144867517Y-120313529D01*
X144867521Y-120313532D01*
X144986340Y-120392925D01*
X144986346Y-120392928D01*
X144986347Y-120392929D01*
X145118380Y-120447619D01*
X145118384Y-120447619D01*
X145118385Y-120447620D01*
X145258542Y-120475500D01*
X145258545Y-120475500D01*
X145401457Y-120475500D01*
X145495751Y-120456742D01*
X145541620Y-120447619D01*
X145673653Y-120392929D01*
X145792479Y-120313532D01*
X145893532Y-120212479D01*
X145972929Y-120093653D01*
X146027619Y-119961620D01*
X146034842Y-119925309D01*
X146067226Y-119863398D01*
X146127942Y-119828824D01*
X146156459Y-119825500D01*
X146658331Y-119825500D01*
X146658347Y-119825501D01*
X146665943Y-119825501D01*
X146824054Y-119825501D01*
X146824057Y-119825501D01*
X146976785Y-119784577D01*
X147029647Y-119754057D01*
X147029648Y-119754057D01*
X147113709Y-119705524D01*
X147113708Y-119705524D01*
X147113716Y-119705520D01*
X147225520Y-119593716D01*
X147225520Y-119593714D01*
X147235724Y-119583511D01*
X147235728Y-119583506D01*
X147648713Y-119170521D01*
X147648716Y-119170520D01*
X147760520Y-119058716D01*
X147810639Y-118971904D01*
X147839577Y-118921785D01*
X147880500Y-118769058D01*
X147880500Y-118610943D01*
X147880500Y-118354776D01*
X147900185Y-118287737D01*
X147901398Y-118285885D01*
X147983371Y-118163204D01*
X147983371Y-118163203D01*
X147983375Y-118163198D01*
X148038065Y-118031165D01*
X148065946Y-117891000D01*
X148065946Y-117748090D01*
X148065946Y-117748087D01*
X148038066Y-117607930D01*
X148038065Y-117607929D01*
X148038065Y-117607925D01*
X147983375Y-117475892D01*
X147983374Y-117475891D01*
X147983371Y-117475885D01*
X147903978Y-117357066D01*
X147903975Y-117357062D01*
X147802928Y-117256015D01*
X147802924Y-117256012D01*
X147684105Y-117176619D01*
X147684096Y-117176614D01*
X147552066Y-117121926D01*
X147552060Y-117121924D01*
X147411903Y-117094045D01*
X147411901Y-117094045D01*
X147268991Y-117094045D01*
X147268989Y-117094045D01*
X147128831Y-117121924D01*
X147128825Y-117121926D01*
X146996795Y-117176614D01*
X146996786Y-117176619D01*
X146877967Y-117256012D01*
X146877963Y-117256015D01*
X146776916Y-117357062D01*
X146776913Y-117357066D01*
X146697520Y-117475885D01*
X146697515Y-117475894D01*
X146642827Y-117607924D01*
X146642825Y-117607930D01*
X146614946Y-117748087D01*
X146614946Y-117748090D01*
X146614946Y-117891000D01*
X146614946Y-117891002D01*
X146614945Y-117891002D01*
X146642825Y-118031159D01*
X146642827Y-118031165D01*
X146670061Y-118096913D01*
X146671687Y-118105090D01*
X146674477Y-118109431D01*
X146679500Y-118144366D01*
X146679500Y-118389903D01*
X146659815Y-118456942D01*
X146643181Y-118477584D01*
X146532584Y-118588181D01*
X146471261Y-118621666D01*
X146444903Y-118624500D01*
X137623471Y-118624500D01*
X137623455Y-118624499D01*
X137615859Y-118624499D01*
X137457745Y-118624499D01*
X137350389Y-118653265D01*
X137305012Y-118665424D01*
X137305011Y-118665425D01*
X137254898Y-118694359D01*
X137254897Y-118694360D01*
X137211491Y-118719420D01*
X137168087Y-118744479D01*
X137168084Y-118744481D01*
X133457789Y-122454776D01*
X133457785Y-122454781D01*
X133414724Y-122529367D01*
X133414724Y-122529368D01*
X133378731Y-122591708D01*
X133365089Y-122642618D01*
X133337807Y-122744437D01*
X133337807Y-122744439D01*
X133337807Y-122912540D01*
X133337808Y-122912553D01*
X133337808Y-127488212D01*
X133318123Y-127555251D01*
X133301489Y-127575893D01*
X132804771Y-128072610D01*
X132743448Y-128106095D01*
X132741283Y-128106546D01*
X132703276Y-128114106D01*
X132703273Y-128114107D01*
X132571241Y-128168796D01*
X132571232Y-128168801D01*
X132452413Y-128248194D01*
X132452409Y-128248197D01*
X132351362Y-128349244D01*
X132351359Y-128349248D01*
X132271966Y-128468067D01*
X132271961Y-128468076D01*
X132217273Y-128600106D01*
X132217271Y-128600112D01*
X132189392Y-128740269D01*
X132189392Y-128740272D01*
X132189392Y-128883182D01*
X132189392Y-128883184D01*
X132189391Y-128883184D01*
X123602089Y-128883184D01*
X123603005Y-105158104D01*
X123622692Y-105091070D01*
X123675277Y-105045418D01*
X135540199Y-99599785D01*
X135573574Y-99585961D01*
X135576332Y-99583201D01*
X135579879Y-99581574D01*
X135579880Y-99581572D01*
X135579882Y-99581572D01*
X135602882Y-99556774D01*
X135606059Y-99553474D01*
X135629976Y-99529559D01*
X135629978Y-99529552D01*
X135633390Y-99524446D01*
X135633391Y-99524445D01*
X135633404Y-99524425D01*
X135633909Y-99523668D01*
X135634122Y-99523092D01*
X135634124Y-99523091D01*
X135646683Y-99489222D01*
X135660500Y-99455867D01*
X135660500Y-99451965D01*
X135661858Y-99448304D01*
X135660587Y-99414537D01*
X135660500Y-99409875D01*
X135660500Y-93361153D01*
X137409500Y-93361153D01*
X137409500Y-93518846D01*
X137440261Y-93673489D01*
X137440264Y-93673501D01*
X137500602Y-93819172D01*
X137500609Y-93819185D01*
X137588210Y-93950288D01*
X137588213Y-93950292D01*
X137699707Y-94061786D01*
X137699711Y-94061789D01*
X137830814Y-94149390D01*
X137830827Y-94149397D01*
X137976498Y-94209735D01*
X137976503Y-94209737D01*
X138131153Y-94240499D01*
X138131156Y-94240500D01*
X138131158Y-94240500D01*
X138288844Y-94240500D01*
X138288845Y-94240499D01*
X138443497Y-94209737D01*
X138589179Y-94149394D01*
X138720289Y-94061789D01*
X138831789Y-93950289D01*
X138919394Y-93819179D01*
X138979737Y-93673497D01*
X139010500Y-93518842D01*
X139010500Y-93361158D01*
X139010500Y-93361155D01*
X139010499Y-93361153D01*
X138979738Y-93206510D01*
X138979737Y-93206503D01*
X138979735Y-93206498D01*
X138919397Y-93060827D01*
X138919390Y-93060814D01*
X138831789Y-92929711D01*
X138831786Y-92929707D01*
X138720292Y-92818213D01*
X138720288Y-92818210D01*
X138589185Y-92730609D01*
X138589172Y-92730602D01*
X138443501Y-92670264D01*
X138443489Y-92670261D01*
X138288845Y-92639500D01*
X138288842Y-92639500D01*
X138131158Y-92639500D01*
X138131155Y-92639500D01*
X137976510Y-92670261D01*
X137976498Y-92670264D01*
X137830827Y-92730602D01*
X137830814Y-92730609D01*
X137699711Y-92818210D01*
X137699707Y-92818213D01*
X137588213Y-92929707D01*
X137588210Y-92929711D01*
X137500609Y-93060814D01*
X137500602Y-93060827D01*
X137440264Y-93206498D01*
X137440261Y-93206510D01*
X137409500Y-93361153D01*
X135660500Y-93361153D01*
X135660500Y-92999884D01*
X135660501Y-92999882D01*
X135660500Y-87894410D01*
X135680185Y-87827372D01*
X135696819Y-87806730D01*
X135934607Y-87568942D01*
X136212818Y-87290732D01*
X136212818Y-87290730D01*
X136222406Y-87281143D01*
X136222451Y-87281085D01*
X136226428Y-87277110D01*
X136292148Y-87178761D01*
X136337418Y-87069479D01*
X136360498Y-86953466D01*
X136360498Y-86934200D01*
X136360500Y-86934197D01*
X136360500Y-86874437D01*
X136360501Y-86854441D01*
X136360500Y-86854438D01*
X136360500Y-86020118D01*
X136360500Y-86007273D01*
X136333207Y-85905413D01*
X136280480Y-85814087D01*
X136205913Y-85739520D01*
X136114587Y-85686793D01*
X136012727Y-85659500D01*
X136012726Y-85659500D01*
X135784500Y-85659500D01*
X135717461Y-85639815D01*
X135671706Y-85587011D01*
X135660500Y-85535500D01*
X135660500Y-84363819D01*
X135661560Y-84347643D01*
X135665169Y-84320238D01*
X135673543Y-84288985D01*
X135680985Y-84271022D01*
X135697165Y-84242998D01*
X135714048Y-84220997D01*
X135724728Y-84208820D01*
X135736067Y-84197483D01*
X135747130Y-84186421D01*
X135747130Y-84186420D01*
X135764563Y-84168989D01*
X135764568Y-84168980D01*
X136812818Y-83120732D01*
X136812818Y-83120730D01*
X136822406Y-83111143D01*
X136822451Y-83111085D01*
X136826428Y-83107110D01*
X136892148Y-83008761D01*
X136937418Y-82899479D01*
X136960498Y-82783466D01*
X136960498Y-82775941D01*
X136960498Y-82764199D01*
X136960500Y-82764197D01*
X136960500Y-82724307D01*
X136960501Y-82684441D01*
X136960500Y-82684438D01*
X136960500Y-82523769D01*
X136968806Y-82495481D01*
X136974492Y-82466549D01*
X136978539Y-82462335D01*
X136980185Y-82456730D01*
X137002464Y-82437424D01*
X137022891Y-82416157D01*
X137028574Y-82414800D01*
X137032989Y-82410975D01*
X137062171Y-82406779D01*
X137090850Y-82399932D01*
X137098853Y-82401504D01*
G37*
%TD.AperFunction*%
%TD*%
D21*
X135410000Y-128810000D03*
X145330000Y-119750000D03*
X142833400Y-90380000D03*
X132914892Y-128811727D03*
X143486600Y-90380000D03*
X147340446Y-117819545D03*
X141060000Y-81260000D03*
X141060000Y-80360000D03*
X138210000Y-93440000D03*
X145203200Y-88640000D03*
X153270000Y-120920000D03*
X145400000Y-128110000D03*
X141785000Y-92190000D03*
X141080000Y-127970000D03*
X142650000Y-121560000D03*
X136810000Y-83960000D03*
X138460000Y-90810000D03*
X142100000Y-91120000D03*
X156690000Y-149250000D03*
X129150000Y-127940000D03*
X140270000Y-83555000D03*
X156680000Y-137970000D03*
X145940000Y-89430000D03*
X143460000Y-88590000D03*
X136110000Y-85060000D03*
X139300000Y-123730000D03*
X145810000Y-86960000D03*
X146690000Y-128110000D03*
X156000000Y-123630000D03*
X143000000Y-83405000D03*
X143950000Y-123760000D03*
X144002007Y-90853667D03*
X143260000Y-80360000D03*
X149960000Y-123650000D03*
X147830000Y-128110000D03*
X125530000Y-138020000D03*
X140020000Y-127950000D03*
X125500000Y-149270000D03*
X137930000Y-127980000D03*
X145730000Y-83405000D03*
X138980000Y-127960000D03*
X145970000Y-91900000D03*
X140150000Y-92050000D03*
X143200000Y-128120000D03*
X144550000Y-88640000D03*
X152616800Y-120920000D03*
X144360000Y-80510000D03*
X145460000Y-80510000D03*
X138860000Y-80510000D03*
X137760000Y-80510000D03*
X139960000Y-80510000D03*
X142160000Y-80510000D03*
D22*
X152620000Y-134180000D03*
X129820000Y-134180000D03*
D23*
X154345000Y-137980000D03*
X128095000Y-137980000D03*
X154345000Y-149280000D03*
X128095000Y-149280000D03*
M02*
